<svg width="500" height="500" viewBox="0 0 500 500" fill="none" xmlns="http://www.w3.org/2000/svg">
<path d="M332.005 447.927L184.906 362.999C179.236 359.725 179.239 351.54 184.912 348.271L199.422 339.124C204.518 336.187 210.794 336.19 215.888 339.131L362.987 424.058C368.657 427.332 368.654 435.517 362.981 438.787L348.47 447.934C343.375 450.871 337.099 450.868 332.005 447.927Z" fill="#E0E0E0"/>
<path d="M327.523 437.779L198.155 363.089C189.027 357.819 181.628 343.681 181.628 331.511V54.491C181.628 42.321 189.028 36.727 198.155 41.997L327.523 116.687C336.651 121.957 344.05 136.095 344.05 148.265V425.284C344.051 437.455 336.651 443.049 327.523 437.779Z" fill="#455A64"/>
<path d="M342.42 108.004L213.053 33.3142C209.15 31.0612 205.566 30.7992 202.739 32.1832L202.736 32.1852C202.389 32.3552 202.053 32.5512 201.729 32.7702L187.236 41.1962C190.149 39.4552 193.97 39.5802 198.157 41.9982L327.525 116.688C336.653 121.958 344.052 136.096 344.052 148.266V425.285C344.052 431.719 341.983 436.313 338.684 438.438L352.987 430.106L352.985 430.104C356.628 428.165 358.948 423.415 358.948 416.602V139.582C358.948 127.412 351.548 113.274 342.42 108.004Z" fill="#37474F"/>
<path d="M344.051 148.266V425.285C344.051 431.719 341.982 436.313 338.683 438.438L352.986 430.106L352.984 430.104C356.627 428.165 358.947 423.415 358.947 416.602V139.582C358.947 139.575 358.947 139.567 358.947 139.56L344.049 148.21C344.05 148.229 344.051 148.247 344.051 148.266Z" fill="#263238"/>
<path d="M358.948 161.088L344.051 169.689V176.405L358.948 167.804V161.088Z" fill="#37474F"/>
<path d="M352.421 205.781C351.088 206.55 350.008 205.734 350.008 203.957V189.51C350.008 187.733 351.088 185.669 352.421 184.9C353.754 184.131 354.834 184.947 354.834 186.724V201.171C354.833 202.948 353.753 205.012 352.421 205.781Z" fill="#37474F"/>
<path d="M350.008 203.957V189.51C350.008 187.733 351.088 185.669 352.421 184.9C353.002 184.565 353.527 184.546 353.943 184.761L353.946 184.744L352.144 183.809L352.141 183.824C351.719 183.585 351.177 183.595 350.577 183.941C349.245 184.711 348.164 186.775 348.164 188.551V202.998C348.164 203.957 348.485 204.623 348.984 204.924L348.981 204.939L350.873 205.925L350.876 205.908C350.35 205.624 350.008 204.947 350.008 203.957Z" fill="#455A64"/>
<path d="M352.421 240.755C351.088 241.524 350.008 240.708 350.008 238.931V224.484C350.008 222.707 351.088 220.643 352.421 219.874C353.754 219.105 354.834 219.921 354.834 221.698V236.145C354.833 237.922 353.753 239.986 352.421 240.755Z" fill="#37474F"/>
<path d="M350.008 238.931V224.484C350.008 222.707 351.088 220.643 352.421 219.874C353.002 219.539 353.527 219.52 353.943 219.735L353.946 219.718L352.144 218.783L352.141 218.798C351.719 218.559 351.177 218.569 350.577 218.915C349.245 219.685 348.164 221.748 348.164 223.525V237.972C348.164 238.931 348.485 239.597 348.984 239.898L348.981 239.913L350.873 240.899L350.876 240.882C350.35 240.598 350.008 239.921 350.008 238.931Z" fill="#455A64"/>
<path d="M323.026 124.478L195.884 51.0592C193.546 49.7092 190.624 51.3962 190.624 54.0952V331.51C190.624 340.774 197.188 352.143 205.21 356.774L329.262 428.396C331.837 429.882 335.055 428.024 335.055 425.052V145.313C335.055 137.674 329.642 128.298 323.026 124.478Z" fill="#BA68C8"/>
<path opacity="0.9" d="M323.026 124.478L195.884 51.0592C193.546 49.7092 190.624 51.3962 190.624 54.0952V331.51C190.624 340.774 197.188 352.143 205.21 356.774L329.262 428.396C331.837 429.882 335.055 428.024 335.055 425.052V145.313C335.055 137.674 329.642 128.298 323.026 124.478Z" fill="white"/>
<path d="M233.901 70.2261L235.87 78.5221L278.011 102.819L285.287 98.9401L233.901 70.2261Z" fill="#455A64"/>
<path d="M246.285 78.2411C246.285 79.6171 245.319 80.1741 244.128 79.4861C242.937 78.7981 241.971 77.1261 241.971 75.7501C241.971 74.3751 242.937 73.8171 244.128 74.5051C245.32 75.1931 246.285 76.8661 246.285 78.2411Z" fill="#263238"/>
<path d="M274.677 95.789C274.453 95.789 274.228 95.734 274.02 95.617L252.496 83.59C251.846 83.226 251.613 82.404 251.976 81.754C252.34 81.103 253.163 80.871 253.812 81.234L275.336 93.261C275.986 93.625 276.219 94.447 275.856 95.097C275.609 95.539 275.15 95.789 274.677 95.789Z" fill="#263238"/>
<path d="M217.275 108.798C215.965 108.042 215.016 108.699 215.016 110.372C215.016 112.063 215.965 113.835 217.275 114.591C218.053 115.041 219.036 115.05 219.752 114.582L221.841 118.36C220.625 119.187 218.771 119.106 217.088 118.134C213.738 116.2 211.308 112.044 211.308 108.284C211.308 104.578 213.801 103.319 217.229 105.298C218.896 106.261 220.718 108.213 221.841 110.264L219.752 111.919C219.098 110.516 218.116 109.284 217.275 108.798Z" fill="#407BFF"/>
<path d="M233.868 121.329C233.868 125.071 231.345 126.367 227.87 124.361C224.396 122.355 221.872 118.163 221.872 114.403C221.872 110.661 224.396 109.438 227.87 111.444C231.345 113.449 233.868 117.604 233.868 121.329ZM225.58 116.562C225.58 118.289 226.67 120.196 227.917 120.916C229.164 121.636 230.161 120.934 230.161 119.207C230.161 117.479 229.164 115.663 227.917 114.943C226.655 114.214 225.58 114.834 225.58 116.562Z" fill="#407BFF"/>
<path d="M237.904 117.362L242.219 126.33V119.853L245.49 121.742V134.353L242.469 132.608L238.168 123.685V130.126L234.881 128.228V115.617L237.904 117.362Z" fill="#407BFF"/>
<path d="M256.18 127.913V131.205L253.064 129.406V138.725L249.45 136.638V127.319L246.349 125.529V122.236L256.18 127.913Z" fill="#407BFF"/>
<path d="M263.222 142.811L259.124 140.445L258.564 141.902L254.857 139.761L259.468 129.812L263.176 131.953L267.615 147.128L263.767 144.906L263.222 142.811ZM262.334 139.312L261.213 134.976L260.06 137.999L262.334 139.312Z" fill="#407BFF"/>
<path d="M273.351 141.173C272.041 140.417 271.092 141.074 271.092 142.747C271.092 144.438 272.041 146.21 273.351 146.966C274.129 147.416 275.112 147.425 275.828 146.957L277.917 150.735C276.701 151.562 274.847 151.481 273.164 150.509C269.814 148.575 267.384 144.419 267.384 140.659C267.384 136.953 269.877 135.694 273.305 137.673C274.972 138.636 276.794 140.588 277.917 142.639L275.828 144.294C275.173 142.891 274.192 141.659 273.351 141.173Z" fill="#407BFF"/>
<path d="M287.777 146.156V149.448L284.662 147.649V156.968L281.048 154.881V145.562L277.947 143.772V140.48L287.777 146.156Z" fill="#407BFF"/>
<path d="M298.451 161.638C299.339 162.151 300.024 161.755 300.024 160.495V153.227L303.639 155.314V162.582C303.639 165.929 301.598 166.927 298.435 165.101C295.256 163.266 293.154 159.875 293.154 156.529V149.261L296.768 151.348V158.616C296.769 159.856 297.548 161.116 298.451 161.638Z" fill="#407BFF"/>
<path d="M309.467 161.683C309.062 161.45 308.797 161.44 308.797 161.818C308.797 163.401 314.452 165.678 314.452 170.247C314.452 173.054 312.317 173.061 309.855 171.64C307.955 170.543 305.836 168.583 304.386 166.469L305.727 164.111C306.848 165.838 308.78 167.836 309.886 168.474C310.416 168.781 310.759 168.78 310.759 168.329C310.759 166.692 305.104 164.506 305.104 160.081C305.104 157.563 306.942 157.042 309.777 158.678C311.506 159.677 313.298 161.305 314.53 162.915L313.221 165.325C312.115 163.985 310.417 162.231 309.467 161.683Z" fill="#407BFF"/>
<path d="M199.089 170.941C202.699 166.515 204.866 160.866 204.866 154.709C204.866 140.515 193.36 129.009 179.166 129.009C164.972 129.009 153.466 140.515 153.466 154.709C153.466 168.903 164.972 180.409 179.166 180.409C183.987 180.409 188.496 179.079 192.352 176.769L204.867 182.204L199.089 170.941Z" fill="#407BFF"/>
<path opacity="0.4" d="M199.089 170.941C202.699 166.515 204.866 160.866 204.866 154.709C204.866 140.515 193.36 129.009 179.166 129.009C164.972 129.009 153.466 140.515 153.466 154.709C153.466 168.903 164.972 180.409 179.166 180.409C183.987 180.409 188.496 179.079 192.352 176.769L204.867 182.204L199.089 170.941Z" fill="black"/>
<path d="M169.652 153.343C169.652 152.946 169.371 152.732 168.858 152.732C167.982 152.732 166.826 153.311 165.702 154.219L164.281 151.459C165.933 150.319 167.635 149.641 169.454 149.641C171.849 149.641 173.668 150.897 173.668 152.781C173.668 154.119 172.692 155.409 171.387 156.698L169.603 158.466H173.833V161.407H164.744L164.727 158.994L168.776 154.813C169.255 154.318 169.652 153.74 169.652 153.343Z" fill="white"/>
<path d="M181.231 149.807L178.471 156.433H179.595V154.202H183.081V156.433H184.403V159.16H183.081V161.407H179.595V159.16H174.654V156.681L177.629 149.807H181.231Z" fill="white"/>
<path d="M195.141 155.641V161.408H191.423V156.715C191.423 155.955 190.993 155.476 190.349 155.476C189.622 155.476 189.16 156.055 189.16 156.93V161.409H185.441V149.147H189.16V153.658C189.771 152.733 190.713 152.204 191.903 152.204C193.803 152.203 195.141 153.558 195.141 155.641Z" fill="white"/>
<path d="M316.437 248.564V372.81C316.437 378.982 309.754 382.844 304.41 379.753L237.487 341.111L225.633 334.274C223.129 332.83 220.915 331.01 219.047 328.911C214.704 324.058 212.201 317.712 212.201 311.001V186.744C212.201 180.572 218.874 176.72 224.228 179.801L302.995 225.289C311.315 230.085 316.437 238.963 316.437 248.564Z" fill="#BA68C8"/>
<path opacity="0.5" d="M316.437 248.564V372.81C316.437 378.982 309.754 382.844 304.41 379.753L237.487 341.111L225.633 334.274C223.129 332.83 220.915 331.01 219.047 328.911C214.704 324.058 212.201 317.712 212.201 311.001V186.744C212.201 180.572 218.874 176.72 224.228 179.801L302.995 225.289C311.315 230.085 316.437 238.963 316.437 248.564Z" fill="#407BFF"/>
<path d="M277.892 322.078C277.892 322.078 290.424 342.858 281.367 366.292L237.487 341.11L277.892 322.078Z" fill="#263238"/>
<path d="M297.866 228.712C298.815 221.011 293.34 213.999 285.639 213.051C277.937 212.103 270.925 217.577 269.977 225.279C269.029 232.98 274.503 239.992 282.205 240.94C289.906 241.888 296.918 236.414 297.866 228.712Z" fill="#263238"/>
<path d="M283.985 187.586C283.985 187.586 288.299 180.554 289.623 181.096C290.947 181.638 288.761 188.281 288.761 188.281C288.761 188.281 295.285 189.636 294.065 191.263C292.845 192.89 284.885 192.515 284.885 192.515L283.985 187.586Z" fill="#263238"/>
<path d="M287.02 205.627C283.987 228.169 265.017 228.169 265.017 228.169L225.2 210.654C225.2 210.654 222.196 208.025 221.281 201.978C220.963 199.908 220.886 197.423 221.271 194.515C221.271 194.496 221.281 194.467 221.281 194.447C222.552 184.972 229.639 174.775 245.084 171.645C248.165 171.009 251.584 170.663 255.358 170.663C257.082 170.663 258.738 170.74 260.327 170.913C272.373 172.088 280.741 177.692 284.747 186.397C285.623 188.303 286.288 190.355 286.731 192.55C287.55 196.499 287.655 200.88 287.02 205.627Z" fill="#263238"/>
<path d="M191.453 249.227C191.453 249.227 177.32 248.744 171.877 262.514C171.877 262.514 177.89 266.564 185.753 262.532C193.615 258.5 191.453 249.227 191.453 249.227Z" fill="#BA68C8"/>
<path opacity="0.5" d="M191.453 249.227C191.453 249.227 177.32 248.744 171.877 262.514C171.877 262.514 177.89 266.564 185.753 262.532C193.615 258.5 191.453 249.227 191.453 249.227Z" fill="black"/>
<path d="M191.046 255.857C191.046 255.857 187.059 238.482 184.944 238.267C182.721 238.041 182.421 243.57 182.593 246.678L177.558 235.923C176.893 234.504 175.173 233.956 173.8 234.711C168.792 237.462 160.029 245.821 178.525 266.494L191.046 255.857Z" fill="#945959"/>
<path d="M242.25 243.844L239.269 243.449C233.11 242.634 226.991 245.203 223.26 250.17L205.414 273.933L191.454 249.227C191.454 249.227 189.768 266.031 171.878 262.514L191.095 294.842C196.346 303.676 208.786 304.588 215.27 296.615L231.709 276.4L242.25 243.844Z" fill="#BA68C8"/>
<path d="M280.347 299.29C276.351 309.43 275.908 311.413 278.392 316.478C280.867 321.533 282.417 328.12 282.417 328.12C282.417 328.12 263.881 348.9 237.487 341.11L225.633 334.273C223.129 332.829 220.915 331.009 219.047 328.91L222.591 302.044C222.774 300.629 222.63 299.174 222.167 297.826L218.383 286.724C214.608 275.641 217.526 263.383 225.903 255.207L238.643 242.756L272.105 246.974L277.074 248.409C283.834 250.354 288.148 256.979 287.185 263.95C285.537 275.805 282.86 292.916 280.347 299.29Z" fill="#BA68C8"/>
<path opacity="0.5" d="M280.347 299.29C276.351 309.43 275.908 311.413 278.392 316.478C280.867 321.533 282.417 328.12 282.417 328.12C282.417 328.12 263.881 348.9 237.487 341.11L225.633 334.273C223.129 332.829 220.915 331.009 219.047 328.91L222.591 302.044C222.774 300.629 222.63 299.174 222.167 297.826L218.383 286.724C214.608 275.641 217.526 263.383 225.903 255.207L238.643 242.756L272.105 246.974L277.074 248.409C283.834 250.354 288.148 256.979 287.185 263.95C285.537 275.805 282.86 292.916 280.347 299.29Z" fill="black"/>
<path d="M260.174 269.032L253.473 263.324C252.026 262.091 250.035 261.714 248.237 262.332L240.136 265.117L239.047 260.581C238.332 257.601 235.274 255.82 232.329 256.668L228.817 257.679L234.764 246.299C236.701 242.593 239.687 239.54 243.349 237.521L245.676 236.238L264.927 237.229C264.927 237.229 272.104 240.201 272.104 246.979L260.174 269.032Z" fill="#BA68C8"/>
<path d="M265.013 245.715L245.707 260.757V212.871H265.013V245.715Z" fill="#945959"/>
<path d="M246.007 241.774L240.136 265.116L264.927 245.715L246.007 241.774Z" fill="#945959"/>
<path d="M245.707 238.303C253.134 235.436 260.895 229.682 265.013 219.943V212.871H245.707V238.303Z" fill="#703838"/>
<path d="M249.874 177.383C242.552 177.383 226.985 181.464 225.189 200.619C223.393 219.775 225.126 234.64 235.014 236.064C244.902 237.488 267.854 230.331 270.928 205.532C274.002 180.734 257.016 177.383 249.874 177.383Z" fill="#945959"/>
<path d="M238.346 208.727V220.024L231.731 217.993L238.346 208.727Z" fill="#703838"/>
<path d="M245.707 212.983C246.978 212.983 248.009 211.952 248.009 210.681C248.009 209.41 246.978 208.379 245.707 208.379C244.436 208.379 243.405 209.41 243.405 210.681C243.405 211.952 244.436 212.983 245.707 212.983Z" fill="#263238"/>
<path d="M232.87 209.076C232.87 210.347 231.84 211.377 230.568 211.377C229.297 211.377 228.266 210.347 228.266 209.076C228.266 207.805 229.297 206.774 230.568 206.774C231.839 206.774 232.87 207.805 232.87 209.076Z" fill="#263238"/>
<path d="M227.764 204.283L232.265 201.61C232.265 201.61 230.537 199.815 228.818 200.893C227.098 201.972 227.764 204.283 227.764 204.283Z" fill="#263238"/>
<path d="M235.235 224.603C235.235 224.603 238.889 224.936 241.434 222.943C241.434 222.943 241.857 226.207 239.122 226.832C236.387 227.457 235.235 224.603 235.235 224.603Z" fill="#703838"/>
<path d="M231.311 183.897C231.311 183.897 234.064 210.352 270.029 211.177C270.029 211.177 280.895 184.891 259.419 176.35C237.943 167.811 231.311 183.897 231.311 183.897Z" fill="#263238"/>
<path d="M280.616 207.217L280.617 207.216L280.598 207.205C280.593 207.202 280.588 207.199 280.582 207.196L276.161 204.643L276.159 204.646C274.485 203.658 272.162 203.786 269.593 205.269C264.491 208.215 260.355 215.378 260.355 221.269C260.355 224.218 261.392 226.289 263.068 227.253L267.41 229.747C267.493 229.798 267.577 229.846 267.663 229.892L267.81 229.977L267.817 229.965C269.462 230.761 271.649 230.572 274.059 229.181C279.161 226.236 283.297 219.072 283.297 213.181C283.295 210.25 282.271 208.189 280.616 207.217Z" fill="#BA68C8"/>
<path d="M280.583 222.291C284.191 216.043 284.191 209.289 280.584 207.207C276.977 205.124 271.128 208.501 267.521 214.749C263.913 220.997 263.913 227.751 267.52 229.834C271.127 231.916 276.976 228.539 280.583 222.291Z" fill="#BA68C8"/>
<path opacity="0.5" d="M280.583 222.291C284.191 216.043 284.191 209.289 280.584 207.207C276.977 205.124 271.128 208.501 267.521 214.749C263.913 220.997 263.913 227.751 267.52 229.834C271.127 231.916 276.976 228.539 280.583 222.291Z" fill="black"/>
<path d="M282.393 212.765L282.394 212.764L282.381 212.756C282.377 212.754 282.374 212.752 282.37 212.75L279.345 211.003L279.344 211.005C278.198 210.329 276.609 210.417 274.851 211.431C271.36 213.447 268.53 218.348 268.53 222.379C268.53 224.397 269.24 225.814 270.386 226.473L273.356 228.179C273.413 228.214 273.471 228.247 273.53 228.279L273.63 228.337L273.635 228.329C274.76 228.873 276.257 228.745 277.906 227.793C281.397 225.777 284.227 220.876 284.227 216.845C284.227 214.84 283.526 213.43 282.393 212.765Z" fill="#BA68C8"/>
<path d="M284.227 216.845C284.227 220.876 281.397 225.777 277.906 227.793C274.415 229.809 271.585 228.175 271.585 224.144C271.585 220.113 274.415 215.211 277.906 213.196C281.397 211.18 284.227 212.814 284.227 216.845Z" fill="#BA68C8"/>
<path opacity="0.3" d="M284.227 216.845C284.227 220.876 281.397 225.777 277.906 227.793C274.415 229.809 271.585 228.175 271.585 224.144C271.585 220.113 274.415 215.211 277.906 213.196C281.397 211.18 284.227 212.814 284.227 216.845Z" fill="black"/>
<path d="M266.886 172.215C264.031 169.983 260.505 168.805 256.882 168.752C256.593 168.748 256.303 168.746 256.011 168.746C251.997 168.746 248.362 169.115 245.085 169.79C245.743 169.764 246.401 169.767 247.059 169.79H245.085V171.645H246.941C250.918 171.785 254.873 172.879 258.431 174.928C266.067 179.338 270.814 187.562 270.814 196.382V204.249C270.814 205.56 271.935 206.598 273.263 206.461C273.341 206.453 273.413 206.43 273.488 206.414L275.461 205.8V205.797C275.328 205.837 275.192 205.868 275.049 205.883C276.278 205.757 277.165 204.629 277.165 203.393V196.094C277.165 182.89 271.456 175.788 266.886 172.215Z" fill="#BA68C8"/>
<path d="M254.303 235.514C253.492 235.514 252.676 235.342 251.908 234.986L245.655 232.095C245.282 231.922 245.119 231.479 245.292 231.106C245.466 230.732 245.909 230.573 246.28 230.742L252.533 233.633C254.166 234.389 256.101 234.025 257.349 232.727L263.314 226.524C263.6 226.228 264.071 226.218 264.368 226.503C264.664 226.788 264.674 227.26 264.389 227.556L258.424 233.759C257.322 234.906 255.824 235.514 254.303 235.514Z" fill="#BA68C8"/>
<path opacity="0.5" d="M254.303 235.514C253.492 235.514 252.676 235.342 251.908 234.986L245.655 232.095C245.282 231.922 245.119 231.479 245.292 231.106C245.466 230.732 245.909 230.573 246.28 230.742L252.533 233.633C254.166 234.389 256.101 234.025 257.349 232.727L263.314 226.524C263.6 226.228 264.071 226.218 264.368 226.503C264.664 226.788 264.674 227.26 264.389 227.556L258.424 233.759C257.322 234.906 255.824 235.514 254.303 235.514Z" fill="black"/>
<path d="M247.302 229.976C247.302 231.589 245.995 232.896 244.382 232.896C242.769 232.896 241.462 231.589 241.462 229.976C241.462 228.363 242.769 227.056 244.382 227.056C245.995 227.056 247.302 228.363 247.302 229.976Z" fill="#BA68C8"/>
<path opacity="0.5" d="M247.302 229.976C247.302 231.589 245.995 232.896 244.382 232.896C242.769 232.896 241.462 231.589 241.462 229.976C241.462 228.363 242.769 227.056 244.382 227.056C245.995 227.056 247.302 228.363 247.302 229.976Z" fill="black"/>
<path d="M277.165 196.096V203.395C277.165 204.631 276.278 205.758 275.049 205.885C273.637 206.03 272.444 204.926 272.444 203.533V196.097C272.444 186.718 267.396 177.973 259.276 173.283C254.904 170.764 249.968 169.597 245.084 169.791C248.361 169.115 251.996 168.747 256.01 168.747C256.302 168.747 256.593 168.749 256.881 168.753C260.504 168.806 264.031 169.984 266.885 172.216C271.456 175.788 277.165 182.89 277.165 196.096Z" fill="#BA68C8"/>
<path opacity="0.5" d="M277.165 196.096V203.395C277.165 204.631 276.278 205.758 275.049 205.885C273.637 206.03 272.444 204.926 272.444 203.533V196.097C272.444 186.718 267.396 177.973 259.276 173.283C254.904 170.764 249.968 169.597 245.084 169.791C248.361 169.115 251.996 168.747 256.01 168.747C256.302 168.747 256.593 168.749 256.881 168.753C260.504 168.806 264.031 169.984 266.885 172.216C271.456 175.788 277.165 182.89 277.165 196.096Z" fill="black"/>
<path d="M265.927 333.673C265.927 333.673 261.085 347.021 278.388 352.985C278.388 352.985 284.039 344.692 278.388 337.903C272.737 331.114 265.927 333.673 265.927 333.673Z" fill="#BA68C8"/>
<path opacity="0.7" d="M265.927 333.673C265.927 333.673 261.085 347.021 278.388 352.985C278.388 352.985 284.039 344.692 278.388 337.903C272.737 331.114 265.927 333.673 265.927 333.673Z" fill="black"/>
<path d="M271.969 334.277C271.969 334.277 255.074 340.475 255.16 342.867C255.245 345.259 262.345 343.632 262.345 343.632L259.75 345.329C257.025 347.111 254.914 349.688 253.703 352.711C253.151 354.09 253.728 355.665 255.041 356.36L261.462 359.761C262.99 360.57 264.884 359.957 265.648 358.406C266.359 356.963 267.635 355.894 269.162 355.385C272.651 354.221 279.133 350.879 281.769 341.745L271.969 334.277Z" fill="#945959"/>
<path d="M277.07 248.409C277.07 248.409 268.079 253.424 272.848 268.592C277.617 283.759 286.603 307.324 286.603 307.324L265.927 333.674C265.927 333.674 272.848 334.138 277.04 340.309C281.232 346.48 278.388 352.987 278.388 352.987L304.047 320.025C308.87 313.829 310.24 305.618 307.688 298.192L296.652 266.068C293.92 258.115 287.627 251.897 279.642 249.26L277.07 248.409Z" fill="#BA68C8"/>
<path d="M125.152 158.74L85.3829 135.779C84.1829 135.086 83.0819 135.006 82.2119 135.431L82.2109 135.432C82.1039 135.484 82.0009 135.544 81.9009 135.612L73.2519 140.681C73.2689 140.671 73.2879 140.664 73.3049 140.655C72.2189 141.27 71.5289 142.711 71.5289 144.769V188.989C71.5289 192.73 73.8039 197.076 76.6099 198.696L116.379 221.657C117.737 222.441 118.967 222.437 119.878 221.806C119.854 221.822 119.833 221.844 119.809 221.859L128.399 216.818L128.398 216.817C129.518 216.221 130.231 214.761 130.231 212.666V168.446C130.232 164.706 127.958 160.36 125.152 158.74Z" fill="#407BFF"/>
<path d="M128.81 162.931C127.886 161.117 126.59 159.57 125.152 158.74L85.383 135.779C84.183 135.086 83.082 135.006 82.212 135.431L82.211 135.432C82.104 135.484 82.001 135.544 81.901 135.612L73.252 140.681C74.147 140.146 75.322 140.184 76.609 140.928L116.378 163.889C117.866 164.748 119.201 166.377 120.13 168.273L128.81 162.931Z" fill="#407BFF"/>
<path d="M121.46 217.816C121.46 219.794 120.824 221.206 119.81 221.859L128.4 216.818L128.399 216.817C129.519 216.221 130.232 214.761 130.232 212.666V168.446C130.232 166.622 129.688 164.656 128.809 162.93L120.13 168.271C120.953 169.95 121.459 171.837 121.459 173.594L121.46 217.816Z" fill="#407BFF"/>
<path opacity="0.3" d="M128.81 162.931C127.886 161.117 126.59 159.57 125.152 158.74L85.383 135.779C84.183 135.086 83.082 135.006 82.212 135.431L82.211 135.432C82.104 135.484 82.001 135.544 81.901 135.612L73.252 140.681C74.147 140.146 75.322 140.184 76.609 140.928L116.378 163.889C117.866 164.748 119.201 166.377 120.13 168.273L128.81 162.931Z" fill="black"/>
<path opacity="0.6" d="M121.46 217.816C121.46 219.794 120.824 221.206 119.81 221.859L128.4 216.818L128.399 216.817C129.519 216.221 130.232 214.761 130.232 212.666V168.446C130.232 166.622 129.688 164.656 128.809 162.93L120.13 168.271C120.953 169.95 121.459 171.837 121.459 173.594L121.46 217.816Z" fill="black"/>
<path d="M109.804 186.272C109.804 191.997 107.533 193.947 104.126 191.98C102.243 190.893 100.914 189.166 100.332 187.007C99.3619 188.238 97.7839 188.318 95.5949 187.055C92.0229 184.992 89.1969 180.099 89.1969 175.27C89.1969 170.473 91.9949 168.826 95.5949 170.905C97.4229 171.96 98.8639 173.527 99.8599 175.478V173.591L103.627 175.766V186.128C103.627 187.663 104.209 188.511 104.957 188.942C106.231 189.678 107.006 188.43 107.006 184.721C107.006 178.229 102.851 171.353 96.7029 167.803C90.5269 164.237 86.3989 166.716 86.3989 173.4C86.3989 180.212 90.4439 187.375 96.5919 190.925C98.3359 191.932 100.303 192.652 102.047 192.668L102.934 196.122C101.244 196.138 98.7789 195.258 96.5919 193.995C88.5869 189.374 83.2969 180.051 83.2969 171.609C83.2969 163.262 88.6419 160.112 96.7019 164.765C104.486 169.259 109.804 178.245 109.804 186.272ZM99.9159 181.459C99.9159 178.677 98.4479 176.262 96.4539 175.111C94.4319 173.944 93.0199 174.759 93.0199 177.478C93.0199 180.228 94.4319 182.707 96.4539 183.874C98.4479 185.025 99.9159 184.274 99.9159 181.459Z" fill="#407BFF"/>
<g opacity="0.9">
<path d="M109.804 186.272C109.804 191.997 107.533 193.947 104.126 191.98C102.243 190.893 100.914 189.166 100.332 187.007C99.3619 188.238 97.7839 188.318 95.5949 187.055C92.0229 184.992 89.1969 180.099 89.1969 175.27C89.1969 170.473 91.9949 168.826 95.5949 170.905C97.4229 171.96 98.8639 173.527 99.8599 175.478V173.591L103.627 175.766V186.128C103.627 187.663 104.209 188.511 104.957 188.942C106.231 189.678 107.006 188.43 107.006 184.721C107.006 178.229 102.851 171.353 96.7029 167.803C90.5269 164.237 86.3989 166.716 86.3989 173.4C86.3989 180.212 90.4439 187.375 96.5919 190.925C98.3359 191.932 100.303 192.652 102.047 192.668L102.934 196.122C101.244 196.138 98.7789 195.258 96.5919 193.995C88.5869 189.374 83.2969 180.051 83.2969 171.609C83.2969 163.262 88.6419 160.112 96.7019 164.765C104.486 169.259 109.804 178.245 109.804 186.272ZM99.9159 181.459C99.9159 178.677 98.4479 176.262 96.4539 175.111C94.4319 173.944 93.0199 174.759 93.0199 177.478C93.0199 180.228 94.4319 182.707 96.4539 183.874C98.4479 185.025 99.9159 184.274 99.9159 181.459Z" fill="white"/>
</g>
<path d="M125.152 237.515L85.383 214.554C84.183 213.861 83.082 213.781 82.212 214.206L82.211 214.207C82.104 214.259 82.001 214.319 81.901 214.387L73.252 219.456C73.269 219.446 73.288 219.439 73.305 219.43C72.219 220.045 71.529 221.486 71.529 223.544V267.764C71.529 271.505 73.804 275.851 76.61 277.471L116.379 300.432C117.737 301.216 118.967 301.212 119.878 300.581C119.854 300.597 119.833 300.619 119.809 300.634L128.399 295.593L128.398 295.592C129.518 294.996 130.231 293.536 130.231 291.441V247.221C130.232 243.482 127.958 239.135 125.152 237.515Z" fill="#407BFF"/>
<path d="M128.81 241.707C127.886 239.893 126.59 238.346 125.152 237.516L85.383 214.555C84.183 213.862 83.082 213.782 82.212 214.207L82.211 214.208C82.104 214.26 82.001 214.32 81.901 214.388L73.252 219.457C74.147 218.922 75.322 218.96 76.609 219.704L116.378 242.665C117.866 243.524 119.201 245.153 120.13 247.049L128.81 241.707Z" fill="#407BFF"/>
<path d="M121.46 296.592C121.46 298.57 120.824 299.982 119.81 300.635L128.4 295.594L128.399 295.593C129.519 294.997 130.232 293.537 130.232 291.442V247.222C130.232 245.398 129.688 243.432 128.809 241.706L120.13 247.047C120.953 248.726 121.459 250.613 121.459 252.371L121.46 296.592Z" fill="#407BFF"/>
<path opacity="0.3" d="M128.81 241.707C127.886 239.893 126.59 238.346 125.152 237.516L85.383 214.555C84.183 213.862 83.082 213.782 82.212 214.207L82.211 214.208C82.104 214.26 82.001 214.32 81.901 214.388L73.252 219.457C74.147 218.922 75.322 218.96 76.609 219.704L116.378 242.665C117.866 243.524 119.201 245.153 120.13 247.049L128.81 241.707Z" fill="black"/>
<path opacity="0.6" d="M121.46 296.592C121.46 298.57 120.824 299.982 119.81 300.635L128.4 295.594L128.399 295.593C129.519 294.997 130.232 293.537 130.232 291.442V247.222C130.232 245.398 129.688 243.432 128.809 241.706L120.13 247.047C120.953 248.726 121.459 250.613 121.459 252.371L121.46 296.592Z" fill="black"/>
<path d="M92.045 257.287L82.457 241.707V262.823L92.045 257.287Z" fill="#407BFF"/>
<path d="M100.96 261.776L110.531 278.354V257.274L100.96 261.776Z" fill="#407BFF"/>
<path d="M83.9139 241.023L93.7619 257.027C93.7999 257.069 93.8449 257.103 93.8739 257.154C93.8959 257.192 93.8989 257.235 93.9149 257.275L96.8009 261.966L99.2789 260.8C99.3209 260.762 99.3559 260.717 99.4069 260.687C99.5099 260.628 99.6199 260.598 99.7309 260.587L109.688 255.903L83.9139 241.023Z" fill="#407BFF"/>
<path d="M99.508 262.46L96.835 263.717C96.726 263.769 96.609 263.793 96.496 263.793C96.226 263.793 95.964 263.656 95.814 263.413L92.883 258.65L83.257 264.208L109.147 279.156L99.508 262.46Z" fill="#407BFF"/>
<g opacity="0.9">
<path d="M92.045 257.287L82.457 241.707V262.823L92.045 257.287Z" fill="white"/>
<path d="M100.96 261.776L110.531 278.354V257.274L100.96 261.776Z" fill="white"/>
<path d="M83.9139 241.023L93.7619 257.027C93.7999 257.069 93.8449 257.103 93.8739 257.154C93.8959 257.192 93.8989 257.235 93.9149 257.275L96.8009 261.966L99.2789 260.8C99.3209 260.762 99.3559 260.717 99.4069 260.687C99.5099 260.628 99.6199 260.598 99.7309 260.587L109.688 255.903L83.9139 241.023Z" fill="white"/>
<path d="M99.508 262.46L96.835 263.717C96.726 263.769 96.609 263.793 96.496 263.793C96.226 263.793 95.964 263.656 95.814 263.413L92.883 258.65L83.257 264.208L109.147 279.156L99.508 262.46Z" fill="white"/>
</g>
<path d="M125.152 79.9652L85.383 57.0042C84.183 56.3112 83.082 56.2312 82.212 56.6562L82.211 56.6572C82.104 56.7092 82.001 56.7692 81.901 56.8372L73.252 61.9062C73.269 61.8962 73.288 61.8892 73.305 61.8802C72.219 62.4952 71.529 63.9362 71.529 65.9942V110.214C71.529 113.955 73.804 118.302 76.61 119.922L116.379 142.883C117.737 143.667 118.967 143.663 119.878 143.032C119.854 143.048 119.833 143.07 119.809 143.085L128.399 138.044L128.398 138.043C129.518 137.447 130.231 135.987 130.231 133.892V89.6722C130.232 85.9312 127.958 81.5852 125.152 79.9652Z" fill="#407BFF"/>
<path d="M128.81 84.1562C127.886 82.3422 126.59 80.7952 125.152 79.9642L85.383 57.0042C84.183 56.3112 83.082 56.2312 82.212 56.6562L82.211 56.6572C82.104 56.7092 82.001 56.7692 81.901 56.8372L73.252 61.9062C74.147 61.3712 75.322 61.4092 76.609 62.1532L116.378 85.1142C117.866 85.9732 119.201 87.6022 120.13 89.4982L128.81 84.1562Z" fill="#407BFF"/>
<path d="M121.46 139.041C121.46 141.019 120.824 142.431 119.81 143.084L128.4 138.043L128.399 138.042C129.519 137.446 130.232 135.986 130.232 133.891V89.6713C130.232 87.8473 129.688 85.8813 128.809 84.1553L120.13 89.4963C120.953 91.1753 121.459 93.0623 121.459 94.8203L121.46 139.041Z" fill="#407BFF"/>
<path opacity="0.3" d="M128.81 84.1562C127.886 82.3422 126.59 80.7952 125.152 79.9642L85.383 57.0042C84.183 56.3112 83.082 56.2312 82.212 56.6562L82.211 56.6572C82.104 56.7092 82.001 56.7692 81.901 56.8372L73.252 61.9062C74.147 61.3712 75.322 61.4092 76.609 62.1532L116.378 85.1142C117.866 85.9732 119.201 87.6022 120.13 89.4982L128.81 84.1562Z" fill="black"/>
<path opacity="0.6" d="M121.46 139.041C121.46 141.019 120.824 142.431 119.81 143.084L128.4 138.043L128.399 138.042C129.519 137.446 130.232 135.986 130.232 133.891V89.6713C130.232 87.8473 129.688 85.8813 128.809 84.1553L120.13 89.4963C120.953 91.1753 121.459 93.0623 121.459 94.8203L121.46 139.041Z" fill="black"/>
<path d="M108.453 119.965C106.924 117.451 105.382 114.946 103.851 112.433C103.148 111.279 102.357 110.61 101.443 110.414C100.701 110.255 99.958 110.093 99.202 109.866C99.002 109.806 98.683 109.548 98.545 109.308C95.995 104.891 94.004 100.354 92.619 95.7054C92.555 95.4894 92.6 95.2004 92.702 95.0984C93.171 94.6274 93.67 94.1964 94.175 93.7784C94.798 93.2634 94.906 92.3844 94.559 91.1294C93.82 88.4584 93.106 85.7914 92.373 83.1214C91.894 81.3744 90.812 80.1124 89.509 79.7964C87.695 79.3564 86.06 79.4134 84.608 79.9744C83.996 80.2114 83.681 80.7624 83.674 81.7074C83.927 83.5394 84.102 85.3474 84.445 87.2064C86.918 100.618 92.867 112.972 102.255 124.25C102.994 125.138 103.734 125.558 104.482 125.525C106.131 125.453 107.544 124.92 108.706 123.898C109.597 123.117 109.506 121.696 108.453 119.965Z" fill="#407BFF"/>
<path d="M108.334 106.37C108.172 103.697 107.381 100.944 105.97 98.1266C104.95 96.0886 103.697 94.2536 102.224 92.6196C101.828 92.1796 101.495 92.0376 101.304 92.3746C101.109 92.7186 101.298 93.1726 101.683 93.6036C101.814 93.7506 101.944 93.8986 102.07 94.0526C104.969 97.5696 106.633 101.346 107.053 105.381C107.085 105.689 107.03 105.994 107.141 106.293C107.259 106.611 107.514 107.043 107.733 107.199C107.94 107.346 108.178 107.198 108.349 107.185C108.343 106.792 108.347 106.586 108.334 106.37Z" fill="#407BFF"/>
<path d="M99.271 98.1603C100.604 99.6973 101.301 101.337 101.439 103.122C101.46 103.39 101.683 103.753 101.753 103.927C102.361 104.431 102.661 104.261 102.662 103.633C102.664 101.753 101.361 98.7893 99.848 97.2183C99.472 96.8273 99.155 96.7093 98.975 97.0373C98.81 97.3413 98.936 97.7743 99.271 98.1603Z" fill="#407BFF"/>
<g opacity="0.9">
<path d="M108.453 119.965C106.924 117.451 105.382 114.946 103.851 112.433C103.148 111.279 102.357 110.61 101.443 110.414C100.701 110.255 99.958 110.093 99.202 109.866C99.002 109.806 98.683 109.548 98.545 109.308C95.995 104.891 94.004 100.354 92.619 95.7054C92.555 95.4894 92.6 95.2004 92.702 95.0984C93.171 94.6274 93.67 94.1964 94.175 93.7784C94.798 93.2634 94.906 92.3844 94.559 91.1294C93.82 88.4584 93.106 85.7914 92.373 83.1214C91.894 81.3744 90.812 80.1124 89.509 79.7964C87.695 79.3564 86.06 79.4134 84.608 79.9744C83.996 80.2114 83.681 80.7624 83.674 81.7074C83.927 83.5394 84.102 85.3474 84.445 87.2064C86.918 100.618 92.867 112.972 102.255 124.25C102.994 125.138 103.734 125.558 104.482 125.525C106.131 125.453 107.544 124.92 108.706 123.898C109.597 123.117 109.506 121.696 108.453 119.965Z" fill="white"/>
<path d="M108.334 106.37C108.172 103.697 107.381 100.944 105.97 98.1266C104.95 96.0886 103.697 94.2536 102.224 92.6196C101.828 92.1796 101.495 92.0376 101.304 92.3746C101.109 92.7186 101.298 93.1726 101.683 93.6036C101.814 93.7506 101.944 93.8986 102.07 94.0526C104.969 97.5696 106.633 101.346 107.053 105.381C107.085 105.689 107.03 105.994 107.141 106.293C107.259 106.611 107.514 107.043 107.733 107.199C107.94 107.346 108.178 107.198 108.349 107.185C108.343 106.792 108.347 106.586 108.334 106.37Z" fill="white"/>
<path d="M99.271 98.1603C100.604 99.6973 101.301 101.337 101.439 103.122C101.46 103.39 101.683 103.753 101.753 103.927C102.361 104.431 102.661 104.261 102.662 103.633C102.664 101.753 101.361 98.7893 99.848 97.2183C99.472 96.8273 99.155 96.7093 98.975 97.0373C98.81 97.3413 98.936 97.7743 99.271 98.1603Z" fill="white"/>
</g>
<path d="M286.332 30.0796L295.704 35.4116V32.0946C295.689 31.8586 295.674 31.6216 295.674 31.3896C295.674 31.1576 295.689 30.9386 295.704 30.7196V30.6416L295.707 30.6436C296.044 26.2476 299.373 24.5626 303.436 26.9086C305.167 27.9076 306.76 29.4896 308.051 31.3406C308.967 25.3696 313.838 23.2146 319.726 26.6146C326.267 30.3906 331.569 39.5746 331.569 47.1266L331.575 54.2326C331.576 55.3766 332.183 56.4356 333.17 57.0146L338.683 60.2486C341.116 61.6756 342.61 64.2846 342.61 67.1056C342.61 69.6256 339.881 71.2006 337.699 69.9396L286.474 40.3496C283.706 38.7506 282 35.7966 282 32.5986C282 30.3756 284.4 28.9796 286.332 30.0796Z" fill="#E6E6E6"/>
<path d="M357.762 28.6938L364.577 32.5718V30.1598C364.566 29.9878 364.555 29.8158 364.555 29.6478C364.555 29.4788 364.566 29.3198 364.577 29.1608V29.1038L364.58 29.1048C364.825 25.9078 367.246 24.6828 370.2 26.3888C371.459 27.1158 372.617 28.2658 373.556 29.6118C374.222 25.2698 377.764 23.7028 382.046 26.1748C386.803 28.9208 390.658 35.5998 390.658 41.0918L390.662 46.2588C390.663 47.0908 391.104 47.8608 391.822 48.2818L395.831 50.6338C397.6 51.6718 398.687 53.5688 398.687 55.6198C398.687 57.4528 396.703 58.5978 395.116 57.6808L357.865 36.1618C355.852 34.9988 354.612 32.8508 354.612 30.5258C354.612 28.9098 356.357 27.8948 357.762 28.6938Z" fill="#E6E6E6"/>
</svg>
