<svg width="571" height="283" viewBox="0 0 571 283" fill="none" xmlns="http://www.w3.org/2000/svg">
<path d="M430.948 244.436C487.126 244.436 532.831 198.259 532.831 141.499C532.831 84.74 487.126 38.5627 430.948 38.5627C374.769 38.5627 329.064 84.74 329.064 141.499C329.064 198.259 374.769 244.436 430.948 244.436ZM430.948 41.0584C485.765 41.0584 530.361 86.1162 530.361 141.5C530.361 196.883 485.765 241.94 430.948 241.94C376.131 241.94 331.533 196.883 331.533 141.5C331.533 86.1157 376.131 41.0584 430.948 41.0584Z" fill="#CED6DB"/>
<path d="M430.948 258.473C494.787 258.473 546.724 205.999 546.724 141.5C546.724 77.0011 494.788 24.5276 430.948 24.5276C367.109 24.5276 315.17 77.0006 315.17 141.5C315.17 205.998 367.109 258.473 430.948 258.473ZM430.948 33.8835C489.68 33.8835 537.463 82.1603 537.463 141.499C537.463 200.838 489.68 249.115 430.948 249.115C372.215 249.115 324.433 200.838 324.433 141.499C324.433 82.1608 372.216 33.8835 430.948 33.8835Z" fill="#CED6DB"/>
<path d="M430.948 279.807C506.431 279.807 567.841 217.762 567.841 141.5C567.841 65.2365 506.431 3.19189 430.948 3.19189C355.466 3.19189 294.055 65.2365 294.055 141.5C294.055 217.762 355.466 279.807 430.948 279.807ZM430.948 4.06267C505.956 4.06267 566.979 65.7164 566.979 141.5C566.979 217.282 505.956 278.936 430.948 278.936C355.94 278.936 294.916 217.282 294.916 141.5C294.916 65.7169 355.94 4.06267 430.948 4.06267Z" fill="#CED6DB"/>
<path d="M430.948 239.851C484.623 239.851 528.293 195.731 528.293 141.5C528.293 87.2686 484.623 43.1487 430.948 43.1487C377.272 43.1487 333.602 87.2686 333.602 141.5C333.602 195.731 377.272 239.851 430.948 239.851ZM430.948 44.0189C484.149 44.0189 527.431 87.749 527.431 141.5C527.431 195.25 484.149 238.98 430.948 238.98C377.747 238.98 334.464 195.25 334.464 141.5C334.464 87.7495 377.747 44.0189 430.948 44.0189Z" fill="#CED6DB"/>
<path d="M349.528 150.778C344.456 105.348 376.796 64.3651 421.762 59.24C466.728 54.1149 507.292 86.7885 512.365 132.219C517.437 177.649 485.097 218.631 440.131 223.757C395.165 228.882 354.601 196.208 349.528 150.778Z" fill="#CED6DB"/>
<path d="M504.697 141.826C504.697 100.673 471.678 67.3154 430.948 67.3154C390.217 67.3154 357.197 100.674 357.197 141.826C357.197 182.978 390.217 216.337 430.948 216.337C471.678 216.337 504.697 182.978 504.697 141.826Z" fill="#DFE6EA"/>
<path d="M373.827 143.624C372.666 111.749 397.299 84.9584 428.847 83.7846C460.395 82.6108 486.911 107.499 488.073 139.373C489.235 171.247 464.602 198.038 433.054 199.212C401.506 200.386 374.989 175.498 373.827 143.624Z" fill="#CED6DB"/>
<path d="M482.401 141.727C482.401 113.016 459.364 89.7432 430.948 89.7432C402.53 89.7432 379.495 113.016 379.495 141.727C379.495 170.437 402.531 193.712 430.948 193.712C459.364 193.712 482.401 170.437 482.401 141.727Z" fill="#EFF2F4"/>
<path d="M427.357 3.62744C427.357 5.6305 428.965 7.25435 430.948 7.25435C432.931 7.25435 434.539 5.6305 434.539 3.62744C434.539 1.62385 432.931 0 430.948 0C428.965 0 427.357 1.62385 427.357 3.62744Z" fill="#CED6DB"/>
<path d="M427.357 279.372C427.357 281.376 428.965 283 430.948 283C432.931 283 434.539 281.376 434.539 279.372C434.539 277.368 432.931 275.744 430.948 275.744C428.965 275.745 427.357 277.368 427.357 279.372Z" fill="#CED6DB"/>
<path d="M567.41 145.127C569.393 145.127 571 143.503 571 141.5C571 139.496 569.393 137.872 567.41 137.872C565.427 137.872 563.819 139.496 563.819 141.5C563.82 143.503 565.427 145.127 567.41 145.127Z" fill="#CED6DB"/>
<path d="M331.916 46.5742C333.318 47.9909 335.59 47.9898 336.992 46.5742C338.395 45.1575 338.395 42.8605 336.992 41.4443C335.59 40.0277 333.318 40.0277 331.916 41.4443C330.513 42.861 330.513 45.1575 331.916 46.5742Z" fill="#CED6DB"/>
<path d="M524.902 241.555C526.304 242.972 528.578 242.972 529.979 241.555C531.382 240.139 531.382 237.842 529.979 236.426C528.578 235.009 526.304 235.009 524.902 236.426C523.501 237.843 523.501 240.139 524.902 241.555Z" fill="#CED6DB"/>
<path d="M336.992 241.555C338.395 240.139 338.395 237.842 336.992 236.426C335.59 235.009 333.318 235.009 331.916 236.426C330.513 237.842 330.513 240.139 331.916 241.555C333.318 242.972 335.59 242.972 336.992 241.555Z" fill="#CED6DB"/>
<path d="M529.979 46.5742C531.382 45.1575 531.382 42.8605 529.979 41.4443C528.578 40.0277 526.304 40.0277 524.902 41.4443C523.501 42.8605 523.499 45.1575 524.902 46.5742C526.304 47.9898 528.578 47.9898 529.979 46.5742Z" fill="#CED6DB"/>
<path d="M429.893 9.48779H432.002V18.4853H429.893V9.48779Z" fill="#CED6DB"/>
<path d="M429.893 264.514H432.002V273.511H429.893V264.514Z" fill="#CED6DB"/>
<path d="M434.453 9.53112L436.561 9.60547L436.25 18.5965L434.143 18.5222L434.453 9.53112Z" fill="#CED6DB"/>
<path d="M425.653 264.402L427.761 264.476L427.452 273.468L425.344 273.394L425.653 264.402Z" fill="#CED6DB"/>
<path d="M439.01 9.73384L441.113 9.88232L440.493 18.8582L438.389 18.7097L439.01 9.73384Z" fill="#CED6DB"/>
<path d="M421.41 264.147L423.514 264.295L422.893 273.273L420.79 273.124L421.41 264.147Z" fill="#CED6DB"/>
<path d="M443.555 10.0999L445.652 10.3223L444.722 19.2698L442.625 19.0473L443.555 10.0999Z" fill="#CED6DB"/>
<path d="M417.18 263.723L419.277 263.945L418.346 272.894L416.249 272.671L417.18 263.723Z" fill="#CED6DB"/>
<path d="M448.087 10.6248L450.175 10.9209L448.938 19.8301L446.849 19.534L448.087 10.6248Z" fill="#CED6DB"/>
<path d="M412.968 263.175L415.057 263.471L413.818 272.381L411.73 272.084L412.968 263.175Z" fill="#CED6DB"/>
<path d="M452.597 11.3099L454.674 11.6797L453.128 20.5389L451.052 20.169L452.597 11.3099Z" fill="#CED6DB"/>
<path d="M408.775 262.455L410.851 262.825L409.306 271.685L407.23 271.315L408.775 262.455Z" fill="#CED6DB"/>
<path d="M457.079 12.1501L459.142 12.593L457.29 21.394L455.228 20.9511L457.079 12.1501Z" fill="#CED6DB"/>
<path d="M404.605 261.603L406.667 262.046L404.814 270.847L402.752 270.404L404.605 261.603Z" fill="#CED6DB"/>
<path d="M461.536 13.1527L463.582 13.6682L461.426 22.3985L459.38 21.8829L461.536 13.1527Z" fill="#CED6DB"/>
<path d="M400.46 260.604L402.506 261.12L400.351 269.85L398.305 269.334L400.46 260.604Z" fill="#CED6DB"/>
<path d="M465.95 14.3088L467.977 14.8958L465.523 23.5445L463.496 22.9576L465.95 14.3088Z" fill="#CED6DB"/>
<path d="M396.378 259.453L398.405 260.041L395.948 268.69L393.921 268.103L396.378 259.453Z" fill="#CED6DB"/>
<path d="M470.322 15.6187L472.328 16.2771L469.576 24.8351L467.57 24.1767L470.322 15.6187Z" fill="#CED6DB"/>
<path d="M392.33 258.153L394.335 258.811L391.583 267.367L389.578 266.709L392.33 258.153Z" fill="#CED6DB"/>
<path d="M474.643 17.0829L476.624 17.8113L473.579 26.2662L471.598 25.5379L474.643 17.0829Z" fill="#CED6DB"/>
<path d="M388.315 256.74L390.297 257.469L387.25 265.924L385.269 265.195L388.315 256.74Z" fill="#CED6DB"/>
<path d="M478.916 18.7039L480.871 19.502L477.535 27.8439L475.58 27.0459L478.916 18.7039Z" fill="#CED6DB"/>
<path d="M384.368 255.151L386.323 255.95L382.986 264.292L381.031 263.494L384.368 255.151Z" fill="#CED6DB"/>
<path d="M483.126 20.4661L485.052 21.3325L481.43 29.5517L479.504 28.6853L483.126 20.4661Z" fill="#CED6DB"/>
<path d="M380.464 253.458L382.39 254.324L378.768 262.545L376.841 261.679L380.464 253.458Z" fill="#CED6DB"/>
<path d="M487.282 22.3835L489.177 23.3176L485.272 31.4051L483.377 30.4709L487.282 22.3835Z" fill="#CED6DB"/>
<path d="M376.626 251.59L378.521 252.524L374.616 260.61L372.721 259.676L376.626 251.59Z" fill="#CED6DB"/>
<path d="M491.356 24.44L493.218 25.4402L489.037 33.3841L487.175 32.3839L491.356 24.44Z" fill="#CED6DB"/>
<path d="M372.861 249.623L374.722 250.624L370.54 258.569L368.678 257.568L372.861 249.623Z" fill="#CED6DB"/>
<path d="M495.367 26.6407L497.193 27.7061L492.74 35.4974L490.914 34.432L495.367 26.6407Z" fill="#CED6DB"/>
<path d="M369.167 247.502L370.993 248.567L366.539 256.36L364.713 255.295L369.167 247.502Z" fill="#CED6DB"/>
<path d="M499.292 28.9859L501.08 30.115L496.359 37.7458L494.571 36.6167L499.292 28.9859Z" fill="#CED6DB"/>
<path d="M365.529 245.252L367.317 246.381L362.595 254.014L360.807 252.885L365.529 245.252Z" fill="#CED6DB"/>
<path d="M503.138 31.4613L504.886 32.6523L499.907 40.1122L498.158 38.9211L503.138 31.4613Z" fill="#CED6DB"/>
<path d="M361.997 242.889L363.745 244.08L358.765 251.54L357.017 250.349L361.997 242.889Z" fill="#CED6DB"/>
<path d="M506.894 34.0715L508.6 35.324L503.364 42.6016L501.659 41.3492L506.894 34.0715Z" fill="#CED6DB"/>
<path d="M358.525 240.388L360.231 241.641L354.995 248.921L353.29 247.669L358.525 240.388Z" fill="#CED6DB"/>
<path d="M510.563 36.8151L512.225 38.1267L506.741 45.2172L505.08 43.9055L510.563 36.8151Z" fill="#CED6DB"/>
<path d="M355.16 237.791L356.822 239.103L351.338 246.194L349.676 244.882L355.16 237.791Z" fill="#CED6DB"/>
<path d="M514.127 39.6843L515.743 41.0535L510.02 47.946L508.404 46.5769L514.127 39.6843Z" fill="#CED6DB"/>
<path d="M351.883 235.04L353.498 236.41L347.771 243.303L346.156 241.934L351.883 235.04Z" fill="#CED6DB"/>
<path d="M517.589 42.6798L519.156 44.1052L513.198 50.7913L511.631 49.3659L517.589 42.6798Z" fill="#CED6DB"/>
<path d="M348.693 232.209L350.26 233.635L344.299 240.323L342.732 238.897L348.693 232.209Z" fill="#CED6DB"/>
<path d="M520.951 45.8011L522.467 47.2815L516.279 53.7516L514.763 52.2712L520.951 45.8011Z" fill="#CED6DB"/>
<path d="M345.616 229.26L347.132 230.74L340.945 237.212L339.428 235.732L345.616 229.26Z" fill="#CED6DB"/>
<path d="M524.208 49.0275L525.673 50.5598L519.267 56.8111L517.802 55.2788L524.208 49.0275Z" fill="#CED6DB"/>
<path d="M342.632 226.195L344.097 227.727L337.691 233.976L336.226 232.444L342.632 226.195Z" fill="#CED6DB"/>
<path d="M527.341 52.3767L528.752 53.96L522.133 59.9813L520.722 58.398L527.341 52.3767Z" fill="#CED6DB"/>
<path d="M339.767 223.012L341.178 224.595L334.559 230.617L333.148 229.034L339.767 223.012Z" fill="#CED6DB"/>
<path d="M530.366 55.822L531.721 57.4539L524.9 63.2375L523.544 61.6056L530.366 55.822Z" fill="#CED6DB"/>
<path d="M337.003 219.763L338.358 221.395L331.532 227.179L330.177 225.546L337.003 219.763Z" fill="#CED6DB"/>
<path d="M533.268 59.3813L534.567 61.0598L527.55 66.6008L526.251 64.9223L533.268 59.3813Z" fill="#CED6DB"/>
<path d="M334.346 216.387L335.644 218.066L328.623 223.607L327.325 221.928L334.346 216.387Z" fill="#CED6DB"/>
<path d="M536.041 63.0429L537.28 64.7666L530.073 70.0554L528.834 68.3317L536.041 63.0429Z" fill="#CED6DB"/>
<path d="M331.835 212.945L333.074 214.669L325.867 219.957L324.628 218.233L331.835 212.945Z" fill="#CED6DB"/>
<path d="M538.689 66.794L539.868 68.5603L532.484 73.5911L531.305 71.8248L538.689 66.794Z" fill="#CED6DB"/>
<path d="M329.429 209.4L330.607 211.166L323.223 216.196L322.044 214.43L329.429 209.4Z" fill="#CED6DB"/>
<path d="M541.195 70.6447L542.313 72.4514L534.76 77.2192L533.643 75.4124L541.195 70.6447Z" fill="#CED6DB"/>
<path d="M327.131 205.771L328.248 207.578L320.693 212.345L319.576 210.538L327.131 205.771Z" fill="#CED6DB"/>
<path d="M543.582 74.5675L544.636 76.4128L536.925 80.9113L535.87 79.066L543.582 74.5675Z" fill="#CED6DB"/>
<path d="M324.984 202.081L326.038 203.926L318.324 208.424L317.27 206.578L324.984 202.081Z" fill="#CED6DB"/>
<path d="M545.826 78.5783L546.816 80.4592L538.954 84.6833L537.964 82.8024L545.826 78.5783Z" fill="#CED6DB"/>
<path d="M322.954 198.301L323.944 200.182L316.081 204.407L315.091 202.526L322.954 198.301Z" fill="#CED6DB"/>
<path d="M547.93 82.668L548.854 84.5828L540.851 88.5259L539.926 86.6111L547.93 82.668Z" fill="#CED6DB"/>
<path d="M321.055 194.474L321.979 196.389L313.975 200.333L313.051 198.418L321.055 194.474Z" fill="#CED6DB"/>
<path d="M549.882 86.8244L550.739 88.7705L542.604 92.4296L541.747 90.4835L549.882 86.8244Z" fill="#CED6DB"/>
<path d="M319.288 190.566L320.145 192.512L312.009 196.171L311.151 194.225L319.288 190.566Z" fill="#CED6DB"/>
<path d="M551.697 91.0606L552.487 93.0359L544.232 96.4056L543.442 94.4303L551.697 91.0606Z" fill="#CED6DB"/>
<path d="M317.668 186.597L318.458 188.573L310.201 191.944L309.411 189.969L317.668 186.597Z" fill="#CED6DB"/>
<path d="M553.375 95.3482L554.097 97.3506L545.729 100.427L545.008 98.425L553.375 95.3482Z" fill="#CED6DB"/>
<path d="M316.17 182.579L316.891 184.581L308.522 187.658L307.801 185.656L316.17 182.579Z" fill="#CED6DB"/>
<path d="M554.881 99.6957L555.533 101.722L547.063 104.503L546.411 102.476L554.881 99.6957Z" fill="#CED6DB"/>
<path d="M314.818 178.497L315.47 180.523L306.998 183.304L306.346 181.277L314.818 178.497Z" fill="#CED6DB"/>
<path d="M556.259 104.096L556.84 106.144L548.279 108.625L547.698 106.576L556.259 104.096Z" fill="#CED6DB"/>
<path d="M313.613 174.379L314.194 176.427L305.633 178.907L305.052 176.859L313.613 174.379Z" fill="#CED6DB"/>
<path d="M557.475 108.53L557.985 110.597L549.345 112.773L548.835 110.706L557.475 108.53Z" fill="#CED6DB"/>
<path d="M312.546 170.225L313.057 172.292L304.416 174.469L303.906 172.402L312.546 170.225Z" fill="#CED6DB"/>
<path d="M558.533 113.018L558.971 115.102L550.261 116.972L549.822 114.889L558.533 113.018Z" fill="#CED6DB"/>
<path d="M311.633 166.037L312.072 168.12L303.361 169.992L302.923 167.909L311.633 166.037Z" fill="#CED6DB"/>
<path d="M559.441 117.524L559.807 119.622L551.038 121.184L550.672 119.086L559.441 117.524Z" fill="#CED6DB"/>
<path d="M310.859 161.811L311.225 163.909L302.454 165.472L302.088 163.374L310.859 161.811Z" fill="#CED6DB"/>
<path d="M560.19 122.075L560.483 124.185L551.665 125.436L551.372 123.327L560.19 122.075Z" fill="#CED6DB"/>
<path d="M310.222 157.562L310.516 159.672L301.695 160.925L301.402 158.815L310.222 157.562Z" fill="#CED6DB"/>
<path d="M560.783 126.635L561.004 128.753L552.149 129.692L551.929 127.574L560.783 126.635Z" fill="#CED6DB"/>
<path d="M309.745 153.302L309.966 155.421L301.109 156.362L300.888 154.243L309.745 153.302Z" fill="#CED6DB"/>
<path d="M561.215 131.235L561.362 133.36L552.48 133.988L552.333 131.863L561.215 131.235Z" fill="#CED6DB"/>
<path d="M309.411 149.011L309.558 151.137L300.673 151.764L300.526 149.639L309.411 149.011Z" fill="#CED6DB"/>
<path d="M561.496 135.832L561.57 137.961L552.671 138.275L552.597 136.146L561.496 135.832Z" fill="#CED6DB"/>
<path d="M309.227 144.726L309.301 146.855L300.398 147.169L300.325 145.04L309.227 144.726Z" fill="#CED6DB"/>
<path d="M552.705 140.434H561.608V142.564H552.705V140.434Z" fill="#CED6DB"/>
<path d="M300.285 140.432H309.191V142.562H300.285V140.432Z" fill="#CED6DB"/>
<path d="M552.667 144.729L561.566 145.042L561.493 147.172L552.594 146.858L552.667 144.729Z" fill="#CED6DB"/>
<path d="M300.399 135.825L309.302 136.139L309.229 138.268L300.326 137.954L300.399 135.825Z" fill="#CED6DB"/>
<path d="M552.49 149.018L561.373 149.646L561.225 151.771L552.343 151.144L552.49 149.018Z" fill="#CED6DB"/>
<path d="M300.679 131.216L309.564 131.847L309.417 133.972L300.531 133.341L300.679 131.216Z" fill="#CED6DB"/>
<path d="M552.153 153.291L561.007 154.233L560.786 156.351L551.932 155.409L552.153 153.291Z" fill="#CED6DB"/>
<path d="M301.112 126.638L309.971 127.58L309.75 129.699L300.891 128.757L301.112 126.638Z" fill="#CED6DB"/>
<path d="M551.663 157.558L560.479 158.812L560.185 160.922L551.369 159.668L551.663 157.558Z" fill="#CED6DB"/>
<path d="M301.697 122.07L310.519 123.323L310.226 125.432L301.403 124.179L301.697 122.07Z" fill="#CED6DB"/>
<path d="M551.045 161.808L559.815 163.372L559.448 165.47L550.679 163.906L551.045 161.808Z" fill="#CED6DB"/>
<path d="M302.453 117.526L311.224 119.09L310.858 121.188L302.086 119.624L302.453 117.526Z" fill="#CED6DB"/>
<path d="M550.262 166.04L558.971 167.914L558.532 169.998L549.823 168.124L550.262 166.04Z" fill="#CED6DB"/>
<path d="M303.364 113.009L312.076 114.881L311.638 116.964L302.925 115.092L303.364 113.009Z" fill="#CED6DB"/>
<path d="M549.342 170.231L557.98 172.408L557.47 174.475L548.831 172.298L549.342 170.231Z" fill="#CED6DB"/>
<path d="M304.416 108.523L313.059 110.701L312.549 112.768L303.906 110.59L304.416 108.523Z" fill="#CED6DB"/>
<path d="M548.284 174.385L556.843 176.865L556.262 178.913L547.703 176.434L548.284 174.385Z" fill="#CED6DB"/>
<path d="M305.634 104.085L314.197 106.565L313.616 108.614L305.052 106.133L305.634 104.085Z" fill="#CED6DB"/>
<path d="M547.084 178.502L555.552 181.281L554.901 183.308L546.432 180.528L547.084 178.502Z" fill="#CED6DB"/>
<path d="M307.009 99.6817L315.479 102.463L314.827 104.489L306.357 101.708L307.009 99.6817Z" fill="#CED6DB"/>
<path d="M545.728 182.575L554.095 185.653L553.374 187.654L545.007 184.576L545.728 182.575Z" fill="#CED6DB"/>
<path d="M308.523 95.3505L316.892 98.429L316.171 100.43L307.802 97.3519L308.523 95.3505Z" fill="#CED6DB"/>
<path d="M544.23 186.585L552.484 189.956L551.694 191.931L543.44 188.56L544.23 186.585Z" fill="#CED6DB"/>
<path d="M310.201 91.0584L318.459 94.4302L317.669 96.4052L309.411 93.0335L310.201 91.0584Z" fill="#CED6DB"/>
<path d="M542.608 190.549L550.741 194.208L549.884 196.154L541.751 192.495L542.608 190.549Z" fill="#CED6DB"/>
<path d="M312.017 86.8308L320.154 90.491L319.296 92.437L311.159 88.7769L312.017 86.8308Z" fill="#CED6DB"/>
<path d="M540.848 194.471L548.851 198.415L547.926 200.33L539.924 196.386L540.848 194.471Z" fill="#CED6DB"/>
<path d="M313.97 82.6707L321.975 86.6155L321.05 88.5307L313.046 84.586L313.97 82.6707Z" fill="#CED6DB"/>
<path d="M538.956 198.305L546.816 202.528L545.826 204.409L537.966 200.186L538.956 198.305Z" fill="#CED6DB"/>
<path d="M316.078 78.5847L323.943 82.8103L322.953 84.6912L315.088 80.4656L316.078 78.5847Z" fill="#CED6DB"/>
<path d="M536.932 202.09L544.643 206.589L543.588 208.433L535.878 203.934L536.932 202.09Z" fill="#CED6DB"/>
<path d="M318.316 74.5716L326.031 79.0708L324.977 80.9164L317.261 76.4172L318.316 74.5716Z" fill="#CED6DB"/>
<path d="M534.759 205.785L542.309 210.552L541.191 212.359L533.641 207.592L534.759 205.785Z" fill="#CED6DB"/>
<path d="M320.703 70.6402L328.257 75.4097L327.14 77.2167L319.585 72.4472L320.703 70.6402Z" fill="#CED6DB"/>
<path d="M532.473 209.412L539.854 214.443L538.674 216.21L531.293 211.178L532.473 209.412Z" fill="#CED6DB"/>
<path d="M323.211 66.788L330.596 71.8218L329.417 73.5883L322.032 68.5545L323.211 66.788Z" fill="#CED6DB"/>
<path d="M530.075 212.943L537.28 218.232L536.041 219.956L528.836 214.667L530.075 212.943Z" fill="#CED6DB"/>
<path d="M325.859 63.0434L333.067 68.334L331.827 70.0574L324.62 64.7668L325.859 63.0434Z" fill="#CED6DB"/>
<path d="M527.537 216.398L534.554 221.937L533.256 223.616L526.239 218.077L527.537 216.398Z" fill="#CED6DB"/>
<path d="M328.638 59.385L335.657 64.9255L334.359 66.6042L327.34 61.0638L328.638 59.385Z" fill="#CED6DB"/>
<path d="M524.889 219.749L531.71 225.532L530.354 227.164L523.534 221.381L524.889 219.749Z" fill="#CED6DB"/>
<path d="M331.537 55.8216L338.36 61.6069L337.005 63.2388L330.181 57.4535L331.537 55.8216Z" fill="#CED6DB"/>
<path d="M522.126 223.022L528.742 229.042L527.331 230.625L520.715 224.605L522.126 223.022Z" fill="#CED6DB"/>
<path d="M334.554 52.3676L341.174 58.3901L339.763 59.9732L333.143 53.9506L334.554 52.3676Z" fill="#CED6DB"/>
<path d="M519.263 226.185L525.667 232.436L524.202 233.968L517.798 227.717L519.263 226.185Z" fill="#CED6DB"/>
<path d="M337.693 49.0243L344.099 55.2756L342.635 56.8076L336.228 50.5563L337.693 49.0243Z" fill="#CED6DB"/>
<path d="M516.286 229.249L522.472 235.719L520.956 237.199L514.769 230.729L516.286 229.249Z" fill="#CED6DB"/>
<path d="M340.944 45.7916L347.129 52.2673L345.612 53.7463L339.427 47.2705L340.944 45.7916Z" fill="#CED6DB"/>
<path d="M513.212 232.197L519.169 238.883L517.602 240.308L511.644 233.622L513.212 232.197Z" fill="#CED6DB"/>
<path d="M344.303 42.675L350.26 49.3645L348.693 50.7895L342.735 44.0999L344.303 42.675Z" fill="#CED6DB"/>
<path d="M510.011 235.046L515.733 241.938L514.117 243.307L508.395 236.415L510.011 235.046Z" fill="#CED6DB"/>
<path d="M347.771 39.6827L353.495 46.5786L351.879 47.9476L346.155 41.0516L347.771 39.6827Z" fill="#CED6DB"/>
<path d="M506.747 237.79L512.229 244.88L510.568 246.191L505.085 239.102L506.747 237.79Z" fill="#CED6DB"/>
<path d="M351.335 36.8141L356.82 43.9062L355.158 45.2179L349.673 38.1258L351.335 36.8141Z" fill="#CED6DB"/>
<path d="M503.362 240.391L508.595 247.668L506.889 248.921L501.656 241.643L503.362 240.391Z" fill="#CED6DB"/>
<path d="M355.002 34.0694L360.238 41.3501L358.532 42.6023L353.296 35.3216L355.002 34.0694Z" fill="#CED6DB"/>
<path d="M499.912 242.891L504.89 250.35L503.142 251.541L498.164 244.082L499.912 242.891Z" fill="#CED6DB"/>
<path d="M358.758 31.4593L363.739 38.9209L361.99 40.112L357.01 32.6504L358.758 31.4593Z" fill="#CED6DB"/>
<path d="M496.375 245.262L501.093 252.892L499.305 254.021L494.587 246.391L496.375 245.262Z" fill="#CED6DB"/>
<path d="M362.602 28.9822L367.321 36.6147L365.533 37.7434L360.814 30.1108L362.602 28.9822Z" fill="#CED6DB"/>
<path d="M492.74 247.496L497.192 255.287L495.366 256.352L490.914 248.562L492.74 247.496Z" fill="#CED6DB"/>
<path d="M366.533 26.6355L370.986 34.4292L369.159 35.4944L364.707 27.7008L366.533 26.6355Z" fill="#CED6DB"/>
<path d="M489.036 249.628L493.215 257.572L491.353 258.572L487.174 250.628L489.036 249.628Z" fill="#CED6DB"/>
<path d="M370.541 24.4357L374.72 32.3828L372.858 33.3824L368.678 25.4353L370.541 24.4357Z" fill="#CED6DB"/>
<path d="M485.277 251.598L489.18 259.681L487.285 260.615L483.382 252.532L485.277 251.598Z" fill="#CED6DB"/>
<path d="M374.619 22.3779L378.524 30.4663L376.628 31.4005L372.723 23.3121L374.619 22.3779Z" fill="#CED6DB"/>
<path d="M481.423 253.447L485.044 261.666L483.118 262.532L479.496 254.314L481.423 253.447Z" fill="#CED6DB"/>
<path d="M378.769 20.4632L382.391 28.6848L380.465 29.5512L376.842 21.3297L378.769 20.4632Z" fill="#CED6DB"/>
<path d="M477.544 255.159L480.879 263.5L478.923 264.298L475.589 255.957L477.544 255.159Z" fill="#CED6DB"/>
<path d="M382.981 18.6983L386.317 27.0432L384.362 27.841L381.026 19.4961L382.981 18.6983Z" fill="#CED6DB"/>
<path d="M473.572 256.729L476.615 265.183L474.634 265.911L471.591 257.457L473.572 256.729Z" fill="#CED6DB"/>
<path d="M387.253 17.0805L390.298 25.5388L388.316 26.267L385.272 17.8086L387.253 17.0805Z" fill="#CED6DB"/>
<path d="M469.587 258.175L472.339 266.729L470.333 267.388L467.581 258.833L469.587 258.175Z" fill="#CED6DB"/>
<path d="M391.577 15.6171L394.326 24.1765L392.32 24.8339L389.572 16.2745L391.577 15.6171Z" fill="#CED6DB"/>
<path d="M465.533 259.462L467.985 268.109L465.958 268.696L463.506 260.049L465.533 259.462Z" fill="#CED6DB"/>
<path d="M395.949 14.3057L398.402 22.9575L396.376 23.5441L393.923 14.8922L395.949 14.3057Z" fill="#CED6DB"/>
<path d="M461.436 260.595L463.589 269.325L461.543 269.839L459.391 261.11L461.436 260.595Z" fill="#CED6DB"/>
<path d="M400.364 13.1509L402.517 21.8838L400.471 22.3987L398.318 13.6658L400.364 13.1509Z" fill="#CED6DB"/>
<path d="M457.303 261.612L459.155 270.411L457.092 270.854L455.24 262.055L457.303 261.612Z" fill="#CED6DB"/>
<path d="M404.814 12.1499L406.667 20.9524L404.604 21.3956L402.752 12.5931L404.814 12.1499Z" fill="#CED6DB"/>
<path d="M453.122 262.458L454.665 271.317L452.588 271.687L451.045 262.828L453.122 262.458Z" fill="#CED6DB"/>
<path d="M409.302 11.3062L410.846 20.1694L408.769 20.5386L407.226 11.6754L409.302 11.3062Z" fill="#CED6DB"/>
<path d="M448.93 263.176L450.169 272.084L448.081 272.38L446.842 263.473L448.93 263.176Z" fill="#CED6DB"/>
<path d="M413.809 10.6224L415.049 19.5337L412.961 19.8302L411.721 10.919L413.809 10.6224Z" fill="#CED6DB"/>
<path d="M444.73 263.733L445.66 272.679L443.563 272.902L442.633 263.956L444.73 263.733Z" fill="#CED6DB"/>
<path d="M418.34 10.0976L419.271 19.0466L417.174 19.2693L416.243 10.3202L418.34 10.0976Z" fill="#CED6DB"/>
<path d="M440.482 264.137L441.104 273.111L439 273.26L438.379 264.285L440.482 264.137Z" fill="#CED6DB"/>
<path d="M422.89 9.73413L423.507 18.7122L421.403 18.8598L420.786 9.88176L422.89 9.73413Z" fill="#CED6DB"/>
<path d="M436.252 264.411L436.561 273.401L434.453 273.475L434.144 264.485L436.252 264.411Z" fill="#CED6DB"/>
<path d="M427.446 9.52819L427.755 18.5229L425.647 18.5969L425.338 9.60211L427.446 9.52819Z" fill="#CED6DB"/>
<path d="M57.2363 190.323H60.533L65.5066 185.11H62.2104L57.2363 190.323Z" fill="#B0B5B7"/>
<path d="M51.0251 190.323H54.3207L59.2948 185.11H55.9986L51.0251 190.323Z" fill="#B0B5B7"/>
<path d="M44.8127 190.323H48.1084L53.0819 185.11H49.7862L44.8127 190.323Z" fill="#B0B5B7"/>
<path d="M38.6003 190.323H41.897L46.8705 185.11H43.5738L38.6003 190.323Z" fill="#B0B5B7"/>
<path d="M32.3885 190.323H35.6842L40.6583 185.11H37.3626L32.3885 190.323Z" fill="#B0B5B7"/>
<path d="M26.1762 190.323H29.4719L34.446 185.11H31.1503L26.1762 190.323Z" fill="#B0B5B7"/>
<path d="M19.9639 190.323H23.2606L28.2336 185.11H24.939L19.9639 190.323Z" fill="#B0B5B7"/>
<path d="M13.7525 190.323H17.0482L22.0217 185.11H18.7266L13.7525 190.323Z" fill="#B0B5B7"/>
<path d="M13.1142 136.779H127.672L157.308 106.838H222.937L254.301 75.1493H298.208C298.354 75.1493 298.472 75.03 298.472 74.883C298.472 74.736 298.354 74.6167 298.208 74.6167H254.083L222.718 106.306H157.089L127.454 136.246H13.1142C12.9687 136.246 12.8506 136.366 12.8506 136.513C12.8506 136.66 12.9687 136.779 13.1142 136.779Z" fill="#CED6DB"/>
<path d="M246.351 108.548H376.839C376.985 108.548 377.103 108.429 377.103 108.282C377.103 108.135 376.985 108.015 376.839 108.015H246.57L209.295 70.3562H161.253L133.544 98.3521H104.594L33.3579 26.3806C33.2551 26.2768 33.088 26.2768 32.9852 26.3806C32.8824 26.4845 32.8824 26.6533 32.9852 26.7572L104.376 98.8847H133.762L161.472 70.8888H209.076L246.351 108.548Z" fill="#B0B5B7"/>
<path d="M13.1141 193.682H112.768L188.254 117.415H238.145L269.961 85.2707H361.201C361.492 85.2707 361.728 85.0321 361.728 84.7382C361.728 84.4442 361.492 84.2056 361.201 84.2056H269.524L237.709 116.35H187.818L112.332 192.617H13.1141C12.8226 192.617 12.587 192.855 12.587 193.149C12.587 193.443 12.8226 193.682 13.1141 193.682Z" fill="#B0B5B7"/>
<path d="M112.508 178.296H196.316L256.5 117.49H341.17C341.316 117.49 341.434 117.371 341.434 117.224C341.434 117.077 341.316 116.958 341.17 116.958H256.282L196.098 177.764H112.726L54.2241 118.658H0.26355C0.118042 118.658 -3.05176e-05 118.777 -3.05176e-05 118.924C-3.05176e-05 119.071 0.118042 119.19 0.26355 119.19H54.0053L112.508 178.296Z" fill="#B0B5B7"/>
<path d="M290.28 97.1633H321.93C322.075 97.1633 322.193 97.044 322.193 96.897C322.193 96.75 322.075 96.6307 321.93 96.6307H290.498L257.289 63.0778H201.018L178.088 86.2453H123.219L62.6321 25.0315C62.5293 24.9276 62.3622 24.9276 62.2594 25.0315C62.1566 25.1354 62.1566 25.3042 62.2594 25.408L123.001 86.7779H178.305L201.236 63.6104H257.07L290.28 97.1633Z" fill="#CED6DB"/>
<path d="M98.05 208.815H136.735L200.863 144.025H281.614L300.69 124.752H379.651C379.797 124.752 379.915 124.633 379.915 124.486C379.915 124.339 379.797 124.219 379.651 124.219H300.471L281.396 143.492H200.644L136.517 208.282H98.2682L58.2125 167.812H13.1142C12.9687 167.812 12.8506 167.932 12.8506 168.079C12.8506 168.226 12.9687 168.345 13.1142 168.345H57.9943L98.05 208.815Z" fill="#B0B5B7"/>
<path d="M297.55 65.829H339.061C339.352 65.829 339.588 65.5905 339.588 65.2965C339.588 65.0025 339.352 64.7639 339.061 64.7639H297.987L274.442 40.9749H184.476L166.73 23.0449C166.524 22.8366 166.191 22.8366 165.985 23.0449C165.779 23.2531 165.779 23.5897 165.985 23.7979L184.04 42.0395H274.005L297.55 65.829Z" fill="#B0B5B7"/>
<path d="M373.621 159.719C373.718 159.719 373.815 159.667 373.889 159.563C374.037 159.355 374.037 159.018 373.889 158.81L353.37 130H288.593L270.736 155.073H238.399C238.19 155.073 238.02 155.312 238.02 155.606C238.02 155.9 238.19 156.138 238.399 156.138H271.05L288.907 131.065H353.056L373.352 159.563C373.426 159.668 373.524 159.719 373.621 159.719Z" fill="#B0B5B7"/>
<path d="M314.022 75.1494H352.876L374.269 53.5355H425.688C425.833 53.5355 425.951 53.4162 425.951 53.2692C425.951 53.1222 425.833 53.0029 425.688 53.0029H374.051L352.658 74.6169H314.022C313.877 74.6169 313.759 74.7362 313.759 74.8831C313.759 75.0301 313.877 75.1494 314.022 75.1494Z" fill="#B0B5B7"/>
<path d="M339.061 97.1634H367.636L395.531 68.9806H430.257C430.402 68.9806 430.52 68.8613 430.52 68.7143C430.52 68.5673 430.402 68.448 430.257 68.448H395.313L367.418 96.6308H339.061C338.916 96.6308 338.797 96.7501 338.797 96.8971C338.797 97.0441 338.916 97.1634 339.061 97.1634Z" fill="#B0B5B7"/>
<path d="M376.548 108.5C376.615 108.5 376.683 108.474 376.735 108.422L401.158 83.746H430.257C430.402 83.746 430.52 83.6267 430.52 83.4797C430.52 83.3327 430.402 83.2134 430.257 83.2134H400.94L376.362 108.045C376.259 108.149 376.259 108.318 376.362 108.422C376.413 108.474 376.48 108.5 376.548 108.5Z" fill="#B0B5B7"/>
<path d="M84.8779 117.756H121.749C122.04 117.756 122.276 117.518 122.276 117.224C122.276 116.93 122.04 116.691 121.749 116.691H85.3144L54.2 85.2546H38.01C37.7185 85.2546 37.4828 85.4932 37.4828 85.7872C37.4828 86.0812 37.7185 86.3198 38.01 86.3198H53.7635L84.8779 117.756Z" fill="#B0B5B7"/>
<path d="M98.1591 212.321C100.218 212.321 101.893 210.629 101.893 208.549C101.893 206.469 100.218 204.777 98.1591 204.777C96.1006 204.777 94.4254 206.469 94.4254 208.549C94.4254 210.629 96.1006 212.321 98.1591 212.321ZM98.1591 205.309C99.9271 205.309 101.366 206.762 101.366 208.549C101.366 210.335 99.9271 211.789 98.1591 211.789C96.3911 211.789 94.9525 210.336 94.9525 208.549C94.9525 206.762 96.3911 205.309 98.1591 205.309Z" fill="#CED6DB"/>
<path d="M98.1591 211.005C96.8164 211.005 95.7279 209.905 95.7279 208.549C95.7279 207.192 96.8164 206.092 98.1591 206.092C99.5018 206.092 100.59 207.192 100.59 208.549C100.59 209.905 99.5018 211.005 98.1591 211.005Z" fill="#CED6DB"/>
<path d="M127.656 140.286C129.715 140.286 131.39 138.594 131.39 136.513C131.39 134.433 129.715 132.741 127.656 132.741C125.598 132.741 123.922 134.433 123.922 136.513C123.922 138.594 125.598 140.286 127.656 140.286ZM127.656 133.274C129.425 133.274 130.863 134.727 130.863 136.513C130.863 138.3 129.425 139.753 127.656 139.753C125.888 139.753 124.45 138.3 124.45 136.513C124.45 134.727 125.888 133.274 127.656 133.274Z" fill="#CED6DB"/>
<path d="M127.656 138.969C126.313 138.969 125.225 137.869 125.225 136.513C125.225 135.156 126.313 134.056 127.656 134.056C128.999 134.056 130.087 135.156 130.087 136.513C130.087 137.869 128.999 138.969 127.656 138.969Z" fill="#CED6DB"/>
<path d="M125.526 120.996C127.585 120.996 129.26 119.304 129.26 117.224C129.26 115.143 127.585 113.451 125.526 113.451C123.468 113.451 121.792 115.143 121.792 117.224C121.792 119.304 123.468 120.996 125.526 120.996ZM125.526 113.984C127.294 113.984 128.733 115.437 128.733 117.224C128.733 119.01 127.294 120.463 125.526 120.463C123.758 120.463 122.319 119.01 122.319 117.224C122.319 115.437 123.758 113.984 125.526 113.984Z" fill="#CED6DB"/>
<path d="M125.526 119.68C124.183 119.68 123.095 118.58 123.095 117.224C123.095 115.867 124.183 114.768 125.526 114.768C126.869 114.768 127.957 115.867 127.957 117.224C127.957 118.58 126.869 119.68 125.526 119.68Z" fill="#CED6DB"/>
<path d="M164.437 117.224C164.437 118.58 165.525 119.68 166.868 119.68C168.211 119.68 169.299 118.58 169.299 117.224C169.299 115.867 168.21 114.768 166.868 114.768C165.526 114.768 164.437 115.867 164.437 117.224Z" fill="#CED6DB"/>
<path d="M38.9498 158.723C37.6071 158.723 36.5186 157.624 36.5186 156.267C36.5186 154.911 37.6071 153.811 38.9498 153.811C40.2925 153.811 41.3809 154.911 41.3809 156.267C41.3809 157.624 40.2925 158.723 38.9498 158.723Z" fill="#CED6DB"/>
<path d="M194.054 74.7038C196.113 74.7038 197.788 73.0118 197.788 70.9315C197.788 68.8512 196.113 67.1592 194.054 67.1592C191.996 67.1592 190.32 68.8512 190.32 70.9315C190.32 73.0118 191.996 74.7038 194.054 74.7038ZM194.054 67.6918C195.823 67.6918 197.261 69.1452 197.261 70.9315C197.261 72.7178 195.823 74.1712 194.054 74.1712C192.286 74.1712 190.848 72.7178 190.848 70.9315C190.848 69.1452 192.286 67.6918 194.054 67.6918Z" fill="#CED6DB"/>
<path d="M194.054 73.3877C192.711 73.3877 191.623 72.288 191.623 70.9314C191.623 69.5748 192.711 68.4751 194.054 68.4751C195.397 68.4751 196.485 69.5748 196.485 70.9314C196.485 72.288 195.397 73.3877 194.054 73.3877Z" fill="#CED6DB"/>
<path d="M233.985 158.679C236.044 158.679 237.719 156.987 237.719 154.906C237.719 152.826 236.044 151.134 233.985 151.134C231.926 151.134 230.251 152.826 230.251 154.906C230.251 156.987 231.926 158.679 233.985 158.679ZM233.985 151.667C235.753 151.667 237.191 153.12 237.191 154.906C237.191 156.693 235.753 158.146 233.985 158.146C232.217 158.146 230.778 156.693 230.778 154.906C230.778 153.12 232.217 151.667 233.985 151.667Z" fill="#B0B5B7"/>
<path d="M233.985 157.363C232.642 157.363 231.554 156.263 231.554 154.906C231.554 153.55 232.642 152.45 233.985 152.45C235.328 152.45 236.416 153.55 236.416 154.906C236.416 156.263 235.328 157.363 233.985 157.363Z" fill="#B0B5B7"/>
<path d="M301.678 78.6557C303.737 78.6557 305.412 76.9637 305.412 74.8834C305.412 72.8031 303.737 71.1111 301.678 71.1111C299.619 71.1111 297.945 72.8031 297.945 74.8834C297.945 76.9637 299.619 78.6557 301.678 78.6557ZM301.678 71.6437C303.446 71.6437 304.885 73.0971 304.885 74.8834C304.885 76.6697 303.446 78.1231 301.678 78.1231C299.91 78.1231 298.472 76.6697 298.472 74.8834C298.472 73.0971 299.91 71.6437 301.678 71.6437Z" fill="#CED6DB"/>
<path d="M301.678 77.3393C300.336 77.3393 299.247 76.2396 299.247 74.883C299.247 73.5265 300.336 72.4268 301.678 72.4268C303.021 72.4268 304.11 73.5265 304.11 74.883C304.11 76.2396 303.021 77.3393 301.678 77.3393Z" fill="#CED6DB"/>
<path d="M341.779 67.9464C343.225 67.9464 344.402 66.7577 344.402 65.2968C344.402 63.8359 343.225 62.6472 341.779 62.6472C340.334 62.6472 339.157 63.8359 339.157 65.2968C339.157 66.7577 340.334 67.9464 341.779 67.9464ZM341.779 63.1798C342.935 63.1798 343.875 64.1294 343.875 65.2968C343.875 66.4643 342.935 67.4139 341.779 67.4139C340.624 67.4139 339.684 66.4643 339.684 65.2968C339.684 64.1294 340.624 63.1798 341.779 63.1798Z" fill="#B0B5B7"/>
<path d="M340.126 65.2966C340.126 66.2185 340.866 66.9663 341.779 66.9663C342.691 66.9663 343.432 66.2185 343.432 65.2966C343.432 64.3747 342.691 63.627 341.779 63.627C340.866 63.627 340.126 64.3747 340.126 65.2966Z" fill="#B0B5B7"/>
<path d="M395.422 71.3642C396.868 71.3642 398.044 70.1754 398.044 68.7146C398.044 67.2537 396.868 66.0649 395.422 66.0649C393.976 66.0649 392.799 67.2537 392.799 68.7146C392.799 70.1754 393.976 71.3642 395.422 71.3642ZM395.422 66.5975C396.577 66.5975 397.517 67.5471 397.517 68.7146C397.517 69.882 396.577 70.8316 395.422 70.8316C394.266 70.8316 393.326 69.882 393.326 68.7146C393.326 67.5471 394.266 66.5975 395.422 66.5975Z" fill="#B0B5B7"/>
<path d="M393.769 68.7143C393.769 69.6362 394.509 70.384 395.422 70.384C396.334 70.384 397.074 69.6362 397.074 68.7143C397.074 67.7924 396.334 67.0447 395.422 67.0447C394.509 67.0447 393.769 67.7924 393.769 68.7143Z" fill="#B0B5B7"/>
<path d="M343.677 119.873C345.123 119.873 346.299 118.684 346.299 117.224C346.299 115.763 345.123 114.574 343.677 114.574C342.231 114.574 341.054 115.763 341.054 117.224C341.054 118.684 342.231 119.873 343.677 119.873ZM343.677 115.107C344.832 115.107 345.772 116.056 345.772 117.224C345.772 118.391 344.832 119.341 343.677 119.341C342.521 119.341 341.581 118.391 341.581 117.224C341.581 116.056 342.522 115.107 343.677 115.107Z" fill="#B0B5B7"/>
<path d="M342.024 117.224C342.024 118.146 342.764 118.893 343.677 118.893C344.589 118.893 345.329 118.146 345.329 117.224C345.329 116.302 344.589 115.554 343.677 115.554C342.764 115.554 342.024 116.302 342.024 117.224Z" fill="#B0B5B7"/>
<path d="M382.01 127.136C383.456 127.136 384.633 125.947 384.633 124.486C384.633 123.025 383.456 121.836 382.01 121.836C380.564 121.836 379.388 123.025 379.388 124.486C379.388 125.947 380.564 127.136 382.01 127.136ZM382.01 122.369C383.166 122.369 384.106 123.319 384.106 124.486C384.106 125.653 383.166 126.603 382.01 126.603C380.855 126.603 379.915 125.653 379.915 124.486C379.915 123.319 380.855 122.369 382.01 122.369Z" fill="#B0B5B7"/>
<path d="M380.358 124.486C380.358 125.409 381.098 126.156 382.01 126.156C382.923 126.156 383.663 125.408 383.663 124.486C383.663 123.564 382.923 122.817 382.01 122.817C381.098 122.817 380.358 123.564 380.358 124.486Z" fill="#B0B5B7"/>
<path d="M376.377 162.299C377.823 162.299 379 161.11 379 159.65C379 158.189 377.823 157 376.377 157C374.932 157 373.755 158.189 373.755 159.65C373.755 161.11 374.932 162.299 376.377 162.299ZM376.377 157.533C377.533 157.533 378.473 158.482 378.473 159.65C378.473 160.817 377.533 161.767 376.377 161.767C375.222 161.767 374.282 160.817 374.282 159.65C374.282 158.482 375.222 157.533 376.377 157.533Z" fill="#B0B5B7"/>
<path d="M374.725 159.65C374.725 160.572 375.465 161.32 376.378 161.32C377.29 161.32 378.03 160.572 378.03 159.65C378.03 158.728 377.29 157.98 376.378 157.98C375.465 157.98 374.725 158.727 374.725 159.65Z" fill="#B0B5B7"/>
<path d="M268.601 77.8568C266.975 77.8568 265.657 76.5255 265.657 74.8833C265.657 73.2412 266.975 71.9099 268.601 71.9099C270.226 71.9099 271.544 73.2412 271.544 74.8833C271.544 76.5255 270.226 77.8568 268.601 77.8568Z" fill="#CED6DB"/>
<path d="M37.7425 85.9825C37.6689 84.342 38.9255 82.9518 40.5493 82.8774C42.173 82.803 43.549 84.0726 43.6227 85.7131C43.6963 87.3537 42.4397 88.7439 40.8159 88.8183C39.1922 88.8927 37.8161 87.6231 37.7425 85.9825Z" fill="#CED6DB"/>
<path d="M68.6452 136.513C68.6452 138.155 69.9631 139.486 71.5882 139.486C73.2134 139.486 74.5312 138.155 74.5312 136.513C74.5312 134.871 73.2134 133.54 71.5882 133.54C69.9631 133.54 68.6452 134.871 68.6452 136.513Z" fill="#CED6DB"/>
<path d="M81.1257 193.149C81.1257 194.224 81.9886 195.096 83.0529 195.096C84.1172 195.096 84.9802 194.224 84.9802 193.149C84.9802 192.073 84.1167 191.201 83.0529 191.201C81.9886 191.201 81.1257 192.074 81.1257 193.149Z" fill="#CED6DB"/>
<path d="M164.941 178.031C164.941 179.105 165.804 179.977 166.868 179.977C167.932 179.977 168.795 179.105 168.795 178.031C168.795 176.955 167.932 176.083 166.868 176.083C165.804 176.083 164.941 176.955 164.941 178.031Z" fill="#CED6DB"/>
<path d="M145.579 89.5428C143.954 89.5428 142.636 88.2116 142.636 86.5694C142.636 84.9272 143.954 83.5959 145.579 83.5959C147.204 83.5959 148.522 84.9272 148.522 86.5694C148.522 88.2116 147.204 89.5428 145.579 89.5428Z" fill="#CED6DB"/>
<path d="M112.194 87.149C112.194 88.3068 113.123 89.2452 114.268 89.2452C115.414 89.2452 116.343 88.3068 116.343 87.149C116.343 85.9911 115.414 85.0527 114.268 85.0527C113.123 85.0527 112.194 85.9911 112.194 87.149Z" fill="#CED6DB"/>
<path d="M104.781 90.8852C104.781 92.1102 105.765 93.1034 106.977 93.1034C108.188 93.1034 109.172 92.1102 109.172 90.8852C109.172 89.6603 108.188 88.667 106.977 88.667C105.765 88.667 104.781 89.6603 104.781 90.8852Z" fill="#B0B5B7"/>
<path d="M229.944 147.692C227.809 147.692 226.078 145.943 226.078 143.786C226.078 141.629 227.809 139.881 229.944 139.881C232.079 139.881 233.809 141.629 233.809 143.786C233.809 145.943 232.079 147.692 229.944 147.692Z" fill="#B0B5B7"/>
<path d="M127.606 181.936C125.471 181.936 123.74 180.187 123.74 178.03C123.74 175.873 125.471 174.125 127.606 174.125C129.74 174.125 131.471 175.873 131.471 178.03C131.471 180.187 129.74 181.936 127.606 181.936Z" fill="#CED6DB"/>
<path d="M244.704 108.282C244.704 109.287 245.51 110.101 246.505 110.101C247.5 110.101 248.306 109.287 248.306 108.282C248.306 107.277 247.5 106.462 246.505 106.462C245.51 106.462 244.704 107.277 244.704 108.282Z" fill="#CED6DB"/>
<path d="M306.093 129.759C306.093 130.764 306.9 131.579 307.895 131.579C308.889 131.579 309.696 130.764 309.696 129.759C309.696 128.754 308.889 127.939 307.895 127.939C306.9 127.939 306.093 128.754 306.093 129.759Z" fill="#B0B5B7"/>
<path d="M233.794 99.5392C235.998 99.5392 237.792 97.7273 237.792 95.5001C237.792 93.2728 235.999 91.4609 233.794 91.4609C231.589 91.4609 229.796 93.2728 229.796 95.5001C229.795 97.7273 231.589 99.5392 233.794 99.5392ZM233.794 91.993C235.708 91.993 237.265 93.5662 237.265 95.4995C237.265 97.4334 235.708 99.0061 233.794 99.0061C231.879 99.0061 230.323 97.4328 230.323 95.4995C230.322 93.5662 231.879 91.993 233.794 91.993Z" fill="#CED6DB"/>
<path d="M231.212 95.4996C231.212 96.9397 232.368 98.1072 233.794 98.1072C235.219 98.1072 236.374 96.9392 236.374 95.4996C236.374 94.0595 235.218 92.8921 233.794 92.8921C232.369 92.8921 231.212 94.06 231.212 95.4996Z" fill="#CED6DB"/>
<path d="M321.93 99.8704C320.304 99.8704 318.987 98.5392 318.987 96.897C318.987 95.2548 320.304 93.9236 321.93 93.9236C323.555 93.9236 324.873 95.2548 324.873 96.897C324.873 98.5392 323.555 99.8704 321.93 99.8704Z" fill="#B0B5B7"/>
<path d="M339.061 99.8704C337.436 99.8704 336.118 98.5392 336.118 96.897C336.118 95.2548 337.436 93.9236 339.061 93.9236C340.686 93.9236 342.004 95.2548 342.004 96.897C342.004 98.5392 340.686 99.8704 339.061 99.8704Z" fill="#B0B5B7"/>
<path d="M376.548 111.207C374.923 111.207 373.605 109.876 373.605 108.234C373.605 106.592 374.923 105.26 376.548 105.26C378.173 105.26 379.491 106.592 379.491 108.234C379.491 109.876 378.173 111.207 376.548 111.207Z" fill="#B0B5B7"/>
<path d="M398.48 83.4798C398.48 85.1217 399.798 86.4532 401.423 86.4532C403.048 86.4532 404.366 85.1217 404.366 83.4798C404.366 81.8378 403.048 80.5063 401.423 80.5063C399.798 80.5063 398.48 81.8378 398.48 83.4798Z" fill="#B0B5B7"/>
<path d="M278.309 85.8922C277.678 85.8922 277.166 85.3755 277.166 84.7381C277.166 84.1007 277.678 83.584 278.309 83.584C278.94 83.584 279.451 84.1007 279.451 84.7381C279.451 85.3755 278.94 85.8922 278.309 85.8922Z" fill="#CED6DB"/>
<path d="M254.236 76.9244C253.12 76.9244 252.215 76.0104 252.215 74.883C252.215 73.7555 253.12 72.8416 254.236 72.8416C255.352 72.8416 256.256 73.7555 256.256 74.883C256.256 76.0104 255.352 76.9244 254.236 76.9244Z" fill="#CED6DB"/>
<path d="M312.485 76.9244C311.369 76.9244 310.464 76.0104 310.464 74.883C310.464 73.7555 311.369 72.8416 312.485 72.8416C313.601 72.8416 314.505 73.7555 314.505 74.883C314.505 76.0104 313.601 76.9244 312.485 76.9244Z" fill="#B0B5B7"/>
<path d="M361.201 86.7796C360.085 86.7796 359.181 85.8656 359.181 84.7382C359.181 83.6107 360.085 82.6968 361.201 82.6968C362.317 82.6968 363.222 83.6107 363.222 84.7382C363.222 85.8656 362.317 86.7796 361.201 86.7796Z" fill="#B0B5B7"/>
<path d="M139.627 53.5355H305.149C305.294 53.5355 305.412 53.4162 305.412 53.2692C305.412 53.1222 305.294 53.0029 305.149 53.0029H139.627C139.482 53.0029 139.363 53.1222 139.363 53.2692C139.363 53.4162 139.482 53.5355 139.627 53.5355Z" fill="#CED6DB"/>
<path d="M306.643 55.3103C305.527 55.3103 304.622 54.3964 304.622 53.2689C304.622 52.1415 305.527 51.2275 306.643 51.2275C307.758 51.2275 308.663 52.1415 308.663 53.2689C308.663 54.3964 307.758 55.3103 306.643 55.3103Z" fill="#CED6DB"/>
<path d="M139.627 55.3112C138.511 55.3112 137.606 54.397 137.606 53.2692C137.606 52.1415 138.511 51.2273 139.627 51.2273C140.743 51.2273 141.648 52.1415 141.648 53.2692C141.648 54.397 140.743 55.3112 139.627 55.3112Z" fill="#CED6DB"/>
<path d="M113.838 86.8354C113.906 86.8354 113.973 86.8093 114.025 86.7577C114.128 86.6538 114.128 86.485 114.025 86.3811L52.6196 24.3413C52.5168 24.2375 52.3497 24.2375 52.2469 24.3413C52.1441 24.4452 52.1441 24.614 52.2469 24.7179L113.652 86.7572C113.703 86.8093 113.771 86.8354 113.838 86.8354Z" fill="#CED6DB"/>
<path d="M106.203 90.2893C106.271 90.2893 106.338 90.2633 106.389 90.2116C106.492 90.1077 106.492 89.9389 106.389 89.8351L44.9844 27.7947C44.8817 27.6908 44.7146 27.6908 44.6118 27.7947C44.509 27.8985 44.509 28.0674 44.6118 28.1712L106.017 90.2111C106.068 90.2633 106.136 90.2893 106.203 90.2893Z" fill="#B0B5B7"/>
<path d="M39.8934 156.534H128.334L167.055 117.412C167.157 117.308 167.157 117.139 167.055 117.035C166.952 116.932 166.785 116.932 166.682 117.035L128.115 156.001H39.8934C39.7479 156.001 39.6298 156.12 39.6298 156.267C39.6298 156.414 39.7474 156.534 39.8934 156.534Z" fill="#CED6DB"/>
<path d="M228.579 124.893H231.875L236.848 119.68H233.553L228.579 124.893Z" fill="#CED6DB"/>
<path d="M222.367 124.893H225.662L230.636 119.68H227.34L222.367 124.893Z" fill="#CED6DB"/>
<path d="M216.154 124.893H219.451L224.424 119.68H221.128L216.154 124.893Z" fill="#CED6DB"/>
<path d="M209.943 124.893H213.239L218.212 119.68H214.916L209.943 124.893Z" fill="#CED6DB"/>
<path d="M203.73 124.893H207.026L212.001 119.68H208.704L203.73 124.893Z" fill="#CED6DB"/>
<path d="M197.518 124.893H200.814L205.788 119.68H202.493L197.518 124.893Z" fill="#CED6DB"/>
<path d="M191.306 124.893H194.602L199.576 119.68H196.281L191.306 124.893Z" fill="#CED6DB"/>
<path d="M185.094 124.893H188.391L193.364 119.68H190.068L185.094 124.893Z" fill="#CED6DB"/>
<path d="M288.912 172.868H295.025L304.249 163.2H298.137L288.912 172.868Z" fill="#CED6DB"/>
<path d="M277.391 172.868H283.504L292.729 163.2H286.615L277.391 172.868Z" fill="#CED6DB"/>
<path d="M265.869 172.868H271.983L281.208 163.2H275.094L265.869 172.868Z" fill="#CED6DB"/>
<path d="M254.349 172.868H260.462L269.686 163.2H263.573L254.349 172.868Z" fill="#CED6DB"/>
<path d="M242.828 172.868H248.94L258.166 163.2H252.053L242.828 172.868Z" fill="#CED6DB"/>
<path d="M231.306 172.868H237.42L246.645 163.2H240.532L231.306 172.868Z" fill="#CED6DB"/>
<path d="M219.785 172.868H225.899L235.122 163.2H229.011L219.785 172.868Z" fill="#CED6DB"/>
<path d="M208.265 172.868H214.379L223.602 163.2H217.49L208.265 172.868Z" fill="#CED6DB"/>
<path d="M92.9745 40.4422H86.8613L77.6375 30.7742H83.7502L92.9745 40.4422Z" fill="#CED6DB"/>
<path d="M104.495 40.4422H98.3825L89.1581 30.7742H95.2708L104.495 40.4422Z" fill="#CED6DB"/>
<path d="M116.017 40.4422H109.904L100.679 30.7742H106.792L116.017 40.4422Z" fill="#CED6DB"/>
<path d="M127.537 40.4422H121.425L112.2 30.7742H118.313L127.537 40.4422Z" fill="#CED6DB"/>
<path d="M139.058 40.4422H132.946L123.721 30.7742H129.834L139.058 40.4422Z" fill="#CED6DB"/>
<path d="M150.58 40.4422H144.467L135.242 30.7742H141.354L150.58 40.4422Z" fill="#CED6DB"/>
<path d="M162.101 40.4422H155.987L146.764 30.7742H152.875L162.101 40.4422Z" fill="#CED6DB"/>
<path d="M173.621 40.4422H167.508L158.285 30.7742H164.397L173.621 40.4422Z" fill="#CED6DB"/>
<path d="M385.374 147.502H381.628L376.386 142.547L382.255 137H386L380.131 142.547L385.374 147.502Z" fill="#B0B5B7"/>
<path d="M379.526 147.502H375.78L370.538 142.547L376.408 137H380.153L374.283 142.547L379.526 147.502Z" fill="#B0B5B7"/>
<path d="M373.679 147.502H369.933L364.691 142.547L370.56 137H374.305L368.436 142.547L373.679 147.502Z" fill="#B0B5B7"/>
<path d="M367.831 147.502H364.086L358.843 142.547L364.713 137H368.458L362.589 142.547L367.831 147.502Z" fill="#B0B5B7"/>
<path d="M361.984 147.502H358.238L352.996 142.547L358.865 137H362.61L356.741 142.547L361.984 147.502Z" fill="#B0B5B7"/>
<path d="M356.136 147.502H352.391L347.149 142.547L353.018 137H356.763L350.894 142.547L356.136 147.502Z" fill="#B0B5B7"/>
<path d="M350.288 147.502H346.543L341.301 142.547L347.17 137H350.915L345.047 142.547L350.288 147.502Z" fill="#B0B5B7"/>
<path d="M344.441 147.502H340.696L335.454 142.547L341.323 137H345.068L339.199 142.547L344.441 147.502Z" fill="#B0B5B7"/>
<path d="M338.594 147.502H334.849L329.606 142.547L335.475 137H339.221L333.351 142.547L338.594 147.502Z" fill="#B0B5B7"/>
<path d="M332.746 147.502H329.001L323.759 142.547L329.628 137H333.373L327.504 142.547L332.746 147.502Z" fill="#B0B5B7"/>
<path d="M326.899 147.502H323.153L317.912 142.547L323.781 137H327.526L321.656 142.547L326.899 147.502Z" fill="#B0B5B7"/>
<path d="M162.341 66.9957H159.239L154.898 62.8921L159.758 58.2986H162.86L157.999 62.8921L162.341 66.9957Z" fill="#CED6DB"/>
<path d="M157.498 66.9957H154.396L150.054 62.8921L154.915 58.2986H158.017L153.156 62.8921L157.498 66.9957Z" fill="#CED6DB"/>
<path d="M152.655 66.9957H149.553L145.211 62.8921L150.072 58.2986H153.174L148.313 62.8921L152.655 66.9957Z" fill="#CED6DB"/>
<path d="M147.811 66.9957H144.71L140.368 62.8921L145.229 58.2986H148.331L143.47 62.8921L147.811 66.9957Z" fill="#CED6DB"/>
<path d="M142.969 66.9957H139.867L135.525 62.8921L140.386 58.2986H143.488L138.627 62.8921L142.969 66.9957Z" fill="#CED6DB"/>
<path d="M138.125 66.9957H135.024L130.682 62.8921L135.543 58.2986H138.645L133.784 62.8921L138.125 66.9957Z" fill="#CED6DB"/>
<path d="M133.283 66.9957H130.181L125.839 62.8921L130.7 58.2986H133.802L128.941 62.8921L133.283 66.9957Z" fill="#CED6DB"/>
<path d="M128.439 66.9957H125.338L120.996 62.8921L125.857 58.2986H128.959L124.098 62.8921L128.439 66.9957Z" fill="#CED6DB"/>
<path d="M123.597 66.9957H120.494L116.152 62.8921L121.014 58.2986H124.115L119.255 62.8921L123.597 66.9957Z" fill="#CED6DB"/>
<path d="M118.753 66.9957H115.652L111.31 62.8921L116.171 58.2986H119.273L114.412 62.8921L118.753 66.9957Z" fill="#CED6DB"/>
<path d="M113.911 66.9957H110.808L106.467 62.8921L111.328 58.2986H114.429L109.569 62.8921L113.911 66.9957Z" fill="#CED6DB"/>
<path d="M394.52 151.456C393.144 151.456 391.864 151.136 390.68 150.496C389.496 149.84 388.352 148.944 387.248 147.808C387.216 147.776 387.176 147.76 387.128 147.76C386.984 147.76 386.824 147.848 386.648 148.024L386.336 147.688L389.672 144.544L389.984 144.88C389.888 144.96 389.8 145.072 389.72 145.216C389.64 145.36 389.624 145.464 389.672 145.528C391.16 147.416 392.784 148.36 394.544 148.36C395.152 148.36 395.696 148.24 396.176 148C396.672 147.76 397.056 147.456 397.328 147.088C397.6 146.704 397.736 146.312 397.736 145.912C397.736 144.968 396.912 144.192 395.264 143.584L392.312 142.48C391.128 142.048 390.2 141.456 389.528 140.704C388.872 139.952 388.544 139.048 388.544 137.992C388.544 136.952 388.784 136.048 389.264 135.28C389.76 134.496 390.456 133.896 391.352 133.48C392.248 133.064 393.288 132.856 394.472 132.856C395.592 132.856 396.528 133.032 397.28 133.384C398.048 133.72 398.864 134.24 399.728 134.944C399.744 134.96 399.776 134.968 399.824 134.968C399.904 134.968 399.992 134.944 400.088 134.896C400.2 134.832 400.288 134.768 400.352 134.704L400.664 135.016L397.688 137.944L397.376 137.608C397.456 137.528 397.512 137.44 397.544 137.344C397.592 137.232 397.584 137.152 397.52 137.104C396.48 136.272 395.448 135.856 394.424 135.856C393.608 135.856 392.96 136.048 392.48 136.432C392 136.8 391.76 137.272 391.76 137.848C391.76 138.36 391.888 138.752 392.144 139.024C392.416 139.296 392.824 139.528 393.368 139.72L396.272 140.776C397.28 141.144 398.12 141.536 398.792 141.952C399.464 142.352 400 142.888 400.4 143.56C400.8 144.216 401 145.04 401 146.032C401 146.992 400.744 147.888 400.232 148.72C399.736 149.536 398.992 150.2 398 150.712C397.024 151.208 395.864 151.456 394.52 151.456ZM408.61 139.456C409.842 139.456 410.906 139.728 411.802 140.272C412.698 140.8 413.378 141.52 413.842 142.432C414.306 143.344 414.538 144.352 414.538 145.456C414.538 145.792 414.514 146.128 414.466 146.464H405.682C405.746 147.232 406.082 147.832 406.69 148.264C407.298 148.696 408.026 148.912 408.874 148.912C409.45 148.912 409.93 148.832 410.314 148.672C410.714 148.512 411.066 148.272 411.37 147.952C411.402 147.888 411.418 147.848 411.418 147.832C411.418 147.768 411.394 147.704 411.346 147.64C411.298 147.56 411.25 147.504 411.202 147.472L411.49 147.112L414.154 149.2L413.89 149.56C413.65 149.416 413.482 149.4 413.386 149.512C412.266 150.856 410.762 151.528 408.874 151.528C407.658 151.528 406.586 151.264 405.658 150.736C404.73 150.192 404.01 149.472 403.498 148.576C403.002 147.664 402.754 146.656 402.754 145.552C402.754 144.384 403.002 143.336 403.498 142.408C403.994 141.48 404.682 140.76 405.562 140.248C406.458 139.72 407.474 139.456 408.61 139.456ZM411.658 144.232C411.594 143.576 411.258 143.024 410.65 142.576C410.058 142.112 409.386 141.88 408.634 141.88C407.882 141.88 407.234 142.112 406.69 142.576C406.146 143.024 405.818 143.576 405.706 144.232H411.658ZM423.746 139.24V143.104H423.29C423.29 142.992 423.266 142.864 423.218 142.72C423.17 142.576 423.106 142.496 423.026 142.48H422.858C422.362 142.48 421.858 142.624 421.346 142.912C420.85 143.184 420.434 143.552 420.098 144.016C419.778 144.464 419.618 144.944 419.618 145.456V150.28C419.618 150.36 419.674 150.424 419.786 150.472C419.914 150.52 420.034 150.544 420.146 150.544V151H416.114V150.544C416.226 150.544 416.338 150.52 416.45 150.472C416.578 150.424 416.642 150.36 416.642 150.28V140.68C416.642 140.6 416.578 140.536 416.45 140.488C416.338 140.44 416.226 140.416 416.114 140.416V139.96H419.618V140.992C420.05 140.592 420.57 140.272 421.178 140.032C421.786 139.792 422.394 139.672 423.002 139.672H423.026H423.05C423.13 139.672 423.186 139.624 423.218 139.528C423.266 139.432 423.29 139.336 423.29 139.24H423.746ZM437.885 140.416C437.565 140.416 437.365 140.48 437.285 140.608L432.941 149.92C432.893 150.032 432.869 150.128 432.869 150.208C432.869 150.336 432.917 150.424 433.013 150.472C433.125 150.52 433.237 150.544 433.349 150.544V151H428.501V150.544C428.613 150.544 428.725 150.52 428.837 150.472C428.949 150.408 429.005 150.304 429.005 150.16C429.005 150.08 428.981 149.992 428.933 149.896L424.925 140.632C424.877 140.488 424.685 140.416 424.349 140.416V139.96H428.525V140.416C428.333 140.416 428.205 140.464 428.141 140.56C428.093 140.64 428.093 140.736 428.141 140.848L431.093 147.736L434.213 140.824C434.229 140.808 434.237 140.784 434.237 140.752C434.237 140.672 434.173 140.6 434.045 140.536C433.933 140.456 433.789 140.416 433.613 140.416V139.96H437.885V140.416ZM441.653 137.944C441.141 137.944 440.701 137.768 440.333 137.416C439.981 137.064 439.805 136.624 439.805 136.096C439.805 135.6 439.981 135.176 440.333 134.824C440.701 134.456 441.141 134.272 441.653 134.272C442.165 134.272 442.597 134.456 442.949 134.824C443.301 135.176 443.477 135.6 443.477 136.096C443.477 136.624 443.301 137.064 442.949 137.416C442.597 137.768 442.165 137.944 441.653 137.944ZM440.093 140.68C440.093 140.6 440.029 140.536 439.901 140.488C439.789 140.44 439.677 140.416 439.565 140.416V139.96H443.693V140.416C443.581 140.416 443.461 140.44 443.333 140.488C443.221 140.536 443.165 140.6 443.165 140.68V150.28C443.165 150.36 443.221 150.424 443.333 150.472C443.461 150.52 443.581 150.544 443.693 150.544V151H439.565V150.544C439.677 150.544 439.789 150.52 439.901 150.472C440.029 150.424 440.093 150.36 440.093 150.28V140.68ZM451.709 151.504C450.685 151.504 449.733 151.248 448.853 150.736C447.973 150.224 447.269 149.528 446.741 148.648C446.229 147.768 445.973 146.808 445.973 145.768C445.973 144.536 446.229 143.456 446.741 142.528C447.269 141.584 447.973 140.864 448.853 140.368C449.733 139.856 450.701 139.6 451.757 139.6C452.509 139.6 453.149 139.688 453.677 139.864C454.221 140.04 454.653 140.256 454.973 140.512C455.309 140.752 455.725 141.096 456.221 141.544C456.253 141.576 456.293 141.592 456.341 141.592C456.405 141.592 456.477 141.568 456.557 141.52C456.653 141.472 456.725 141.424 456.773 141.376L457.085 141.712L454.493 144.112L454.181 143.776C454.261 143.712 454.325 143.624 454.373 143.512C454.437 143.384 454.445 143.288 454.397 143.224C453.821 142.52 453.029 142.168 452.021 142.168C451.109 142.168 450.341 142.472 449.717 143.08C449.109 143.688 448.805 144.48 448.805 145.456C448.805 146.464 449.101 147.272 449.693 147.88C450.285 148.488 451.061 148.792 452.021 148.792C452.501 148.792 452.893 148.736 453.197 148.624C453.501 148.496 453.845 148.264 454.229 147.928C454.261 147.896 454.277 147.856 454.277 147.808C454.277 147.712 454.221 147.608 454.109 147.496L454.397 147.136L456.989 149.296L456.701 149.632C456.445 149.488 456.269 149.464 456.173 149.56C455.581 150.216 454.957 150.704 454.301 151.024C453.661 151.344 452.797 151.504 451.709 151.504ZM464.134 139.456C465.366 139.456 466.43 139.728 467.326 140.272C468.222 140.8 468.902 141.52 469.366 142.432C469.83 143.344 470.062 144.352 470.062 145.456C470.062 145.792 470.038 146.128 469.99 146.464H461.206C461.27 147.232 461.606 147.832 462.214 148.264C462.822 148.696 463.55 148.912 464.398 148.912C464.974 148.912 465.454 148.832 465.838 148.672C466.238 148.512 466.59 148.272 466.894 147.952C466.926 147.888 466.942 147.848 466.942 147.832C466.942 147.768 466.918 147.704 466.87 147.64C466.822 147.56 466.774 147.504 466.726 147.472L467.014 147.112L469.678 149.2L469.414 149.56C469.174 149.416 469.006 149.4 468.91 149.512C467.79 150.856 466.286 151.528 464.398 151.528C463.182 151.528 462.11 151.264 461.182 150.736C460.254 150.192 459.534 149.472 459.021 148.576C458.525 147.664 458.278 146.656 458.278 145.552C458.278 144.384 458.525 143.336 459.021 142.408C459.518 141.48 460.206 140.76 461.086 140.248C461.982 139.72 462.998 139.456 464.134 139.456ZM467.182 144.232C467.118 143.576 466.782 143.024 466.174 142.576C465.582 142.112 464.91 141.88 464.158 141.88C463.406 141.88 462.758 142.112 462.214 142.576C461.67 143.024 461.342 143.576 461.23 144.232H467.182ZM476.533 151.36C475.717 151.36 474.925 151.192 474.157 150.856C473.405 150.52 472.645 150.04 471.877 149.416C471.845 149.384 471.805 149.368 471.757 149.368C471.629 149.368 471.493 149.44 471.349 149.584L471.013 149.296L473.413 146.56L473.749 146.872C473.685 146.952 473.629 147.048 473.581 147.16C473.549 147.272 473.565 147.36 473.629 147.424C474.157 147.904 474.645 148.264 475.093 148.504C475.557 148.728 476.037 148.84 476.533 148.84C477.765 148.84 478.381 148.432 478.381 147.616C478.381 147.248 478.189 146.968 477.805 146.776C477.437 146.568 476.813 146.344 475.933 146.104C474.797 145.8 473.973 145.408 473.461 144.928C472.949 144.432 472.693 143.76 472.693 142.912C472.693 141.904 473.021 141.088 473.677 140.464C474.333 139.824 475.229 139.504 476.365 139.504C476.941 139.504 477.461 139.592 477.925 139.768C478.389 139.944 478.949 140.256 479.605 140.704C479.621 140.72 479.653 140.728 479.701 140.728C479.781 140.728 479.861 140.704 479.941 140.656C480.021 140.608 480.077 140.56 480.109 140.512L480.469 140.824L478.309 143.272L477.973 142.984C478.037 142.92 478.077 142.84 478.093 142.744C478.125 142.632 478.109 142.544 478.045 142.48C477.757 142.256 477.477 142.088 477.205 141.976C476.949 141.864 476.661 141.808 476.341 141.808C476.005 141.808 475.741 141.872 475.549 142C475.357 142.128 475.261 142.32 475.261 142.576C475.261 142.784 475.317 142.952 475.429 143.08C475.541 143.208 475.741 143.336 476.029 143.464C476.333 143.592 476.789 143.752 477.397 143.944C478.517 144.28 479.397 144.752 480.037 145.36C480.677 145.952 480.997 146.688 480.997 147.568C480.997 148.864 480.589 149.824 479.773 150.448C478.957 151.056 477.877 151.36 476.533 151.36Z" fill="black"/>
</svg>
