<svg width="442" height="324" viewBox="0 0 442 324" fill="none" xmlns="http://www.w3.org/2000/svg">
<path d="M397.712 301.63H368.433V301.849H397.712V301.63Z" fill="#EBEBEB"/>
<path d="M292.798 304.013H285.114V304.232H292.798V304.013Z" fill="#EBEBEB"/>
<path d="M367.548 293.477H350.582V293.696H367.548V293.477Z" fill="#EBEBEB"/>
<path d="M84.5564 294.952H46.3738V295.171H84.5564V294.952Z" fill="#EBEBEB"/>
<path d="M98.0259 294.952H92.4275V295.171H98.0259V294.952Z" fill="#EBEBEB"/>
<path d="M199.03 298.66H116.22V298.879H199.03V298.66Z" fill="#EBEBEB"/>
<path d="M210.746 248.341H40.047C37.265 248.341 35.0011 246.092 35.0011 243.329V5.01162C35.0011 2.24856 37.265 0 40.047 0H210.746C213.528 0 215.791 2.24856 215.791 5.01162V243.329C215.791 246.092 213.528 248.341 210.746 248.341ZM40.047 0.220378C37.3861 0.220378 35.2221 2.36972 35.2221 5.0125V243.33C35.2221 245.973 37.3861 248.122 40.047 248.122H210.746C213.406 248.122 215.57 245.973 215.57 243.33V5.01162C215.57 2.36972 213.406 0.2195 210.746 0.2195L40.047 0.220378Z" fill="#EBEBEB"/>
<path d="M401.953 248.341H231.253C228.472 248.341 226.208 246.092 226.208 243.329V5.01162C226.208 2.24856 228.472 0 231.253 0H401.953C404.736 0 406.999 2.24856 406.999 5.01162V243.329C406.999 246.092 404.735 248.341 401.953 248.341ZM231.253 0.220378C228.594 0.220378 226.429 2.36972 226.429 5.0125V243.33C226.429 245.973 228.594 248.122 231.253 248.122H401.953C404.614 248.122 406.778 245.973 406.778 243.33V5.01162C406.778 2.36972 404.614 0.2195 401.953 0.2195L231.253 0.220378Z" fill="#EBEBEB"/>
<path d="M442 287.498H0V287.717H442V287.498Z" fill="#EBEBEB"/>
<path d="M353.6 177.514C348.063 175.814 344.418 174.696 340.089 173.366C339.101 173.064 339.364 171.609 340.396 171.663C345.445 171.927 349.579 172.145 355.966 172.482C352.289 166.13 350.118 162.166 347.641 157.193C347.186 156.281 348.403 155.466 349.083 156.226C352.407 159.939 355.188 162.957 359.646 167.707C360.71 161.558 361.941 155.899 363.484 150.21C363.761 149.185 365.3 149.451 365.207 150.509C364.795 155.124 364.645 159.78 364.757 164.279C364.965 164.352 364.973 164.356 365.181 164.428C368.923 160.193 372.851 156.121 376.943 152.218C377.73 151.466 378.908 152.545 378.232 153.396C374.26 158.398 370.583 163.63 367.238 169.069C372.582 167.067 377.957 165.125 383.35 163.244C384.357 162.893 385.003 164.304 384.074 164.826C378.478 167.976 372.945 171.199 367.419 174.536C373.249 176.38 377.051 177.583 381.657 179.039C382.642 179.351 382.371 180.802 381.339 180.74C376.618 180.456 372.698 180.222 366.708 179.864C369.599 183.227 371.61 185.534 373.948 188.144C374.631 188.907 373.663 190.014 372.807 189.45C369.865 187.511 367.278 185.791 363.512 183.28C363.894 186.269 364.226 188.58 364.624 190.849C364.806 191.887 363.328 192.296 362.942 191.315C361.964 188.83 361.07 186.356 359.934 183.078C355.682 203.286 356.784 222.874 360.895 242.962C358.857 242.596 357.839 242.413 355.8 242.048C352.822 221.453 353.593 203.011 358.19 182.765C355.636 185.382 353.759 187.358 351.969 189.347C351.261 190.134 350.014 189.22 350.563 188.316C351.765 186.337 353.071 184.322 354.815 181.72C350.266 182.71 347.15 183.395 343.716 184.163C342.704 184.39 342.203 182.991 343.132 182.533C346.334 180.951 349.273 179.547 353.6 177.514Z" fill="#EBEBEB"/>
<path d="M346.413 184.495C350.609 182.286 353.63 180.694 356.788 179.031C358.011 178.387 357.3 176.539 355.955 176.866C352.014 177.826 348.348 178.72 343.142 179.99C345.23 174.015 346.55 169.997 347.836 165.572C348.217 164.262 346.409 163.478 345.699 164.646C343.592 168.113 341.586 171.323 338.63 175.98C336.838 171.224 334.999 166.807 332.983 162.469C332.385 161.182 330.433 161.88 330.786 163.254C331.67 166.694 332.402 170.158 332.965 173.561C332.775 173.671 332.767 173.676 332.577 173.786C329.223 171.185 325.783 168.695 322.267 166.314C321.058 165.495 319.727 167.154 320.807 168.134C324.51 171.498 328.056 175.032 331.427 178.726C326.886 177.938 322.334 177.192 317.775 176.489C316.361 176.27 315.865 178.281 317.218 178.745C322.251 180.474 327.258 182.264 332.274 184.132C327.803 186.536 324.624 188.244 321.237 190.065C320.019 190.719 320.742 192.562 322.084 192.224C325.725 191.308 329.161 190.444 333.975 189.234C332.252 192.23 330.935 194.495 329.582 196.769C328.882 197.944 330.436 199.151 331.417 198.196C333.332 196.332 335.237 194.468 337.756 191.998C337.866 193.775 337.949 195.318 338.006 196.758C338.061 198.161 340.107 198.287 340.34 196.902C340.632 195.171 340.915 193.323 341.234 191.137C349.208 210.202 351.806 229.651 351.542 250.147C353.476 249.41 354.442 249.041 356.376 248.305C355.432 227.519 351.209 209.545 342.888 190.507C344.721 191.787 346.26 192.88 347.666 193.906C348.819 194.747 350.203 193.203 349.221 192.169C348.266 191.161 347.217 190.083 346.006 188.854C349.552 188.954 352.247 189.032 354.885 189.116C356.277 189.161 356.577 187.19 355.234 186.823C352.633 186.113 349.956 185.409 346.413 184.495Z" fill="#F0F0F0"/>
<path d="M364.737 195.569C361.601 193.918 359.365 192.74 356.999 191.494C356.133 191.038 356.635 189.729 357.587 189.961C360.534 190.679 363.242 191.338 367.122 192.286C365.571 187.85 364.602 184.894 363.648 181.598C363.38 180.669 364.659 180.114 365.161 180.942C366.733 183.531 368.211 185.898 370.41 189.364C371.748 185.809 373.124 182.515 374.637 179.276C375.063 178.367 376.446 178.863 376.194 179.834C375.516 182.442 374.957 185.073 374.531 187.654C374.652 187.724 374.658 187.727 374.78 187.798C377.327 185.822 379.941 183.931 382.616 182.13C383.474 181.552 384.408 182.736 383.641 183.429C380.855 185.946 378.191 188.594 375.662 191.365C379.061 190.776 382.47 190.218 385.883 189.693C386.883 189.539 387.236 190.962 386.28 191.29C382.524 192.578 378.787 193.913 375.043 195.306C378.379 197.1 380.729 198.362 383.264 199.725C384.126 200.188 383.613 201.492 382.664 201.253C379.939 200.568 377.397 199.929 373.804 199.026C375.1 201.28 376.081 202.966 377.101 204.678C377.597 205.51 376.499 206.367 375.803 205.69C374.362 204.287 372.943 202.9 371.047 201.04C370.961 202.435 370.898 203.631 370.856 204.749C370.819 205.742 369.372 205.836 369.205 204.856C368.978 203.524 368.76 202.109 368.513 200.412C362.7 214.31 360.805 228.488 360.998 243.429C359.589 242.892 358.884 242.623 357.475 242.086C358.163 226.933 361.241 213.831 367.306 199.952C365.875 200.952 364.689 201.796 363.605 202.59C362.791 203.186 361.811 202.094 362.504 201.361C363.251 200.57 364.072 199.723 365.034 198.748C362.356 198.822 360.342 198.881 358.352 198.945C357.367 198.977 357.155 197.583 358.106 197.322C360.066 196.784 362.062 196.259 364.737 195.569Z" fill="#F5F5F5"/>
<path d="M342.912 287.353H369.275C371.118 287.353 372.643 285.929 372.756 284.101L375.55 238.941C375.674 236.948 336.513 236.948 336.637 238.941L339.431 284.101C339.543 285.929 341.069 287.353 342.912 287.353Z" fill="#E0E0E0"/>
<path d="M341.31 183.003C340.614 182.43 340.257 181.546 340.362 180.654L340.955 175.649L339.603 177.977C338.803 179.354 336.968 179.725 335.69 178.767L333.046 176.785L335.463 180.66C336.155 181.769 335.93 183.213 334.932 184.062L331.807 186.722L334.871 186.028C336.212 185.724 337.567 186.486 337.995 187.784L339.049 190.981L339.724 187.58C340.027 186.053 341.585 185.114 343.09 185.553L345.148 186.155L341.31 183.003Z" fill="#E6E6E6"/>
<path d="M358.896 174.38C359.405 173.962 359.666 173.316 359.589 172.664L359.156 169.008L360.143 170.708C360.728 171.714 362.068 171.984 363.001 171.285L364.933 169.837L363.167 172.667C362.662 173.477 362.827 174.532 363.555 175.152L365.838 177.095L363.601 176.589C362.62 176.367 361.631 176.922 361.318 177.871L360.548 180.206L360.056 177.722C359.835 176.606 358.696 175.921 357.597 176.241L356.094 176.68L358.896 174.38Z" fill="#F5F5F5"/>
<path d="M369.317 195.332C369.682 195.032 369.87 194.569 369.814 194.101L369.503 191.478L370.212 192.698C370.632 193.42 371.593 193.614 372.263 193.112L373.649 192.073L372.382 194.104C372.02 194.685 372.138 195.443 372.661 195.887L374.298 197.281L372.693 196.918C371.989 196.759 371.279 197.158 371.054 197.838L370.502 199.513L370.148 197.731C369.989 196.93 369.172 196.438 368.384 196.669L367.305 196.984L369.317 195.332Z" fill="#E6E6E6"/>
<path d="M340.016 77.6459H316.884C316.24 77.6459 315.718 77.1279 315.718 76.4879V72.0171C315.718 71.3779 316.24 70.859 316.884 70.859H340.016C340.66 70.859 341.182 71.3779 341.182 72.0171V76.4879C341.182 77.1279 340.66 77.6459 340.016 77.6459Z" fill="#F5F5F5"/>
<path d="M332.241 86.0572H309.107C308.464 86.0572 307.941 85.5392 307.941 84.8991V80.4283C307.941 79.7883 308.464 79.2703 309.107 79.2703H332.241C332.884 79.2703 333.407 79.7883 333.407 80.4283V84.8991C333.407 85.5383 332.884 86.0572 332.241 86.0572Z" fill="#F5F5F5"/>
<path d="M358.893 86.0572H335.761C335.117 86.0572 334.595 85.5392 334.595 84.8991V80.4283C334.595 79.7883 335.117 79.2703 335.761 79.2703H358.893C359.537 79.2703 360.059 79.7883 360.059 80.4283V84.8991C360.059 85.5383 359.538 86.0572 358.893 86.0572Z" fill="#F0F0F0"/>
<path d="M107.289 124.897H82.608C81.9636 124.897 81.442 124.378 81.442 123.739V118.856C81.442 118.217 81.9636 117.698 82.608 117.698H107.289C107.934 117.698 108.455 118.217 108.455 118.856V123.739C108.455 124.378 107.933 124.897 107.289 124.897Z" fill="#F5F5F5"/>
<path d="M107.289 142.76H82.608C81.9636 142.76 81.442 142.242 81.442 141.602V136.719C81.442 136.079 81.9636 135.561 82.608 135.561H107.289C107.934 135.561 108.455 136.079 108.455 136.719V141.602C108.455 142.241 107.933 142.76 107.289 142.76Z" fill="#F5F5F5"/>
<path d="M99.0406 133.819H74.3594C73.7158 133.819 73.1934 133.301 73.1934 132.661V127.778C73.1934 127.138 73.7158 126.62 74.3594 126.62H99.0406C99.6851 126.62 100.207 127.138 100.207 127.778V132.661C100.207 133.301 99.6842 133.819 99.0406 133.819Z" fill="#F5F5F5"/>
<path d="M127.314 133.819H102.632C101.988 133.819 101.466 133.301 101.466 132.661V127.778C101.466 127.138 101.988 126.62 102.632 126.62H127.314C127.958 126.62 128.48 127.138 128.48 127.778V132.661C128.48 133.301 127.958 133.819 127.314 133.819Z" fill="#F0F0F0"/>
<path d="M336.306 128.179H361.869C362.512 128.179 363.035 128.697 363.035 129.337V134.456C363.035 135.096 362.512 135.614 361.869 135.614H336.306C335.663 135.614 335.14 135.096 335.14 134.456V129.337C335.14 128.698 335.662 128.179 336.306 128.179Z" fill="#F5F5F5"/>
<path d="M344.823 118.966H370.386C371.03 118.966 371.552 119.484 371.552 120.125V125.243C371.552 125.882 371.03 126.401 370.386 126.401H344.823C344.179 126.401 343.657 125.882 343.657 125.243V120.125C343.657 119.484 344.18 118.966 344.823 118.966Z" fill="#F5F5F5"/>
<path d="M315.628 118.966H341.19C341.834 118.966 342.356 119.484 342.356 120.125V125.243C342.356 125.882 341.834 126.401 341.19 126.401H315.628C314.984 126.401 314.462 125.882 314.462 125.243V120.125C314.462 119.484 314.984 118.966 315.628 118.966Z" fill="#F0F0F0"/>
<path d="M73.166 91.0364H100.183C100.827 91.0364 101.349 91.5544 101.349 92.1945V97.7004C101.349 98.3405 100.827 98.8585 100.183 98.8585H73.166C72.5216 98.8585 72 98.3405 72 97.7004V92.1945C72 91.5553 72.5224 91.0364 73.166 91.0364Z" fill="#F5F5F5"/>
<path d="M86.876 81.3433H113.893C114.536 81.3433 115.059 81.8613 115.059 82.5013V88.0073C115.059 88.6465 114.536 89.1654 113.893 89.1654H86.876C86.2315 89.1654 85.71 88.6465 85.71 88.0073V82.5013C85.71 81.8622 86.2315 81.3433 86.876 81.3433Z" fill="#F5F5F5"/>
<path d="M56.1578 81.3433H83.1746C83.8191 81.3433 84.3406 81.8613 84.3406 82.5013V88.0073C84.3406 88.6465 83.8191 89.1654 83.1746 89.1654H56.1578C55.5134 89.1654 54.9918 88.6465 54.9918 88.0073V82.5013C54.9918 81.8622 55.5143 81.3433 56.1578 81.3433Z" fill="#F0F0F0"/>
<path d="M129.063 5.9397H127.87V41.0755H129.063V5.9397Z" fill="#E6E6E6"/>
<path d="M90.6665 60.5996L128.466 37.9094L166.267 60.5996H90.6665Z" fill="#F0F0F0"/>
<path d="M131.076 60.5996L128.466 37.9094L145.459 60.5996H131.076Z" fill="#F5F5F5"/>
<path d="M314.13 5.9397H312.937V41.0755H314.13V5.9397Z" fill="#E6E6E6"/>
<path d="M275.733 60.5996L313.534 37.9094L351.333 60.5996H275.733Z" fill="#F0F0F0"/>
<path d="M316.142 60.5996L313.534 37.9094L330.525 60.5996H316.142Z" fill="#F5F5F5"/>
<path d="M216.737 323.773C311.398 323.773 388.135 319.322 388.135 313.831C388.135 308.341 311.398 303.89 216.737 303.89C122.077 303.89 45.3395 308.341 45.3395 313.831C45.3395 319.322 122.077 323.773 216.737 323.773Z" fill="#F5F5F5"/>
<path d="M167.85 78.8392H163.43V74.4492C163.43 73.2366 164.419 72.2542 165.64 72.2542C166.86 72.2542 167.85 73.2366 167.85 74.4492V78.8392Z" fill="#263238"/>
<path d="M278.571 78.8392H274.151V74.4492C274.151 73.2366 275.14 72.2542 276.361 72.2542C277.581 72.2542 278.571 73.2366 278.571 74.4492V78.8392Z" fill="#263238"/>
<g opacity="0.5">
<path d="M167.85 78.8392H163.43V74.4492C163.43 73.2366 164.419 72.2542 165.64 72.2542C166.86 72.2542 167.85 73.2366 167.85 74.4492V78.8392Z" fill="white"/>
<path d="M278.571 78.8392H274.151V74.4492C274.151 73.2366 275.14 72.2542 276.361 72.2542C277.581 72.2542 278.571 73.2366 278.571 74.4492V78.8392Z" fill="white"/>
</g>
<path d="M292.238 161.615H149.763C147.007 161.615 144.774 159.397 144.774 156.661V83.3082C144.774 80.5715 147.008 78.3536 149.763 78.3536H292.238C294.993 78.3536 297.226 80.5723 297.226 83.3082V156.661C297.226 159.397 294.993 161.615 292.238 161.615Z" fill="#407BFF"/>
<path opacity="0.8" d="M292.238 161.615H149.763C147.007 161.615 144.774 159.397 144.774 156.661V83.3082C144.774 80.5715 147.008 78.3536 149.763 78.3536H292.238C294.993 78.3536 297.226 80.5723 297.226 83.3082V156.661C297.226 159.397 294.993 161.615 292.238 161.615Z" fill="white"/>
<path d="M292.237 163.809H149.763C145.794 163.809 142.564 160.603 142.564 156.66V83.3064C142.564 79.3642 145.794 76.1569 149.763 76.1569H292.238C296.207 76.1569 299.436 79.3642 299.436 83.3064V156.66C299.436 160.603 296.207 163.809 292.237 163.809ZM149.763 80.5477C148.231 80.5477 146.984 81.7857 146.984 83.3073V156.661C146.984 158.181 148.231 159.42 149.763 159.42H292.238C293.77 159.42 295.016 158.182 295.016 156.661V83.3073C295.016 81.7857 293.77 80.5477 292.238 80.5477H149.763Z" fill="#407BFF"/>
<g opacity="0.4">
<path d="M292.237 163.809H149.763C145.794 163.809 142.564 160.603 142.564 156.66V83.3064C142.564 79.3642 145.794 76.1569 149.763 76.1569H292.238C296.207 76.1569 299.436 79.3642 299.436 83.3064V156.66C299.436 160.603 296.207 163.809 292.237 163.809ZM149.763 80.5477C148.231 80.5477 146.984 81.7857 146.984 83.3073V156.661C146.984 158.181 148.231 159.42 149.763 159.42H292.238C293.77 159.42 295.016 158.182 295.016 156.661V83.3073C295.016 81.7857 293.77 80.5477 292.238 80.5477H149.763Z" fill="white"/>
</g>
<path d="M192.16 94.9724C197.86 95.2314 204.85 98.7074 206.281 104.746C208.004 112.016 198.317 114.975 192.868 115.145C187.679 115.308 178.851 113.471 177.942 107.208C176.912 100.112 187.169 98.6012 192.161 98.4844C192.587 98.4747 192.589 97.8162 192.161 97.8259C186.963 97.9471 177.171 99.4072 177.153 106.386C177.133 113.629 187.298 115.97 192.868 115.804C198.38 115.64 207.488 112.933 207.14 105.96C206.786 98.8839 198.35 94.5949 192.161 94.3139C191.734 94.2946 191.735 94.9531 192.16 94.9724Z" fill="#263238"/>
<path d="M174.701 132.822C174.766 134.69 174.961 136.592 174.898 138.458C174.879 139.009 175.516 138.679 174.564 138.658C173.667 138.639 172.757 138.721 171.86 138.751C169.554 138.83 167.247 138.909 164.94 138.988C164.062 139.018 163.109 138.952 162.236 139.081C161.281 139.222 161.923 139.311 161.871 139.033C161.496 137.059 161.723 134.786 161.654 132.777C161.643 132.478 161.528 132.006 161.616 131.72C161.749 131.293 161.094 131.999 161.394 131.862C161.852 131.653 162.801 131.813 163.315 131.796C167.201 131.662 171.087 131.529 174.973 131.396C175.398 131.381 175.401 130.723 174.973 130.738C170.409 130.894 165.844 131.051 161.279 131.208C161.105 131.214 160.941 131.353 160.947 131.537C161.039 134.169 161.13 136.801 161.222 139.434C161.228 139.607 161.369 139.77 161.554 139.764C166.118 139.607 170.683 139.45 175.248 139.294C175.422 139.288 175.585 139.148 175.579 138.965C175.508 136.917 175.437 134.87 175.365 132.822C175.349 132.4 174.686 132.397 174.701 132.822Z" fill="#263238"/>
<path d="M208.163 133.367C208.253 135.943 208.795 138.853 208.443 141.396C208.305 142.393 209.152 141.57 207.827 141.821C206.61 142.052 205.207 141.91 203.974 141.952C200.688 142.065 197.402 142.178 194.117 142.29C192.859 142.333 191.524 142.505 190.264 142.422C188.865 142.331 189.878 142.857 189.604 142.214C188.657 139.996 189.378 135.733 189.294 133.301C189.262 132.398 189.423 131.641 189.065 131.859C189.592 131.538 191.158 131.787 191.801 131.765C197.337 131.575 202.872 131.385 208.407 131.195C208.833 131.18 208.835 130.522 208.407 130.537C201.906 130.76 195.403 130.983 188.901 131.206C188.727 131.212 188.563 131.351 188.57 131.535C188.699 135.285 188.83 139.035 188.96 142.785C188.966 142.958 189.107 143.12 189.292 143.114C195.794 142.891 202.296 142.668 208.798 142.445C208.972 142.439 209.136 142.299 209.13 142.116C209.028 139.199 208.926 136.282 208.825 133.366C208.811 132.945 208.148 132.943 208.163 133.367Z" fill="#263238"/>
<path d="M281.802 96.1296C281.861 97.8119 282.108 99.5907 281.981 101.266C281.859 102.881 282.698 101.68 281.522 102.112C278.987 103.045 274.7 102.347 271.981 102.44C267.819 102.583 263.658 102.725 259.496 102.868C258.076 102.917 256.645 103.023 255.223 103.015C254.979 103.014 254.36 103.171 254.153 103.052C253.503 102.679 254.61 103.819 254.161 102.944C253.549 101.752 254.025 99.0279 253.978 97.6679C253.966 97.3307 253.675 95.7126 253.9 95.4307C253.727 95.6467 253.578 95.8627 254.103 95.6239C256.261 94.6397 260.779 95.3947 263.099 95.3148C269.423 95.098 275.747 94.8811 282.071 94.6642C282.496 94.6493 282.498 93.9908 282.071 94.0057C272.569 94.3315 263.066 94.6581 253.564 94.9838C253.39 94.99 253.226 95.1296 253.232 95.3131C253.326 98.0059 253.42 100.699 253.513 103.392C253.52 103.565 253.66 103.727 253.845 103.721C263.347 103.395 272.85 103.069 282.352 102.743C282.526 102.737 282.69 102.597 282.684 102.413C282.611 100.319 282.538 98.2245 282.465 96.1296C282.451 95.7073 281.788 95.7055 281.802 96.1296Z" fill="#263238"/>
<path d="M287.085 106.83C274.441 106.832 261.797 106.832 249.154 106.834C248.727 106.834 248.727 107.493 249.154 107.493C261.797 107.491 274.441 107.489 287.085 107.488C287.512 107.488 287.512 106.83 287.085 106.83Z" fill="#263238"/>
<path d="M283.745 114.122C277.423 114.123 271.102 114.124 264.779 114.126C264.352 114.126 264.352 114.784 264.779 114.784C271.101 114.783 277.423 114.782 283.745 114.78C284.172 114.78 284.172 114.122 283.745 114.122Z" fill="#263238"/>
<path d="M278.571 117.03C273.974 117.032 269.377 117.034 264.779 117.035C264.352 117.035 264.352 117.693 264.779 117.693C269.376 117.692 273.973 117.691 278.571 117.689C278.997 117.689 278.997 117.03 278.571 117.03Z" fill="#263238"/>
<path d="M203.942 105.188C197.62 105.19 191.298 105.191 184.976 105.192C184.55 105.192 184.549 105.851 184.976 105.851C191.298 105.849 197.62 105.848 203.942 105.846C204.368 105.846 204.369 105.188 203.942 105.188Z" fill="#263238"/>
<path d="M198.767 108.097C194.171 108.099 189.574 108.099 184.976 108.101C184.55 108.101 184.549 108.76 184.976 108.76C189.573 108.758 194.17 108.757 198.767 108.755C199.194 108.755 199.194 108.097 198.767 108.097Z" fill="#263238"/>
<path d="M283.633 124.823C277.312 124.825 270.989 124.827 264.667 124.828C264.24 124.828 264.24 125.486 264.667 125.486C270.988 125.485 277.311 125.484 283.633 125.482C284.06 125.482 284.061 124.823 283.633 124.823Z" fill="#263238"/>
<path d="M274.15 139.102C270.989 139.104 267.829 139.105 264.668 139.107C264.241 139.107 264.241 139.765 264.668 139.765C267.829 139.764 270.989 139.763 274.15 139.761C274.577 139.761 274.577 139.102 274.15 139.102Z" fill="#263238"/>
<path d="M172.591 135.526C169.43 135.527 166.269 135.528 163.109 135.53C162.682 135.53 162.682 136.188 163.109 136.188C166.27 136.187 169.431 136.186 172.591 136.184C173.017 136.184 173.018 135.526 172.591 135.526Z" fill="#263238"/>
<path d="M204.163 135.69C200.413 135.985 196.663 136.279 192.913 136.573C192.49 136.606 192.487 137.265 192.913 137.231C196.663 136.937 200.413 136.643 204.163 136.349C204.586 136.316 204.589 135.656 204.163 135.69Z" fill="#263238"/>
<path d="M230.911 120.703C227.455 120.705 223.999 120.706 220.544 120.708C220.117 120.708 220.117 121.366 220.544 121.366C223.999 121.364 227.455 121.363 230.911 121.362C231.338 121.362 231.338 120.703 230.911 120.703Z" fill="#263238"/>
<path d="M283.633 136.496C277.312 136.497 270.989 136.498 264.667 136.5C264.24 136.5 264.24 137.159 264.667 137.159C270.988 137.157 277.311 137.156 283.633 137.154C284.06 137.154 284.061 136.496 283.633 136.496Z" fill="#263238"/>
<path d="M217.391 117.694C217.301 120.248 217.213 122.803 217.124 125.357C217.117 125.54 217.281 125.68 217.455 125.687C223.15 125.882 228.845 126.077 234.539 126.273C234.723 126.279 234.865 126.117 234.871 125.944C234.985 122.659 235.099 119.375 235.214 116.091C235.22 115.908 235.056 115.768 234.882 115.762C229.188 115.566 223.493 115.371 217.798 115.176C217.371 115.161 217.372 115.82 217.798 115.835C222.646 116 227.494 116.167 232.342 116.333C232.892 116.353 234.187 116.135 234.651 116.412C235.122 116.694 234.323 115.799 234.543 116.32C234.636 116.54 234.545 117.132 234.506 117.386C234.114 119.918 234.987 123.008 234.225 125.443C234.039 126.04 234.886 125.536 233.688 125.585C232.671 125.626 231.626 125.514 230.611 125.479C227.634 125.378 224.657 125.275 221.681 125.173C220.556 125.134 219.432 125.081 218.306 125.057C217.116 125.032 217.875 125.39 217.808 124.725C217.58 122.458 217.973 119.978 218.053 117.694C218.069 117.27 217.406 117.271 217.391 117.694Z" fill="#263238"/>
<path d="M180.176 115.87C175.706 118.525 171.976 122.881 170.3 127.773C170.162 128.175 170.802 128.347 170.939 127.947C172.556 123.228 176.195 119.002 180.511 116.438C180.876 116.221 180.543 115.652 180.176 115.87Z" fill="#263238"/>
<path d="M168.826 124.436C169.121 126.144 169.416 127.851 169.71 129.558C169.756 129.825 170.093 129.844 170.265 129.703C171.689 128.527 173.113 127.351 174.537 126.175C174.865 125.904 174.395 125.44 174.068 125.709C172.644 126.885 171.22 128.061 169.796 129.237C169.981 129.286 170.166 129.334 170.35 129.382C170.056 127.674 169.761 125.968 169.466 124.261C169.394 123.845 168.755 124.021 168.826 124.436Z" fill="#263238"/>
<path d="M204.054 113.532C207.91 115.058 211.418 118.041 213.358 121.674C213.558 122.049 214.13 121.716 213.931 121.342C211.905 117.548 208.246 114.485 204.231 112.898C203.834 112.741 203.661 113.378 204.054 113.532Z" fill="#263238"/>
<path d="M214.05 118.445C214.036 119.879 214.022 121.312 214.008 122.746C214.174 122.651 214.34 122.557 214.506 122.462C213.186 121.687 211.866 120.913 210.546 120.139C210.177 119.923 209.844 120.492 210.211 120.708C211.531 121.482 212.851 122.256 214.171 123.031C214.389 123.159 214.667 122.995 214.67 122.746C214.684 121.312 214.698 119.879 214.712 118.445C214.717 118.021 214.054 118.021 214.05 118.445Z" fill="#263238"/>
<path d="M196.325 119.045C196.906 121.755 197.338 124.5 197.724 127.242C197.784 127.66 198.422 127.482 198.363 127.068C197.977 124.325 197.545 121.58 196.964 118.87C196.876 118.455 196.236 118.631 196.325 119.045Z" fill="#263238"/>
<path d="M199.001 125.068C198.639 126.084 198.277 127.1 197.915 128.117C198.1 128.069 198.285 128.02 198.469 127.971C197.721 127.101 196.972 126.231 196.223 125.361C195.946 125.038 195.479 125.506 195.755 125.826C196.503 126.696 197.252 127.566 198.001 128.437C198.175 128.639 198.478 128.506 198.555 128.292C198.917 127.276 199.279 126.259 199.641 125.243C199.782 124.843 199.142 124.67 199.001 125.068Z" fill="#263238"/>
<path d="M258.169 117.033C256.217 117.033 254.264 117.033 252.311 117.033C252.422 117.143 252.532 117.253 252.643 117.362C252.643 115.423 252.643 113.484 252.643 111.545C252.532 111.654 252.422 111.764 252.311 111.874C254.264 111.874 256.216 111.874 258.169 111.874C258.058 111.764 257.948 111.654 257.837 111.545C257.837 113.483 257.837 115.423 257.837 117.362C257.837 117.786 258.5 117.786 258.5 117.362C258.5 115.423 258.5 113.484 258.5 111.545C258.5 111.366 258.348 111.215 258.169 111.215C256.217 111.215 254.264 111.215 252.311 111.215C252.132 111.215 251.98 111.366 251.98 111.545C251.98 113.483 251.98 115.423 251.98 117.362C251.98 117.541 252.132 117.692 252.311 117.692C254.264 117.692 256.216 117.692 258.169 117.692C258.595 117.692 258.596 117.033 258.169 117.033Z" fill="#263238"/>
<path d="M258.169 127.735C256.217 127.735 254.264 127.735 252.311 127.735C252.422 127.845 252.532 127.954 252.643 128.064C252.643 126.126 252.643 124.186 252.643 122.247C252.532 122.356 252.422 122.466 252.311 122.576C254.264 122.576 256.216 122.576 258.169 122.576C258.058 122.466 257.948 122.356 257.837 122.247C257.837 124.185 257.837 126.125 257.837 128.064C257.837 128.488 258.5 128.488 258.5 128.064C258.5 126.126 258.5 124.186 258.5 122.247C258.5 122.068 258.348 121.917 258.169 121.917C256.217 121.917 254.264 121.917 252.311 121.917C252.132 121.917 251.98 122.068 251.98 122.247C251.98 124.185 251.98 126.125 251.98 128.064C251.98 128.242 252.132 128.393 252.311 128.393C254.264 128.393 256.216 128.393 258.169 128.393C258.595 128.393 258.596 127.735 258.169 127.735Z" fill="#263238"/>
<path d="M258.169 138.437C256.217 138.437 254.264 138.437 252.311 138.437C252.422 138.547 252.532 138.656 252.643 138.766C252.643 136.828 252.643 134.888 252.643 132.949C252.532 133.058 252.422 133.168 252.311 133.278C254.264 133.278 256.216 133.278 258.169 133.278C258.058 133.168 257.948 133.058 257.837 132.949C257.837 134.887 257.837 136.827 257.837 138.766C257.837 139.19 258.5 139.19 258.5 138.766C258.5 136.828 258.5 134.888 258.5 132.949C258.5 132.77 258.348 132.619 258.169 132.619C256.217 132.619 254.264 132.619 252.311 132.619C252.132 132.619 251.98 132.77 251.98 132.949C251.98 134.887 251.98 136.827 251.98 138.766C251.98 138.944 252.132 139.095 252.311 139.095C254.264 139.095 256.216 139.095 258.169 139.095C258.595 139.095 258.596 138.437 258.169 138.437Z" fill="#263238"/>
<path d="M250.742 112.78C252.201 113.432 253.55 114.389 254.517 115.662C254.649 115.835 254.865 115.884 255.038 115.728C256.945 114.006 259.32 112.299 261.906 111.862C262.326 111.791 262.148 111.156 261.73 111.227C259.016 111.685 257.268 113.47 255.046 114.849C254.322 115.299 254.986 115.051 254.747 114.878C254.289 114.547 253.922 114.015 253.465 113.655C252.737 113.085 251.925 112.59 251.077 112.211C250.691 112.039 250.353 112.606 250.742 112.78Z" fill="#263238"/>
<path d="M250.742 123.982C252.201 124.634 253.55 125.592 254.517 126.864C254.649 127.037 254.865 127.086 255.038 126.931C256.945 125.208 259.32 123.501 261.906 123.064C262.326 122.993 262.148 122.358 261.73 122.429C259.016 122.888 257.268 124.673 255.046 126.052C254.322 126.501 254.986 126.254 254.747 126.081C254.289 125.75 253.922 125.217 253.465 124.858C252.737 124.287 251.925 123.792 251.077 123.413C250.691 123.241 250.353 123.809 250.742 123.982Z" fill="#263238"/>
<path d="M250.742 134.184C252.201 134.835 253.55 135.793 254.517 137.065C254.649 137.238 254.865 137.288 255.038 137.132C256.945 135.41 259.32 133.703 261.906 133.265C262.326 133.194 262.148 132.56 261.73 132.631C259.016 133.089 257.268 134.874 255.046 136.253C254.322 136.703 254.986 136.455 254.747 136.282C254.289 135.951 253.922 135.418 253.465 135.059C252.737 134.489 251.925 133.993 251.077 133.615C250.691 133.443 250.353 134.01 250.742 134.184Z" fill="#263238"/>
<g opacity="0.3">
<path d="M192.16 94.9724C197.86 95.2314 204.85 98.7074 206.281 104.746C208.004 112.016 198.317 114.975 192.868 115.145C187.679 115.308 178.851 113.471 177.942 107.208C176.912 100.112 187.169 98.6012 192.161 98.4844C192.587 98.4747 192.589 97.8162 192.161 97.8259C186.963 97.9471 177.171 99.4072 177.153 106.386C177.133 113.629 187.298 115.97 192.868 115.804C198.38 115.64 207.488 112.933 207.14 105.96C206.786 98.8839 198.35 94.5949 192.161 94.3139C191.734 94.2946 191.735 94.9531 192.16 94.9724Z" fill="white"/>
</g>
<g opacity="0.3">
<path d="M174.701 132.822C174.766 134.69 174.961 136.592 174.898 138.458C174.879 139.009 175.516 138.679 174.564 138.658C173.667 138.639 172.757 138.721 171.86 138.751C169.554 138.83 167.247 138.909 164.94 138.988C164.062 139.018 163.109 138.952 162.236 139.081C161.281 139.222 161.923 139.311 161.871 139.033C161.496 137.059 161.723 134.786 161.654 132.777C161.643 132.478 161.528 132.006 161.616 131.72C161.749 131.293 161.094 131.999 161.394 131.862C161.852 131.653 162.801 131.813 163.315 131.796C167.201 131.662 171.087 131.529 174.973 131.396C175.398 131.381 175.401 130.723 174.973 130.738C170.409 130.894 165.844 131.051 161.279 131.208C161.105 131.214 160.941 131.353 160.947 131.537C161.039 134.169 161.13 136.801 161.222 139.434C161.228 139.607 161.369 139.77 161.554 139.764C166.118 139.607 170.683 139.45 175.248 139.294C175.422 139.288 175.585 139.148 175.579 138.965C175.508 136.917 175.437 134.87 175.365 132.822C175.349 132.4 174.686 132.397 174.701 132.822Z" fill="white"/>
</g>
<g opacity="0.3">
<path d="M208.163 133.367C208.253 135.943 208.795 138.853 208.443 141.396C208.305 142.393 209.152 141.57 207.827 141.821C206.61 142.052 205.207 141.91 203.974 141.952C200.688 142.065 197.402 142.178 194.117 142.29C192.859 142.333 191.524 142.505 190.264 142.422C188.865 142.331 189.878 142.857 189.604 142.214C188.657 139.996 189.378 135.733 189.294 133.301C189.262 132.398 189.423 131.641 189.065 131.859C189.592 131.538 191.158 131.787 191.801 131.765C197.337 131.575 202.872 131.385 208.407 131.195C208.833 131.18 208.835 130.522 208.407 130.537C201.906 130.76 195.403 130.983 188.901 131.206C188.727 131.212 188.563 131.351 188.57 131.535C188.699 135.285 188.83 139.035 188.96 142.785C188.966 142.958 189.107 143.12 189.292 143.114C195.794 142.891 202.296 142.668 208.798 142.445C208.972 142.439 209.136 142.299 209.13 142.116C209.028 139.199 208.926 136.282 208.825 133.366C208.811 132.945 208.148 132.943 208.163 133.367Z" fill="white"/>
</g>
<g opacity="0.3">
<path d="M281.802 96.1296C281.861 97.8119 282.108 99.5907 281.981 101.266C281.859 102.881 282.698 101.68 281.522 102.112C278.987 103.045 274.7 102.347 271.981 102.44C267.819 102.583 263.658 102.725 259.496 102.868C258.076 102.917 256.645 103.023 255.223 103.015C254.979 103.014 254.36 103.171 254.153 103.052C253.503 102.679 254.61 103.819 254.161 102.944C253.549 101.752 254.025 99.0279 253.978 97.6679C253.966 97.3307 253.675 95.7126 253.9 95.4307C253.727 95.6467 253.578 95.8627 254.103 95.6239C256.261 94.6397 260.779 95.3947 263.099 95.3148C269.423 95.098 275.747 94.8811 282.071 94.6642C282.496 94.6493 282.498 93.9908 282.071 94.0057C272.569 94.3315 263.066 94.6581 253.564 94.9838C253.39 94.99 253.226 95.1296 253.232 95.3131C253.326 98.0059 253.42 100.699 253.513 103.392C253.52 103.565 253.66 103.727 253.845 103.721C263.347 103.395 272.85 103.069 282.352 102.743C282.526 102.737 282.69 102.597 282.684 102.413C282.611 100.319 282.538 98.2245 282.465 96.1296C282.451 95.7073 281.788 95.7055 281.802 96.1296Z" fill="white"/>
</g>
<g opacity="0.3">
<path d="M287.085 106.83C274.441 106.832 261.797 106.832 249.154 106.834C248.727 106.834 248.727 107.493 249.154 107.493C261.797 107.491 274.441 107.489 287.085 107.488C287.512 107.488 287.512 106.83 287.085 106.83Z" fill="white"/>
</g>
<g opacity="0.3">
<path d="M283.745 114.122C277.423 114.123 271.102 114.124 264.779 114.126C264.352 114.126 264.352 114.784 264.779 114.784C271.101 114.783 277.423 114.782 283.745 114.78C284.172 114.78 284.172 114.122 283.745 114.122Z" fill="white"/>
</g>
<g opacity="0.3">
<path d="M278.571 117.03C273.974 117.032 269.377 117.034 264.779 117.035C264.352 117.035 264.352 117.693 264.779 117.693C269.376 117.692 273.973 117.691 278.571 117.689C278.997 117.689 278.997 117.03 278.571 117.03Z" fill="white"/>
</g>
<g opacity="0.3">
<path d="M203.942 105.188C197.62 105.19 191.298 105.191 184.976 105.192C184.55 105.192 184.549 105.851 184.976 105.851C191.298 105.849 197.62 105.848 203.942 105.846C204.368 105.846 204.369 105.188 203.942 105.188Z" fill="white"/>
</g>
<g opacity="0.3">
<path d="M198.767 108.097C194.171 108.099 189.574 108.099 184.976 108.101C184.55 108.101 184.549 108.76 184.976 108.76C189.573 108.758 194.17 108.757 198.767 108.755C199.194 108.755 199.194 108.097 198.767 108.097Z" fill="white"/>
</g>
<g opacity="0.3">
<path d="M283.633 124.823C277.312 124.825 270.989 124.827 264.667 124.828C264.24 124.828 264.24 125.486 264.667 125.486C270.988 125.485 277.311 125.484 283.633 125.482C284.06 125.482 284.061 124.823 283.633 124.823Z" fill="white"/>
</g>
<g opacity="0.3">
<path d="M274.15 139.102C270.989 139.104 267.829 139.105 264.668 139.107C264.241 139.107 264.241 139.765 264.668 139.765C267.829 139.764 270.989 139.763 274.15 139.761C274.577 139.761 274.577 139.102 274.15 139.102Z" fill="white"/>
</g>
<g opacity="0.3">
<path d="M172.591 135.526C169.43 135.527 166.269 135.528 163.109 135.53C162.682 135.53 162.682 136.188 163.109 136.188C166.27 136.187 169.431 136.186 172.591 136.184C173.017 136.184 173.018 135.526 172.591 135.526Z" fill="white"/>
</g>
<g opacity="0.3">
<path d="M204.163 135.69C200.413 135.985 196.663 136.279 192.913 136.573C192.49 136.606 192.487 137.265 192.913 137.231C196.663 136.937 200.413 136.643 204.163 136.349C204.586 136.316 204.589 135.656 204.163 135.69Z" fill="white"/>
</g>
<g opacity="0.3">
<path d="M230.911 120.703C227.455 120.705 223.999 120.706 220.544 120.708C220.117 120.708 220.117 121.366 220.544 121.366C223.999 121.364 227.455 121.363 230.911 121.362C231.338 121.362 231.338 120.703 230.911 120.703Z" fill="white"/>
</g>
<g opacity="0.3">
<path d="M283.633 136.496C277.312 136.497 270.989 136.498 264.667 136.5C264.24 136.5 264.24 137.159 264.667 137.159C270.988 137.157 277.311 137.156 283.633 137.154C284.06 137.154 284.061 136.496 283.633 136.496Z" fill="white"/>
</g>
<g opacity="0.3">
<path d="M217.391 117.694C217.301 120.248 217.213 122.803 217.124 125.357C217.117 125.54 217.281 125.68 217.455 125.687C223.15 125.882 228.845 126.077 234.539 126.273C234.723 126.279 234.865 126.117 234.871 125.944C234.985 122.659 235.099 119.375 235.214 116.091C235.22 115.908 235.056 115.768 234.882 115.762C229.188 115.566 223.493 115.371 217.798 115.176C217.371 115.161 217.372 115.82 217.798 115.835C222.646 116 227.494 116.167 232.342 116.333C232.892 116.353 234.187 116.135 234.651 116.412C235.122 116.694 234.323 115.799 234.543 116.32C234.636 116.54 234.545 117.132 234.506 117.386C234.114 119.918 234.987 123.008 234.225 125.443C234.039 126.04 234.886 125.536 233.688 125.585C232.671 125.626 231.626 125.514 230.611 125.479C227.634 125.378 224.657 125.275 221.681 125.173C220.556 125.134 219.432 125.081 218.306 125.057C217.116 125.032 217.875 125.39 217.808 124.725C217.58 122.458 217.973 119.978 218.053 117.694C218.069 117.27 217.406 117.271 217.391 117.694Z" fill="white"/>
</g>
<g opacity="0.3">
<path d="M180.176 115.87C175.706 118.525 171.976 122.881 170.3 127.773C170.162 128.175 170.802 128.347 170.939 127.947C172.556 123.228 176.195 119.002 180.511 116.438C180.876 116.221 180.543 115.652 180.176 115.87Z" fill="white"/>
</g>
<g opacity="0.3">
<path d="M168.826 124.436C169.121 126.144 169.416 127.851 169.71 129.558C169.756 129.825 170.093 129.844 170.265 129.703C171.689 128.527 173.113 127.351 174.537 126.175C174.865 125.904 174.395 125.44 174.068 125.709C172.644 126.885 171.22 128.061 169.796 129.237C169.981 129.286 170.166 129.334 170.35 129.382C170.056 127.674 169.761 125.968 169.466 124.261C169.394 123.845 168.755 124.021 168.826 124.436Z" fill="white"/>
</g>
<g opacity="0.3">
<path d="M204.054 113.532C207.91 115.058 211.418 118.041 213.358 121.674C213.558 122.049 214.13 121.716 213.931 121.342C211.905 117.548 208.246 114.485 204.231 112.898C203.834 112.741 203.661 113.378 204.054 113.532Z" fill="white"/>
</g>
<g opacity="0.3">
<path d="M214.05 118.445C214.036 119.879 214.022 121.312 214.008 122.746C214.174 122.651 214.34 122.557 214.506 122.462C213.186 121.687 211.866 120.913 210.546 120.139C210.177 119.923 209.844 120.492 210.211 120.708C211.531 121.482 212.851 122.256 214.171 123.031C214.389 123.159 214.667 122.995 214.67 122.746C214.684 121.312 214.698 119.879 214.712 118.445C214.717 118.021 214.054 118.021 214.05 118.445Z" fill="white"/>
</g>
<g opacity="0.3">
<path d="M196.325 119.045C196.906 121.755 197.338 124.5 197.724 127.242C197.784 127.66 198.422 127.482 198.363 127.068C197.977 124.325 197.545 121.58 196.964 118.87C196.876 118.455 196.236 118.631 196.325 119.045Z" fill="white"/>
</g>
<g opacity="0.3">
<path d="M199.001 125.068C198.639 126.084 198.277 127.1 197.915 128.117C198.1 128.069 198.285 128.02 198.469 127.971C197.721 127.101 196.972 126.231 196.223 125.361C195.946 125.038 195.479 125.506 195.755 125.826C196.503 126.696 197.252 127.566 198.001 128.437C198.175 128.639 198.478 128.506 198.555 128.292C198.917 127.276 199.279 126.259 199.641 125.243C199.782 124.843 199.142 124.67 199.001 125.068Z" fill="white"/>
</g>
<g opacity="0.3">
<path d="M258.169 117.033C256.217 117.033 254.264 117.033 252.311 117.033C252.422 117.143 252.532 117.253 252.643 117.362C252.643 115.423 252.643 113.484 252.643 111.545C252.532 111.654 252.422 111.764 252.311 111.874C254.264 111.874 256.216 111.874 258.169 111.874C258.058 111.764 257.948 111.654 257.837 111.545C257.837 113.483 257.837 115.423 257.837 117.362C257.837 117.786 258.5 117.786 258.5 117.362C258.5 115.423 258.5 113.484 258.5 111.545C258.5 111.366 258.348 111.215 258.169 111.215C256.217 111.215 254.264 111.215 252.311 111.215C252.132 111.215 251.98 111.366 251.98 111.545C251.98 113.483 251.98 115.423 251.98 117.362C251.98 117.541 252.132 117.692 252.311 117.692C254.264 117.692 256.216 117.692 258.169 117.692C258.595 117.692 258.596 117.033 258.169 117.033Z" fill="white"/>
</g>
<g opacity="0.3">
<path d="M258.169 127.735C256.217 127.735 254.264 127.735 252.311 127.735C252.422 127.845 252.532 127.954 252.643 128.064C252.643 126.126 252.643 124.186 252.643 122.247C252.532 122.356 252.422 122.466 252.311 122.576C254.264 122.576 256.216 122.576 258.169 122.576C258.058 122.466 257.948 122.356 257.837 122.247C257.837 124.185 257.837 126.125 257.837 128.064C257.837 128.488 258.5 128.488 258.5 128.064C258.5 126.126 258.5 124.186 258.5 122.247C258.5 122.068 258.348 121.917 258.169 121.917C256.217 121.917 254.264 121.917 252.311 121.917C252.132 121.917 251.98 122.068 251.98 122.247C251.98 124.185 251.98 126.125 251.98 128.064C251.98 128.242 252.132 128.393 252.311 128.393C254.264 128.393 256.216 128.393 258.169 128.393C258.595 128.393 258.596 127.735 258.169 127.735Z" fill="white"/>
</g>
<g opacity="0.3">
<path d="M258.169 138.437C256.217 138.437 254.264 138.437 252.311 138.437C252.422 138.547 252.532 138.656 252.643 138.766C252.643 136.828 252.643 134.888 252.643 132.949C252.532 133.058 252.422 133.168 252.311 133.278C254.264 133.278 256.216 133.278 258.169 133.278C258.058 133.168 257.948 133.058 257.837 132.949C257.837 134.887 257.837 136.827 257.837 138.766C257.837 139.19 258.5 139.19 258.5 138.766C258.5 136.828 258.5 134.888 258.5 132.949C258.5 132.77 258.348 132.619 258.169 132.619C256.217 132.619 254.264 132.619 252.311 132.619C252.132 132.619 251.98 132.77 251.98 132.949C251.98 134.887 251.98 136.827 251.98 138.766C251.98 138.944 252.132 139.095 252.311 139.095C254.264 139.095 256.216 139.095 258.169 139.095C258.595 139.095 258.596 138.437 258.169 138.437Z" fill="white"/>
</g>
<g opacity="0.3">
<path d="M250.742 112.78C252.201 113.432 253.55 114.389 254.517 115.662C254.649 115.835 254.865 115.884 255.038 115.728C256.945 114.006 259.32 112.299 261.906 111.862C262.326 111.791 262.148 111.156 261.73 111.227C259.016 111.685 257.268 113.47 255.046 114.849C254.322 115.299 254.986 115.051 254.747 114.878C254.289 114.547 253.922 114.015 253.465 113.655C252.737 113.085 251.925 112.59 251.077 112.211C250.691 112.039 250.353 112.606 250.742 112.78Z" fill="white"/>
</g>
<g opacity="0.3">
<path d="M250.742 123.982C252.201 124.634 253.55 125.592 254.517 126.864C254.649 127.037 254.865 127.086 255.038 126.931C256.945 125.208 259.32 123.501 261.906 123.064C262.326 122.993 262.148 122.358 261.73 122.429C259.016 122.888 257.268 124.673 255.046 126.052C254.322 126.501 254.986 126.254 254.747 126.081C254.289 125.75 253.922 125.217 253.465 124.858C252.737 124.287 251.925 123.792 251.077 123.413C250.691 123.241 250.353 123.809 250.742 123.982Z" fill="white"/>
</g>
<g opacity="0.3">
<path d="M250.742 134.184C252.201 134.835 253.55 135.793 254.517 137.065C254.649 137.238 254.865 137.288 255.038 137.132C256.945 135.41 259.32 133.703 261.906 133.265C262.326 133.194 262.148 132.56 261.73 132.631C259.016 133.089 257.268 134.874 255.046 136.253C254.322 136.703 254.986 136.455 254.747 136.282C254.289 135.951 253.922 135.418 253.465 135.059C252.737 134.489 251.925 133.993 251.077 133.615C250.691 133.443 250.353 134.01 250.742 134.184Z" fill="white"/>
</g>
<path d="M267.97 291.259C267.97 306.681 294.096 310.452 326.325 310.452C358.554 310.452 371.494 306.681 371.494 291.259C371.494 275.837 362.395 257.087 330.167 257.087C297.938 257.088 267.97 275.837 267.97 291.259Z" fill="#407BFF"/>
<path opacity="0.5" d="M267.97 291.259C267.97 306.681 294.096 310.452 326.325 310.452C358.554 310.452 371.494 306.681 371.494 291.259C371.494 275.837 362.395 257.087 330.167 257.087C297.938 257.088 267.97 275.837 267.97 291.259Z" fill="white"/>
<path d="M263.756 269.649C262.57 290.857 268.473 302.307 281.934 303.05C295.395 303.792 307.269 287.202 308.454 265.994C309.64 244.786 296.081 228.542 282.62 227.799C269.159 227.055 264.941 248.441 263.756 269.649Z" fill="#407BFF"/>
<path opacity="0.5" d="M263.756 269.649C262.57 290.857 268.473 302.307 281.934 303.05C295.395 303.792 307.269 287.202 308.454 265.994C309.64 244.786 296.081 228.542 282.62 227.799C269.159 227.055 264.941 248.441 263.756 269.649Z" fill="white"/>
<path opacity="0.1" d="M329.5 258.911C329.5 258.911 342.027 257.335 343.132 261.725C344.237 266.115 322.474 263.7 318.106 268.09C313.739 272.48 332.303 274.736 328.26 277.363C325.087 279.425 314.248 270.066 300.402 273.578C286.556 277.09 284.582 266.718 286.121 257.088C287.661 247.457 288.787 237.102 292.975 237.89C297.164 238.677 310.784 257.633 329.5 258.911Z" fill="black"/>
<path opacity="0.1" d="M290.548 274.634C290.548 274.634 277.586 272.372 276.871 277.761C276.157 283.149 275.169 275.177 290.548 274.634Z" fill="black"/>
<path opacity="0.1" d="M269.653 297.392C266.01 293.156 264.038 286.578 263.676 277.773C265.345 294.545 275.145 305.409 314.288 307.161C353.511 308.917 362.139 297.284 366.338 298.674C368.101 299.258 368.108 300.862 367.526 302.526C361.547 308.666 348.504 310.453 326.325 310.453C298.894 310.453 275.896 307.715 269.653 297.392Z" fill="black"/>
<path d="M336.986 225.633C336.986 225.633 335.155 225.922 334.077 227.011C332.998 228.101 329.817 227.988 329.817 227.988L329.5 231.559L336.754 231.142L336.986 225.633Z" fill="#B25B52"/>
<path d="M307.758 204.286C308.705 204.232 312.326 206.11 314.511 215.605C316.697 225.101 316.21 228.286 333.166 227.206L332.614 231.935C332.614 231.935 317.922 233.501 313.539 230.004C309.171 226.52 304.258 204.484 307.758 204.286Z" fill="#263238"/>
<path opacity="0.6" d="M312.635 215.966L313.462 217.42C313.462 217.42 312.552 226.364 314.287 230.493C314.015 230.342 313.761 230.181 313.539 230.004C312.363 229.067 311.149 226.778 310.068 223.938L312.635 215.966Z" fill="black"/>
<path d="M288.433 186.838C288.433 186.838 288.309 189.608 287.013 190.176C285.718 190.745 287.965 193.915 287.338 195.855C286.711 197.797 285.262 199.54 286.813 202.139C286.813 202.139 286.478 199.972 287.579 198.682C287.579 198.682 287.118 202.318 288.303 202.397C289.489 202.476 289.723 201.413 291.667 201.865C293.611 202.317 291.896 198.896 291.896 198.896C291.896 198.896 292.679 199.411 293.203 201.227C293.727 203.043 298.875 200.948 300.969 201.695C303.064 202.441 303.645 198.598 303.645 198.598C303.645 198.598 304.578 200.881 303.821 201.662C303.821 201.662 305.471 201.193 305.654 199.02C305.654 199.02 306.137 199.68 305.892 201.061C305.892 201.061 307.479 200.946 307.082 197.891C306.685 194.835 304.286 193.956 303.661 191.531C303.037 189.106 295.345 184.411 295.345 184.411L288.433 186.838Z" fill="#263238"/>
<path d="M292.57 196.173L299.125 200.411C299.101 204.981 302.426 204.74 302.426 204.74C302.426 204.74 302.479 206.334 298.471 206.922C294.464 207.508 293.084 207.352 293.084 207.352C295.081 204.978 293.565 199.279 292.57 196.173Z" fill="#B25B52"/>
<path opacity="0.1" d="M299.579 202.89C299.302 202.282 299.119 201.483 299.125 200.411L293.277 196.631L292.91 197.279C292.91 197.279 295.127 203.145 299.579 202.89Z" fill="black"/>
<path d="M290.674 189.202C291.341 194.513 291.505 196.776 294.387 199.342C298.723 203.205 305.144 201.234 306.092 195.833C306.944 190.971 305.715 183.108 300.331 181.311C296.49 180.008 292.313 182.045 291.001 185.859C290.631 186.931 290.519 188.076 290.674 189.202Z" fill="#B25B52"/>
<path d="M302.498 192.329C302.948 193.296 303.53 194.197 304.229 195.006C303.8 195.356 303.238 195.499 302.692 195.397L302.498 192.329Z" fill="#9D2724"/>
<path d="M297.786 189.563C297.749 189.557 297.714 189.542 297.684 189.52C297.592 189.447 297.577 189.314 297.65 189.222L297.653 189.219C298.144 188.575 298.921 188.209 299.734 188.239C299.849 188.254 299.932 188.357 299.924 188.472C299.912 188.587 299.81 188.671 299.695 188.662C299.023 188.648 298.385 188.955 297.981 189.488C297.934 189.544 297.859 189.573 297.786 189.563Z" fill="#2E353A"/>
<path d="M305.715 188.718C305.678 188.712 305.643 188.697 305.613 188.675C305.089 188.263 304.398 188.127 303.754 188.306C303.644 188.347 303.521 188.292 303.478 188.183L303.477 188.18C303.439 188.069 303.499 187.947 303.61 187.906C304.391 187.678 305.233 187.838 305.874 188.335C305.971 188.401 305.995 188.534 305.928 188.63C305.88 188.698 305.797 188.732 305.715 188.718Z" fill="#2E353A"/>
<path d="M299.367 191.804C299.393 192.235 299.647 192.573 299.936 192.557C300.225 192.541 300.429 192.176 300.398 191.739C300.367 191.3 300.118 190.97 299.834 190.987C299.551 191.003 299.341 191.367 299.367 191.804Z" fill="#2E353A"/>
<path d="M304.308 191.498C304.335 191.929 304.589 192.266 304.872 192.25C305.156 192.234 305.366 191.868 305.341 191.432C305.315 190.995 305.061 190.664 304.777 190.681C304.493 190.696 304.276 191.061 304.308 191.498Z" fill="#2E353A"/>
<path d="M304.652 190.711L305.682 190.348C305.682 190.348 305.192 191.192 304.652 190.711Z" fill="#2E353A"/>
<path d="M299.712 191.018L300.741 190.654C300.741 190.654 300.252 191.499 299.712 191.018Z" fill="#2E353A"/>
<path d="M299.905 196.152C299.789 196.021 299.685 195.88 299.593 195.731C299.561 195.684 299.573 195.62 299.62 195.589C299.62 195.589 299.621 195.587 299.623 195.587C299.674 195.56 299.738 195.576 299.768 195.626C300.231 196.391 301.034 196.893 301.929 196.978C301.988 196.979 302.034 197.027 302.033 197.085C302.032 197.143 301.984 197.188 301.926 197.187C301.139 197.127 300.411 196.755 299.905 196.152Z" fill="#263238"/>
<path d="M300.43 181.67C300.43 181.67 303.301 184.836 300.17 186.103C297.04 187.37 294.222 189.236 293.763 191.858C293.304 194.481 290.75 194.56 290.75 194.56C290.75 194.56 286.611 189.351 289.284 183.873C291.955 178.396 299.338 179.757 300.43 181.67Z" fill="#263238"/>
<path d="M292.13 182.493C292.13 182.493 295.584 177.183 301.377 179.754C307.171 182.325 307.423 186.687 305.967 186.258C304.51 185.829 302.195 185.391 300.537 182.416C298.879 179.44 292.13 182.493 292.13 182.493Z" fill="#263238"/>
<path d="M292.975 192.496C292.975 192.496 295.829 192.335 294.471 196.066C294.471 196.066 294.262 193.705 292.975 192.496Z" fill="#263238"/>
<path d="M289.669 193.496C290.029 194.467 290.764 195.257 291.709 195.69C292.968 196.254 293.805 195.188 293.63 193.899C293.473 192.744 292.628 191.052 291.279 191.028C290.296 191.041 289.51 191.843 289.523 192.818C289.526 193.052 289.575 193.282 289.669 193.496Z" fill="#B25B52"/>
<path d="M330.598 237.877L315.328 235.776C315.006 235.731 314.823 235.383 314.972 235.095L324.452 216.758C324.713 216.253 325.267 215.967 325.834 216.045L341.104 218.146C341.427 218.191 341.609 218.539 341.46 218.827L331.98 237.164C331.719 237.668 331.165 237.955 330.598 237.877Z" fill="#263238"/>
<path opacity="0.5" d="M330.598 237.877L315.328 235.776C315.006 235.731 314.823 235.383 314.972 235.095L324.452 216.758C324.713 216.253 325.267 215.967 325.834 216.045L341.104 218.146C341.427 218.191 341.609 218.539 341.46 218.827L331.98 237.164C331.719 237.668 331.165 237.955 330.598 237.877Z" fill="white"/>
<path d="M331.196 237.959L315.926 235.858C315.603 235.813 315.421 235.466 315.57 235.178L325.05 216.841C325.311 216.336 325.865 216.049 326.431 216.127L341.701 218.228C342.024 218.273 342.206 218.62 342.058 218.908L332.578 237.245C332.317 237.751 331.763 238.037 331.196 237.959Z" fill="#263238"/>
<path opacity="0.7" d="M331.196 237.959L315.926 235.858C315.603 235.813 315.421 235.466 315.57 235.178L325.05 216.841C325.311 216.336 325.865 216.049 326.431 216.127L341.701 218.228C342.024 218.273 342.206 218.62 342.058 218.908L332.578 237.245C332.317 237.751 331.763 238.037 331.196 237.959Z" fill="white"/>
<path opacity="0.7" d="M339.612 221.4L337.851 221.158C337.814 221.152 337.792 221.112 337.809 221.08L338.903 218.964C338.933 218.906 338.996 218.873 339.062 218.882L340.823 219.124C340.86 219.129 340.881 219.17 340.863 219.202L339.77 221.317C339.741 221.376 339.677 221.409 339.612 221.4Z" fill="#263238"/>
<path opacity="0.3" d="M339.612 221.4L337.851 221.158C337.814 221.152 337.792 221.112 337.809 221.08L338.903 218.964C338.933 218.906 338.996 218.873 339.062 218.882L340.823 219.124C340.86 219.129 340.881 219.17 340.863 219.202L339.77 221.317C339.741 221.376 339.677 221.409 339.612 221.4Z" fill="white"/>
<path d="M330.107 227.221C329.846 227.938 329.249 228.466 328.772 228.4C328.296 228.334 328.121 227.701 328.382 226.984C328.643 226.268 329.241 225.739 329.717 225.805C330.194 225.87 330.368 226.505 330.107 227.221Z" fill="white"/>
<path d="M345.565 295.407L348.467 307.222L352.63 305.753L351.398 293.757L345.565 295.407Z" fill="#B25B52"/>
<path d="M352.962 305.083L347.921 305.178C347.703 305.182 347.516 305.336 347.473 305.548L346.513 310.248C346.425 310.665 346.693 311.073 347.112 311.161C347.166 311.172 347.221 311.177 347.276 311.177C349.363 311.103 351.218 310.955 353.818 310.91C356.885 310.855 356.113 311.233 359.721 311.219C361.895 311.207 362.246 308.746 361.323 308.642C357.095 308.193 355.883 306.948 354.228 305.479C353.869 305.197 353.418 305.057 352.962 305.083Z" fill="#263238"/>
<path opacity="0.1" d="M352.112 300.715L351.398 293.757L345.565 295.407L347.242 302.237L352.112 300.715Z" fill="black"/>
<path d="M305.182 238.183L311.841 235.638C311.841 235.638 315.341 239.474 317.514 244.043C319.688 248.612 309.224 248.612 309.224 248.612L305.93 242.47L305.182 238.183Z" fill="#407BFF"/>
<path opacity="0.3" d="M305.182 238.183L311.841 235.638C311.841 235.638 315.341 239.474 317.514 244.043C319.688 248.612 309.224 248.612 309.224 248.612L305.93 242.47L305.182 238.183Z" fill="black"/>
<path opacity="0.2" d="M309.054 236.704C310.942 247.054 314.312 245.204 314.312 245.204L312.835 247.369L308.829 247.875L305.93 242.471L305.182 238.184L309.054 236.704Z" fill="black"/>
<path d="M367.764 273.938L377.077 284.979L380.356 282.526L372.176 270.251L367.764 273.938Z" fill="#B25B52"/>
<path d="M378.701 279.451L374.698 282.54C374.52 282.666 374.454 282.898 374.54 283.097L376.439 287.506C376.604 287.898 377.059 288.082 377.454 287.918C377.504 287.897 377.553 287.871 377.598 287.839C379.273 286.599 380.714 285.432 382.829 283.928C385.321 282.151 384.903 282.898 387.863 280.849C389.645 279.612 388.527 277.389 387.707 277.825C383.972 279.841 382.172 279.335 379.97 279.06C379.513 279.033 379.061 279.172 378.701 279.451Z" fill="#263238"/>
<path opacity="0.1" d="M372.842 279.957L376.787 277.17L372.176 270.251L367.764 273.938L372.842 279.957Z" fill="black"/>
<path d="M291.67 242.656C291.67 242.656 289.253 256.514 294.068 265.474C298.883 274.434 309.572 276.061 337.038 247.161C337.038 247.161 346.698 251.623 369.949 277.67L375.12 273.693C375.12 273.693 354.884 241.045 345.101 233.298C335.223 225.473 313.619 247.333 310.867 246.118C308.416 245.038 307.257 237.497 307.257 237.497L291.67 242.656Z" fill="#407BFF"/>
<path opacity="0.3" d="M291.67 242.656C291.67 242.656 289.253 256.514 294.068 265.474C298.883 274.434 309.572 276.061 337.038 247.161C337.038 247.161 346.698 251.623 369.949 277.67L375.12 273.693C375.12 273.693 354.884 241.045 345.101 233.298C335.223 225.473 313.619 247.333 310.867 246.118C308.416 245.038 307.257 237.497 307.257 237.497L291.67 242.656Z" fill="black"/>
<path d="M368.292 277.637L370.431 279.519L376.535 274.486L375.489 271.785L368.292 277.637Z" fill="#407BFF"/>
<path d="M316.339 265.694C321.895 261.9 328.687 255.948 337.039 247.16C337.039 247.16 344.981 244.244 347.769 249.879C350.557 255.514 352.34 296.253 352.34 296.253L345.725 298.148C345.725 298.148 333.901 261.381 333.968 258.955L316.339 265.694Z" fill="#407BFF"/>
<path opacity="0.4" d="M316.339 265.694C321.895 261.9 328.687 255.948 337.039 247.16C337.039 247.16 344.981 244.244 347.769 249.879C350.557 255.514 352.34 296.253 352.34 296.253L345.725 298.148C345.725 298.148 333.901 261.381 333.968 258.955L316.339 265.694Z" fill="black"/>
<path opacity="0.2" d="M347.768 249.88C347.256 248.845 346.569 248.103 345.79 247.574C348.152 248.812 351.468 251.803 351.862 258.911V258.912C350.922 258.029 350.036 257.22 349.191 256.459C348.753 253.279 348.277 250.909 347.768 249.88Z" fill="black"/>
<path opacity="0.2" d="M337.038 247.16C337.038 247.16 338.252 246.716 339.895 246.51C338.942 248.337 335.471 254.504 329.05 260.835L316.338 265.694C321.894 261.899 328.687 255.948 337.038 247.16Z" fill="black"/>
<path d="M344.551 297.399L345.39 300.076L353.068 297.809L353.164 294.917L344.551 297.399Z" fill="#407BFF"/>
<path d="M313.869 237.477C313.869 237.477 311.894 240.667 290.972 243.829C290.972 243.829 291.895 237.41 289.69 228.223C287.485 219.036 279.314 210.4 287.282 208.172C295.251 205.945 309.031 201.35 310.211 206.319C311.39 211.287 313.555 213.457 313.463 217.419C313.371 221.382 310.472 224.258 313.869 237.477Z" fill="#263238"/>
<path d="M339.561 227.256C339.679 226.845 339.621 226.403 339.424 226.023C339.112 225.419 338.55 224.636 337.764 224.714C336.498 224.84 336.163 225.738 335.842 226.911C335.522 228.083 334.516 230.159 335.661 230.879C336.755 231.568 338.438 231.19 339.561 227.256Z" fill="#B25B52"/>
<path d="M291.916 206.877C291.916 206.877 303.045 207.514 302.391 204.37C302.391 204.37 300.225 203.382 300.644 202.214C301.063 201.045 295.333 202.256 293.095 201.937C292.177 201.805 292.765 202.99 292.699 204.259C292.634 205.526 291.916 206.877 291.916 206.877Z" fill="#263238"/>
<path opacity="0.6" d="M290.158 230.382L298.294 230.278L301.064 228.406L304.195 227.031L304.607 228.132C304.607 228.132 294.889 239.362 291.128 238.376C291.04 236.213 290.774 233.488 290.158 230.382Z" fill="black"/>
<path opacity="0.6" d="M297.052 228.074C297.052 228.074 293.933 229.017 293.4 226.763C292.632 223.516 290.349 214.478 288.035 211.004C285.509 207.213 290.484 225.333 290.484 225.333L291.588 229.148L293.328 231.493L297.097 228.837L297.052 228.074Z" fill="black"/>
<path opacity="0.6" d="M302.747 205.789C302.747 205.789 303.134 207.904 294.77 207.718C294.77 207.718 304.522 210.033 302.747 205.789Z" fill="black"/>
<path d="M310.547 223.454L310.433 222.553L309.8 222.93L310.547 223.454Z" fill="#263238"/>
<path opacity="0.7" d="M310.547 223.454L310.433 222.553L309.8 222.93L310.547 223.454Z" fill="white"/>
<path d="M302.927 212.336L303.033 211.759L303.704 211.359L304.268 211.538L310.345 221.608L310.478 222.584L309.807 222.983L309.003 222.407L302.927 212.336Z" fill="#263238"/>
<path opacity="0.6" d="M302.927 212.336L303.033 211.759L303.704 211.359L304.268 211.538L310.345 221.608L310.478 222.584L309.807 222.983L309.003 222.407L302.927 212.336Z" fill="white"/>
<path opacity="0.5" d="M303.728 212.16L303.057 212.559L308.973 222.363L309.644 221.963L303.728 212.16Z" fill="white"/>
<path d="M285.36 208.71C282.515 209.503 282.335 213.33 284.927 222.709C287.518 232.089 289.409 238.078 294.416 235.822C299.423 233.567 305.209 227.523 305.209 227.523L302.702 223.462C302.702 223.462 294.543 230.435 292.832 229.103C291.122 227.771 289.713 207.497 285.36 208.71Z" fill="#263238"/>
<path d="M301.629 225.066L305.079 222.181C305.079 222.181 304.573 216.423 306.448 216.352C307.986 216.294 309.217 218.122 309.491 220.622C309.765 223.122 306.925 224.679 306.925 224.679L303.589 228.354L301.629 225.066Z" fill="#B25B52"/>
<path d="M230.951 169.688C230.951 169.688 238.708 164.946 242.745 171.751C245.611 176.583 244.025 181.449 246.294 185.379C249.83 191.506 247.472 194.433 242.168 195.531C236.864 196.628 228.351 196.482 229.533 190.336C230.742 184.048 224.817 169.601 230.951 169.688Z" fill="#263238"/>
<path d="M239.424 183.403C239.424 183.403 240.067 192.421 241.762 192.576C241.762 192.576 237.767 194.56 233.844 192.576L233.568 188.43L239.424 183.403Z" fill="#EBB376"/>
<path d="M201.977 310.884H198.858L199.845 262.741H204.005L201.977 310.884Z" fill="#407BFF"/>
<path opacity="0.7" d="M201.977 310.884H198.858L199.845 262.741H204.005L201.977 310.884Z" fill="white"/>
<g opacity="0.4">
<path d="M227.58 310.884H224.46L225.447 262.741H229.607L227.58 310.884Z" fill="#407BFF"/>
</g>
<path d="M253.167 310.884H256.287L255.299 262.741H251.139L253.167 310.884Z" fill="#407BFF"/>
<g opacity="0.4">
<path d="M253.167 310.884H256.287L255.299 262.741H251.139L253.167 310.884Z" fill="white"/>
</g>
<path d="M253.382 262.741H202.161V267.241H253.382V262.741Z" fill="#407BFF"/>
<path opacity="0.5" d="M253.382 262.741H202.161V267.241H253.382V262.741Z" fill="white"/>
<path d="M227.565 310.884H230.685L229.697 262.741H225.537L227.565 310.884Z" fill="#407BFF"/>
<path opacity="0.7" d="M227.565 310.884H230.685L229.697 262.741H225.537L227.565 310.884Z" fill="white"/>
<path d="M256.489 205.725H248.004C243.549 205.725 238.821 208.011 237.569 212.258C234.03 224.263 231.353 261.911 231.353 261.911H254.066C256.825 261.911 259.143 259.849 259.445 257.125L264.204 214.279C264.711 209.715 261.112 205.725 256.489 205.725Z" fill="#263238"/>
<path opacity="0.6" d="M256.489 205.725H248.004C243.549 205.725 238.821 208.011 237.569 212.258C234.03 224.263 231.353 261.911 231.353 261.911H254.066C256.825 261.911 259.143 259.849 259.445 257.125L264.204 214.279C264.711 209.715 261.112 205.725 256.489 205.725Z" fill="white"/>
<path d="M251.315 205.725H242.829C238.375 205.725 233.647 208.011 232.395 212.258C228.856 224.263 226.178 261.911 226.178 261.911H248.103C251.311 261.911 254.006 259.513 254.358 256.346L259.03 214.279C259.536 209.715 255.938 205.725 251.315 205.725Z" fill="#263238"/>
<path opacity="0.5" d="M251.315 205.725H242.829C238.375 205.725 233.647 208.011 232.395 212.258C228.856 224.263 226.178 261.911 226.178 261.911H248.103C251.311 261.911 254.006 259.513 254.358 256.346L259.03 214.279C259.536 209.715 255.938 205.725 251.315 205.725Z" fill="white"/>
<path d="M234.142 262.741H200.944C197.883 262.741 195.401 260.276 195.401 257.236C195.401 254.195 197.883 251.731 200.944 251.731H234.142V262.741Z" fill="#263238"/>
<path opacity="0.5" d="M234.142 262.741H200.944C197.883 262.741 195.401 260.276 195.401 257.236C195.401 254.195 197.883 251.731 200.944 251.731H234.142V262.741Z" fill="white"/>
<path d="M254.436 262.741H232.993C230.064 262.741 227.69 260.382 227.69 257.474V256.998C227.69 254.089 230.064 251.731 232.993 251.731H254.436C257.498 251.731 259.979 254.195 259.979 257.236C259.979 260.275 257.498 262.741 254.436 262.741Z" fill="#263238"/>
<path opacity="0.6" d="M254.436 262.741H232.993C230.064 262.741 227.69 260.382 227.69 257.474V256.998C227.69 254.089 230.064 251.731 232.993 251.731H254.436C257.498 251.731 259.979 254.195 259.979 257.236C259.979 260.275 257.498 262.741 254.436 262.741Z" fill="white"/>
<path d="M223.31 204.638C223.31 204.638 224.051 212.646 220.242 216.035C216.775 219.119 211.181 220.64 211.181 220.64L206.248 219.212C205.774 219.075 205.277 219.22 204.976 219.584L202.769 222.24C202.328 222.771 202.443 223.583 203.021 224.024C203.294 224.233 203.635 224.328 203.966 224.288L206.52 223.978C206.52 223.978 208.858 224.408 209.632 224.351C210.238 224.306 211.953 223.706 211.953 223.706C211.953 223.706 220.75 222.954 224.502 219.227C228.254 215.501 229.195 207.768 229.195 207.768L223.31 204.638Z" fill="#EBB376"/>
<path d="M197.399 289.967L197.973 307.49H201.921L203.768 289.651L197.399 289.967Z" fill="#EBB376"/>
<path d="M197.91 305.693L202.412 305.716C202.608 305.716 202.778 305.852 202.821 306.042L203.75 310.247C203.836 310.62 203.601 310.99 203.226 311.075C203.179 311.086 203.129 311.092 203.08 311.093C201.205 311.056 199.537 310.951 197.203 310.948C194.447 310.943 195.146 311.271 191.907 311.31C189.955 311.331 189.603 309.127 190.43 309.02C194.218 308.556 195.314 307.41 196.778 306.066C197.097 305.808 197.5 305.676 197.91 305.693Z" fill="#263238"/>
<path opacity="0.1" d="M202.319 303.645L202.763 299.356H197.707L197.847 303.645H202.319Z" fill="#263238"/>
<path d="M243.623 224.11C243.623 224.11 255.93 251.877 244.11 251.877C232.29 251.877 210.004 251.877 210.004 251.877C210.004 251.877 208.529 259.262 203.215 299.85H197.51C197.51 299.85 196.557 252.311 199.711 245.221C202.182 239.664 218.019 235.692 225.516 234.234C227.534 233.841 229.075 232.221 229.353 230.198L231.017 223.377L243.623 224.11Z" fill="#263238"/>
<path opacity="0.2" d="M243.623 224.11C243.623 224.11 255.93 251.877 244.11 251.877C232.29 251.877 210.004 251.877 210.004 251.877C210.004 251.877 208.529 259.262 203.215 299.85H197.51C197.51 299.85 196.557 252.311 199.711 245.221C202.182 239.664 218.019 235.692 225.516 234.234C227.534 233.841 229.075 232.221 229.353 230.198L231.017 223.377L243.623 224.11Z" fill="black"/>
<path d="M196.419 298.88L196.876 301.964H203.653L204.28 298.88H196.419Z" fill="#263238"/>
<path opacity="0.2" d="M196.419 298.88L196.876 301.964H203.653L204.28 298.88H196.419Z" fill="white"/>
<path d="M209.26 289.974L209.919 307.263L213.701 307.259L216.409 289.657L209.26 289.974Z" fill="#EBB376"/>
<path opacity="0.1" d="M214.257 303.645L214.917 299.356H209.618L209.781 303.645H214.257Z" fill="#263238"/>
<path d="M210.007 305.693L214.51 305.716C214.706 305.716 214.876 305.852 214.918 306.042L215.848 310.247C215.933 310.62 215.699 310.99 215.324 311.075C215.275 311.086 215.227 311.092 215.177 311.093C213.302 311.056 211.635 310.951 209.3 310.948C206.545 310.943 207.243 311.271 204.004 311.31C202.052 311.331 201.7 309.127 202.528 309.02C206.316 308.556 207.412 307.41 208.876 306.066C209.194 305.808 209.597 305.676 210.007 305.693Z" fill="#263238"/>
<path d="M249.84 224.594C249.84 224.594 250.724 224.594 252.055 231.151C253.746 239.483 256.188 251.878 248.138 251.878C236.317 251.878 222.037 251.878 222.037 251.878C222.037 251.878 220.761 254.889 215.207 299.851H209.503C209.503 299.851 206.334 251.739 209.489 244.65C211.918 239.19 223.998 236.693 230.641 235.834C232.535 235.589 234.104 234.071 234.154 232.175C234.205 230.195 233.917 224.256 233.917 224.256L249.84 224.594Z" fill="#263238"/>
<path d="M208.363 298.88L209.019 301.964H215.598L216.225 298.88H208.363Z" fill="#263238"/>
<path opacity="0.2" d="M208.363 298.88L209.019 301.964H215.598L216.225 298.88H208.363Z" fill="white"/>
<path d="M227.506 192.627C224.326 192.152 222.525 199.925 222.362 207.269L229.909 209.026C229.909 209.026 233.456 193.516 227.506 192.627Z" fill="#407BFF"/>
<path opacity="0.1" d="M227.506 192.627C224.326 192.152 222.525 199.925 222.362 207.269L229.909 209.026C229.909 209.026 233.456 193.516 227.506 192.627Z" fill="black"/>
<path d="M229.52 228.075C229.52 228.075 229.347 222.869 228.305 216.289C227.108 208.734 225.059 200.246 225.754 194.872C225.942 193.423 227.127 192.42 228.638 192.42H249.278C250.592 192.42 251.727 193.653 251.571 194.915C250.858 200.671 249.071 215.005 251.802 228.536C251.802 228.536 236.037 229.783 229.52 228.075Z" fill="#407BFF"/>
<path d="M247.428 202.682C247.428 202.682 248.798 212.005 244.66 214.632C240.522 217.259 231.473 219.986 231.473 219.986L225.882 218.808C225.584 218.746 225.287 218.867 225.133 219.116L222.892 222.714C222.728 222.977 222.759 223.322 222.968 223.571C223.134 223.769 223.388 223.874 223.639 223.848L227.029 223.497C227.029 223.497 228.79 223.907 229.38 223.889C230.134 223.866 232.287 223.21 232.287 223.21C232.287 223.21 245.221 221.959 249.17 218.036C253.12 214.114 253.624 205.975 253.624 205.975L247.428 202.682Z" fill="#EBB376"/>
<path d="M250.011 192.594C246 192.119 247.061 201.027 246.573 207.269L254.071 208.108C254.071 208.108 255.975 193.3 250.011 192.594Z" fill="#407BFF"/>
<path opacity="0.1" d="M250.011 192.594C246 192.119 247.061 201.027 246.573 207.269L254.071 208.108C254.071 208.108 255.975 193.3 250.011 192.594Z" fill="black"/>
<path d="M233.182 192.998C233.182 192.998 232.407 199.647 241.254 193.718C241.813 193.343 242.016 192.62 241.734 192.012C241.431 191.357 241.112 190.427 241.092 189.386C241.08 188.802 240.407 188.459 239.921 188.788C238.669 189.633 236.647 190.543 233.911 190.323C233.364 190.279 232.953 190.775 233.101 191.3C233.242 191.794 233.322 192.395 233.182 192.998Z" fill="#407BFF"/>
<path opacity="0.1" d="M233.182 192.998C233.182 192.998 232.407 199.647 241.254 193.718C241.813 193.343 242.016 192.62 241.734 192.012C241.431 191.357 241.112 190.427 241.092 189.386C241.08 188.802 240.407 188.459 239.921 188.788C238.669 189.633 236.647 190.543 233.911 190.323C233.364 190.279 232.953 190.775 233.101 191.3C233.242 191.794 233.322 192.395 233.182 192.998Z" fill="black"/>
<path opacity="0.1" d="M239.54 184.702C239.461 183.919 239.424 183.402 239.424 183.402L233.568 188.429L233.714 190.616C235.404 190.492 237.872 189.406 239.54 184.702Z" fill="black"/>
<path d="M239.895 176.163C240.367 181.299 240.68 183.463 238.498 186.468C235.215 190.991 228.763 190.446 226.751 185.554C224.943 181.151 224.472 173.496 229.169 170.705C232.515 168.694 236.87 169.758 238.894 173.081C239.466 174.017 239.808 175.072 239.895 176.163Z" fill="#EBB376"/>
<path d="M229.007 181.019C228.808 182.026 228.472 183.002 228.004 183.918C228.486 184.148 229.045 184.154 229.532 183.936L229.007 181.019Z" fill="#D58745"/>
<path d="M232.225 177.78C232.258 177.766 232.287 177.744 232.311 177.717C232.381 177.627 232.364 177.499 232.275 177.43L232.271 177.427C231.663 176.936 230.851 176.771 230.096 176.984C229.992 177.024 229.937 177.139 229.972 177.245C230.009 177.35 230.124 177.405 230.23 177.371C230.856 177.205 231.523 177.348 232.024 177.755C232.082 177.798 232.158 177.807 232.225 177.78Z" fill="#2E353A"/>
<path d="M225.046 178.865C225.01 178.862 224.975 178.85 224.945 178.831C224.852 178.768 224.827 178.641 224.89 178.548L224.893 178.544C225.317 177.89 226.037 177.482 226.82 177.451C226.932 177.457 227.021 177.549 227.02 177.661C227.017 177.771 226.925 177.86 226.814 177.86C226.168 177.896 225.578 178.238 225.228 178.779C225.187 178.837 225.119 178.87 225.046 178.865Z" fill="#2E353A"/>
<path d="M231.817 179.815C231.892 180.225 231.732 180.597 231.457 180.649C231.183 180.7 230.907 180.405 230.835 179.988C230.764 179.57 230.921 179.205 231.19 179.156C231.459 179.106 231.74 179.4 231.817 179.815Z" fill="#2E353A"/>
<path d="M227.121 180.652C227.196 181.062 227.036 181.434 226.766 181.485C226.498 181.534 226.216 181.24 226.139 180.825C226.063 180.41 226.225 180.043 226.494 179.994C226.764 179.945 227.049 180.235 227.121 180.652Z" fill="#2E353A"/>
<path d="M226.617 179.995L225.569 179.888C225.569 179.888 226.223 180.568 226.617 179.995Z" fill="#2E353A"/>
<path d="M231.313 179.157L230.265 179.051C230.265 179.051 230.918 179.73 231.313 179.157Z" fill="#2E353A"/>
<path d="M241.731 180.001C241.593 180.989 241.065 181.882 240.264 182.484C239.195 183.271 238.188 182.438 238.085 181.189C237.993 180.069 238.439 178.303 239.704 178.007C240.632 177.818 241.538 178.412 241.728 179.334C241.773 179.554 241.774 179.78 241.731 180.001Z" fill="#EBB376"/>
<path d="M230.963 186.025C230.814 186.072 230.662 186.106 230.507 186.127C230.458 186.137 230.41 186.105 230.4 186.055C230.4 186.055 230.4 186.054 230.4 186.052C230.395 186.001 230.431 185.955 230.483 185.948C231.273 185.845 231.968 185.374 232.353 184.681C232.374 184.635 232.429 184.615 232.476 184.636C232.523 184.657 232.543 184.711 232.522 184.758C232.196 185.372 231.633 185.83 230.963 186.025Z" fill="#263238"/>
<path d="M232.851 172.555C232.851 172.555 231.438 174.75 232.53 176.287C233.622 177.823 226.182 174.607 224.266 177.971C224.266 177.971 221.839 167.58 232.85 168.97V172.555H232.851Z" fill="#263238"/>
<path d="M232.53 171.897C232.53 171.897 231.707 176.06 234.432 177.344C237.158 178.627 237.084 182.067 239.539 181.489C243.077 180.656 240.547 169.994 234.813 168.841C230.564 167.989 232.53 171.897 232.53 171.897Z" fill="#263238"/>
<path d="M155.279 311.609H152.231L150.895 231.479H156.615L155.279 311.609Z" fill="#407BFF"/>
<path opacity="0.7" d="M155.279 311.609H152.231L150.895 231.479H156.615L155.279 311.609Z" fill="white"/>
<path d="M188.928 311.609H185.879L184.544 231.479H190.263L188.928 311.609Z" fill="#407BFF"/>
<path opacity="0.4" d="M188.928 311.609H185.879L184.544 231.479H190.263L188.928 311.609Z" fill="white"/>
<path d="M211.279 230.136H153.755V236.403H211.279V230.136Z" fill="#407BFF"/>
<path opacity="0.3" d="M211.279 230.136H153.755V236.403H211.279V230.136Z" fill="white"/>
<path d="M245.012 230.136H211.279V236.403H245.012V230.136Z" fill="#407BFF"/>
<path opacity="0.5" d="M245.012 230.136H211.279V236.403H245.012V230.136Z" fill="white"/>
<path d="M246.452 311.609H243.403L242.067 231.479H247.788L246.452 311.609Z" fill="#407BFF"/>
<path opacity="0.4" d="M246.452 311.609H243.403L242.067 231.479H247.788L246.452 311.609Z" fill="white"/>
<path d="M248.936 231.479H205.328C204.034 231.479 202.987 230.437 202.987 229.154V228.433C202.987 227.148 204.035 226.108 205.328 226.108H248.936C250.229 226.108 251.277 227.149 251.277 228.433V229.154C251.277 230.438 250.229 231.479 248.936 231.479Z" fill="#263238"/>
<path opacity="0.6" d="M248.936 231.479H205.328C204.034 231.479 202.987 230.437 202.987 229.154V228.433C202.987 227.148 204.035 226.108 205.328 226.108H248.936C250.229 226.108 251.277 227.149 251.277 228.433V229.154C251.277 230.438 250.229 231.479 248.936 231.479Z" fill="white"/>
<path d="M208.162 231.479H148.498C147.205 231.479 146.157 230.437 146.157 229.154V228.433C146.157 227.148 147.205 226.108 148.498 226.108H208.162C209.455 226.108 210.502 227.149 210.502 228.433V229.154C210.503 230.438 209.455 231.479 208.162 231.479Z" fill="#263238"/>
<path opacity="0.5" d="M208.162 231.479H148.498C147.205 231.479 146.157 230.437 146.157 229.154V228.433C146.157 227.148 147.205 226.108 148.498 226.108H208.162C209.455 226.108 210.502 227.149 210.502 228.433V229.154C210.503 230.438 209.455 231.479 208.162 231.479Z" fill="white"/>
<path d="M212.804 311.609H209.755L208.419 231.479H214.139L212.804 311.609Z" fill="#407BFF"/>
<path opacity="0.7" d="M212.804 311.609H209.755L208.419 231.479H214.139L212.804 311.609Z" fill="white"/>
<path d="M206.469 226.107C205.973 226.107 205.57 225.707 205.57 225.214C205.57 224.721 205.972 224.321 206.469 224.321H230.956C231.452 224.321 231.855 224.721 231.855 225.214C231.855 225.707 231.453 226.107 230.956 226.107H206.469Z" fill="#407BFF"/>
<path opacity="0.2" d="M206.469 226.107C205.973 226.107 205.57 225.707 205.57 225.214C205.57 224.721 205.972 224.321 206.469 224.321H230.956C231.452 224.321 231.855 224.721 231.855 225.214C231.855 225.707 231.453 226.107 230.956 226.107H206.469Z" fill="black"/>
<path d="M208.548 224.563L205.289 201.526C205.168 200.679 204.38 199.992 203.527 199.992H200.403V226.098H207.219C208.073 226.097 208.667 225.411 208.548 224.563Z" fill="#407BFF"/>
<path d="M205.872 226.097H178.184C177.331 226.097 176.542 225.41 176.422 224.563L173.162 201.526C173.042 200.678 173.637 199.991 174.49 199.991H202.178C203.031 199.991 203.82 200.678 203.94 201.526L207.199 224.563C207.32 225.411 206.725 226.097 205.872 226.097Z" fill="#263238"/>
<path opacity="0.7" d="M205.872 226.097H178.184C177.331 226.097 176.542 225.41 176.422 224.563L173.162 201.526C173.042 200.678 173.637 199.991 174.49 199.991H202.178C203.031 199.991 203.82 200.678 203.94 201.526L207.199 224.563C207.32 225.411 206.725 226.097 205.872 226.097Z" fill="white"/>
<path opacity="0.7" d="M191.534 212.417C191.644 213.192 191.1 213.82 190.321 213.82C189.541 213.82 188.82 213.192 188.71 212.417C188.6 211.643 189.144 211.014 189.924 211.014C190.704 211.014 191.425 211.643 191.534 212.417Z" fill="white"/>
<path d="M108.444 219.425C105.116 238.7 128.29 228.593 137.521 228.823C138.111 228.838 138.683 228.957 139.245 229.168L142.098 241.393L139.329 254.056L132.867 264.199H92.6546L63.5772 244.659L56.1923 221.738L58.2688 184.607L59.1917 178.648C59.1917 178.648 60.1146 185.982 80.4227 184.148C100.731 182.315 116.65 175.814 121.27 182.315C126.81 190.109 110.643 206.68 108.444 219.425Z" fill="#407BFF"/>
<path opacity="0.2" d="M138.637 250.968V258.183L127.04 262.825L104.194 261.621L98.1876 254.057L100.733 250.104H115.444L138.637 250.968Z" fill="black"/>
<path d="M101.679 274.563H94.6958V306.136H101.679V274.563Z" fill="#263238"/>
<path opacity="0.5" d="M101.679 274.563H94.6958V306.136H101.679V274.563Z" fill="white"/>
<path d="M103.485 303.266H92.8897L71.2485 307.332V310.92H75.7039L92.8897 307.691H103.485L120.671 310.92H125.127V307.332L103.485 303.266Z" fill="#263238"/>
<path opacity="0.3" d="M103.485 303.266H92.8897L71.2485 307.332V310.92H75.7039L92.8897 307.691H103.485L120.671 310.92H125.127V307.332L103.485 303.266Z" fill="white"/>
<path d="M120.671 312.475C122.156 312.475 123.642 312.475 125.127 312.475C126.522 312.475 126.523 310.322 125.127 310.322C123.642 310.322 122.156 310.322 120.671 310.322C119.277 310.322 119.275 312.475 120.671 312.475Z" fill="#407BFF"/>
<path d="M71.2485 312.475C72.7337 312.475 74.2188 312.475 75.7039 312.475C77.0988 312.475 77.1006 310.322 75.7039 310.322C74.2188 310.322 72.7337 310.322 71.2485 310.322C69.8536 310.322 69.8518 312.475 71.2485 312.475Z" fill="#407BFF"/>
<path opacity="0.2" d="M101.679 274.563H94.6958V281.709H101.679V274.563Z" fill="black"/>
<path d="M135.941 255.444H94.1548V246.494H135.941C138.429 246.494 140.446 248.498 140.446 250.969C140.446 253.44 138.429 255.444 135.941 255.444Z" fill="#407BFF"/>
<path opacity="0.1" d="M135.941 255.444H94.1548V246.494H135.941C138.429 246.494 140.446 248.498 140.446 250.969C140.446 253.44 138.429 255.444 135.941 255.444Z" fill="black"/>
<path d="M100.927 190.748C100.927 190.748 106.278 205.651 110.654 205.988C115.03 206.326 120.386 198.328 120.386 198.328L122.567 192.691L126.965 192.327V199.398L122.451 201.653C122.451 201.653 115.551 212.916 110.192 212.637C104.833 212.357 99.4225 204.118 98.3272 199.922C97.7252 197.615 98.1257 192.808 100.927 190.748Z" fill="#FFC3BD"/>
<path d="M127.902 203.016L129.487 190.003L123.424 189.598L123.241 202.705L127.902 203.016Z" fill="#263238"/>
<path opacity="0.5" d="M127.902 203.016L129.487 190.003L123.424 189.598L123.241 202.705L127.902 203.016Z" fill="white"/>
<path d="M129.606 188.123L123.542 187.718L123.416 189.588L129.479 189.993L129.606 188.123Z" fill="#407BFF"/>
<path d="M129.614 188.133L123.551 187.728L123.614 186.787C123.627 186.599 123.791 186.456 123.981 186.469L129.357 186.828C129.547 186.84 129.69 187.003 129.678 187.192L129.614 188.133Z" fill="#263238"/>
<path d="M99.5242 203.867C99.5242 203.867 93.7871 194.46 97.453 190C101.118 185.541 106.716 200.243 106.716 200.243L99.5242 203.867Z" fill="#407BFF"/>
<path opacity="0.3" d="M99.5242 203.867C99.5242 203.867 93.7871 194.46 97.453 190C101.118 185.541 106.716 200.243 106.716 200.243L99.5242 203.867Z" fill="white"/>
<path d="M98.4104 203.202L99.4968 204.792L107.536 200.663L106.791 198.996L98.4104 203.202Z" fill="#407BFF"/>
<path opacity="0.1" d="M98.4104 203.202L99.4968 204.792L107.536 200.663L106.791 198.996L98.4104 203.202Z" fill="white"/>
<path d="M70.7765 239.845C70.7765 239.845 63.5843 214.854 72.015 189.999C72.015 189.999 82.9563 184.943 98.558 188.651C100.347 189.076 101.432 190.875 100.973 192.645C99.4119 198.672 96.9986 213.045 102.826 231.211C102.828 231.211 89.1461 239.488 70.7765 239.845Z" fill="#407BFF"/>
<path opacity="0.5" d="M70.7765 239.845C70.7765 239.845 63.5843 214.854 72.015 189.999C72.015 189.999 82.9563 184.943 98.558 188.651C100.347 189.076 101.432 190.875 100.973 192.645C99.4119 198.672 96.9986 213.045 102.826 231.211C102.828 231.211 89.1461 239.488 70.7765 239.845Z" fill="white"/>
<path d="M84.4556 187.407L89.7375 191.951L92.8049 189.253C91.6451 188.395 91.9634 186.46 92.6105 184.37L85.1194 178.497C85.4996 181.254 85.7869 185.04 84.4556 187.407Z" fill="#FFC3BD"/>
<path d="M122.903 246.064L132.638 250L131.538 254.089L121.146 251.962L122.903 246.064Z" fill="#FFC3BD"/>
<path d="M89.657 232.11C89.657 232.11 136.255 216.078 140.098 230.808C143.94 245.538 108.627 255.699 90.1246 255.08C71.6225 254.462 89.657 232.11 89.657 232.11Z" fill="#263238"/>
<path opacity="0.3" d="M89.657 232.11C89.657 232.11 136.255 216.078 140.098 230.808C143.94 245.538 108.627 255.699 90.1246 255.08C71.6225 254.462 89.657 232.11 89.657 232.11Z" fill="black"/>
<path opacity="0.7" d="M124.298 233.602L101.687 247.917L105.297 253.799C105.297 253.799 103.111 254.521 100.086 247.335L114.081 238.147C114.081 238.147 109.698 237.711 109.811 237.028C109.995 235.918 119.61 233.787 124 232.87C124.44 232.779 124.678 233.362 124.298 233.602Z" fill="black"/>
<path opacity="0.7" d="M100.864 247.286L104.784 253.888C99.465 254.799 94.3546 255.223 90.1238 255.081C88.1525 255.015 86.5993 254.701 85.3909 254.194L84.0154 251.576L86.9803 245.368L100.864 247.286Z" fill="black"/>
<path d="M101.264 248.3L96.8617 251.965L98.8834 255.083L105.585 254.042L101.264 248.3Z" fill="#FFC3BD"/>
<path d="M106.762 254.152L102.162 246.953L100.086 248.425L104.064 254.64L106.762 254.152Z" fill="#263238"/>
<path opacity="0.3" d="M106.762 254.152L102.162 246.953L100.086 248.425L104.064 254.64L106.762 254.152Z" fill="white"/>
<path d="M73.2783 247.443C70.7721 243.223 65.9349 230.522 77.5648 228.311C89.1938 226.1 127.395 247.443 127.395 247.443L125.616 252.998L89.444 247.071C89.444 247.071 99.5013 256.11 88.5008 254.986C79.7748 254.095 75.7146 251.546 73.2783 247.443Z" fill="#263238"/>
<path d="M126.454 246.064L124.192 253.315L126.454 253.629L128.491 247.364L126.454 246.064Z" fill="#263238"/>
<path opacity="0.3" d="M126.454 246.064L124.192 253.315L126.454 253.629L128.491 247.364L126.454 246.064Z" fill="white"/>
<path d="M100.177 254.921L98.5899 250.126C98.5298 249.946 98.3521 249.83 98.162 249.849L93.948 250.264C93.5741 250.299 93.2983 250.627 93.3327 250.998C93.3372 251.047 93.3469 251.093 93.361 251.139C93.963 252.858 94.5668 254.364 95.2758 256.517C96.1156 259.057 95.5958 258.511 96.5408 261.511C97.1118 263.318 99.2794 262.976 99.1282 262.18C98.4157 258.544 99.3572 257.835 100.17 256.078C100.315 255.706 100.317 255.294 100.177 254.921Z" fill="#263238"/>
<path d="M131.773 249.737L130.136 254.663C130.074 254.848 130.15 255.052 130.319 255.152L134.058 257.365C134.388 257.564 134.818 257.459 135.018 257.131C135.043 257.089 135.065 257.044 135.08 256.998C135.639 255.212 136.066 253.601 136.803 251.391C137.671 248.782 137.765 249.547 138.828 246.494C139.466 244.654 137.464 243.623 137.099 244.372C135.453 247.809 134.24 247.824 132.488 248.784C132.14 249.004 131.886 249.343 131.773 249.737Z" fill="#263238"/>
<path d="M125.388 233.369H104.421C103.432 233.369 102.631 232.573 102.631 231.592H127.177C127.178 232.573 126.377 233.369 125.388 233.369Z" fill="#263238"/>
<path opacity="0.2" d="M125.388 233.369H104.421C103.432 233.369 102.631 232.573 102.631 231.592H127.177C127.178 232.573 126.377 233.369 125.388 233.369Z" fill="white"/>
<path d="M109.954 233.369H94.7223C93.734 233.369 92.9331 232.573 92.9331 231.592H111.743C111.743 232.573 110.942 233.369 109.954 233.369Z" fill="#263238"/>
<path opacity="0.5" d="M109.954 233.369H94.7223C93.734 233.369 92.9331 232.573 92.9331 231.592H111.743C111.743 232.573 110.942 233.369 109.954 233.369Z" fill="white"/>
<path d="M125.537 232.825H111.736C111.444 232.825 111.24 232.539 111.336 232.266L117.475 214.849C117.644 214.369 118.1 214.048 118.612 214.048H132.413C132.704 214.048 132.909 214.334 132.812 214.608L126.674 232.025C126.504 232.505 126.049 232.825 125.537 232.825Z" fill="#263238"/>
<path opacity="0.5" d="M125.537 232.825H111.736C111.444 232.825 111.24 232.539 111.336 232.266L117.475 214.849C117.644 214.369 118.1 214.048 118.612 214.048H132.413C132.704 214.048 132.909 214.334 132.812 214.608L126.674 232.025C126.504 232.505 126.049 232.825 125.537 232.825Z" fill="white"/>
<path d="M126.077 232.825H112.276C111.984 232.825 111.78 232.539 111.876 232.266L118.015 214.849C118.184 214.369 118.64 214.048 119.152 214.048H132.953C133.244 214.048 133.449 214.334 133.352 214.608L127.214 232.025C127.044 232.505 126.589 232.825 126.077 232.825Z" fill="#263238"/>
<path opacity="0.7" d="M126.077 232.825H112.276C111.984 232.825 111.78 232.539 111.876 232.266L118.015 214.849C118.184 214.369 118.64 214.048 119.152 214.048H132.953C133.244 214.048 133.449 214.334 133.352 214.608L127.214 232.025C127.044 232.505 126.589 232.825 126.077 232.825Z" fill="white"/>
<path d="M123.782 223.437C123.639 224.104 123.175 224.645 122.744 224.645C122.314 224.645 122.08 224.104 122.224 223.437C122.367 222.77 122.831 222.229 123.261 222.229C123.692 222.229 123.925 222.77 123.782 223.437Z" fill="white"/>
<path d="M77.6665 197.493C77.6665 197.493 81.0363 213.967 83.309 216.699C85.5809 219.432 95.4826 226.78 95.4826 226.78L101.367 225.554L105.584 229.05L102.827 231.212L99.5623 229.992C99.5623 229.992 97.2135 230.456 94.1716 230.456C91.1298 230.456 78.7794 223.239 76.3316 219.187C73.8838 215.134 70.4557 199.896 70.4557 199.896L77.6665 197.493Z" fill="#FFC3BD"/>
<path d="M82.5072 187.521L84.6041 186.312L89.7374 191.951C89.7374 191.951 86.9157 190.806 86.1219 191.269C85.4058 191.687 85.9062 193.493 85.0752 193.508C83.2294 193.539 82.5072 187.521 82.5072 187.521Z" fill="#407BFF"/>
<path d="M89.7374 191.951L92.4151 186.701L94.6038 187.875C94.6038 187.875 96.6397 192.97 95.0839 193.508C94.1371 193.834 93.7747 191.451 92.835 191.106C92.0818 190.83 89.7374 191.951 89.7374 191.951Z" fill="#407BFF"/>
<g opacity="0.2">
<path d="M82.5072 187.521L84.6041 186.312L89.7374 191.951C89.7374 191.951 86.9157 190.806 86.1219 191.269C85.4058 191.687 85.9062 193.493 85.0752 193.508C83.2294 193.539 82.5072 187.521 82.5072 187.521Z" fill="white"/>
<path d="M89.7374 191.951L92.4151 186.701L94.6038 187.875C94.6038 187.875 96.6397 192.97 95.0839 193.508C94.1371 193.834 93.7747 191.451 92.835 191.106C92.0818 190.83 89.7374 191.951 89.7374 191.951Z" fill="white"/>
</g>
<path d="M70.7766 205.689C70.7766 205.689 66.8773 193.964 72.0151 189.999C77.1529 186.033 79.5627 203.517 79.5627 203.517L70.7766 205.689Z" fill="#407BFF"/>
<path opacity="0.3" d="M70.7766 205.689C70.7766 205.689 66.8773 193.964 72.0151 189.999C77.1529 186.033 79.5627 203.517 79.5627 203.517L70.7766 205.689Z" fill="white"/>
<path d="M69.7255 204.684L70.5131 206.694L80.3529 204.181L79.9595 202.171L69.7255 204.684Z" fill="#407BFF"/>
<path opacity="0.1" d="M69.7255 204.684L70.5131 206.694L80.3529 204.181L79.9595 202.171L69.7255 204.684Z" fill="white"/>
<path opacity="0.1" d="M85.2431 179.473C85.2042 179.137 85.1627 178.808 85.1194 178.496L92.6104 184.37C92.3328 185.266 92.1242 186.128 92.057 186.896C87.5318 186.935 85.8186 181.967 85.2431 179.473Z" fill="black"/>
<path d="M86.532 169.924C84.9718 175.171 84.1956 177.381 85.8469 180.916C88.3248 186.296 95.1555 187.051 98.2592 182.373C101.036 178.157 103.169 170.29 98.8276 166.418C95.7601 163.643 91.0086 163.862 88.2143 166.909C87.424 167.769 86.8476 168.803 86.532 169.924Z" fill="#FFC3BD"/>
<path d="M92.4859 175.191C92.3373 175.61 92.4337 176.026 92.7104 176.128C92.9871 176.23 93.3336 175.969 93.4821 175.55C93.6306 175.131 93.5396 174.715 93.2629 174.613C92.9862 174.513 92.6397 174.773 92.4859 175.191Z" fill="#263238"/>
<path d="M97.2443 176.906C97.0896 177.324 97.1913 177.748 97.4636 177.843C97.7358 177.939 98.0868 177.684 98.2406 177.266C98.3953 176.849 98.2928 176.431 98.0214 176.33C97.7509 176.229 97.399 176.489 97.2443 176.906Z" fill="#263238"/>
<path d="M95.6479 177.026C95.9131 178.082 96.3215 179.097 96.8625 180.044C96.3631 180.31 95.7699 180.345 95.243 180.138L95.6479 177.026Z" fill="#ED893E"/>
<path d="M92.2993 172.87C92.3806 172.95 92.5044 172.97 92.6069 172.919C93.7092 172.392 95.0945 173.139 95.1051 173.146C95.2324 173.217 95.3933 173.172 95.4649 173.045C95.5365 172.919 95.4905 172.759 95.3632 172.688C95.2916 172.676 93.7243 171.8 92.3779 172.44C92.248 172.504 92.1932 172.66 92.2551 172.79C92.2639 172.82 92.2789 172.848 92.2993 172.87Z" fill="#263238"/>
<path d="M100.04 175.998C100.117 176.051 100.217 176.062 100.304 176.026C100.435 175.966 100.494 175.814 100.438 175.683C100.121 174.896 99.4376 174.312 98.6066 174.118C98.4625 174.093 98.3246 174.189 98.2999 174.332C98.2742 174.475 98.3715 174.612 98.5156 174.637C99.1689 174.803 99.7019 175.27 99.9503 175.892C99.9715 175.935 100.002 175.971 100.04 175.998Z" fill="#263238"/>
<path d="M85.5031 172.984C85.5031 172.984 87.4841 172.939 87.2074 170.691C87.2074 170.691 90.4862 170.599 90.625 168.214C90.625 168.214 93.4883 170.737 94.504 168.765C94.504 168.765 98.0135 171.883 98.4749 169.82C98.4749 169.82 102.123 174.315 101.938 171.563C101.938 171.563 106.048 171.15 102.354 167.619C102.354 167.619 105.725 164.684 100.276 163.492C100.276 163.492 100.752 160.011 96.9155 161.543C96.9155 161.543 96.0271 157.76 92.7024 159.962C92.7024 159.962 90.9061 157.302 88.9419 160.879C88.9419 160.879 86.0432 159.231 85.1203 162.945C85.1203 162.945 79.8747 163.579 82.0378 167.001C82.0378 167.001 83.6564 178.497 85.1203 178.497C86.1148 178.496 85.5031 172.984 85.5031 172.984Z" fill="#263238"/>
<path d="M83.6962 173.524C83.728 174.582 84.1824 175.584 84.9586 176.31C85.9893 177.267 87.165 176.503 87.4064 175.199C87.6309 174.025 87.3701 172.114 86.0742 171.655C85.1274 171.339 84.1011 171.845 83.7828 172.786C83.7024 173.023 83.6732 173.274 83.6962 173.524Z" fill="#FFC3BD"/>
<path d="M93.6492 181.553C93.8357 181.607 94.0258 181.645 94.2185 181.667C94.2804 181.678 94.3387 181.636 94.3493 181.575C94.3493 181.575 94.3502 181.572 94.3502 181.57C94.3537 181.507 94.3078 181.452 94.2441 181.444C93.2576 181.34 92.3798 180.776 91.8785 179.926C91.8511 179.869 91.7813 179.845 91.7238 179.872C91.6664 179.9 91.6425 179.969 91.6699 180.026C92.0951 180.78 92.8094 181.331 93.6492 181.553Z" fill="#263238"/>
<path d="M55.7317 179.107C55.7317 179.107 36.8751 275.219 99.1167 276.978C155.887 278.582 143.195 232.512 139.502 229.303C135.81 226.094 149.656 258.87 126.81 259.329C99.2661 259.881 94.2706 233.887 85.0399 233.658C75.8091 233.429 61.8473 245.577 60.4629 223.573C59.0777 201.57 66.3468 164.208 55.7317 179.107Z" fill="#407BFF"/>
<path opacity="0.5" d="M55.7317 179.107C55.7317 179.107 36.8751 275.219 99.1167 276.978C155.887 278.582 143.195 232.512 139.502 229.303C135.81 226.094 149.656 258.87 126.81 259.329C99.2661 259.881 94.2706 233.887 85.0399 233.658C75.8091 233.429 61.8473 245.577 60.4629 223.573C59.0777 201.57 66.3468 164.208 55.7317 179.107Z" fill="white"/>
</svg>
