<svg width="30" height="30" viewBox="0 0 30 30" fill="none" xmlns="http://www.w3.org/2000/svg">
<path fill-rule="evenodd" clip-rule="evenodd" d="M12.974 15.0607V22.6002C12.974 22.7088 13.062 22.7964 13.1702 22.7964H15.9699C16.0784 22.7964 16.1665 22.7084 16.1665 22.6002V14.9377H18.1966C18.2986 14.9377 18.3838 14.8596 18.3924 14.758L18.5874 12.4494C18.5968 12.3351 18.5067 12.2363 18.3916 12.2363H16.1665V10.5986C16.1665 10.2148 16.4778 9.90347 16.8616 9.90347H18.4257C18.5343 9.90347 18.6223 9.81545 18.6223 9.70687V7.39826C18.6223 7.28968 18.5343 7.20166 18.4257 7.20166H15.7823C14.2313 7.20166 12.9736 8.45941 12.9736 10.0104V12.2363H11.5735C11.4653 12.2363 11.3773 12.3244 11.3773 12.4325V14.7411C11.3773 14.8497 11.4653 14.9377 11.5735 14.9377H12.9736L12.974 15.0607Z" fill="url(#paint0_linear_97_3806)"/>
<path d="M15 30C6.72882 30 0 23.2712 0 15C0 6.72882 6.72882 0 15 0C23.2708 0 30 6.72882 30 15C30 23.2712 23.2712 30 15 30ZM15 1.15369C7.36509 1.15369 1.15369 7.36509 1.15369 15C1.15369 22.6349 7.36509 28.8463 15 28.8463C22.6349 28.8463 28.8463 22.6349 28.8463 15C28.8463 7.36509 22.6349 1.15369 15 1.15369Z" fill="url(#paint1_linear_97_3806)"/>
<defs>
<linearGradient id="paint0_linear_97_3806" x1="15" y1="-0.643089" x2="15" y2="28.9406" gradientUnits="userSpaceOnUse">
<stop stop-color="#22FFFF"/>
<stop offset="1" stop-color="#2263FF"/>
</linearGradient>
<linearGradient id="paint1_linear_97_3806" x1="15" y1="-0.642528" x2="15" y2="28.9411" gradientUnits="userSpaceOnUse">
<stop stop-color="#22FFFF"/>
<stop offset="1" stop-color="#2263FF"/>
</linearGradient>
</defs>
</svg>
