<svg width="420" height="310" viewBox="0 0 420 310" fill="none" xmlns="http://www.w3.org/2000/svg">
<path d="M377.917 288.575H350.094V288.785H377.917V288.575Z" fill="#EBEBEB"/>
<path d="M278.225 290.855H270.923V291.065H278.225V290.855Z" fill="#EBEBEB"/>
<path d="M349.254 280.775H333.132V280.985H349.254V280.775Z" fill="#EBEBEB"/>
<path d="M80.3477 282.186H44.0656V282.396H80.3477V282.186Z" fill="#EBEBEB"/>
<path d="M93.1467 282.186H87.827V282.396H93.1467V282.186Z" fill="#EBEBEB"/>
<path d="M189.123 285.734H110.436V285.944H189.123V285.734Z" fill="#EBEBEB"/>
<path d="M199.092 237.592H36.8886C34.2451 237.592 32.0939 235.441 32.0939 232.798V4.79472C32.0939 2.15124 34.2451 0 36.8886 0H199.092C201.734 0 203.886 2.15124 203.886 4.79472V232.798C203.886 235.441 201.734 237.592 199.092 237.592ZM36.8886 0.21084C34.3602 0.21084 32.3039 2.26716 32.3039 4.79556V232.798C32.3039 235.327 34.3602 237.383 36.8886 237.383H199.092C201.619 237.383 203.676 235.327 203.676 232.798V4.79472C203.676 2.26716 201.619 0.21 199.092 0.21L36.8886 0.21084Z" fill="#EBEBEB"/>
<path d="M380.78 237.592H218.578C215.935 237.592 213.784 235.441 213.784 232.798V4.79472C213.784 2.15124 215.935 0 218.578 0H380.78C383.425 0 385.575 2.15124 385.575 4.79472V232.798C385.576 235.441 383.425 237.592 380.78 237.592ZM218.578 0.21084C216.051 0.21084 213.994 2.26716 213.994 4.79556V232.798C213.994 235.327 216.051 237.383 218.578 237.383H380.78C383.309 237.383 385.365 235.327 385.365 232.798V4.79472C385.365 2.26716 383.309 0.21 380.78 0.21L218.578 0.21084Z" fill="#EBEBEB"/>
<path d="M420 275.055H0V275.265H420V275.055Z" fill="#EBEBEB"/>
<path d="M190.185 275.055L236.156 243.942C240.859 240.759 248.484 240.759 253.186 243.942L299.157 275.055H190.185Z" fill="#F5F5F5"/>
<path d="M253.186 243.942C250.25 241.955 246.175 241.21 242.384 241.703C240.668 246.12 239.565 252.564 245.852 255.574C255.923 260.394 243.45 265.35 243.45 270.202C243.45 271.771 244.271 273.471 245.375 275.055H299.156L253.186 243.942Z" fill="#EBEBEB"/>
<path d="M25.8627 275.055L71.8334 226.344C76.5366 221.361 84.1613 221.361 88.8636 226.344L134.834 275.055H25.8627Z" fill="#F5F5F5"/>
<path d="M88.8627 226.344C85.9269 223.234 81.8521 222.066 78.0603 222.839C76.3442 229.754 75.2413 239.843 81.5287 244.554C91.5994 252.102 79.1271 259.861 79.1271 267.458C79.1271 269.914 79.9478 272.574 81.0516 275.055H134.833L88.8627 226.344Z" fill="#EBEBEB"/>
<path d="M108.927 274.969L133.064 249.392C135.534 246.775 139.537 246.775 142.007 249.392L166.145 274.969H108.927Z" fill="#F0F0F0"/>
<path d="M142.007 249.392C140.466 247.758 138.326 247.146 136.335 247.552C135.434 251.183 134.855 256.48 138.156 258.954C143.444 262.917 136.896 266.991 136.896 270.98C136.896 272.269 137.327 273.666 137.906 274.969H166.145L142.007 249.392Z" fill="#E0E0E0"/>
<path d="M335.397 274.969L359.535 249.392C362.005 246.775 366.008 246.775 368.478 249.392L392.616 274.969H335.397Z" fill="#F0F0F0"/>
<path d="M368.477 249.392C366.935 247.758 364.796 247.146 362.805 247.552C361.904 251.183 361.325 256.48 364.626 258.954C369.914 262.917 363.365 266.991 363.365 270.98C363.365 272.269 363.796 273.666 364.376 274.969H392.615L368.477 249.392Z" fill="#E0E0E0"/>
<path d="M155.221 274.969L179.359 221.523C181.829 216.056 185.832 216.056 188.302 221.523L212.44 274.969H155.221Z" fill="#FAFAFA"/>
<path d="M188.301 221.523C186.76 218.11 184.62 216.828 182.629 217.678C181.728 225.265 181.149 236.334 184.451 241.505C189.738 249.787 183.189 258.299 183.189 266.635C183.189 269.329 183.62 272.249 184.199 274.97H212.438L188.301 221.523Z" fill="#F0F0F0"/>
<path d="M295.12 274.969L319.258 221.523C321.728 216.056 325.731 216.056 328.201 221.523L352.339 274.969H295.12Z" fill="#FAFAFA"/>
<path d="M328.2 221.523C326.658 218.11 324.519 216.828 322.528 217.678C321.627 225.265 321.048 236.334 324.349 241.505C329.637 249.787 323.088 258.299 323.088 266.635C323.088 269.329 323.519 272.249 324.099 274.97H352.338L328.2 221.523Z" fill="#E0E0E0"/>
<path d="M26.8312 274.969L45.7564 233.066C47.6926 228.779 50.8317 228.779 52.7679 233.066L71.6931 274.969H26.8312Z" fill="#FAFAFA"/>
<path d="M52.7671 233.066C51.5583 230.389 49.8808 229.385 48.3201 230.05C47.6137 235.999 47.1592 244.678 49.7481 248.731C53.8935 255.224 48.7594 261.898 48.7594 268.433C48.7594 270.546 49.0971 272.835 49.5515 274.968H71.6923L52.7671 233.066Z" fill="#F0F0F0"/>
<path d="M212.836 163.986C208.377 165.742 212.069 150.291 199.092 150.625C186.115 150.96 184.95 161.648 184.95 161.648C184.95 161.648 175.757 153.966 168.744 158.976C161.732 163.986 165.914 165.99 160.149 165.99C154.384 165.99 147.397 165.962 146.382 169.316C145.366 172.67 231.874 173.645 231.874 169.316C231.874 164.988 227.532 165.99 224.86 165.99C222.188 165.99 223.857 159.644 212.836 163.986Z" fill="#F5F5F5"/>
<path d="M137.363 31.9604C144.839 34.9054 138.65 9.00064 160.406 9.56008C182.163 10.1204 184.115 28.0401 184.115 28.0401C184.115 28.0401 199.53 15.1604 211.287 23.5604C223.043 31.9604 216.031 35.3204 225.697 35.3204C235.364 35.3204 247.077 35.2742 248.78 40.8971C250.484 46.5201 105.443 48.1539 105.443 40.8971C105.443 33.6404 112.724 35.3204 117.203 35.3204C121.683 35.3204 118.883 24.6801 137.363 31.9604Z" fill="#F0F0F0"/>
<path d="M67.0009 124.659C71.4596 126.416 67.7678 110.965 80.745 111.299C93.7221 111.633 94.8855 122.322 94.8855 122.322C94.8855 122.322 104.079 114.639 111.092 119.65C118.104 124.659 113.921 126.664 119.687 126.664C125.452 126.664 132.439 126.636 133.454 129.99C134.47 133.344 47.9623 134.319 47.9623 129.99C47.9623 125.661 52.3042 126.664 54.9763 126.664C57.6492 126.664 55.9792 120.317 67.0009 124.659Z" fill="#F0F0F0"/>
<path d="M360.794 105.867C356.336 107.623 360.027 92.1724 347.05 92.5067C334.074 92.841 332.909 103.529 332.909 103.529C332.909 103.529 323.715 95.8474 316.703 100.857C309.69 105.867 313.873 107.871 308.108 107.871C302.342 107.871 295.356 107.843 294.34 111.198C293.325 114.552 379.832 115.526 379.832 111.198C379.832 106.869 375.49 107.871 372.818 107.871C370.146 107.871 371.816 101.524 360.794 105.867Z" fill="#F5F5F5"/>
<path d="M283.875 266.689C277.297 256.287 270.721 245.886 264.144 235.484C263.704 234.788 264.029 233.544 264.652 233.544C270.65 233.544 276.65 233.544 282.648 233.544C276.48 223.789 270.312 214.034 264.144 204.279C263.704 203.583 264.029 202.339 264.652 202.339C270.65 202.339 276.65 202.339 282.648 202.339C276.48 192.583 270.312 182.829 264.144 173.074C263.704 172.378 264.029 171.134 264.652 171.134C270.65 171.134 276.65 171.134 282.648 171.134C276.48 161.379 270.312 151.623 264.144 141.868C263.704 141.173 264.029 139.929 264.652 139.929C270.65 139.929 276.65 139.929 282.648 139.929C276.48 130.174 270.312 120.418 264.144 110.663C263.704 109.968 264.029 108.724 264.652 108.724C270.65 108.724 276.65 108.724 282.648 108.724C276.48 98.9688 270.312 89.2131 264.144 79.4582C263.704 78.7626 264.029 77.5186 264.652 77.5186C270.65 77.5186 276.65 77.5186 282.648 77.5186C276.48 67.7637 270.312 58.0079 264.144 48.253C263.489 47.2181 264.505 45.6112 265.159 46.6461C271.736 57.0478 278.313 67.4495 284.889 77.8513C284.893 77.8571 284.895 77.863 284.899 77.8689C284.901 77.8731 284.904 77.8781 284.906 77.8832C285.135 78.2679 285.142 78.724 285.026 79.0944C284.94 79.4691 284.736 79.7648 284.416 79.7849C284.408 79.7858 284.4 79.7875 284.393 79.7883C284.39 79.7883 284.386 79.79 284.382 79.79C278.384 79.79 272.384 79.79 266.386 79.79C272.554 89.5457 278.722 99.3007 284.89 109.056C284.894 109.062 284.896 109.068 284.899 109.074C284.902 109.078 284.904 109.083 284.907 109.088C285.135 109.473 285.143 109.929 285.027 110.3C284.941 110.674 284.736 110.97 284.416 110.99C284.409 110.991 284.401 110.993 284.394 110.993C284.39 110.993 284.387 110.995 284.383 110.995C278.384 110.995 272.385 110.995 266.387 110.995C272.555 120.75 278.723 130.506 284.891 140.262C284.894 140.267 284.897 140.273 284.9 140.279C284.903 140.283 284.905 140.288 284.908 140.293C285.136 140.678 285.144 141.134 285.028 141.505C284.941 141.879 284.737 142.175 284.417 142.195C284.41 142.196 284.402 142.198 284.395 142.199C284.391 142.199 284.388 142.2 284.384 142.2C278.385 142.2 272.386 142.2 266.387 142.2C272.556 151.955 278.724 161.711 284.892 171.467C284.895 171.473 284.898 171.478 284.901 171.484C284.904 171.489 284.906 171.494 284.909 171.499C285.137 171.883 285.145 172.339 285.029 172.71C284.942 173.085 284.738 173.38 284.418 173.401C284.411 173.402 284.403 173.404 284.395 173.405C284.392 173.405 284.389 173.406 284.384 173.406C278.386 173.406 272.387 173.406 266.388 173.406C272.556 183.162 278.725 192.917 284.893 202.673C284.896 202.679 284.899 202.684 284.902 202.69C284.904 202.695 284.907 202.7 284.909 202.705C285.138 203.089 285.146 203.545 285.03 203.916C284.943 204.291 284.739 204.587 284.418 204.607C284.411 204.608 284.404 204.61 284.396 204.611C284.392 204.611 284.39 204.612 284.385 204.612C278.387 204.612 272.388 204.612 266.389 204.612C272.557 214.367 278.725 224.123 284.894 233.879C284.897 233.885 284.899 233.89 284.903 233.896C284.905 233.901 284.908 233.906 284.91 233.911C285.139 234.295 285.146 234.751 285.03 235.122C284.943 235.497 284.739 235.792 284.419 235.812C284.411 235.813 284.404 235.815 284.396 235.816C284.393 235.816 284.39 235.817 284.385 235.817C278.387 235.817 272.388 235.817 266.389 235.817C272.557 245.572 278.725 255.328 284.894 265.083C285.545 266.118 284.529 267.725 283.875 266.689Z" fill="#E0E0E0"/>
<path d="M284.382 267.59C284.701 267.59 284.943 267.405 285.115 267.128C285.123 267.118 285.13 267.106 285.136 267.096C285.147 267.076 285.16 267.059 285.171 267.039C285.344 266.767 285.459 266.386 285.459 265.886C285.459 256.909 285.459 247.933 285.459 238.956C285.459 199.738 285.459 160.519 285.459 121.301C285.459 96.6842 285.459 72.0671 285.459 47.4501C285.459 46.5269 284.964 45.7457 284.381 45.7457C277.805 45.7457 271.228 45.7457 264.65 45.7457C264.067 45.7457 263.573 46.5286 263.573 47.4501C263.573 56.4272 263.573 65.4034 263.573 74.3805C263.573 113.599 263.573 152.817 263.573 192.035C263.573 216.652 263.573 241.269 263.573 265.886C263.573 266.809 264.067 267.591 264.65 267.591C271.228 267.59 277.806 267.59 284.382 267.59ZM283.305 264.182C277.447 264.182 271.588 264.182 265.73 264.182C265.73 255.773 265.73 247.364 265.73 238.956C265.73 199.738 265.73 160.519 265.73 121.301C265.73 97.252 265.73 73.2028 265.73 49.1536C271.588 49.1536 277.447 49.1536 283.305 49.1536C283.305 57.5628 283.305 65.9712 283.305 74.3796C283.305 113.598 283.305 152.816 283.305 192.034C283.305 216.083 283.305 240.133 283.305 264.182Z" fill="#E0E0E0"/>
<path d="M265.159 266.689C271.736 256.287 278.313 245.886 284.889 235.484C285.329 234.788 285.004 233.544 284.381 233.544C278.383 233.544 272.383 233.544 266.385 233.544C272.553 223.789 278.721 214.034 284.889 204.279C285.329 203.583 285.004 202.339 284.381 202.339C278.383 202.339 272.383 202.339 266.385 202.339C272.553 192.583 278.721 182.829 284.889 173.074C285.329 172.378 285.004 171.134 284.381 171.134C278.383 171.134 272.383 171.134 266.385 171.134C272.553 161.379 278.721 151.623 284.889 141.868C285.329 141.173 285.004 139.929 284.381 139.929C278.383 139.929 272.383 139.929 266.385 139.929C272.553 130.174 278.721 120.418 284.889 110.663C285.329 109.968 285.004 108.724 284.381 108.724C278.383 108.724 272.383 108.724 266.385 108.724C272.553 98.9688 278.721 89.2131 284.889 79.4582C285.329 78.7626 285.004 77.5186 284.381 77.5186C278.383 77.5186 272.383 77.5186 266.385 77.5186C272.553 67.7637 278.721 58.0079 284.889 48.253C285.544 47.2181 284.528 45.6112 283.874 46.6461C277.297 57.0478 270.72 67.4495 264.143 77.8513C264.14 77.8571 264.137 77.863 264.134 77.8689C264.131 77.8731 264.129 77.8781 264.126 77.8832C263.898 78.2679 263.89 78.724 264.006 79.0944C264.093 79.4691 264.297 79.7648 264.617 79.7849C264.624 79.7858 264.632 79.7875 264.639 79.7883C264.643 79.7883 264.646 79.79 264.65 79.79C270.649 79.79 276.648 79.79 282.647 79.79C276.478 89.5457 270.31 99.3007 264.142 109.056C264.139 109.062 264.136 109.068 264.133 109.074C264.13 109.078 264.128 109.083 264.125 109.088C263.897 109.473 263.889 109.929 264.005 110.3C264.092 110.674 264.296 110.97 264.616 110.99C264.624 110.991 264.631 110.993 264.639 110.993C264.642 110.993 264.645 110.995 264.65 110.995C270.648 110.995 276.647 110.995 282.646 110.995C276.478 120.75 270.309 130.506 264.141 140.262C264.138 140.267 264.135 140.273 264.132 140.279C264.13 140.283 264.127 140.288 264.125 140.293C263.896 140.678 263.888 141.134 264.004 141.505C264.091 141.879 264.295 142.175 264.615 142.195C264.623 142.196 264.63 142.198 264.638 142.199C264.641 142.199 264.645 142.2 264.649 142.2C270.647 142.2 276.646 142.2 282.645 142.2C276.477 151.955 270.309 161.711 264.141 171.467C264.137 171.473 264.135 171.478 264.131 171.484C264.129 171.489 264.126 171.494 264.124 171.499C263.895 171.883 263.888 172.339 264.004 172.71C264.09 173.085 264.294 173.38 264.614 173.401C264.622 173.402 264.629 173.404 264.637 173.405C264.64 173.405 264.644 173.406 264.648 173.406C270.646 173.406 276.646 173.406 282.644 173.406C276.476 183.162 270.308 192.917 264.14 202.673C264.136 202.679 264.134 202.684 264.13 202.69C264.128 202.695 264.125 202.7 264.123 202.705C263.894 203.089 263.887 203.545 264.003 203.916C264.089 204.291 264.293 204.587 264.614 204.607C264.622 204.608 264.629 204.61 264.636 204.611C264.64 204.611 264.643 204.612 264.647 204.612C270.645 204.612 276.645 204.612 282.643 204.612C276.475 214.367 270.307 224.123 264.139 233.879C264.135 233.885 264.133 233.89 264.13 233.896C264.127 233.901 264.125 233.906 264.122 233.911C263.894 234.295 263.886 234.751 264.003 235.122C264.089 235.497 264.293 235.792 264.613 235.812C264.621 235.813 264.629 235.815 264.636 235.816C264.639 235.816 264.643 235.817 264.647 235.817C270.645 235.817 276.645 235.817 282.643 235.817C276.475 245.572 270.307 255.328 264.139 265.083C263.489 266.118 264.505 267.725 265.159 266.689Z" fill="#F0F0F0"/>
<path d="M284.382 267.59C284.964 267.59 285.46 266.808 285.46 265.885C285.46 241.268 285.46 216.651 285.46 192.034C285.46 152.815 285.46 113.597 285.46 74.3795C285.46 65.4024 285.46 56.4262 285.46 47.4491C285.46 46.5276 284.966 45.7448 284.382 45.7448C277.806 45.7448 271.229 45.7448 264.651 45.7448C264.069 45.7448 263.574 46.526 263.574 47.4491C263.574 72.0661 263.574 96.6832 263.574 121.3C263.574 160.518 263.574 199.737 263.574 238.955C263.574 247.932 263.574 256.908 263.574 265.885C263.574 266.385 263.689 266.766 263.862 267.038C263.873 267.058 263.884 267.075 263.896 267.095C263.904 267.105 263.911 267.117 263.917 267.127C264.089 267.404 264.331 267.589 264.651 267.589C271.229 267.59 277.806 267.59 284.382 267.59ZM265.729 192.035C265.729 152.816 265.729 113.598 265.729 74.3803C265.729 65.9719 265.729 57.5627 265.729 49.1543C271.587 49.1543 277.446 49.1543 283.304 49.1543C283.304 73.2035 283.304 97.2527 283.304 121.302C283.304 160.52 283.304 199.739 283.304 238.957C283.304 247.365 283.304 255.774 283.304 264.183C277.446 264.183 271.587 264.183 265.729 264.183C265.729 240.132 265.729 216.083 265.729 192.035Z" fill="#F0F0F0"/>
<path d="M291.006 268.462H176.792V275.055H291.006V268.462Z" fill="#E0E0E0"/>
<path d="M291.006 265.343H172V269.236H291.006V265.343Z" fill="#E6E6E6"/>
<path d="M210 309.76C299.949 309.76 372.867 305.502 372.867 300.249C372.867 294.996 299.949 290.737 210 290.737C120.051 290.737 47.1332 294.996 47.1332 300.249C47.1332 305.502 120.051 309.76 210 309.76Z" fill="#F5F5F5"/>
<path d="M217.136 239.818L221.857 261.484L217.136 250.651L218.938 276.917L213.251 252.877V290.273L208.858 256.439L204.492 286.711L204.417 252.283L200.409 275.136V251.096L193.14 266.529L200.409 239.818H217.136Z" fill="#407BFF"/>
<path opacity="0.5" d="M203.776 239.818L200.409 259.017V251.096V239.818H203.776Z" fill="white"/>
<path opacity="0.8" d="M204.492 270.593L204.424 239.818H213.251V252.877V274.153L208.857 240.319L204.492 270.593Z" fill="white"/>
<path opacity="0.3" d="M213.975 239.818H217.136L217.665 242.248L218.449 253.664L217.136 250.651L217.379 254.209L213.975 239.818Z" fill="white"/>
<path d="M234.736 235.754L232.196 247.405L234.736 241.579L233.766 255.705L236.825 242.776V262.887L239.187 244.691L241.535 260.971L241.576 242.457L243.731 254.747V241.818L247.64 250.119L243.731 235.754H234.736Z" fill="#407BFF"/>
<path opacity="0.5" d="M241.921 235.754L243.731 246.078V241.818V235.754H241.921Z" fill="white"/>
<path opacity="0.2" d="M241.535 252.303L241.571 235.754H236.825V242.776V254.219L239.187 236.023L241.535 252.303Z" fill="white"/>
<path opacity="0.3" d="M236.436 235.754H234.736L234.452 237.061L234.03 243.199L234.736 241.579L234.604 243.493L236.436 235.754Z" fill="white"/>
<path d="M172.444 235.754L169.904 247.405L172.444 241.579L171.474 255.705L174.533 242.776V262.887L176.896 244.691L179.243 260.971L179.284 242.457L181.439 254.747V241.818L185.348 250.119L181.439 235.754H172.444Z" fill="#407BFF"/>
<path opacity="0.5" d="M179.628 235.754L181.439 246.078V241.818V235.754H179.628Z" fill="white"/>
<path opacity="0.2" d="M179.243 252.303L179.279 235.754H174.533V242.776V254.219L176.896 236.023L179.243 252.303Z" fill="white"/>
<path opacity="0.3" d="M174.144 235.754H172.444L172.159 237.061L171.737 243.199L172.444 241.579L172.313 243.493L174.144 235.754Z" fill="white"/>
<path d="M262.101 218.828L209.723 125.741C208.916 124.307 206.849 124.307 206.042 125.741L153.664 218.827C152.872 220.235 153.889 221.974 155.504 221.974H260.261C261.876 221.975 262.893 220.235 262.101 218.828Z" fill="#407BFF"/>
<path opacity="0.3" d="M262.101 218.828L209.723 125.741C208.916 124.307 206.849 124.307 206.042 125.741L153.664 218.827C152.872 220.235 153.889 221.974 155.504 221.974H260.261C261.876 221.975 262.893 220.235 262.101 218.828Z" fill="black"/>
<path d="M232.789 235.884L235.334 225.443H244.503L247.047 235.884C242.642 237.708 237.542 237.852 232.789 235.884Z" fill="#263238"/>
<path opacity="0.2" d="M244.503 225.442C244.503 225.442 244.885 227.009 245.099 227.886C241.797 228.845 238.215 228.9 234.737 227.889L235.334 225.442H244.503Z" fill="white"/>
<path opacity="0.4" d="M245.738 230.51C245.899 231.172 246.061 231.84 246.216 232.472C242.221 233.708 237.844 233.78 233.621 232.47L234.099 230.509C238.012 231.282 241.957 231.255 245.738 230.51Z" fill="white"/>
<path d="M230.236 224.704C236.691 227.378 243.618 227.182 249.601 224.704V147.156C249.601 138.027 245.901 129.762 239.918 123.78C233.936 129.762 230.236 138.027 230.236 147.156V224.704Z" fill="#407BFF"/>
<path d="M249.601 147.156C249.601 147.156 249.601 212.358 249.601 220.259C243.51 222.364 236.719 222.505 230.236 220.261C230.236 212.363 230.236 147.156 230.236 147.156C230.236 138.027 233.936 129.762 239.918 123.78C245.901 129.762 249.601 138.027 249.601 147.156Z" fill="#407BFF"/>
<path opacity="0.4" d="M249.601 147.156C249.601 147.156 249.601 212.358 249.601 220.259C243.51 222.364 236.719 222.505 230.236 220.261C230.236 212.363 230.236 147.156 230.236 147.156C230.236 138.027 233.936 129.762 239.918 123.78C245.901 129.762 249.601 138.027 249.601 147.156Z" fill="white"/>
<path d="M249.601 147.156C249.601 147.156 249.601 180.167 249.601 202.057C243.424 203.819 236.736 203.918 230.236 202.06C230.236 180.169 230.236 147.156 230.236 147.156C230.236 138.027 233.936 129.762 239.918 123.78C245.901 129.762 249.601 138.027 249.601 147.156Z" fill="#407BFF"/>
<path opacity="0.6" d="M249.601 147.156C249.601 147.156 249.601 180.167 249.601 202.057C243.424 203.819 236.736 203.918 230.236 202.06C230.236 180.169 230.236 147.156 230.236 147.156C230.236 138.027 233.936 129.762 239.918 123.78C245.901 129.762 249.601 138.027 249.601 147.156Z" fill="white"/>
<path d="M249.601 147.156C249.601 147.156 249.601 160.535 249.601 175.905C243.424 177.668 236.736 177.766 230.236 175.909C230.236 160.537 230.236 147.156 230.236 147.156C230.236 138.027 233.936 129.762 239.918 123.78C245.901 129.762 249.601 138.027 249.601 147.156Z" fill="#407BFF"/>
<path opacity="0.8" d="M249.601 147.156C249.601 147.156 249.601 160.535 249.601 175.905C243.424 177.668 236.736 177.766 230.236 175.909C230.236 160.537 230.236 147.156 230.236 147.156C230.236 138.027 233.936 129.762 239.918 123.78C245.901 129.762 249.601 138.027 249.601 147.156Z" fill="white"/>
<path d="M249.601 147.156C249.601 147.156 249.601 148.383 249.601 150.51C243.424 152.272 236.736 152.37 230.236 150.513C230.236 148.384 230.236 147.156 230.236 147.156C230.236 138.027 233.936 129.762 239.918 123.78C245.901 129.762 249.601 138.027 249.601 147.156Z" fill="#407BFF"/>
<path opacity="0.4" d="M249.601 147.156C249.601 147.156 249.601 148.383 249.601 150.51C243.424 152.272 236.736 152.37 230.236 150.513C230.236 148.384 230.236 147.156 230.236 147.156C230.236 138.027 233.936 129.762 239.918 123.78C245.901 129.762 249.601 138.027 249.601 147.156Z" fill="white"/>
<path d="M170.497 235.884L173.042 225.443H182.211L184.756 235.884C180.351 237.708 175.25 237.852 170.497 235.884Z" fill="#263238"/>
<path opacity="0.2" d="M182.211 225.442C182.211 225.442 182.593 227.009 182.807 227.886C179.506 228.845 175.923 228.9 172.445 227.889L173.042 225.442H182.211Z" fill="white"/>
<path opacity="0.4" d="M183.446 230.51C183.607 231.172 183.769 231.84 183.924 232.472C179.929 233.708 175.552 233.78 171.329 232.47L171.807 230.509C175.72 231.282 179.665 231.255 183.446 230.51Z" fill="white"/>
<path d="M167.944 224.704C174.399 227.378 181.327 227.182 187.309 224.704V147.156C187.309 138.027 183.609 129.762 177.626 123.78C171.644 129.762 167.944 138.027 167.944 147.156V224.704Z" fill="#407BFF"/>
<path d="M187.309 147.156C187.309 147.156 187.309 212.358 187.309 220.259C181.218 222.364 174.427 222.505 167.944 220.261C167.944 212.363 167.944 147.156 167.944 147.156C167.944 138.027 171.644 129.762 177.626 123.78C183.609 129.762 187.309 138.027 187.309 147.156Z" fill="#407BFF"/>
<path opacity="0.4" d="M187.309 147.156C187.309 147.156 187.309 212.358 187.309 220.259C181.218 222.364 174.427 222.505 167.944 220.261C167.944 212.363 167.944 147.156 167.944 147.156C167.944 138.027 171.644 129.762 177.626 123.78C183.609 129.762 187.309 138.027 187.309 147.156Z" fill="white"/>
<path d="M187.309 147.156C187.309 147.156 187.309 180.167 187.309 202.057C181.131 203.819 174.444 203.918 167.944 202.06C167.944 180.169 167.944 147.156 167.944 147.156C167.944 138.027 171.644 129.762 177.626 123.78C183.609 129.762 187.309 138.027 187.309 147.156Z" fill="#407BFF"/>
<path opacity="0.6" d="M187.309 147.156C187.309 147.156 187.309 180.167 187.309 202.057C181.131 203.819 174.444 203.918 167.944 202.06C167.944 180.169 167.944 147.156 167.944 147.156C167.944 138.027 171.644 129.762 177.626 123.78C183.609 129.762 187.309 138.027 187.309 147.156Z" fill="white"/>
<path d="M187.309 147.156C187.309 147.156 187.309 160.535 187.309 175.905C181.131 177.668 174.444 177.766 167.944 175.909C167.944 160.537 167.944 147.156 167.944 147.156C167.944 138.027 171.644 129.762 177.626 123.78C183.609 129.762 187.309 138.027 187.309 147.156Z" fill="#407BFF"/>
<path opacity="0.8" d="M187.309 147.156C187.309 147.156 187.309 160.535 187.309 175.905C181.131 177.668 174.444 177.766 167.944 175.909C167.944 160.537 167.944 147.156 167.944 147.156C167.944 138.027 171.644 129.762 177.626 123.78C183.609 129.762 187.309 138.027 187.309 147.156Z" fill="white"/>
<path d="M187.309 147.156C187.309 147.156 187.309 148.383 187.309 150.51C181.131 152.272 174.444 152.37 167.944 150.513C167.944 148.384 167.944 147.156 167.944 147.156C167.944 138.027 171.644 129.762 177.626 123.78C183.609 129.762 187.309 138.027 187.309 147.156Z" fill="#407BFF"/>
<path opacity="0.4" d="M187.309 147.156C187.309 147.156 187.309 148.383 187.309 150.51C181.131 152.272 174.444 152.37 167.944 150.513C167.944 148.384 167.944 147.156 167.944 147.156C167.944 138.027 171.644 129.762 177.626 123.78C183.609 129.762 187.309 138.027 187.309 147.156Z" fill="white"/>
<path d="M197.263 241.881L201.371 225.024H216.173L220.281 241.881C213.17 244.826 204.936 245.058 197.263 241.881Z" fill="#263238"/>
<path opacity="0.2" d="M216.174 225.024C216.174 225.024 216.791 227.555 217.136 228.971C211.806 230.518 206.023 230.607 200.409 228.974L201.371 225.024H216.174Z" fill="white"/>
<path opacity="0.4" d="M218.167 233.206C218.428 234.274 218.69 235.352 218.939 236.373C212.49 238.369 205.425 238.485 198.606 236.369L199.378 233.203C205.696 234.452 212.064 234.409 218.167 233.206Z" fill="white"/>
<path d="M193.14 223.832C203.561 228.149 214.745 227.833 224.403 223.832V98.6405C224.403 83.9027 218.43 70.5602 208.772 60.9027C199.114 70.561 193.14 83.9036 193.14 98.6405V223.832Z" fill="#407BFF"/>
<path d="M224.403 98.6405C224.403 98.6405 224.403 203.901 224.403 216.656C214.571 220.055 203.607 220.283 193.14 216.659C193.14 203.909 193.14 98.6405 193.14 98.6405C193.14 83.9027 199.114 70.5602 208.772 60.9027C218.43 70.5602 224.403 83.9027 224.403 98.6405Z" fill="#407BFF"/>
<path opacity="0.4" d="M224.403 98.6405C224.403 98.6405 224.403 203.901 224.403 216.656C214.571 220.055 203.607 220.283 193.14 216.659C193.14 203.909 193.14 98.6405 193.14 98.6405C193.14 83.9027 199.114 70.5602 208.772 60.9027C218.43 70.5602 224.403 83.9027 224.403 98.6405Z" fill="white"/>
<path d="M224.403 98.6404C224.403 98.6404 224.403 151.932 224.403 187.271C214.43 190.116 203.634 190.275 193.14 187.276C193.14 151.936 193.14 98.6396 193.14 98.6396C193.14 83.9018 199.114 70.5592 208.772 60.9017C218.43 70.5601 224.403 83.9026 224.403 98.6404Z" fill="#407BFF"/>
<path opacity="0.6" d="M224.403 98.6404C224.403 98.6404 224.403 151.932 224.403 187.271C214.43 190.116 203.634 190.275 193.14 187.276C193.14 151.936 193.14 98.6396 193.14 98.6396C193.14 83.9018 199.114 70.5592 208.772 60.9017C218.43 70.5601 224.403 83.9026 224.403 98.6404Z" fill="white"/>
<path d="M224.403 98.6405C224.403 98.6405 224.403 120.239 224.403 145.053C214.43 147.898 203.634 148.057 193.14 145.058C193.14 120.242 193.14 98.6405 193.14 98.6405C193.14 83.9027 199.114 70.5602 208.772 60.9027C218.43 70.5602 224.403 83.9027 224.403 98.6405Z" fill="#407BFF"/>
<path opacity="0.8" d="M224.403 98.6405C224.403 98.6405 224.403 120.239 224.403 145.053C214.43 147.898 203.634 148.057 193.14 145.058C193.14 120.242 193.14 98.6405 193.14 98.6405C193.14 83.9027 199.114 70.5602 208.772 60.9027C218.43 70.5602 224.403 83.9027 224.403 98.6405Z" fill="white"/>
<path d="M224.403 98.6405C224.403 98.6405 224.403 100.621 224.403 104.054C214.43 106.899 203.634 107.058 193.14 104.06C193.14 100.623 193.14 98.6405 193.14 98.6405C193.14 83.9027 199.114 70.5602 208.772 60.9027C218.43 70.5602 224.403 83.9027 224.403 98.6405Z" fill="#407BFF"/>
<path opacity="0.1" d="M224.403 98.6405C224.403 98.6405 224.403 100.621 224.403 104.054C214.43 106.899 203.634 107.058 193.14 104.06C193.14 100.623 193.14 98.6405 193.14 98.6405C193.14 83.9027 199.114 70.5602 208.772 60.9027C218.43 70.5602 224.403 83.9027 224.403 98.6405Z" fill="white"/>
<path d="M210.236 132.671C215.199 131.865 218.57 127.189 217.764 122.225C216.959 117.261 212.282 113.891 207.319 114.696C202.356 115.502 198.986 120.178 199.791 125.142C200.597 130.105 205.273 133.476 210.236 132.671Z" fill="#407BFF"/>
<path d="M208.772 132.789C213.568 132.789 217.489 129.078 217.841 124.371C217.858 124.599 217.876 124.827 217.876 125.058C217.876 130.087 213.799 134.163 208.771 134.163C203.743 134.163 199.667 130.087 199.667 125.058C199.667 124.827 199.685 124.599 199.702 124.371C200.055 129.078 203.976 132.789 208.772 132.789Z" fill="#407BFF"/>
<path opacity="0.3" d="M208.772 132.789C213.568 132.789 217.489 129.078 217.841 124.371C217.858 124.599 217.876 124.827 217.876 125.058C217.876 130.087 213.799 134.163 208.771 134.163C203.743 134.163 199.667 130.087 199.667 125.058C199.667 124.827 199.685 124.599 199.702 124.371C200.055 129.078 203.976 132.789 208.772 132.789Z" fill="black"/>
<path d="M214.727 126.148C216.088 122.863 214.528 119.097 211.243 117.736C207.958 116.375 204.192 117.935 202.831 121.22C201.471 124.505 203.031 128.271 206.316 129.632C209.6 130.992 213.366 129.432 214.727 126.148Z" fill="white"/>
<path d="M209.11 130.088L206.474 117.688C207.141 117.432 207.859 117.282 208.612 117.263L211.241 129.628C210.58 129.903 209.86 130.049 209.11 130.088Z" fill="#407BFF"/>
<path d="M206.709 129.754L204.417 118.971C204.712 118.697 205.031 118.452 205.375 118.238L207.882 130.034C207.477 129.977 207.086 129.882 206.709 129.754Z" fill="#407BFF"/>
<g opacity="0.7">
<path d="M209.11 130.088L206.474 117.688C207.141 117.432 207.859 117.282 208.612 117.263L211.241 129.628C210.58 129.903 209.86 130.049 209.11 130.088Z" fill="white"/>
<path d="M206.709 129.754L204.417 118.971C204.712 118.697 205.031 118.452 205.375 118.238L207.882 130.034C207.477 129.977 207.086 129.882 206.709 129.754Z" fill="white"/>
</g>
<path d="M197.834 279.249C197.834 279.249 202.883 262.692 193.827 263.64C193.827 263.64 192.567 247.55 182.561 259.489C182.561 259.489 175.951 248.907 173.472 258.18C173.472 258.18 154.706 246.282 155.501 256.817C155.501 256.817 142.141 250.142 140.711 255.536C139.28 260.929 156.82 266.55 156.82 266.55C156.82 266.55 141.884 261.559 141.411 263.511C140.939 265.464 197.005 282.715 197.834 279.249Z" fill="#407BFF"/>
<path opacity="0.8" d="M197.834 279.249C197.834 279.249 202.883 262.692 193.827 263.64C193.827 263.64 192.567 247.55 182.561 259.489C182.561 259.489 175.951 248.907 173.472 258.18C173.472 258.18 154.706 246.282 155.501 256.817C155.501 256.817 142.141 250.142 140.711 255.536C139.28 260.929 156.82 266.55 156.82 266.55C156.82 266.55 141.884 261.559 141.411 263.511C140.939 265.464 197.005 282.715 197.834 279.249Z" fill="white"/>
<path d="M217.881 279.672C217.881 279.672 212.014 260.432 222.537 261.533C222.537 261.533 224.002 242.835 235.629 256.71C235.629 256.71 243.311 244.413 246.192 255.189C246.192 255.189 267.999 241.362 267.075 253.605C267.075 253.605 282.6 245.848 284.263 252.116C285.925 258.384 265.542 264.915 265.542 264.915C265.542 264.915 282.899 259.116 283.449 261.384C283.998 263.652 218.843 283.7 217.881 279.672Z" fill="#407BFF"/>
<path opacity="0.8" d="M217.881 279.672C217.881 279.672 212.014 260.432 222.537 261.533C222.537 261.533 224.002 242.835 235.629 256.71C235.629 256.71 243.311 244.413 246.192 255.189C246.192 255.189 267.999 241.362 267.075 253.605C267.075 253.605 282.6 245.848 284.263 252.116C285.925 258.384 265.542 264.915 265.542 264.915C265.542 264.915 282.899 259.116 283.449 261.384C283.998 263.652 218.843 283.7 217.881 279.672Z" fill="white"/>
<path d="M201.991 294.543C201.991 294.543 197.302 254.452 219.279 267.276C219.279 267.276 223.873 249.96 235.495 260.008C235.495 260.008 253.814 252.789 246.907 273.824C246.907 273.824 264.489 261.264 263.861 280.729C263.861 280.729 285.21 270.682 283.117 284.705C283.117 284.705 296.512 282.612 295.885 288.682C295.257 294.752 260.301 292.659 260.301 292.659C260.301 292.659 275.164 294.129 274.745 296.114C274.526 297.152 254.79 295.821 235.932 295.037C218.695 294.323 202.19 298.142 201.991 294.543Z" fill="#407BFF"/>
<path opacity="0.7" d="M201.991 294.543C201.991 294.543 197.302 254.452 219.279 267.276C219.279 267.276 223.873 249.96 235.495 260.008C235.495 260.008 253.814 252.789 246.907 273.824C246.907 273.824 264.489 261.264 263.861 280.729C263.861 280.729 285.21 270.682 283.117 284.705C283.117 284.705 296.512 282.612 295.885 288.682C295.257 294.752 260.301 292.659 260.301 292.659C260.301 292.659 275.164 294.129 274.745 296.114C274.526 297.152 254.79 295.821 235.932 295.037C218.695 294.323 202.19 298.142 201.991 294.543Z" fill="white"/>
<path d="M214.637 293.209C214.637 293.209 216.018 269.686 204.339 273.837C204.339 273.837 197.522 252.951 188.105 271.952C188.105 271.952 175.971 260.066 175.658 273.128C175.658 273.128 147.02 263.391 151.444 277.077C151.444 277.077 131.631 272.52 131.463 280.115C131.297 287.709 156.304 289.532 156.304 289.532C156.304 289.532 134.943 287.709 134.943 290.443C134.942 293.178 214.65 298.06 214.637 293.209Z" fill="#407BFF"/>
<path opacity="0.7" d="M214.637 293.209C214.637 293.209 216.018 269.686 204.339 273.837C204.339 273.837 197.522 252.951 188.105 271.952C188.105 271.952 175.971 260.066 175.658 273.128C175.658 273.128 147.02 263.391 151.444 277.077C151.444 277.077 131.631 272.52 131.463 280.115C131.297 287.709 156.304 289.532 156.304 289.532C156.304 289.532 134.943 287.709 134.943 290.443C134.942 293.178 214.65 298.06 214.637 293.209Z" fill="white"/>
<path d="M229.433 297.005C229.433 297.005 251.436 298.772 250.728 295.594C250.02 292.417 233.79 291.71 233.79 291.71C233.79 291.71 255.273 282.536 247.942 277.832C240.611 273.128 226.75 282.536 226.75 282.536C226.75 282.536 243.598 269.535 233.319 266.306C223.04 263.077 214.085 275.95 214.085 275.95C214.085 275.95 217.325 265.737 211.209 265.786C205.093 265.836 205.131 275.715 205.131 275.715C205.131 275.715 193.629 263.248 187.953 269.599C182.276 275.949 193.681 283.477 193.681 283.477C193.681 283.477 176.884 274.158 173.699 281.64C170.515 289.122 189.016 292.651 189.016 292.651C189.016 292.651 170.537 291.417 169.938 294.269C169.339 297.121 215.195 295.147 229.433 297.005Z" fill="#407BFF"/>
<path opacity="0.9" d="M229.433 297.005C229.433 297.005 251.436 298.772 250.728 295.594C250.02 292.417 233.79 291.71 233.79 291.71C233.79 291.71 255.273 282.536 247.942 277.832C240.611 273.128 226.75 282.536 226.75 282.536C226.75 282.536 243.598 269.535 233.319 266.306C223.04 263.077 214.085 275.95 214.085 275.95C214.085 275.95 217.325 265.737 211.209 265.786C205.093 265.836 205.131 275.715 205.131 275.715C205.131 275.715 193.629 263.248 187.953 269.599C182.276 275.949 193.681 283.477 193.681 283.477C193.681 283.477 176.884 274.158 173.699 281.64C170.515 289.122 189.016 292.651 189.016 292.651C189.016 292.651 170.537 291.417 169.938 294.269C169.339 297.121 215.195 295.147 229.433 297.005Z" fill="white"/>
<path d="M346.371 90.5445L343.405 90.4193L343.199 91.2501L344.163 91.6634L344.785 93.0762L346.371 90.5445Z" fill="#407BFF"/>
<path opacity="0.3" d="M346.371 90.5445L343.405 90.4193L343.199 91.2501L344.163 91.6634L344.785 93.0762L346.371 90.5445Z" fill="black"/>
<path d="M345.712 91.3719C345.815 90.8872 345.641 90.4395 345.323 90.3731C345.006 90.3059 344.666 90.6453 344.564 91.1299C344.461 91.6146 344.635 92.0623 344.953 92.1287C345.27 92.1951 345.61 91.8565 345.712 91.3719Z" fill="#263238"/>
<path d="M350.868 85.4608C350.868 85.4608 347.286 81.9563 344.26 84.0656C341.232 86.174 348.226 88.925 348.226 88.925L350.868 85.4608Z" fill="#263238"/>
<path d="M345.138 92.1371L341.673 94.7209C341.673 94.7209 342.486 95.9851 344.284 96.0196L345.138 92.1371Z" fill="#A02724"/>
<path d="M357.739 112.841C357.739 112.841 354.001 111.326 356.121 104.255C356.121 104.255 353.034 101.596 350.12 103.022C347.207 104.447 350.172 110.615 346.711 111.841C346.711 111.841 348.734 114.264 357.739 112.841Z" fill="#B55B52"/>
<path opacity="0.2" d="M351.413 106.508C351.413 106.508 350.196 107.623 348.577 108.425C348.641 107.447 348.618 106.408 348.733 105.486L351.413 106.508Z" fill="black"/>
<path d="M362.335 95.3896C360.305 101.31 359.571 103.864 355.678 106.116C350.162 107.982 342.98 105.716 343.204 99.3032C343.402 93.5332 346.681 84.8418 353.254 84.0387C357.938 83.4684 362.198 86.8032 362.768 91.4878C362.929 92.805 362.78 94.1406 362.335 95.3896Z" fill="#B55B52"/>
<path d="M349.58 97.0217L347.963 95.4358C347.963 95.4358 349.553 93.5769 348.771 90.6621C347.989 87.7473 345.111 82.1831 349.995 79.4447C354.879 76.7063 357.739 81.3877 357.739 81.3877C357.739 81.3877 362.361 79.1659 364.052 83.0147C365.743 86.8636 364.516 88.1883 364.516 88.1883C364.516 88.1883 368.502 88.6192 367.037 93.6643C365.572 98.7093 363.899 96.2229 361.68 100.462C359.462 104.7 355.678 106.116 355.678 106.116C355.678 106.116 354.616 105.199 353.015 105.853C353.015 105.853 353.908 100.113 349.58 97.0217Z" fill="#263238"/>
<path d="M346.803 90.4084C346.709 90.3866 346.631 90.3202 346.592 90.2312C346.348 89.534 345.782 88.9972 345.072 88.7906C344.918 88.7562 344.82 88.6041 344.852 88.4496C344.887 88.2942 345.038 88.1942 345.195 88.2228C346.095 88.4706 346.818 89.1392 347.136 90.017C347.201 90.159 347.138 90.327 346.995 90.3908C346.991 90.3925 346.986 90.395 346.981 90.3967C346.927 90.4227 346.863 90.4269 346.803 90.4084Z" fill="#263238"/>
<path d="M352.225 94.7252L343.406 90.4202C343.406 90.4202 342.25 94.2245 342.927 94.4018C343.604 94.5782 344.536 91.9582 344.536 91.9582L351.112 94.9906L352.225 94.7252Z" fill="#407BFF"/>
<path d="M352.225 94.7252C352.225 94.7252 358.226 98.6035 362.831 98.7421L362.137 99.6695C362.137 99.6695 358.069 99.3536 351.89 95.3628L352.225 94.7252Z" fill="#407BFF"/>
<path d="M351.068 94.3295C349.918 94.8889 349.039 95.8843 348.625 97.0939C348.088 98.7025 349.509 99.6064 351.07 99.2427C352.484 98.9142 354.452 97.6786 354.312 96.0187C354.171 94.3589 352.481 93.6609 351.068 94.3295Z" fill="#B55B52"/>
<path d="M353.128 195.272L351.007 218.826L352.42 276.06H338.995L335.934 217.648V193.624L353.128 195.272Z" fill="#263238"/>
<path d="M349.828 275.706L350.036 287.377L343.893 287.009L343.137 276.436L349.828 275.706Z" fill="#B55B52"/>
<path d="M342.785 286.27L350.539 286.13C350.831 286.125 351.088 286.322 351.157 286.607L352.671 292.89C352.81 293.447 352.471 294.01 351.915 294.149C351.843 294.166 351.77 294.176 351.697 294.179C348.901 294.181 346.413 294.072 342.933 294.14C338.826 294.214 339.877 294.687 335.05 294.843C332.142 294.933 331.55 291.636 332.78 291.451C338.413 290.639 338.969 288.924 341.11 286.864C341.577 286.467 342.173 286.256 342.785 286.27Z" fill="#263238"/>
<path opacity="0.2" d="M349.861 277.546L349.939 281.919L343.545 282.122L343.294 278.611L349.861 277.546Z" fill="black"/>
<path d="M353.439 275.069L353.043 280.15L339.253 280.681L338.309 275.453L353.439 275.069Z" fill="#407BFF"/>
<path d="M368.437 199.512L369.144 216.706L378.094 274.647L366.081 276.06L354.54 217.648L353.128 191.975L366.789 193.624L368.437 199.512Z" fill="#263238"/>
<path d="M375.788 273.158L377.453 284.712L371.313 285.114L369.241 274.72L375.788 273.158Z" fill="#B55B52"/>
<path d="M370.121 284.52L377.797 283.413C378.086 283.371 378.365 283.535 378.47 283.808L380.758 289.853C380.964 290.388 380.699 290.989 380.164 291.196C380.095 291.222 380.024 291.242 379.951 291.253C377.178 291.604 374.695 291.808 371.251 292.309C367.186 292.897 368.287 293.235 363.518 293.992C360.643 294.445 359.644 291.248 360.842 290.911C366.329 289.401 366.666 287.63 368.533 285.319C368.947 284.867 369.512 284.582 370.121 284.52Z" fill="#263238"/>
<path opacity="0.2" d="M376.05 274.98L376.675 279.309L370.356 280.31L369.668 276.857L376.05 274.98Z" fill="black"/>
<path d="M379.291 272.074L379.533 277.166L365.917 279.416L364.327 274.347L379.291 272.074Z" fill="#407BFF"/>
<path opacity="0.5" d="M336.674 231.77L335.934 217.648V201.986H344.53L351.772 210.338L351.007 218.826L351.294 230.419L336.674 231.77Z" fill="black"/>
<path opacity="0.5" d="M369.144 216.706L371.371 231.124L357.021 230.201L354.54 217.648L353.128 191.975L366.789 193.624L368.563 202.561L369.144 216.706Z" fill="black"/>
<path d="M327.275 132.925L322.211 131.158C322.211 131.158 322.093 128.449 318.56 127.625C318.56 127.625 316.322 126.801 314.792 127.508C313.26 128.214 313.143 132.572 315.498 134.339C317.853 136.105 318.914 134.574 322.211 135.516L327.275 137.636V132.925Z" fill="#B55B52"/>
<path d="M341.3 136.036L325.687 131.797C325.687 131.797 323.097 134.506 323.45 137.568L338.523 144.751L341.3 136.036Z" fill="#407BFF"/>
<path opacity="0.5" d="M341.3 136.036L325.687 131.797C325.687 131.797 323.097 134.506 323.45 137.568L338.523 144.751L341.3 136.036Z" fill="white"/>
<path d="M319.784 128.411C319.784 128.411 317.206 124.475 316.445 124.98C315.684 125.485 317.299 128.318 317.299 128.318L319.784 128.411Z" fill="#B55B52"/>
<path d="M360.119 113.219L357.95 109.679C357.95 109.679 348.689 108.539 344.342 111.044L341.3 114.23C341.3 114.23 348.792 114.028 360.119 113.219Z" fill="#407BFF"/>
<path opacity="0.5" d="M360.119 113.219L357.95 109.679C357.95 109.679 348.689 108.539 344.342 111.044L341.3 114.23C341.3 114.23 348.792 114.028 360.119 113.219Z" fill="white"/>
<path d="M373.383 228.836C373.383 228.836 371.59 201.542 369.252 181.863C368.477 175.335 367.797 169.646 367.361 166.066C366.628 160.049 366.482 150.72 367.373 141.582C368.61 128.901 370.532 116.585 363.962 113.995C352.656 109.538 336.875 113.542 334.756 118.018C332.636 122.492 332.872 228.718 332.872 228.718L357.132 227.54L356.327 191.032L360.948 227.54L373.383 228.836Z" fill="#407BFF"/>
<path opacity="0.8" d="M373.383 228.836C373.383 228.836 371.59 201.542 369.252 181.863C368.477 175.335 367.797 169.646 367.361 166.066C366.628 160.049 366.482 150.72 367.373 141.582C368.61 128.901 370.532 116.585 363.962 113.995C352.656 109.538 336.875 113.542 334.756 118.018C332.636 122.492 332.872 228.718 332.872 228.718L357.132 227.54L356.327 191.032L360.948 227.54L373.383 228.836Z" fill="white"/>
<path d="M332.359 181.141L336.83 182.554L341.3 181.847V178.078L332.359 177.372V181.141Z" fill="#407BFF"/>
<path opacity="0.7" d="M332.359 181.141L336.83 182.554L341.3 181.847V178.078L332.359 177.372V181.141Z" fill="white"/>
<path opacity="0.1" d="M333.506 139.683L341.673 120.549L344.531 117.781C344.531 117.781 345.003 136.39 333.255 153.21C333.325 148.41 333.408 143.844 333.506 139.683Z" fill="black"/>
<path d="M303.497 137.803H316.59C317.105 137.803 317.507 137.357 317.453 136.845L315.531 118.56C315.485 118.118 315.112 117.783 314.667 117.783H301.574C301.059 117.783 300.657 118.229 300.711 118.742L302.633 137.027C302.68 137.467 303.053 137.803 303.497 137.803Z" fill="#407BFF"/>
<path opacity="0.5" d="M303.497 137.803H316.59C317.105 137.803 317.507 137.357 317.453 136.845L315.531 118.56C315.485 118.118 315.112 117.783 314.667 117.783H301.574C301.059 117.783 300.657 118.229 300.711 118.742L302.633 137.027C302.68 137.467 303.053 137.803 303.497 137.803Z" fill="white"/>
<path d="M304.135 136.66H315.733C316.189 136.66 316.546 136.264 316.498 135.81L314.795 119.613C314.754 119.222 314.424 118.926 314.031 118.926H302.432C301.976 118.926 301.62 119.32 301.667 119.775L303.37 135.972C303.411 136.362 303.741 136.66 304.135 136.66Z" fill="#407BFF"/>
<path opacity="0.9" d="M304.135 136.66H315.733C316.189 136.66 316.546 136.264 316.498 135.81L314.795 119.613C314.754 119.222 314.424 118.926 314.031 118.926H302.432C301.976 118.926 301.62 119.32 301.667 119.775L303.37 135.972C303.411 136.362 303.741 136.66 304.135 136.66Z" fill="white"/>
<path d="M300.869 117.782H301.575C301.06 117.782 300.658 118.228 300.712 118.741L302.634 137.026C302.681 137.468 303.054 137.803 303.497 137.803H302.791C302.346 137.803 301.974 137.468 301.928 137.026L300.006 118.741C299.951 118.228 300.353 117.782 300.869 117.782Z" fill="#407BFF"/>
<path opacity="0.3" d="M300.869 117.782H301.575C301.06 117.782 300.658 118.228 300.712 118.741L302.634 137.026C302.681 137.468 303.054 137.803 303.497 137.803H302.791C302.346 137.803 301.974 137.468 301.928 137.026L300.006 118.741C299.951 118.228 300.353 117.782 300.869 117.782Z" fill="white"/>
<path d="M305.668 126.674C305.869 128.592 307.588 130.148 309.506 130.148C311.425 130.148 312.817 128.592 312.615 126.674C312.414 124.755 310.695 123.199 308.776 123.199C306.858 123.199 305.466 124.755 305.668 126.674Z" fill="#407BFF"/>
<path d="M303.783 126.702C303.632 125.26 304.055 123.904 304.972 122.885C305.883 121.872 307.174 121.315 308.606 121.315C311.546 121.315 314.19 123.706 314.499 126.646C314.651 128.088 314.229 129.443 313.31 130.463C312.399 131.475 311.108 132.033 309.676 132.033C306.736 132.033 304.093 129.641 303.783 126.702ZM305.367 123.239C304.55 124.145 304.176 125.356 304.311 126.646C304.592 129.325 307 131.503 309.677 131.503C310.956 131.503 312.107 131.008 312.917 130.109C313.733 129.202 314.108 127.992 313.973 126.702C313.69 124.024 311.284 121.845 308.606 121.845C307.327 121.845 306.177 122.339 305.367 123.239Z" fill="#407BFF"/>
<path opacity="0.3" d="M315.025 136.66H312.081L308.311 118.925H311.255L315.025 136.66Z" fill="white"/>
<path opacity="0.3" d="M311.021 136.66H309.549L305.779 118.925H307.252L311.021 136.66Z" fill="white"/>
<path d="M318.462 138.344L315.559 136.48C315.559 136.48 315.811 133.104 315.05 131.806C314.289 130.508 310.22 126.642 309.147 127.294C308.074 127.947 310.801 130.311 310.801 130.311C310.801 130.311 308.306 134.208 309.087 135.981C309.868 137.754 312.622 138.442 312.622 138.442L316.555 142.167L318.462 138.344Z" fill="#B55B52"/>
<path d="M344.329 114.602C344.329 114.602 335.816 113.071 333.225 120.843C330.633 128.616 327.69 140.275 327.69 140.275C327.69 140.275 318.546 136.043 316.939 136.985C316.939 136.985 314.741 139.575 315.684 142.167C315.684 142.167 326.866 149.225 330.753 148.754C334.638 148.283 341.993 129.558 341.993 129.558C341.993 129.558 348.484 114.838 344.329 114.602Z" fill="#407BFF"/>
<path opacity="0.7" d="M344.329 114.602C344.329 114.602 335.816 113.071 333.225 120.843C330.633 128.616 327.69 140.275 327.69 140.275C327.69 140.275 318.546 136.043 316.939 136.985C316.939 136.985 314.741 139.575 315.684 142.167C315.684 142.167 326.866 149.225 330.753 148.754C334.638 148.283 341.993 129.558 341.993 129.558C341.993 129.558 348.484 114.838 344.329 114.602Z" fill="white"/>
<path d="M93.7138 280.634L95.5929 293.445L102.588 292.436L101.349 278.435L93.7138 280.634Z" fill="#DD8C6A"/>
<path d="M103.717 292.483C103.646 292.476 103.586 292.428 103.565 292.36C103.544 292.292 103.57 292.218 103.627 292.176C103.728 292.102 106.044 290.408 107.266 290.6C107.493 290.632 107.699 290.752 107.839 290.933C108.022 291.131 108.061 291.424 107.935 291.662C107.686 292.075 106.792 292.339 105.91 292.438C105.181 292.518 104.447 292.533 103.717 292.483ZM104.236 292.197C105.575 292.211 107.363 291.997 107.639 291.498C107.68 291.436 107.713 291.33 107.565 291.135C107.482 291.018 107.351 290.945 107.208 290.937C107.101 290.92 106.991 290.918 106.882 290.932C105.928 291.182 105.03 291.611 104.236 292.197Z" fill="#407BFF"/>
<path d="M103.627 292.484C103.572 292.456 103.537 292.402 103.534 292.34C103.533 292.25 103.507 290.315 104.326 289.47C104.562 289.221 104.888 289.079 105.229 289.077C105.698 289.071 105.869 289.288 105.908 289.479C106.149 290.26 104.618 291.992 103.812 292.464C103.791 292.477 103.767 292.482 103.743 292.478C103.706 292.494 103.664 292.496 103.627 292.484ZM105.153 289.409C104.94 289.43 104.742 289.529 104.596 289.685C104.136 290.356 103.893 291.153 103.9 291.967C104.72 291.347 105.702 290.018 105.605 289.541C105.587 289.5 105.554 289.38 105.249 289.388L105.153 289.409Z" fill="#407BFF"/>
<path d="M102.88 291.572L95.1342 292.447C94.8428 292.48 94.6126 292.711 94.5807 293.003L93.8927 299.463C93.8272 300.035 94.2388 300.552 94.8117 300.618C94.8848 300.626 94.9595 300.627 95.0326 300.619C97.8189 300.256 100.284 299.822 103.761 299.434C107.863 298.971 106.878 299.58 111.708 299.104C114.618 298.814 114.777 295.451 113.527 295.427C107.807 295.355 107.029 293.718 104.626 291.945C104.109 291.61 103.488 291.478 102.88 291.572Z" fill="#263238"/>
<path opacity="0.2" d="M102.037 286.205H96.7865L94.674 287.181L95.1847 290.659L102.33 289.517L102.037 286.205Z" fill="black"/>
<path d="M71.0212 151.734L86.4125 226.433L92.9788 289.385L103.467 287.671C103.467 287.671 104.077 256.025 101.007 222.948C98.2347 193.078 91.8213 162.042 90.6772 152.086L86.5099 145.345L78.787 146.607L71.0212 151.734Z" fill="#407BFF"/>
<path opacity="0.2" d="M75.768 174.772L80.1797 196.182C80.6803 180.716 78.5408 162.355 78.5408 162.355L75.768 174.772Z" fill="black"/>
<path d="M61.157 284.666V297.615L68.2895 296.632L69.0396 283.598L61.157 284.666Z" fill="#DD8C6A"/>
<path d="M69.5335 294.384C69.4638 294.371 69.4084 294.319 69.3924 294.25C69.3773 294.181 69.4075 294.109 69.468 294.071C69.5755 294.004 72.0149 292.495 73.2178 292.78C73.442 292.83 73.6378 292.965 73.7638 293.157C73.9318 293.369 73.9469 293.664 73.8032 293.892C73.5227 294.284 72.6113 294.479 71.7242 294.51C70.9909 294.531 70.2584 294.489 69.5335 294.384ZM70.0728 294.138C71.4067 294.255 73.206 294.18 73.5202 293.703C73.5664 293.645 73.6067 293.541 73.474 293.335C73.4009 293.212 73.2757 293.129 73.1338 293.11C73.0271 293.084 72.9179 293.074 72.8087 293.08C71.8385 293.257 70.9103 293.615 70.0728 294.138Z" fill="#407BFF"/>
<path d="M69.4436 294.377C69.3915 294.346 69.3604 294.288 69.3621 294.227C69.3688 294.137 69.4906 292.206 70.3735 291.426C70.6272 291.197 70.9632 291.08 71.3042 291.104C71.7712 291.135 71.925 291.365 71.9493 291.558C72.1299 292.355 70.4692 293.963 69.6301 294.372C69.6082 294.384 69.5839 294.387 69.5595 294.38C69.5217 294.394 69.4806 294.392 69.4436 294.377ZM71.2026 291.429C70.9884 291.434 70.7834 291.517 70.6263 291.661C70.1156 292.296 69.8124 293.071 69.7561 293.883C70.6221 293.329 71.704 292.079 71.6427 291.596C71.6284 291.553 71.6041 291.431 71.2992 291.416L71.2026 291.429Z" fill="#407BFF"/>
<path d="M68.7691 293.41L60.9798 293.686C60.6858 293.696 60.4388 293.908 60.3842 294.197L59.2007 300.585C59.0915 301.151 59.4619 301.698 60.0272 301.807C60.0995 301.821 60.1734 301.827 60.2473 301.825C63.0538 301.678 65.5452 301.435 69.0413 301.316C73.1665 301.172 72.1375 301.702 76.9902 301.599C79.9142 301.535 80.3317 298.194 79.0868 298.074C73.39 297.561 72.7406 295.869 70.481 293.917C69.9921 293.544 69.3823 293.363 68.7691 293.41Z" fill="#263238"/>
<path opacity="0.2" d="M61.157 291.871H68.5642L68.733 288.936H61.157V291.871Z" fill="black"/>
<path d="M60.2137 151.893L60.1423 290.149H70.3467C70.3467 290.149 77.8227 176.658 78.787 155.43L75.8823 148.06H68.3685L60.2137 151.893Z" fill="#407BFF"/>
<path d="M92.4353 154.927C92.064 152.147 91.7801 149.426 91.8994 146.826C93.0863 121.021 91.9876 105.14 91.5945 100.623C91.5239 99.813 90.9687 99.125 90.1891 98.8924C72.1644 93.5063 58.6052 97.1863 54.2498 98.7126C53.3745 99.0192 52.8243 99.8768 52.9209 100.8C53.7214 108.401 57.278 142.56 57.8416 154.929C57.9239 156.741 57.8903 161.12 57.8626 163.537C57.8517 164.521 58.5556 165.359 59.5258 165.523C63.5519 166.202 73.6277 167.483 76.7088 163.924C77.396 163.13 78.603 163.065 79.4162 163.729C80.6762 164.759 82.7392 165.682 86.0253 165.451C89.1509 165.232 91.2081 164.963 92.5227 164.734C93.6651 164.536 94.3866 163.399 94.0977 162.276C93.5231 160.051 92.6487 156.529 92.4353 154.927Z" fill="#263238"/>
<path d="M75.5337 96.2076L73.7277 85.4976L65.9904 83.1036V96.3L69.6075 99.466L73.6865 99.2879L76.4442 96.2841C76.141 96.2572 75.8327 96.2278 75.5337 96.2076Z" fill="#DD8C6A"/>
<path d="M79.1146 139.425C79.1146 139.976 78.6677 140.423 78.1167 140.423C77.5657 140.423 77.1188 139.976 77.1188 139.425C77.1188 138.874 77.5657 138.427 78.1167 138.427C78.6677 138.427 79.1146 138.874 79.1146 139.425Z" fill="#407BFF"/>
<path d="M80.1125 149.918C80.1125 150.469 79.6657 150.916 79.1146 150.916C78.5636 150.916 78.1167 150.469 78.1167 149.918C78.1167 149.367 78.5636 148.92 79.1146 148.92C79.6657 148.92 80.1125 149.367 80.1125 149.918Z" fill="#407BFF"/>
<path d="M63.8485 96.2202L65.0093 95.9833L71.6638 99.2862H73.6865L77.4371 95.8531L78.74 96.1135L78.9416 107.713L78.0739 118.72L76.2385 130.843H76.1914L75.6631 129.754L73.6865 125.676L71.0187 121.039L66.0392 109.648L63.2369 100.657L63.8485 96.2202Z" fill="white"/>
<path d="M64.428 96.1135C64.428 96.1135 69.0388 110.272 76.1914 130.843L61.6359 105.408L62.7648 102.48L60.3809 101.225L61.761 96.6049L64.428 96.1135Z" fill="#407BFF"/>
<path d="M77.9672 95.933C77.9672 95.933 77.3993 110.444 76.1914 131.188L82.8131 103.756L81.0567 101.474L82.8795 99.6013L80.871 96.4975L77.9672 95.933Z" fill="#407BFF"/>
<path d="M65.977 95.7675L73.0103 99.3081L70.0619 103.212L64.428 96.1135L65.977 95.7675Z" fill="#407BFF"/>
<path opacity="0.7" d="M65.977 95.7675L73.0103 99.3081L70.0619 103.212L64.428 96.1135L65.977 95.7675Z" fill="white"/>
<path d="M76.5366 95.7179L72.6777 99.3081L75.6269 103.212L77.9672 95.9329L76.5366 95.7179Z" fill="#407BFF"/>
<path opacity="0.7" d="M76.5366 95.7179L72.6777 99.3081L75.6269 103.212L77.9672 95.9329L76.5366 95.7179Z" fill="white"/>
<path d="M77.606 99.0385C77.5883 98.7344 77.343 98.4941 77.039 98.4849C76.5207 98.4698 75.7722 98.479 75.4766 98.6369C74.9356 98.9259 74.0586 100.155 73.5303 100.946L73.5252 100.862C73.5084 100.576 73.2632 100.359 72.9776 100.376L72.555 100.401C72.2694 100.418 72.0519 100.663 72.0687 100.949L72.0737 101.033C71.4555 100.309 70.4382 99.1938 69.867 98.9712C69.5579 98.8511 68.8263 98.9276 68.3139 99.004C68.0031 99.0502 67.7822 99.3266 67.8006 99.6399L68.0753 104.241C68.0938 104.555 68.3458 104.803 68.66 104.812C69.1774 104.826 69.9132 104.815 70.2056 104.66C70.7465 104.371 71.6235 103.142 72.1518 102.351C72.1686 102.636 72.4139 102.854 72.6995 102.837L73.122 102.812C73.4076 102.795 73.6252 102.55 73.6084 102.264V102.263C74.2266 102.986 75.2439 104.102 75.8151 104.325C76.1267 104.446 76.8718 104.366 77.3842 104.289C77.6858 104.245 77.9 103.977 77.8815 103.673L77.606 99.0385Z" fill="#263238"/>
<path opacity="0.1" d="M65.9904 86.1974C67.3848 88.3226 69.9266 90.4814 74.5517 91.2718L73.7268 85.4976L65.9896 83.1036L65.9904 86.1974Z" fill="black"/>
<path d="M128.964 103.318C128.964 103.318 130.497 100.012 134.529 99.7701C134.529 99.7701 136.545 96.4639 138.802 96.5445C141.06 96.6252 141.867 101.988 141.867 101.988C141.867 101.988 139.125 106.625 134.851 106.221L129.789 106.705L128.964 103.318Z" fill="#DD8C6A"/>
<path d="M126.142 104.205L128.44 101.988C128.44 101.988 131.706 104.084 132.513 108.318L128.964 109.326L126.142 104.205Z" fill="#407BFF"/>
<path opacity="0.8" d="M126.142 104.205L128.44 101.988C128.44 101.988 131.706 104.084 132.513 108.318L128.964 109.326L126.142 104.205Z" fill="white"/>
<path d="M126.418 103.663C116.558 109.264 106.951 110.294 106.951 110.294C98.2145 101.625 89.1291 98.5857 89.1291 98.5857V108.468C89.1291 108.468 99.5728 118.157 106.225 119.245C111.496 120.107 124.578 112.546 129.789 109.366C128.816 106.327 127.116 104.372 126.418 103.663Z" fill="#263238"/>
<path d="M69.6898 131.301L69.2169 145.358L71.1421 145.555L73.6134 130.987L69.6898 131.301Z" fill="#407BFF"/>
<path opacity="0.4" d="M69.5512 135.424C70.1392 135.561 70.7499 135.666 71.3799 135.73C71.8604 135.78 72.3308 135.798 72.797 135.8L73.6134 130.987L69.6898 131.3L69.5512 135.424Z" fill="white"/>
<path d="M74.7079 131.1C74.5366 132.768 73.0447 133.981 71.3773 133.809C69.7091 133.638 68.4961 132.146 68.6675 130.479C68.8389 128.811 70.3307 127.598 71.9981 127.769C73.6672 127.94 74.8801 129.432 74.7079 131.1Z" fill="#407BFF"/>
<path opacity="0.8" d="M74.7079 131.1C74.5366 132.768 73.0447 133.981 71.3773 133.809C69.7091 133.638 68.4961 132.146 68.6675 130.479C68.8389 128.811 70.3307 127.598 71.9981 127.769C73.6672 127.94 74.8801 129.432 74.7079 131.1Z" fill="white"/>
<path d="M62.7564 137.28C62.7564 137.28 68.4995 137.56 70.1804 137.28C71.8612 137.001 73.49 136.3 73.49 136.3L75.5034 138.121C75.5034 138.121 78.0789 142.603 75.18 144.005C72.2812 145.406 62.1962 141.075 62.1962 141.075L62.7564 137.28Z" fill="#DD8C6A"/>
<path d="M59.535 135.694C59.535 135.694 62.7077 135.694 64.2054 136.662C64.2054 136.662 62.8009 139.323 63.5267 142.105L58.8093 141.138L59.535 135.694Z" fill="#407BFF"/>
<path opacity="0.8" d="M59.535 135.694C59.535 135.694 62.7077 135.694 64.2054 136.662C64.2054 136.662 62.8009 139.323 63.5267 142.105L58.8093 141.138L59.535 135.694Z" fill="white"/>
<path d="M56.28 98.0682C56.28 98.0682 47.8321 98.3387 40.7459 121.946C39.3053 126.745 34.9911 137.289 48.5125 140.424L60.3809 142.106C60.3809 142.106 59.6148 138.235 61.2276 135.494C61.2276 135.494 53.1636 131.945 48.1639 129.526C48.1639 129.526 53.1636 116.624 56.0667 115.334C56.0667 115.334 58.9117 103.381 56.28 98.0682Z" fill="#263238"/>
<path d="M60.0289 69.3252C60.0289 69.3252 58.711 67.1748 56.8563 68.2231C56.8563 68.2231 59.0083 64.5405 60.0289 69.3252Z" fill="#263238"/>
<path d="M62.3373 76.3837C62.9723 82.2847 63.1202 84.7887 66.2492 87.6817C70.9565 92.0413 78.0638 89.9614 79.2045 83.9966C80.2226 78.6206 79.0062 69.8443 73.101 67.7963C68.8943 66.2885 64.2617 68.4759 62.7539 72.6826C62.3289 73.867 62.1869 75.1337 62.3373 76.3837Z" fill="#DD8C6A"/>
<path d="M71.8377 77.4908C71.8654 77.9721 72.1384 78.3518 72.4492 78.3409C72.76 78.3299 73.0036 77.9192 72.9843 77.4395C72.9658 76.9599 72.6836 76.5785 72.3728 76.5895C72.062 76.6012 71.8419 77.033 71.8377 77.4908Z" fill="#263238"/>
<path d="M77.2775 77.2488C77.3036 77.7385 77.5783 78.1098 77.8891 78.0989C78.1999 78.088 78.4435 77.6772 78.4241 77.1976C78.4057 76.7179 78.1234 76.3366 77.811 76.3567C77.4993 76.376 77.2591 76.7692 77.2775 77.2488Z" fill="#263238"/>
<path d="M75.6404 78.1997C76.1234 79.2791 76.7517 80.2871 77.5077 81.196C77.0239 81.5706 76.4014 81.7168 75.8008 81.5975L75.6404 78.1997Z" fill="#C13B37"/>
<path d="M69.5378 76.2678C69.6596 76.2904 69.7814 76.2291 69.8368 76.1182C70.3635 75.3496 71.1875 74.8347 72.109 74.6995C72.2661 74.6785 72.3761 74.5348 72.356 74.3786C72.3358 74.2257 72.1964 74.119 72.0435 74.1384C72.0401 74.1384 72.0368 74.1392 72.0334 74.14C70.9238 74.2946 69.9368 74.9254 69.3295 75.8679C69.2606 76.0057 69.316 76.1728 69.4538 76.2417C69.479 76.2577 69.5075 76.2669 69.5378 76.2678Z" fill="#263238"/>
<path d="M78.8114 74.8876C78.913 74.9035 79.0163 74.8649 79.0827 74.7851C79.181 74.6633 79.1633 74.4852 79.0441 74.3853C78.3511 73.7721 77.3977 73.5444 76.5022 73.7779C76.3586 73.8174 76.2737 73.9653 76.3132 74.1097C76.3149 74.1165 76.3174 74.124 76.3199 74.1307C76.3653 74.2777 76.5215 74.3601 76.6685 74.3147C76.6702 74.3147 76.6711 74.3139 76.6727 74.3139C77.3775 74.1559 78.1142 74.3441 78.6577 74.8195C78.7005 74.8573 78.7543 74.8817 78.8114 74.8876Z" fill="#263238"/>
<path d="M75.5597 83.2279C75.3775 84.0646 75.3455 85.564 75.3455 85.564C75.2095 85.5858 75.0725 85.6068 74.9356 85.6219C73.0784 85.8681 72.1359 85.3691 71.6537 84.7416C71.3917 84.3972 71.2699 84.0083 71.2144 83.6857C71.1464 83.3136 71.1825 83.0322 71.1825 83.0322C72.2451 83.4892 73.9931 83.3934 74.9255 83.3027C75.3161 83.2683 75.5597 83.2279 75.5597 83.2279Z" fill="#263238"/>
<path d="M74.9257 83.3027L74.845 83.9898C73.0953 84.2175 71.8336 84.1435 71.2154 83.6857C71.1473 83.3136 71.1835 83.0322 71.1835 83.0322C72.2461 83.4892 73.9941 83.3934 74.9257 83.3027Z" fill="white"/>
<path d="M74.9365 85.622C73.0792 85.8681 72.1368 85.3691 71.6546 84.7417C72.2905 84.682 73.0641 84.6812 73.7706 84.8769C74.3115 85.0231 74.6778 85.3137 74.9365 85.622Z" fill="#DE5753"/>
<path d="M63.7904 84.3595C63.7904 84.3595 67.9216 76.3761 65.9904 74.3601C64.0592 72.3441 66.0618 71.8603 66.0618 71.8603C84.6838 71.2958 80.0176 62.8286 74.8558 61.2158C73.1615 60.6866 71.9872 60.884 71.164 61.3813C72.3744 61.3762 73.8646 61.6341 74.6273 62.7883C74.6273 62.7883 71.5588 61.7206 69.9787 62.6043C69.384 63.6081 69.2916 64.6833 69.2916 64.6833C69.2916 64.6833 55.7197 63.546 59.6282 76.3299C60.2742 78.4417 63.7904 84.3595 63.7904 84.3595Z" fill="#263238"/>
<path d="M60.9395 81.0087C61.3612 82.0503 62.176 82.8844 63.2084 83.3288C64.5893 83.8983 65.4629 82.708 65.2328 81.3027C65.0152 80.0402 64.0408 78.2224 62.5842 78.2233C61.5267 78.2577 60.6968 79.1422 60.7312 80.2006C60.7404 80.482 60.8118 80.7584 60.9395 81.0087Z" fill="#DD8C6A"/>
</svg>
