<svg width="30" height="30" viewBox="0 0 30 30" fill="none" xmlns="http://www.w3.org/2000/svg">
<path d="M17.9852 15.9837C17.6631 15.7908 17.244 15.5757 16.8648 15.7312C16.5736 15.8504 16.3881 16.3057 16.1993 16.5385C16.1027 16.6578 15.9871 16.6767 15.8382 16.6167C14.7458 16.1815 13.9084 15.4519 13.3055 14.4471C13.2035 14.2908 13.2216 14.1678 13.3449 14.023C13.5271 13.8088 13.7558 13.5653 13.8052 13.2761C13.8545 12.987 13.7188 12.6493 13.5991 12.3918C13.4465 12.0628 13.2758 11.5939 12.9464 11.408C12.6433 11.2369 12.2447 11.3327 11.9749 11.5524C11.5093 11.9316 11.2848 12.5255 11.2913 13.1145C11.293 13.2819 11.314 13.4489 11.353 13.6101C11.4468 13.9988 11.6265 14.3611 11.8285 14.7062C11.9807 14.9661 12.1464 15.2187 12.3249 15.4613C12.9094 16.2552 13.6366 16.9449 14.4781 17.4607C14.8988 17.7181 15.3517 17.9443 15.821 18.0994C16.347 18.2734 16.8159 18.4544 17.3843 18.3462C17.979 18.2331 18.5655 17.865 18.8016 17.292C18.8715 17.1222 18.9065 16.9334 18.8674 16.7541C18.7868 16.3835 18.285 16.163 17.9852 15.9837Z" fill="url(#paint0_linear_97_3825)"/>
<path d="M15.0744 7.0708C10.7599 7.0708 7.24992 10.5808 7.24992 14.8953C7.24992 16.2148 7.58842 17.5153 8.23128 18.6751L7.09528 22.9127L11.3547 21.7718C12.4997 22.3928 13.7789 22.7198 15.074 22.7198C19.3885 22.7198 22.8985 19.2098 22.8985 14.8953C22.899 10.5808 19.3889 7.0708 15.0744 7.0708ZM15.0744 21.2408C13.9401 21.2408 12.8197 20.9307 11.8351 20.3438L11.5669 20.1838L9.18754 20.8213L9.82135 18.4551L9.65683 18.1849C9.04976 17.1879 8.72895 16.0502 8.72895 14.8949C8.72895 11.396 11.5755 8.54941 15.0744 8.54941C18.5733 8.54941 21.4199 11.396 21.4199 14.8949C21.4199 18.3938 18.5733 21.2408 15.0744 21.2408Z" fill="url(#paint1_linear_97_3825)"/>
<path d="M15 30C6.72882 30 0 23.2712 0 15C0 6.72882 6.72882 0 15 0C23.2708 0 30 6.72882 30 15C30 23.2712 23.2712 30 15 30ZM15 1.1541C7.36509 1.1541 1.15369 7.36551 1.15369 15.0004C1.15369 22.6353 7.36509 28.8463 15 28.8463C22.6349 28.8463 28.8463 22.6349 28.8463 15.0004C28.8463 7.36551 22.6349 1.1541 15 1.1541Z" fill="url(#paint2_linear_97_3825)"/>
<defs>
<linearGradient id="paint0_linear_97_3825" x1="15.0874" y1="11.3203" x2="15.0874" y2="18.3789" gradientUnits="userSpaceOnUse">
<stop stop-color="#22FFFF"/>
<stop offset="1" stop-color="#2263FF"/>
</linearGradient>
<linearGradient id="paint1_linear_97_3825" x1="14.9972" y1="7.07097" x2="14.9972" y2="22.9131" gradientUnits="userSpaceOnUse">
<stop stop-color="#22FFFF"/>
<stop offset="1" stop-color="#2263FF"/>
</linearGradient>
<linearGradient id="paint2_linear_97_3825" x1="15" y1="0.000123389" x2="15" y2="30" gradientUnits="userSpaceOnUse">
<stop stop-color="#22FFFF"/>
<stop offset="1" stop-color="#2263FF"/>
</linearGradient>
</defs>
</svg>
