<svg width="1389" height="686" viewBox="0 0 1389 686" fill="none" xmlns="http://www.w3.org/2000/svg">
<path d="M1247.76 482.492H913.014C907.028 482.492 902.157 478.757 902.157 474.168V100.319C902.157 95.7292 907.028 91.9946 913.014 91.9946H1247.76C1253.74 91.9946 1258.61 95.7278 1258.61 100.319V474.166C1258.61 478.757 1253.74 482.492 1247.76 482.492ZM913.014 92.3496C907.282 92.3496 902.62 95.9252 902.62 100.319V474.166C902.62 478.561 907.284 482.135 913.014 482.135H1247.76C1253.49 482.135 1258.15 478.56 1258.15 474.166V100.319C1258.15 95.9252 1253.49 92.3496 1247.76 92.3496H913.014ZM861.747 482.492H527.005C521.019 482.492 516.149 478.757 516.149 474.168V100.319C516.149 95.7292 521.018 91.9946 527.005 91.9946H861.749C867.734 91.9946 872.605 95.7278 872.605 100.319V474.166C872.603 478.757 867.732 482.492 861.747 482.492ZM527.005 92.3496C521.275 92.3496 516.612 95.9252 516.612 100.319V474.166C516.612 478.561 521.275 482.135 527.005 482.135H861.749C867.481 482.135 872.142 478.56 872.142 474.166V100.319C872.142 95.9252 867.479 92.3496 861.749 92.3496H527.005ZM475.986 482.492H141.245C135.259 482.492 130.388 478.757 130.388 474.168V100.319C130.388 95.7292 135.257 91.9946 141.245 91.9946H475.986C481.972 91.9946 486.843 95.7278 486.843 100.319V474.166C486.844 478.757 481.974 482.492 475.986 482.492ZM141.245 92.3496C135.515 92.3496 130.851 95.9252 130.851 100.319V474.166C130.851 478.561 135.515 482.135 141.245 482.135H475.986C481.718 482.135 486.38 478.56 486.38 474.166V100.319C486.38 95.9252 481.716 92.3496 475.986 92.3496H141.245ZM1389 569.21H0V569.38H1389V569.21ZM1210.52 611.522H1313.73V610.924H1210.52V611.522ZM916.821 618.005H943.911V617.407H916.821V618.005ZM75.2745 593.35H209.867V592.752H75.2745V593.35ZM237.61 593.35H257.345V592.752H237.61V593.35ZM321.481 603.437H613.381V602.84H321.481V603.437Z" fill="#E0E0E0"/>
<path d="M581.178 483.582H529.774V499.949H581.178V483.582Z" fill="#E0E0E0"/>
<path d="M609.745 467.34H558.341V483.707H609.745V467.34Z" fill="#E6E6E6"/>
<path d="M611.447 499.643H560.043V516.008H611.447V499.643Z" fill="#F5F5F5"/>
<path d="M1160.42 117.769H1109.01V134.136H1160.42V117.769Z" fill="#E0E0E0"/>
<path d="M1188.98 101.525H1137.58V117.892H1188.98V101.525Z" fill="#E6E6E6"/>
<path d="M1190.69 133.828H1139.28V150.195H1190.69V133.828Z" fill="#F5F5F5"/>
<path d="M905.328 179.184H853.924V195.551H905.328V179.184Z" fill="#E0E0E0"/>
<path d="M935.597 195.243H884.193V211.61H935.597V195.243Z" fill="#F5F5F5"/>
<path d="M171.349 335.617H119.945V351.984H171.349V335.617Z" fill="#E6E6E6"/>
<path d="M197.051 351.984H145.647V368.351H197.051V351.984Z" fill="#F5F5F5"/>
<path d="M1296.81 362.286H1245.41V378.653H1296.81V362.286Z" fill="#E6E6E6"/>
<path d="M1322.52 378.653H1271.11V395.02H1322.52V378.653Z" fill="#F5F5F5"/>
<path d="M623.95 64.022H572.546V80.3889H623.95V64.022Z" fill="#E6E6E6"/>
<path d="M649.652 80.3887H598.248V96.7556H649.652V80.3887Z" fill="#F5F5F5"/>
<path d="M884.267 510.93H832.863V527.297H884.267V510.93Z" fill="#F5F5F5"/>
<path d="M1253.16 215.402H1201.76V231.769H1253.16V215.402Z" fill="#F5F5F5"/>
<path d="M471.99 433.11H420.586V449.477H471.99V433.11Z" fill="#F5F5F5"/>
<path d="M948.852 627.363C948.828 626.788 946.302 569.633 934.177 560.593C922.383 551.803 908.849 560.267 908.28 560.63L907.063 559.513C907.217 559.413 922.492 549.854 935.499 559.55C948.168 568.995 950.646 624.939 950.746 627.316L948.852 627.363Z" fill="#E0E0E0"/>
<path d="M949.893 638.595C949.806 637.912 941.607 569.981 973.961 541.51L975.391 542.464C943.572 570.464 951.695 637.776 951.78 638.452L949.893 638.595Z" fill="#E0E0E0"/>
<path d="M948.696 631.408L946.802 631.312C946.868 630.542 953.134 554.084 929.4 537.347L930.684 536.275C955.084 553.483 948.969 628.235 948.696 631.408Z" fill="#E0E0E0"/>
<path d="M951.785 631.366L949.887 631.355C949.911 629.249 950.67 579.711 969.022 571.647C973.102 569.852 977.097 569.553 980.897 570.759C991.994 574.279 997.493 589.422 997.722 590.064L995.891 590.447C995.837 590.297 990.407 575.348 980.169 572.102C976.943 571.081 973.509 571.351 969.965 572.907C952.552 580.561 951.791 630.859 951.785 631.366Z" fill="#E0E0E0"/>
<path d="M944.639 631.401L942.746 631.319C942.774 630.929 945.515 592.172 931.873 578.516C928.567 575.209 924.98 573.632 921.189 573.835C912.251 574.313 904.756 584.343 904.682 584.443L903.028 583.728C903.354 583.288 911.097 572.919 921.053 572.385C925.507 572.142 929.66 573.911 933.378 577.633C947.448 591.717 944.759 629.788 944.639 631.401Z" fill="#E0E0E0"/>
<path d="M947.629 636.674C947.257 632.914 938.712 544.421 953.748 528.828L955.273 529.691C940.651 544.854 949.43 635.647 949.52 636.562L947.629 636.674Z" fill="#E0E0E0"/>
<path d="M984.986 579.728C984.986 579.728 975.965 582.278 978.647 588.297C981.329 594.317 1009.85 604.224 1009.85 604.224C1009.85 604.224 1021.8 595.828 1010.83 582.174C999.86 568.519 985.231 575.419 984.986 579.728Z" fill="#EBEBEB"/>
<path d="M945.77 568.268C945.77 568.268 955.376 567.96 955.923 574.308C956.469 580.655 935.112 598.216 935.112 598.216C935.112 598.216 919.872 593.992 923.144 578.152C926.419 562.311 943.385 564.365 945.77 568.268Z" fill="#EBEBEB"/>
<path d="M937.638 537.883C937.638 537.883 944.042 537.356 943.527 534.364C943.012 531.374 918.631 523.674 904.246 536.123C904.246 536.123 913.456 548.255 926.772 548.414C940.086 548.573 937.638 537.883 937.638 537.883Z" fill="#EBEBEB"/>
<path d="M949.572 530.62C949.572 530.62 943.774 532.77 942.148 530.022C940.522 527.274 955.902 510.855 976.698 515.586C976.698 515.586 977.249 529.617 966.059 535.151C954.869 540.685 949.572 530.62 949.572 530.62Z" fill="#EBEBEB"/>
<path d="M919.249 577.308C919.249 577.308 923.67 574.572 918.899 573.236C914.129 571.899 890.725 572.28 890.481 590.055C890.481 590.055 917.74 593.529 921.114 586.758C924.489 579.988 919.249 577.308 919.249 577.308Z" fill="#EBEBEB"/>
<path d="M974.837 537.438C974.837 537.438 970.416 534.702 975.187 533.366C979.958 532.031 1003.36 532.41 1003.61 550.186C1003.61 550.186 976.347 553.659 972.972 546.887C969.6 540.117 974.837 537.438 974.837 537.438Z" fill="#EBEBEB"/>
<path d="M960.427 551.758C960.427 551.758 960.038 548.432 963.54 549.736C967.042 551.039 979.243 561.132 966.596 570.71C966.596 570.71 949.57 561.042 952.639 556.008C955.708 550.971 960.427 551.758 960.427 551.758Z" fill="#EBEBEB"/>
<path d="M915.299 556.498C915.299 556.498 917.942 553.842 914.071 553.514C910.202 553.185 892.86 556.735 896.899 570.007C896.899 570.007 918.025 568.791 918.931 563.277C919.837 557.761 915.299 556.498 915.299 556.498Z" fill="#EBEBEB"/>
<path d="M969.546 657.007H926.932L915.597 616.92H979.804L969.546 657.007Z" fill="#F0F0F0"/>
<path d="M983.501 616.341H911.73V627.868H983.501V616.341Z" fill="#E6E6E6"/>
<path d="M1257.84 665.7C1257.84 670.51 1005.62 674.408 694.5 674.408C383.379 674.408 131.164 670.508 131.164 665.7C131.164 660.891 383.377 656.993 694.5 656.993C1005.62 656.993 1257.84 660.891 1257.84 665.7Z" fill="#F5F5F5"/>
<path d="M1219.45 309.465C1219.3 309.359 1219.17 309.241 1219.01 309.133L1207.25 309.256L1211.24 301.287C1204.42 291.119 1206.01 278.361 1216.55 269.332C1230.2 257.635 1253.64 256.638 1268.89 267.106C1284.15 277.575 1285.45 295.542 1271.79 307.24C1258.14 318.936 1234.71 319.933 1219.45 309.465ZM1284.91 282.227C1285.16 282.207 1285.34 282.032 1285.32 281.838C1284.05 272.566 1276.2 263.882 1265.32 259.712C1265.1 259.623 1264.82 259.697 1264.7 259.872C1264.59 260.048 1264.68 260.261 1264.91 260.349C1275.51 264.411 1283.16 272.876 1284.4 281.913C1284.42 282.096 1284.62 282.231 1284.86 282.231C1284.87 282.228 1284.89 282.228 1284.91 282.227ZM1285.54 290.383C1285.98 288.969 1286.03 287.468 1285.7 286.042C1285.65 285.849 1285.42 285.72 1285.16 285.755C1284.91 285.791 1284.74 285.975 1284.79 286.168C1285.1 287.5 1285.05 288.901 1284.64 290.22C1284.58 290.41 1284.74 290.602 1284.98 290.647C1285.02 290.654 1285.06 290.657 1285.09 290.657C1285.3 290.656 1285.49 290.546 1285.54 290.383Z" fill="#407BFF"/>
<path d="M1243.44 300.388L1226.45 290.688L1230.86 286.143L1242.26 292.646L1257.91 278.329L1263.58 281.97L1243.44 300.388Z" fill="white"/>
<path d="M490.073 585.527C494.582 581.264 503.3 578.42 512.871 577.051C512.121 579.15 512.682 581.087 514.3 581.562C516.106 582.093 518.527 580.607 519.708 578.242C520.042 577.575 520.227 576.915 520.301 576.29C529.95 575.689 539.599 576.54 546.04 578.91C546.04 578.91 539.736 583.266 532.594 594.724C532.376 594.719 532.156 594.713 531.931 594.714C527.311 594.75 523.584 596.461 523.612 598.536C523.633 600.052 525.653 601.339 528.54 601.911C528.164 602.645 527.79 603.391 527.418 604.166C520.616 618.283 502.466 608.078 502.629 598.415C502.629 598.415 479.966 595.079 490.073 585.527Z" fill="#407BFF"/>
<path d="M467.713 567.304C462.155 562.704 451.94 559.96 440.896 558.949C441.956 561.299 441.504 563.538 439.706 564.173C437.7 564.882 434.794 563.325 433.216 560.698C432.772 559.957 432.496 559.215 432.351 558.507C421.291 558.375 410.374 559.899 403.264 562.97C403.264 562.97 410.877 567.577 420.135 580.228C420.385 580.208 420.635 580.189 420.889 580.178C426.162 579.954 430.575 581.69 430.746 584.057C430.871 585.787 428.692 587.37 425.456 588.188C425.956 589.003 426.456 589.833 426.956 590.695C436.09 606.398 455.785 593.723 454.655 582.717C454.659 582.718 480.168 577.615 467.713 567.304Z" fill="#407BFF"/>
<path d="M454.216 563.856C456.577 555.023 466.471 545.812 479.064 538.255C480.046 541.75 482.779 544.246 485.607 543.998C488.763 543.722 490.823 540.148 490.208 536.017C490.034 534.851 489.65 533.781 489.141 532.829C502.609 526.346 517.514 521.979 529.24 521.691C529.24 521.691 524.359 531.705 525.275 552.552C524.949 552.67 524.623 552.79 524.299 552.922C517.599 555.66 513.861 560.318 515.952 563.327C517.48 565.525 521.697 566.226 526.472 565.381C526.65 566.668 526.842 567.974 527.063 569.321C531.102 593.848 494.564 589.521 485.252 575.344C485.252 575.344 448.929 583.651 454.216 563.856Z" fill="#407BFF"/>
<path opacity="0.2" d="M454.216 563.856C456.577 555.023 466.471 545.812 479.064 538.255C480.046 541.75 482.779 544.246 485.607 543.998C488.763 543.722 490.823 540.148 490.208 536.017C490.034 534.851 489.65 533.781 489.141 532.829C502.609 526.346 517.514 521.979 529.24 521.691C529.24 521.691 524.359 531.705 525.275 552.552C524.949 552.67 524.623 552.79 524.299 552.922C517.599 555.66 513.861 560.318 515.952 563.327C517.48 565.525 521.697 566.226 526.472 565.381C526.65 566.668 526.842 567.974 527.063 569.321C531.102 593.848 494.564 589.521 485.252 575.344C485.252 575.344 448.929 583.651 454.216 563.856Z" fill="white"/>
<path d="M525.686 585.489C525.546 585.324 525.259 585.277 525.048 585.381C511.441 592.066 484.363 607.04 479.416 609.785C477.455 586.961 486.706 563.584 505.231 545.629L504.503 545.188C486.193 562.937 476.901 585.944 478.422 608.525C473.162 598.108 458.759 578.871 435.618 569.66C435.394 569.569 435.113 569.636 434.994 569.81C434.876 569.985 434.964 570.198 435.19 570.289C459.522 579.976 474.127 600.911 478.449 610.63C478.472 610.679 478.542 610.696 478.588 610.733C478.892 613.798 479.374 616.851 480.085 619.878L480.996 619.753C480.287 616.727 479.803 613.674 479.503 610.611C482.89 608.731 511.459 592.898 525.546 585.98C525.761 585.873 525.824 585.655 525.686 585.489Z" fill="#263238"/>
<path d="M518.071 628.103H441.187L441.217 617.305H517.993L518.071 628.103Z" fill="#263238"/>
<path d="M446.758 624.583L458.77 662.898H503.007L513.719 624.583H446.758Z" fill="#263238"/>
<path opacity="0.3" d="M447.862 628.103H512.735L511.548 632.345H449.016L447.862 628.103Z" fill="black"/>
<path d="M452.314 615.445H445.475C445.219 615.445 445.012 615.286 445.012 615.09C445.012 614.894 445.219 614.735 445.475 614.735H452.314C452.57 614.735 452.777 614.894 452.777 615.09C452.777 615.286 452.57 615.445 452.314 615.445ZM474.636 615.09C474.636 614.894 474.429 614.735 474.173 614.735H455.457C455.201 614.735 454.994 614.894 454.994 615.09C454.994 615.286 455.201 615.445 455.457 615.445H474.173C474.429 615.445 474.636 615.286 474.636 615.09Z" fill="#407BFF"/>
<path d="M1001.21 328.204C988.731 351.396 958.316 365.876 925.674 364.165C917.451 363.737 909.378 362.275 901.776 359.835C862.893 347.504 844.408 313.34 860.491 283.527C876.572 253.714 921.131 239.541 960.014 251.872C998.893 264.202 1017.38 298.36 1001.3 328.173L1001.21 328.204Z" fill="#407BFF"/>
<path opacity="0.7" d="M1001.21 328.204C988.731 351.396 958.316 365.876 925.674 364.165C917.451 363.737 909.378 362.275 901.776 359.835C862.893 347.504 844.408 313.34 860.491 283.527C876.572 253.714 921.131 239.541 960.014 251.872C998.893 264.202 1017.38 298.36 1001.3 328.173L1001.21 328.204Z" fill="white"/>
<path opacity="0.4" d="M990.953 270.875L857.754 313.255C857.578 312.387 857.398 311.553 857.267 310.687C856.422 305.138 856.659 299.522 857.97 294.025L972.998 257.427C979.947 261.085 986.02 265.635 990.953 270.875ZM998.069 280.346L861.345 323.851C865.23 332.02 871.529 339.388 879.748 345.379L1004.98 305.565C1005.23 296.865 1002.86 288.236 998.069 280.346Z" fill="white"/>
<path d="M963.747 243.781C963.67 243.756 963.59 243.732 963.512 243.707C919.924 229.953 870.044 245.897 852.105 279.318C834.85 311.464 853.442 348.06 893.672 363.047C888.227 369.485 884.76 376.679 879.667 383.217C876.874 386.968 841.434 439.304 838.795 443.105L834.758 448.782C833.054 450.873 832.87 453.414 834.265 455.657C835.684 458.166 839.652 459.525 843.336 458.761C846.703 458.139 849.429 456.465 850.711 454.229L854.57 448.483C857.183 444.68 892.036 392.151 894.499 388.282C898.735 381.249 902.83 374.15 906.258 366.841C947.776 376.538 992.887 360.667 1009.86 329.309C1027.93 295.925 1007.28 257.635 963.747 243.781ZM999.63 326.049C984.003 355.152 940.566 369.032 902.607 357.052C902.567 357.039 902.524 357.026 902.481 357.012L902.478 357.087C864.541 345.067 846.497 311.741 862.176 282.655C877.854 253.568 921.318 239.733 959.254 251.755C997.119 263.754 1015.18 296.984 999.63 326.049Z" fill="#263238"/>
<path d="M1003.04 256.228C1001.59 257.038 1000.21 255.189 1001.64 254.389C1011.01 249.13 1020.39 243.874 1029.76 238.615C1031.21 237.804 1032.59 239.653 1031.17 240.454C1021.79 245.711 1012.42 250.969 1003.04 256.228ZM1011.53 266.569C1018.86 266.569 1026.18 266.569 1033.51 266.569C1035.3 266.569 1035.3 264.439 1033.51 264.439C1026.18 264.439 1018.86 264.439 1011.53 264.439C1009.74 264.439 1009.74 266.569 1011.53 266.569ZM993.478 247.604C994.717 241.9 995.954 236.197 997.193 230.493C997.483 229.152 994.807 228.576 994.515 229.926C993.276 235.63 992.039 241.333 990.8 247.037C990.507 248.378 993.183 248.954 993.478 247.604Z" fill="#263238"/>
<path d="M717.772 628.659H646.089C654.499 518.469 654.795 404.532 646.089 286.439H717.772C705.608 389.688 706.023 504.13 717.772 628.659Z" fill="#407BFF"/>
<path opacity="0.8" d="M717.772 628.659H646.089C654.499 518.469 654.795 404.532 646.089 286.439H717.772C705.608 389.688 706.023 504.13 717.772 628.659Z" fill="white"/>
<path d="M879.791 619.279C865.901 615.618 838.097 616.273 838.097 616.273C838.097 616.273 829.413 606.567 822.314 602.252C802.579 590.255 772.578 589.433 751.777 600.318C731.655 571.614 687.659 553.896 645.416 557.489C603.174 561.08 565.308 585.758 553.879 617.145C518.569 611.919 481.031 635.704 481.07 663.278L922.24 664.496C924.415 645.326 910.536 627.381 879.791 619.279Z" fill="#407BFF"/>
<g opacity="0.7">
<path d="M879.791 619.279C865.901 615.618 838.097 616.273 838.097 616.273C838.097 616.273 829.413 606.567 822.314 602.252C802.579 590.255 772.578 589.433 751.777 600.318C731.655 571.614 687.659 553.896 645.416 557.489C603.174 561.08 565.308 585.758 553.879 617.145C518.569 611.919 481.031 635.704 481.07 663.278L922.24 664.496C924.415 645.326 910.536 627.381 879.791 619.279Z" fill="white"/>
</g>
<path d="M632.126 526.469C630.054 524.958 626.685 523.006 621.237 524.807C618.324 525.521 615.627 528.432 615.697 530.776C615.768 533.122 617.757 535.322 620.487 536.381C623.217 537.44 626.563 537.403 629.374 536.479C631.682 535.719 633.727 534.305 634.447 532.46C635.267 530.362 634.199 527.982 632.126 526.469Z" fill="#407BFF"/>
<g opacity="0.8">
<path d="M632.126 526.469C630.054 524.958 626.685 523.006 621.237 524.807C618.324 525.521 615.627 528.432 615.697 530.776C615.768 533.122 617.757 535.322 620.487 536.381C623.217 537.44 626.563 537.403 629.374 536.479C631.682 535.719 633.727 534.305 634.447 532.46C635.267 530.362 634.199 527.982 632.126 526.469Z" fill="white"/>
</g>
<path d="M635.801 173.399C635.801 173.399 608.873 183.81 600.767 209.886C594.859 228.904 596.648 264.792 607.295 267.671C617.942 270.551 619.129 248.328 619.218 240.429C619.307 232.529 628.961 222.884 637.564 222.308C637.564 222.308 639.247 180.605 635.801 173.399Z" fill="#407BFF"/>
<path opacity="0.2" d="M639.833 178.568C633.464 180.429 628.228 184.001 623.985 187.995C619.468 192.39 615.751 197.236 612.94 202.401C609.821 207.918 607.547 213.693 606.163 219.611C604.871 225.847 604.239 232.153 604.276 238.466C604.134 246.188 603.885 254.231 607.819 261.511C607.969 261.804 608.599 261.675 608.439 261.382C605.037 255.039 604.834 248.111 604.897 241.353C604.967 234.976 605.091 228.57 606.269 222.247C608.376 211.013 613.719 199.65 622.409 190.399C626.919 185.604 632.702 181.182 640.02 179.043C640.409 178.928 640.242 178.453 639.851 178.568H639.833Z" fill="black"/>
<path d="M728.06 173.399C728.06 173.399 754.988 183.81 763.094 209.886C769.002 228.904 767.213 264.792 756.566 267.671C745.919 270.551 744.732 248.328 744.643 240.429C744.554 232.529 734.899 222.884 726.297 222.308C726.297 222.308 724.613 180.605 728.06 173.399Z" fill="#407BFF"/>
<path opacity="0.2" d="M723.862 179.036C730.266 180.911 735.501 184.552 739.718 188.62C744.126 192.982 747.749 197.78 750.49 202.882C753.56 208.372 755.794 214.114 757.142 219.998C758.551 226.192 758.835 232.488 758.914 238.764C759.048 246.351 759.261 254.222 755.425 261.375C755.275 261.667 755.894 261.795 756.046 261.504C759.492 255.079 759.668 248.043 759.589 241.197C759.518 234.737 759.366 228.251 758.144 221.846C756.962 215.749 754.833 209.781 751.801 204.072C749.166 198.915 745.68 194.037 741.428 189.558C736.937 184.892 731.205 180.668 724.03 178.569C723.641 178.454 723.473 178.93 723.862 179.045V179.036Z" fill="black"/>
<path d="M718.802 252.641H644.392C644.392 252.641 630.769 212.5 636.11 167.49C637.551 155.564 641.499 143.893 647.804 132.933C647.893 132.763 647.989 132.594 648.087 132.43C649.646 129.714 651.285 127.154 652.967 124.716C659.577 115.122 667.82 106.244 677.478 98.3149C679.623 96.4391 683.345 96.2517 685.792 97.8975C685.985 98.0281 686.168 98.1673 686.336 98.3149C696.304 106.498 704.762 115.69 711.475 125.633C713.159 128.125 714.798 130.753 716.348 133.511L716.622 134C722.567 144.654 726.308 155.953 727.712 167.49C733.048 212.527 718.802 252.641 718.802 252.641Z" fill="#407BFF"/>
<path opacity="0.7" d="M718.802 252.641H644.392C644.392 252.641 630.769 212.5 636.11 167.49C637.551 155.564 641.499 143.893 647.804 132.933C647.893 132.763 647.989 132.594 648.087 132.43C649.646 129.714 651.285 127.154 652.967 124.716C659.577 115.122 667.82 106.244 677.478 98.3149C679.623 96.4391 683.345 96.2517 685.792 97.8975C685.985 98.0281 686.168 98.1673 686.336 98.3149C696.304 106.498 704.762 115.69 711.475 125.633C713.159 128.125 714.798 130.753 716.348 133.511L716.622 134C722.567 144.654 726.308 155.953 727.712 167.49C733.048 212.527 718.802 252.641 718.802 252.641Z" fill="white"/>
<path d="M718.97 252.641H645.589C645.589 252.641 639.92 262.007 645.279 267.923H663.084C662.616 269.526 662.423 271.664 663.883 273.289H701.495C702.551 271.325 702.319 269.367 701.847 267.923H720.496C724.613 260.282 718.97 252.641 718.97 252.641Z" fill="#263238"/>
<path d="M701.512 273.288H664.007C656.415 276.378 637.529 283.754 640.17 296.25H726.315C728.955 283.754 709.103 276.372 701.512 273.288Z" fill="#407BFF"/>
<path d="M728.91 293.609H636.936V299.049H728.91V293.609Z" fill="#263238"/>
<path d="M711.477 125.632C704.692 129.353 694.309 133.524 681.908 133.524C671.154 133.477 660.818 130.325 652.96 124.694C653.669 123.666 654.382 122.667 655.104 121.692L655.451 121.237C661.592 112.954 668.983 105.253 677.473 98.2937C679.617 96.4179 683.34 96.2304 685.786 97.8748C685.979 98.0054 686.162 98.1446 686.331 98.2937C694.844 105.269 702.254 112.991 708.405 121.298L708.751 121.766C709.675 123.02 710.585 124.31 711.477 125.632Z" fill="#407BFF"/>
<path d="M654.776 246.922H710.575V247.574H654.776V246.922ZM708.412 121.325C702.973 124.326 696.741 126.378 690.155 127.335C680.919 128.639 671.383 127.689 662.89 124.619C660.277 123.682 657.784 122.556 655.449 121.256L655.104 121.711C660.855 124.89 667.474 127.023 674.459 127.946C683.779 129.135 693.35 128.081 701.858 124.93C704.271 124.035 706.581 122.983 708.759 121.785L708.412 121.325ZM717.572 174.675C714.161 148.268 711.496 137.7 711.185 136.538C712.47 136.002 713.674 135.458 714.728 134.928C715.374 134.623 715.994 134.31 716.587 133.998L716.313 133.51C715.685 133.836 715.037 134.188 714.365 134.488C707.279 137.917 695.895 142.014 682.182 142.014C671.376 142.018 660.827 139.476 651.967 134.734C650.506 133.96 649.204 133.179 648.043 132.43C647.944 132.594 647.848 132.763 647.759 132.933C648.885 133.653 650.15 134.4 651.55 135.154C652.435 135.63 653.437 136.125 654.491 136.614C654.11 138.081 651.48 148.738 648.131 174.648C645.474 194.889 647.902 215.026 650.363 228.358C651.824 236.54 653.841 244.659 656.404 252.68C656.441 252.788 656.569 252.863 656.714 252.863H656.793C656.962 252.826 657.064 252.696 657.023 252.565C654.465 244.559 652.456 236.457 651 228.292C648.537 214.993 646.155 194.902 648.769 174.711C652.011 149.621 654.58 138.856 655.075 136.866C663.288 140.604 672.665 142.575 682.216 142.572C692.137 142.475 701.875 140.502 710.562 136.825C711.005 138.551 713.601 149.254 716.896 174.758C719.509 194.95 717.126 215.04 714.665 228.34C713.209 236.506 711.198 244.609 708.64 252.615C708.601 252.745 708.701 252.878 708.87 252.913H708.949C709.096 252.913 709.223 252.838 709.259 252.73C711.822 244.708 713.839 236.59 715.3 228.408C717.802 215.053 720.195 194.916 717.572 174.675ZM706.862 183.81C706.862 183.806 706.862 183.802 706.862 183.796C706.856 173.356 695.815 164.897 682.201 164.901C668.585 164.906 657.553 173.37 657.558 183.81C657.564 194.25 668.603 202.709 682.219 202.705C695.822 202.695 706.847 194.242 706.862 183.81ZM706.225 183.81C706.225 193.976 695.478 202.216 682.219 202.216C668.961 202.216 658.214 193.976 658.214 183.81C658.214 173.644 668.961 165.404 682.219 165.404C695.47 165.416 706.21 173.65 706.225 183.81Z" fill="#407BFF"/>
<path d="M700.882 183.805C700.882 191.709 692.526 198.116 682.218 198.116H681.784C678.625 198.067 675.536 197.399 672.811 196.173C670.704 195.227 668.857 193.978 667.372 192.492C664.887 190 663.544 186.949 663.555 183.812C663.557 183.255 663.598 182.7 663.679 182.148C664.696 175.569 671.461 170.383 680.04 169.603C680.764 169.541 681.492 169.51 682.219 169.508C692.35 169.517 700.625 175.714 700.875 183.48C700.882 183.586 700.882 183.696 700.882 183.805Z" fill="#407BFF"/>
<path opacity="0.1" d="M693.531 172.454L667.374 192.51C664.888 190.02 663.546 186.967 663.557 183.83C663.559 183.273 663.599 182.718 663.681 182.166L680.041 169.622C680.766 169.559 681.493 169.528 682.221 169.526C686.307 169.524 690.281 170.552 693.531 172.454ZM698.332 176.604L672.811 196.164C675.537 197.39 678.627 198.058 681.784 198.107L700.873 183.471C700.808 181.053 699.934 178.688 698.332 176.604Z" fill="white"/>
<path d="M481.642 130.391C454.64 130.148 432.492 146.734 432.175 167.439C432.003 178.674 438.413 189.377 449.638 196.599C451.705 197.905 454.859 199.486 454.788 202.76C454.786 202.861 455.005 210.954 455.005 210.954H506.433C506.433 210.954 506.652 202.546 506.652 202.449C506.652 199.567 509.563 198.323 511.706 197.023C523.083 190.03 529.779 179.501 529.959 168.321C530.276 147.616 508.644 130.634 481.642 130.391Z" fill="#407BFF"/>
<path opacity="0.4" d="M481.642 130.391C454.64 130.148 432.492 146.734 432.175 167.439C432.003 178.674 438.413 189.377 449.638 196.599C451.705 197.905 454.859 199.486 454.788 202.76C454.786 202.861 455.005 210.954 455.005 210.954H506.433C506.433 210.954 506.652 202.546 506.652 202.449C506.652 199.567 509.563 198.323 511.706 197.023C523.083 190.03 529.779 179.501 529.959 168.321C530.276 147.616 508.644 130.634 481.642 130.391Z" fill="white"/>
<path opacity="0.2" d="M505.948 146.547C505.948 153.845 494.806 159.777 480.992 159.777C467.178 159.777 456.036 153.845 456.036 146.547C456.036 139.248 467.178 133.302 480.992 133.302C494.806 133.302 505.948 139.235 505.948 146.547Z" fill="white"/>
<path d="M443.411 182.309C439.08 176.614 437.385 169.884 438.641 163.362C439.896 156.84 444.052 150.774 450.347 146.28L450.979 146.8C444.837 151.183 440.782 157.103 439.557 163.466C438.331 169.829 439.985 176.394 444.211 181.952L443.411 182.309Z" fill="white"/>
<path d="M495.145 202.98C492.675 197.99 490.613 192.858 488.976 187.624C486.476 189.257 483.748 190.077 481.1 189.991C478.985 189.912 476.871 189.256 474.703 187.998C474.353 193.068 473.243 198.101 471.38 202.96L469.604 202.56C471.558 197.461 472.666 192.165 472.917 186.836C472.573 186.588 472.225 186.323 471.877 186.045C466.374 181.652 463.804 176.205 464.998 171.475C465.459 169.647 466.908 167.821 469.128 167.866C471.14 167.905 472.619 169.398 473.29 172.072C474.456 176.738 474.956 181.491 474.795 186.225C477.034 187.726 479.14 188.497 481.192 188.574C484.267 188.692 486.883 187.232 488.496 186.042C487.309 182.024 486.37 177.948 485.685 173.836C485.435 172.332 485.246 170.863 485.678 169.425C486.211 167.645 487.715 166.303 489.511 166.009C492.617 165.489 495.129 168.01 495.98 170.756C497.655 176.149 495.545 182.298 490.606 186.42C490.58 186.441 490.556 186.461 490.53 186.483C492.189 191.94 494.312 197.287 496.88 202.479L495.145 202.98ZM469.054 169.285C468.002 169.285 467.117 170.546 466.815 171.743C465.752 175.952 468.05 180.841 472.971 184.865C473.003 180.67 472.504 176.469 471.469 172.338C471.102 170.877 470.282 169.306 469.08 169.285C469.071 169.285 469.062 169.285 469.054 169.285ZM490.287 167.364C490.156 167.364 490.026 167.374 489.895 167.395C488.65 167.599 487.785 168.721 487.48 169.741C487.117 170.951 487.291 172.282 487.519 173.654C488.141 177.393 488.976 181.099 490.019 184.76C493.928 181.035 495.595 175.659 494.175 171.083C493.582 169.174 492.006 167.364 490.287 167.364Z" fill="#263238"/>
<path d="M509.348 208.572H452.357C450.716 208.572 449.386 209.592 449.386 210.85V211.054C449.386 212.151 450.397 213.065 451.742 213.282C450.938 213.69 450.406 214.387 450.406 215.182V215.232C450.406 216.254 451.29 217.109 452.499 217.398C451.732 217.809 451.229 218.49 451.229 219.262V219.312C451.229 220.57 452.558 221.589 454.199 221.589H455.451C454.651 221.998 454.123 222.694 454.123 223.485V223.535C454.123 224.793 455.453 225.812 457.094 225.812H462.926C467.141 230.635 474.371 235.148 481.542 234.824C488.474 234.51 495.028 230.565 498.623 225.812H504.611C506.252 225.812 507.581 224.793 507.581 223.535V223.485C507.581 222.693 507.054 221.997 506.253 221.589H507.505C509.146 221.589 510.476 220.57 510.476 219.312V219.262C510.476 218.49 509.972 217.809 509.206 217.398C510.415 217.109 511.298 216.254 511.298 215.232V215.182C511.298 214.389 510.767 213.69 509.963 213.282C511.308 213.065 512.319 212.151 512.319 211.054V210.85C512.319 209.592 510.989 208.572 509.348 208.572Z" fill="#263238"/>
<path opacity="0.3" d="M509.348 208.572H452.357C450.716 208.572 449.386 209.592 449.386 210.85V211.054C449.386 212.151 450.397 213.065 451.742 213.282C450.938 213.69 450.406 214.387 450.406 215.182V215.232C450.406 216.254 451.29 217.109 452.499 217.398C451.732 217.809 451.229 218.49 451.229 219.262V219.312C451.229 220.57 452.558 221.589 454.199 221.589H455.451C454.651 221.998 454.123 222.694 454.123 223.485V223.535C454.123 224.793 455.453 225.812 457.094 225.812H504.611C506.252 225.812 507.581 224.793 507.581 223.535V223.485C507.581 222.693 507.054 221.997 506.253 221.589H507.505C509.146 221.589 510.476 220.57 510.476 219.312V219.262C510.476 218.49 509.972 217.809 509.206 217.398C510.415 217.109 511.298 216.254 511.298 215.232V215.182C511.298 214.389 510.767 213.69 509.963 213.282C511.308 213.065 512.319 212.151 512.319 211.054V210.85C512.319 209.592 510.989 208.572 509.348 208.572Z" fill="white"/>
<path d="M453.859 116.856C453.225 116.37 454.209 115.618 454.84 116.103C458.557 118.953 462.272 121.802 465.989 124.652C466.623 125.137 465.639 125.89 465.008 125.404C461.292 122.554 457.575 119.705 453.859 116.856ZM483.113 121.984C483.113 116.592 483.113 111.202 483.113 105.811C483.113 105.125 481.724 105.125 481.724 105.811C481.724 111.203 481.724 116.593 481.724 121.984C481.724 122.668 483.113 122.67 483.113 121.984ZM498.545 126.097C502.562 123.017 506.581 119.936 510.598 116.856C511.232 116.37 510.248 115.618 509.617 116.103C505.6 119.183 501.581 122.265 497.564 125.345C496.929 125.829 497.912 126.583 498.545 126.097Z" fill="#263238"/>
<path d="M298.789 274.5L185.804 258.985C181.95 258.456 179.387 255.633 180.076 252.678L210.534 122.279C211.224 119.324 214.906 117.359 218.76 117.887L331.745 133.402C335.599 133.932 338.162 136.755 337.473 139.71L307.015 270.108C306.324 273.063 302.643 275.03 298.789 274.5Z" fill="#263238"/>
<path d="M331.894 137.903L216.556 122.063L185.676 254.252L301.014 270.092L331.894 137.903Z" fill="white"/>
<path opacity="0.3" d="M244.575 121.454C244.038 122.073 239.515 134.086 239.515 134.086C239.515 134.086 307.838 144.366 307.03 144.242C306.223 144.119 308.177 130.189 307.891 130.149C307.608 130.109 244.575 121.454 244.575 121.454Z" fill="black"/>
<path d="M165.604 161.833C151.179 153.434 148.364 137.659 159.318 126.597C170.273 115.535 190.847 113.378 205.274 121.778C216.41 128.261 220.592 139.137 216.895 148.851L222.11 155.258L211.867 156.669C211.76 156.781 211.671 156.901 211.56 157.014C200.605 168.075 180.031 170.232 165.604 161.833ZM148.73 141.838C148.986 141.821 149.175 141.649 149.153 141.453C148.247 133.457 153.027 125.132 161.328 120.243C161.53 120.123 161.568 119.9 161.413 119.744C161.255 119.588 160.965 119.561 160.763 119.679C152.218 124.711 147.297 133.283 148.229 141.513C148.249 141.697 148.453 141.838 148.688 141.838C148.703 141.839 148.716 141.839 148.73 141.838ZM150.529 149.158C150.762 149.077 150.866 148.867 150.758 148.688C150.118 147.602 149.768 146.398 149.749 145.203C149.745 145.007 149.564 144.826 149.28 144.854C149.025 144.857 148.821 145.017 148.823 145.213C148.845 146.504 149.223 147.806 149.916 148.981C149.993 149.111 150.16 149.189 150.338 149.189C150.401 149.189 150.468 149.179 150.529 149.158Z" fill="#407BFF"/>
<path opacity="0.5" d="M165.604 161.833C151.179 153.434 148.364 137.659 159.318 126.597C170.273 115.535 190.847 113.378 205.274 121.778C216.41 128.261 220.592 139.137 216.895 148.851L222.11 155.258L211.867 156.669C211.76 156.781 211.671 156.901 211.56 157.014C200.605 168.075 180.031 170.232 165.604 161.833ZM148.73 141.838C148.986 141.821 149.175 141.649 149.153 141.453C148.247 133.457 153.027 125.132 161.328 120.243C161.53 120.123 161.568 119.9 161.413 119.744C161.255 119.588 160.965 119.561 160.763 119.679C152.218 124.711 147.297 133.283 148.229 141.513C148.249 141.697 148.453 141.838 148.688 141.838C148.703 141.839 148.716 141.839 148.73 141.838ZM150.529 149.158C150.762 149.077 150.866 148.867 150.758 148.688C150.118 147.602 149.768 146.398 149.749 145.203C149.745 145.007 149.564 144.826 149.28 144.854C149.025 144.857 148.821 145.017 148.823 145.213C148.845 146.504 149.223 147.806 149.916 148.981C149.993 149.111 150.16 149.189 150.338 149.189C150.401 149.189 150.468 149.179 150.529 149.158Z" fill="white"/>
<path d="M183.337 152.787L168.306 144.205L172.212 140.182L182.292 145.937L196.142 133.27L201.153 136.49L183.337 152.787Z" fill="white"/>
<path d="M308.684 188.808L221.616 176.029L222.188 173.733L309.256 186.511L308.684 188.808ZM293.053 242.224L205.792 230.242L205.255 232.542L292.516 244.524L293.053 242.224ZM295.507 233.272L208.246 221.29L207.709 223.59L294.97 235.572L295.507 233.272ZM297.963 224.32L210.702 212.338L210.165 214.639L297.426 226.621L297.963 224.32ZM300.418 215.37L213.158 203.388L212.621 205.688L299.881 217.67L300.418 215.37ZM302.872 206.418L215.612 194.436L215.075 196.737L302.335 208.719L302.872 206.418ZM291.092 250.766L203.831 238.784L203.294 241.085L290.555 253.067L291.092 250.766ZM307.917 193.404L220.849 180.625L220.277 182.92L307.345 195.699L307.917 193.404ZM304.411 200.183L217.343 187.405L216.771 189.699L303.839 202.478L304.411 200.183ZM315.333 157.022L228.265 144.244L227.692 146.538L314.76 159.317L315.333 157.022ZM311.142 171.366L224.073 158.587L223.501 160.882L310.569 173.66L311.142 171.366ZM257.265 156.219L226.594 151.717L226.022 154.012L256.693 158.513L257.265 156.219ZM313.308 164.371L260.5 156.62L259.928 158.915L312.736 166.665L313.308 164.371ZM253.704 170.772L223.033 166.271L222.46 168.565L253.131 173.067L253.704 170.772ZM309.747 178.924L256.939 171.174L256.367 173.469L309.175 181.219L309.747 178.924Z" fill="#263238"/>
<path d="M283.886 120.683L287.104 114.091L271.777 111.987L271.62 118.999L247.592 115.7L243.664 132.523L304.717 140.907L308.647 124.084L283.886 120.683Z" fill="#263238"/>
<path d="M991.381 384.781H772.803V444.058H991.381V384.781Z" fill="#407BFF"/>
<path d="M832.376 411.489H828.016V409.519H839.891V411.489H835.532V419.968H832.378V411.489H832.376ZM852.135 418.028V419.968H841.584V409.519H851.883V411.459H844.719V413.728H851.046V415.608H844.719V418.026L852.135 418.028ZM855.998 419.811C854.992 419.588 854.187 419.297 853.574 418.938L854.644 417.118C855.228 417.446 855.922 417.71 856.728 417.91C857.533 418.109 858.337 418.208 859.143 418.208C860.037 418.208 860.7 418.106 861.128 417.902C861.554 417.697 861.771 417.427 861.771 417.089C861.771 416.839 861.645 416.633 861.391 416.47C861.137 416.307 860.811 416.175 860.419 416.075C860.023 415.976 859.487 415.867 858.813 415.747C857.774 415.559 856.924 415.368 856.263 415.181C855.602 414.993 855.033 414.688 854.559 414.269C854.085 413.852 853.848 413.295 853.848 412.598C853.848 411.99 854.061 411.441 854.491 410.949C854.918 410.455 855.565 410.066 856.428 409.778C857.291 409.489 858.345 409.345 859.591 409.345C860.461 409.345 861.312 409.424 862.141 409.583C862.971 409.742 863.699 409.971 864.323 410.269L863.351 412.105C862.089 411.557 860.832 411.284 859.572 411.284C858.689 411.284 858.039 411.394 857.617 411.612C857.193 411.831 856.983 412.119 856.983 412.477C856.983 412.835 857.226 413.1 857.715 413.277C858.202 413.45 858.943 413.622 859.943 413.791C860.982 413.979 861.832 414.17 862.493 414.357C863.154 414.546 863.723 414.846 864.197 415.253C864.671 415.661 864.908 416.213 864.908 416.91C864.908 417.507 864.69 418.052 864.254 418.543C863.821 419.036 863.167 419.427 862.297 419.715C861.426 420.003 860.371 420.148 859.124 420.148C858.046 420.147 857.004 420.034 855.998 419.811ZM869.694 411.489H865.334V409.519H877.209V411.489H872.848V419.968H869.694V411.489ZM878.9 409.521H882.054V419.969H878.9V409.521ZM897.783 409.521V419.969H895.194L888.399 413.626V419.969H885.284V409.521H887.893L894.666 415.864V409.521H897.783ZM910.221 414.579H913.103V418.817C912.364 419.246 911.508 419.574 910.534 419.803C909.56 420.031 908.58 420.145 907.593 420.145C906.178 420.145 904.908 419.914 903.78 419.452C902.65 418.989 901.765 418.347 901.122 417.527C900.478 416.706 900.159 415.779 900.159 414.743C900.159 413.708 900.479 412.781 901.122 411.96C901.765 411.139 902.656 410.498 903.796 410.033C904.939 409.57 906.224 409.34 907.652 409.34C908.847 409.34 909.928 409.494 910.903 409.802C911.875 410.111 912.693 410.559 913.355 411.145L911.33 412.578C910.358 411.791 909.182 411.399 907.808 411.399C906.937 411.399 906.165 411.538 905.491 411.817C904.817 412.095 904.291 412.49 903.913 412.997C903.537 413.504 903.348 414.086 903.348 414.742C903.348 415.388 903.537 415.965 903.913 416.473C904.289 416.98 904.811 417.378 905.482 417.66C906.148 417.944 906.911 418.086 907.767 418.086C908.675 418.086 909.493 417.937 910.219 417.639V414.579H910.221Z" fill="white"/>
<path opacity="0.3" d="M991.381 384.709H974.409V443.985H991.381V384.709Z" fill="black"/>
<path d="M790.022 317.329H553.507V376.605H790.022V317.329Z" fill="#407BFF"/>
<path d="M576.25 339.847H579.404V350.294H576.25V339.847ZM595.035 350.294L595.014 344.025L591.005 349.191H589.582L585.591 344.159V350.294H582.632V339.847H585.241L590.342 346.339L595.362 339.847H597.952L597.99 350.294H595.035ZM610.267 340.308C611.154 340.618 611.842 341.055 612.319 341.623C612.801 342.19 613.042 342.862 613.042 343.638C613.042 344.404 612.801 345.074 612.319 345.645C611.84 346.217 611.154 346.656 610.267 346.958C609.378 347.262 608.33 347.414 607.125 347.414H604.38V350.294H601.226V339.847H607.126C608.33 339.847 609.378 340.002 610.267 340.308ZM609.108 344.973C609.602 344.659 609.847 344.215 609.847 343.637C609.847 343.049 609.601 342.6 609.108 342.286C608.615 341.973 607.895 341.815 606.949 341.815H604.378V345.443H606.949C607.895 345.443 608.615 345.287 609.108 344.973ZM615.279 339.847H618.433V348.324H625.267V350.295H615.279V339.847ZM637.588 348.354V350.294H627.037V339.847H637.336V341.787H630.173V344.056H636.499V345.936H630.173V348.354H637.588ZM652.5 350.294L652.48 344.025L648.47 349.191H647.048L643.057 344.159V350.294H640.097V339.847H642.707L647.807 346.339L652.828 339.847H655.417L655.458 350.294H652.5ZM669.241 348.354V350.294H658.69V339.847H668.987V341.787H661.823V344.056H668.15V345.936H661.823V348.354H669.241ZM684.247 339.847V350.294H681.66L674.865 343.951V350.294H671.75V339.847H674.359L681.132 346.19V339.847H684.247ZM690.303 341.816H685.944V339.847H697.819V341.816H693.459V350.295H690.305L690.303 341.816ZM707.805 348.056H701.478L700.273 350.294H697.041L703.114 339.847H706.229L712.322 350.294H709.014L707.805 348.056ZM706.81 346.22L704.651 342.22L702.49 346.22H706.81ZM715.883 341.816H711.524V339.847H723.399V341.816H719.039V350.295H715.885V341.816H715.883ZM725.091 339.847H728.245V350.294H725.091V339.847ZM734.249 349.771C733.114 349.304 732.225 348.659 731.584 347.839C730.94 347.018 730.62 346.096 730.62 345.071C730.62 344.046 730.94 343.123 731.584 342.302C732.227 341.481 733.114 340.838 734.249 340.37C735.385 339.902 736.661 339.669 738.074 339.669C739.487 339.669 740.759 339.902 741.891 340.37C743.019 340.838 743.908 341.481 744.556 342.302C745.206 343.123 745.528 344.047 745.528 345.071C745.528 346.096 745.204 347.018 744.556 347.839C743.906 348.659 743.019 349.304 741.891 349.771C740.761 350.24 739.489 350.473 738.074 350.473C736.659 350.473 735.385 350.24 734.249 349.771ZM740.255 347.989C740.904 347.707 741.413 347.309 741.782 346.802C742.152 346.295 742.337 345.717 742.337 345.071C742.337 344.425 742.152 343.847 741.782 343.339C741.413 342.832 740.902 342.436 740.255 342.153C739.605 341.869 738.88 341.727 738.074 341.727C737.268 341.727 736.542 341.869 735.894 342.153C735.244 342.436 734.735 342.832 734.366 343.339C733.996 343.846 733.811 344.425 733.811 345.071C733.811 345.717 733.996 346.294 734.366 346.802C734.735 347.309 735.246 347.707 735.894 347.989C736.542 348.273 737.268 348.415 738.074 348.415C738.88 348.414 739.605 348.273 740.255 347.989ZM760.402 339.847V350.294H757.812L751.017 343.951V350.294H747.902V339.847H750.512L757.285 346.19V339.847H760.402Z" fill="white"/>
<path opacity="0.3" d="M790.021 317.329H773.049V376.605H790.021V317.329Z" fill="black"/>
<path d="M588.806 306.541H370.23V247.884H588.806V306.541ZM420.034 311.416C440.993 311.416 461.95 311.416 482.909 311.416C484.696 311.416 484.7 309.286 482.909 309.286C461.95 309.286 440.993 309.286 420.034 309.286C418.246 309.286 418.243 311.416 420.034 311.416Z" fill="#407BFF"/>
<path d="M433.994 271.67H440.185C441.665 271.67 442.972 271.886 444.108 272.319C445.243 272.752 446.126 273.361 446.756 274.147C447.386 274.933 447.701 275.848 447.701 276.894C447.701 277.938 447.386 278.855 446.756 279.641C446.126 280.427 445.245 281.036 444.108 281.47C442.971 281.903 441.665 282.119 440.185 282.119H433.994V271.67ZM440.03 280.132C441.391 280.132 442.478 279.842 443.291 279.26C444.102 278.678 444.506 277.888 444.506 276.894C444.506 275.899 444.1 275.111 443.291 274.529C442.48 273.946 441.393 273.655 440.03 273.655H437.148V280.132H440.03ZM460.624 280.177V282.117H450.073V271.67H460.372V273.61H453.208V275.879H459.535V277.759H453.208V280.177H460.624ZM464.487 281.961C463.482 281.738 462.674 281.447 462.063 281.088L463.133 279.267C463.717 279.595 464.411 279.859 465.217 280.06C466.021 280.258 466.826 280.358 467.632 280.358C468.526 280.358 469.189 280.255 469.617 280.051C470.043 279.846 470.26 279.577 470.26 279.239C470.26 278.989 470.134 278.783 469.88 278.62C469.626 278.456 469.301 278.324 468.908 278.225C468.512 278.125 467.976 278.016 467.302 277.897C466.263 277.708 465.413 277.518 464.752 277.33C464.091 277.141 463.522 276.838 463.048 276.419C462.574 276.001 462.337 275.443 462.337 274.747C462.337 274.14 462.55 273.591 462.98 273.099C463.407 272.604 464.054 272.215 464.917 271.927C465.78 271.639 466.834 271.494 468.08 271.494C468.95 271.494 469.801 271.574 470.63 271.733C471.46 271.892 472.188 272.12 472.812 272.418L471.84 274.255C470.578 273.706 469.321 273.434 468.062 273.434C467.178 273.434 466.528 273.543 466.106 273.763C465.682 273.982 465.472 274.27 465.472 274.628C465.472 274.986 465.715 275.251 466.204 275.427C466.691 275.601 467.432 275.773 468.432 275.941C469.471 276.13 470.321 276.321 470.982 276.508C471.643 276.697 472.212 276.997 472.686 277.404C473.16 277.812 473.397 278.364 473.397 279.061C473.397 279.658 473.179 280.203 472.745 280.694C472.312 281.187 471.658 281.577 470.788 281.866C469.917 282.154 468.862 282.299 467.615 282.299C466.534 282.296 465.493 282.184 464.487 281.961ZM475.553 271.67H478.707V282.117H475.553V271.67ZM491.145 276.728H494.027V280.967C493.288 281.396 492.432 281.724 491.458 281.952C490.484 282.181 489.504 282.295 488.517 282.295C487.102 282.295 485.831 282.063 484.704 281.602C483.574 281.139 482.689 280.497 482.046 279.676C481.401 278.855 481.081 277.928 481.081 276.893C481.081 275.858 481.401 274.93 482.046 274.11C482.689 273.289 483.579 272.647 484.72 272.184C485.863 271.721 487.148 271.491 488.576 271.491C489.771 271.491 490.854 271.645 491.826 271.953C492.799 272.262 493.617 272.71 494.278 273.296L492.254 274.729C491.282 273.942 490.106 273.55 488.732 273.55C487.861 273.55 487.089 273.689 486.415 273.968C485.741 274.246 485.215 274.641 484.837 275.148C484.461 275.655 484.272 276.237 484.272 276.894C484.272 277.54 484.461 278.117 484.837 278.625C485.213 279.132 485.735 279.53 486.406 279.812C487.072 280.096 487.835 280.238 488.691 280.238C489.598 280.238 490.417 280.089 491.143 279.791L491.145 276.728ZM509.443 271.67V282.117H506.855L500.06 275.774V282.117H496.945V271.67H499.555L506.328 278.013V271.67H509.443Z" fill="white"/>
<path opacity="0.3" d="M588.806 247.884H571.835V306.541H588.806V247.884Z" fill="black"/>
<path d="M361.609 242.557L143.03 241.951V183.898H361.609V242.557Z" fill="#407BFF"/>
<path d="M174.066 218.324L171.438 215.413H171.282H168.538V218.324H165.384V207.875H171.282C172.49 207.875 173.538 208.03 174.427 208.338C175.316 208.646 176.001 209.084 176.481 209.652C176.96 210.22 177.201 210.891 177.201 211.667C177.201 212.443 176.959 213.112 176.472 213.674C175.984 214.237 175.294 214.667 174.397 214.965L177.453 218.324H174.066ZM173.269 210.315C172.775 210.001 172.056 209.845 171.108 209.845H168.539V213.486H171.108C172.056 213.486 172.775 213.327 173.269 213.008C173.762 212.689 174.008 212.242 174.008 211.665C174.008 211.08 173.762 210.629 173.269 210.315ZM190.243 216.382V218.322H179.692V207.874H189.989V209.815H182.826V212.084H189.154V213.964H182.826V216.382H190.243ZM207.452 219.442C207.011 219.86 206.476 220.179 205.846 220.398C205.216 220.617 204.526 220.726 203.774 220.726C202.761 220.726 201.848 220.559 201.029 220.226C200.212 219.893 199.277 219.303 198.227 218.457C196.994 218.338 195.893 218.034 194.927 217.547C193.96 217.06 193.206 216.429 192.669 215.66C192.13 214.889 191.862 214.035 191.862 213.099C191.862 212.074 192.182 211.151 192.825 210.33C193.467 209.51 194.356 208.865 195.492 208.398C196.627 207.931 197.903 207.696 199.316 207.696C200.729 207.696 202.003 207.931 203.131 208.398C204.261 208.866 205.15 209.51 205.798 210.33C206.448 211.151 206.772 212.074 206.772 213.099C206.772 214.313 206.328 215.378 205.439 216.293C204.55 217.209 203.372 217.845 201.905 218.204C202.229 218.463 202.544 218.649 202.85 218.764C203.155 218.879 203.483 218.936 203.833 218.936C204.676 218.936 205.416 218.676 206.052 218.159L207.452 219.442ZM195.606 214.83C195.977 215.337 196.486 215.733 197.134 216.016C197.784 216.3 198.51 216.442 199.314 216.442C200.118 216.442 200.846 216.3 201.494 216.016C202.144 215.732 202.651 215.337 203.022 214.83C203.392 214.323 203.576 213.745 203.576 213.099C203.576 212.453 203.39 211.875 203.022 211.368C202.651 210.861 202.142 210.465 201.494 210.181C200.844 209.897 200.118 209.757 199.314 209.757C198.51 209.757 197.782 209.899 197.134 210.181C196.484 210.465 195.977 210.861 195.606 211.368C195.236 211.875 195.053 212.453 195.053 213.099C195.051 213.745 195.236 214.323 195.606 214.83ZM210.654 217.263C209.57 216.438 209.03 215.258 209.03 213.726V207.874H212.184V213.636C212.184 215.506 213.195 216.442 215.221 216.442C216.206 216.442 216.96 216.215 217.479 215.762C217.997 215.309 218.256 214.6 218.256 213.635V207.872H221.371V213.724C221.371 215.256 220.831 216.436 219.747 217.261C218.664 218.088 217.149 218.5 215.201 218.5C213.252 218.501 211.737 218.089 210.654 217.263ZM224.485 207.875H227.639V218.324H224.485V207.875ZM239.551 218.324L236.923 215.413H236.767H234.022V218.324H230.868V207.875H236.767C237.975 207.875 239.023 208.03 239.912 208.338C240.801 208.646 241.486 209.084 241.966 209.652C242.445 210.22 242.686 210.891 242.686 211.667C242.686 212.443 242.443 213.112 241.956 213.674C241.469 214.237 240.779 214.667 239.882 214.965L242.938 218.324H239.551ZM238.752 210.315C238.258 210.001 237.539 209.845 236.591 209.845H234.022V213.486H236.591C237.539 213.486 238.258 213.327 238.752 213.008C239.245 212.689 239.491 212.242 239.491 211.665C239.491 211.08 239.245 210.629 238.752 210.315ZM255.726 216.382V218.322H245.175V207.874H255.472V209.815H248.309V212.084H254.637V213.964H248.309V216.382H255.726ZM270.638 218.324L270.62 212.054L266.608 217.219H265.188L261.197 212.189V218.324H258.237V207.875H260.845L265.945 214.367L270.968 207.875H273.557L273.596 218.324H270.638ZM287.379 216.382V218.322H276.828V207.874H287.125V209.815H279.961V212.084H286.288V213.964H279.961V216.382H287.379ZM302.387 207.875V218.324H299.798L293.005 211.98V218.324H289.89V207.875H292.497L299.272 214.218V207.875H302.387ZM308.439 209.845H304.078V207.874H315.953V209.845H311.593V218.322H308.439V209.845ZM318.903 218.166C317.898 217.942 317.088 217.65 316.479 217.293L317.549 215.471C318.133 215.799 318.827 216.063 319.631 216.262C320.437 216.462 321.241 216.56 322.044 216.56C322.941 216.56 323.602 216.458 324.03 216.255C324.457 216.05 324.672 215.779 324.672 215.441C324.672 215.192 324.546 214.987 324.294 214.822C324.041 214.657 323.717 214.525 323.32 214.427C322.924 214.328 322.389 214.217 321.715 214.098C320.676 213.909 319.826 213.72 319.164 213.531C318.503 213.342 317.935 213.038 317.462 212.621C316.988 212.203 316.751 211.647 316.751 210.949C316.751 210.343 316.966 209.794 317.394 209.299C317.822 208.807 318.468 208.416 319.331 208.128C320.194 207.84 321.25 207.695 322.494 207.695C323.365 207.695 324.215 207.774 325.045 207.935C325.876 208.094 326.602 208.322 327.224 208.621L326.252 210.457C324.993 209.909 323.735 209.636 322.476 209.636C321.592 209.636 320.94 209.745 320.518 209.964C320.096 210.183 319.887 210.471 319.887 210.83C319.887 211.188 320.129 211.454 320.616 211.628C321.103 211.803 321.846 211.975 322.846 212.144C323.885 212.333 324.735 212.523 325.396 212.71C326.058 212.899 326.626 213.197 327.098 213.606C327.572 214.014 327.81 214.566 327.81 215.263C327.81 215.86 327.593 216.405 327.158 216.898C326.722 217.391 326.071 217.781 325.202 218.069C324.331 218.358 323.274 218.502 322.029 218.502C320.95 218.501 319.909 218.39 318.903 218.166Z" fill="white"/>
<path opacity="0.3" d="M361.607 183.898H344.635V242.556H361.607V183.898Z" fill="black"/>
<path d="M340.762 267.728L349.995 274.615L340.762 281.502L331.53 288.389V280.693C330 280.742 328.252 280.779 326.293 280.779C322.93 280.779 319.037 280.674 314.964 280.358C303.589 279.47 291.627 277.988 281.374 270.628C276.113 266.848 272.644 262.332 270.772 256.821L285.965 253.785C287.099 257.119 288.994 259.604 292.107 261.841C298.191 266.209 305.393 267.509 316.553 268.38C322.476 268.843 327.982 268.776 331.528 268.644V260.843L340.762 267.728ZM528.277 330.026V337.828C524.731 337.961 519.225 338.027 513.302 337.564C502.142 336.692 494.94 335.391 488.856 331.025C485.741 328.788 483.848 326.303 482.715 322.969L467.521 326.005C469.393 331.516 472.862 336.032 478.123 339.812C488.374 347.171 500.338 348.654 511.713 349.541C515.786 349.86 519.68 349.963 523.042 349.963C525.001 349.963 526.75 349.926 528.279 349.877V357.573L537.512 350.686L546.744 343.799L537.512 336.912L528.277 330.026ZM725.025 399.213V407.015C721.478 407.148 715.972 407.213 710.049 406.75C698.889 405.879 691.687 404.578 685.603 400.211C682.488 397.975 680.595 395.49 679.462 392.156L664.268 395.192C666.14 400.703 669.609 405.218 674.871 408.998C685.121 416.358 697.085 417.841 708.46 418.728C712.533 419.046 716.428 419.15 719.789 419.15C721.748 419.15 723.497 419.113 725.026 419.063V426.76L734.259 419.873L743.491 412.986L734.259 406.099L725.025 399.213ZM989.712 470.304L980.48 463.417V471.218C976.932 471.35 971.428 471.417 965.505 470.954C954.345 470.082 947.142 468.782 941.059 464.415C937.944 462.179 936.051 459.694 934.917 456.36L919.724 459.395C921.596 464.906 925.065 469.422 930.326 473.202C940.577 480.562 952.541 482.044 963.914 482.932C967.987 483.25 971.881 483.354 975.243 483.354C977.202 483.354 978.95 483.317 980.48 483.267V490.963L989.712 484.076L998.945 477.19L989.712 470.304Z" fill="#407BFF"/>
<path d="M1096.92 382.542C1096.92 382.542 1079.14 419.064 1080.18 419.356C1081.21 419.648 1039.81 429.224 1039.81 429.224L1046.43 439.596C1046.43 439.596 1099.6 430.96 1103.15 427.6C1106.71 424.239 1119.29 385.216 1119.29 385.216L1096.92 382.542Z" fill="#B97964"/>
<path d="M1123.09 343.993C1132.47 349.24 1137.51 365.545 1108.52 397.285L1081.99 385.037C1081.99 385.037 1093.1 369.143 1101.64 355.45C1115.61 340.567 1123.09 343.993 1123.09 343.993Z" fill="#407BFF"/>
<path opacity="0.4" d="M1123.09 343.993C1132.47 349.24 1137.51 365.545 1108.52 397.285L1081.99 385.037C1081.99 385.037 1093.1 369.143 1101.64 355.45C1115.61 340.567 1123.09 343.993 1123.09 343.993Z" fill="white"/>
<path d="M1122.87 343.431C1130.32 343.076 1157.81 342.64 1188.23 347.322L1188.77 434.865C1188.77 434.865 1189.56 446.702 1191.53 458.587C1159.72 468.015 1118.81 465.22 1098.55 455.537C1098.76 455.921 1100.07 446.153 1102.05 431.847C1105.54 406.638 1111.12 367.337 1116.55 344.665C1116.7 344.104 1122.13 343.467 1122.87 343.431Z" fill="#407BFF"/>
<path opacity="0.4" d="M1122.87 343.431C1130.32 343.076 1157.81 342.64 1188.23 347.322L1188.77 434.865C1188.77 434.865 1189.56 446.702 1191.53 458.587C1159.72 468.015 1118.81 465.22 1098.55 455.537C1098.76 455.921 1100.07 446.153 1102.05 431.847C1105.54 406.638 1111.12 367.337 1116.55 344.665C1116.7 344.104 1122.13 343.467 1122.87 343.431Z" fill="white"/>
<path opacity="0.2" d="M1107.8 392.218L1112.58 363.81L1101.5 394.041L1106.76 396.472L1107.8 392.218Z" fill="black"/>
<path opacity="0.2" d="M1185.59 397.07L1183.91 397.238L1177.87 374.529L1180.67 400.018L1185.99 400.683L1185.59 397.07Z" fill="black"/>
<path d="M1204.21 378.416C1206.1 380.585 1218.28 431.595 1218.28 431.595L1196.1 435.216L1185.17 386.849L1204.21 378.416Z" fill="#B97964"/>
<path d="M1188.23 347.322C1188.23 347.322 1200.91 349.127 1203.79 360.634C1206.44 371.232 1213.89 394.788 1213.89 394.788L1183.91 397.766L1177.87 370.207L1188.23 347.322Z" fill="#407BFF"/>
<path opacity="0.4" d="M1188.23 347.322C1188.23 347.322 1200.91 349.127 1203.79 360.634C1206.44 371.232 1213.89 394.788 1213.89 394.788L1183.91 397.766L1177.87 370.207L1188.23 347.322Z" fill="white"/>
<path d="M1084.45 628.434L1072.6 652.954L1061.86 650.293L1065.56 624.412L1084.45 628.434Z" fill="#B97964"/>
<path d="M1071.11 646.869L1065.64 647.49L1065.27 645.383C1064.94 643.568 1063.64 642.412 1061.27 642.66C1060.11 642.781 1057.66 644.311 1057.56 645.576C1057.3 648.948 1053.16 650.033 1053.16 650.033C1053.16 650.033 1041.71 655.798 1038.08 655.952C1035.71 656.052 1033.51 656.754 1031.89 658.749C1031.43 659.32 1031.01 659.996 1030.65 660.794C1030.5 661.12 1030.36 661.47 1030.23 661.839C1030.1 662.21 1029.98 662.602 1029.87 663.016L1038.49 663.066L1055.73 663.165C1055.73 663.165 1057.99 662.849 1059.61 662.647C1060.14 662.58 1060.61 662.525 1060.9 662.501C1061.19 662.475 1061.53 662.508 1061.88 662.57C1062.91 662.756 1064.02 663.215 1064.02 663.215L1073.76 663.27C1073.76 663.27 1073.94 662.032 1074.21 660.23H1074.22C1074.34 659.418 1074.47 658.492 1074.62 657.514C1075.25 653.318 1076.23 648.028 1076.4 646.841C1076.69 644.758 1071.11 646.869 1071.11 646.869Z" fill="#263238"/>
<path d="M1047.47 652.165C1047.59 652.075 1047.77 652.067 1047.91 652.139C1048.55 652.468 1049.08 652.933 1049.44 653.512C1049.63 653.818 1049.05 654.109 1048.86 653.8C1048.54 653.285 1048.07 652.875 1047.51 652.585C1047.33 652.488 1047.3 652.288 1047.46 652.167C1047.46 652.167 1047.47 652.165 1047.47 652.165ZM1049.52 651.252C1049.36 651.371 1049.39 651.571 1049.58 651.668C1050.14 651.957 1050.6 652.368 1050.92 652.883C1051.12 653.191 1051.7 652.902 1051.51 652.595C1051.15 652.016 1050.61 651.551 1049.98 651.22C1049.84 651.148 1049.65 651.156 1049.53 651.246C1049.53 651.249 1049.52 651.252 1049.52 651.252ZM1051.66 650.397C1051.49 650.516 1051.52 650.716 1051.71 650.814C1052.27 651.104 1052.73 651.514 1053.05 652.028C1053.25 652.336 1053.83 652.047 1053.64 651.74C1053.28 651.161 1052.75 650.696 1052.11 650.365C1051.97 650.293 1051.78 650.302 1051.66 650.391C1051.66 650.394 1051.66 650.397 1051.66 650.397Z" fill="#407BFF"/>
<path d="M1161.78 624.066L1166.52 650.752L1177.86 651.191L1181.54 625.466L1161.78 624.066Z" fill="#B97964"/>
<path d="M1187.52 663.14H1162.15C1162.15 663.14 1161.59 662.323 1162.23 660.148C1162.32 659.809 1162.45 659.437 1162.62 659.03C1162.62 659.011 1162.63 658.989 1162.64 658.969C1162.88 658.367 1163.15 657.627 1163.44 656.828C1164.6 653.572 1165.97 649.316 1165.97 649.316C1165.97 649.316 1170.19 642.388 1175.13 644.118C1179.46 645.634 1178.43 649.978 1178.43 649.978C1178.43 649.978 1178.86 652.528 1182.14 654.776C1184.17 656.165 1186.19 657.241 1187.16 658.969C1187.35 659.293 1187.49 659.635 1187.59 660.009C1187.6 660.054 1187.62 660.101 1187.62 660.148C1187.82 660.98 1187.81 661.957 1187.52 663.14Z" fill="#263238"/>
<path d="M1177.41 651.07C1175.98 650.218 1174.11 650.329 1172.83 651.287C1172.48 651.545 1171.95 651.139 1172.3 650.881C1173.9 649.682 1176.19 649.616 1177.94 650.662C1178.32 650.891 1177.78 651.294 1177.41 651.07ZM1178.13 652.886C1178.5 653.11 1179.04 652.707 1178.66 652.48C1176.9 651.433 1174.62 651.5 1173.01 652.697C1172.67 652.955 1173.2 653.362 1173.54 653.103C1174.83 652.145 1176.7 652.034 1178.13 652.886ZM1178.84 654.556C1179.22 654.78 1179.75 654.377 1179.37 654.15C1177.62 653.103 1175.33 653.17 1173.73 654.368C1173.39 654.627 1173.92 655.033 1174.26 654.775C1175.55 653.815 1177.42 653.704 1178.84 654.556Z" fill="#407BFF"/>
<path d="M1187.99 454.803L1133.23 455.16L1099.89 454.384C1099.89 454.384 1076.47 531.764 1074.49 546.336C1072.5 560.908 1055.43 637.641 1055.43 637.641L1081.35 642.005C1081.35 642.005 1110.82 559.961 1112.95 552.077C1114.8 545.206 1135.28 501.152 1140.51 489.951C1141.04 492.246 1141.57 494.549 1142.12 496.835C1143.45 507.163 1147.69 540.093 1149.54 552.347C1149.54 552.347 1153.55 622.346 1158.21 642.673L1182.6 642.705C1185.82 613.847 1187.88 512.486 1187.88 512.486L1187.88 512.485C1189.69 490.469 1187.99 454.803 1187.99 454.803Z" fill="#263238"/>
<path d="M1113.56 465.954C1113.73 465.533 1114.59 465.715 1114.42 466.136C1111.24 474.172 1102.72 480.624 1092.2 482.972C1091.65 483.095 1091.41 482.434 1091.97 482.311C1102.18 480.031 1110.46 473.762 1113.56 465.954ZM1140.49 465.953C1140.22 469.049 1139.94 472.154 1139.67 475.25C1139.53 475.194 1139.36 475.206 1139.2 475.305C1137.78 476.264 1135.99 475.372 1135.29 474.314C1134.66 473.367 1134.53 472.177 1134.44 471.142C1134.26 469.104 1134.53 467.076 1135.18 465.094C1135.32 464.675 1134.46 464.488 1134.31 464.918C1133.39 467.738 1132.95 471.086 1134.13 473.906C1134.84 475.647 1137.42 477.222 1139.61 475.923C1139.31 479.437 1139.01 482.95 1138.69 486.454C1138.67 486.894 1139.56 486.894 1139.59 486.454C1140.19 479.623 1140.78 472.783 1141.38 465.954C1141.41 465.513 1140.52 465.513 1140.49 465.953ZM1167.57 467.117C1167.45 476.171 1176.54 483.753 1188.29 484.464C1188.86 484.498 1188.85 483.825 1188.29 483.791C1177.01 483.108 1168.33 475.781 1168.45 467.117C1168.46 466.684 1167.58 466.683 1167.57 467.117ZM1165.33 558.02C1168.99 559.055 1172.92 559.072 1176.59 558.068C1177.12 557.924 1176.89 557.273 1176.36 557.42C1172.82 558.387 1169.09 558.37 1165.56 557.371C1165.03 557.221 1164.8 557.871 1165.33 558.02Z" fill="black"/>
<path d="M1097.96 448.407C1127.23 451.413 1157.48 450.492 1188.55 446.29L1189.72 456.598C1157.6 460.876 1124.15 461.174 1096.93 456.899L1097.96 448.407Z" fill="#407BFF"/>
<path opacity="0.3" d="M1097.96 448.407C1127.23 451.413 1157.48 450.492 1188.55 446.29L1189.72 456.598C1157.6 460.876 1124.15 461.174 1096.93 456.899L1097.96 448.407Z" fill="black"/>
<path d="M1157 459.765C1157.21 460.766 1150.47 498.88 1164.99 500.527C1179.52 502.176 1205.49 496.646 1205.69 491.003C1205.88 485.36 1201.81 453.52 1195.03 453.52C1188.25 453.52 1157 459.765 1157 459.765Z" fill="#407BFF"/>
<path opacity="0.3" d="M1157 459.765C1157.21 460.766 1150.47 498.88 1164.99 500.527C1179.52 502.176 1205.49 496.646 1205.69 491.003C1205.88 485.36 1201.81 453.52 1195.03 453.52C1188.25 453.52 1157 459.765 1157 459.765Z" fill="black"/>
<path d="M1144.72 454.748C1143.92 454.583 1143.12 454.467 1142.31 454.373C1142.17 452.04 1141.82 449.811 1141.15 449.38C1140.79 449.148 1140.11 448.712 1128.28 449.172C1127.16 449.213 1126.25 449.927 1126.07 450.908C1124.45 459.738 1126.08 460.38 1126.78 460.652C1127.91 461.097 1131.67 461.343 1135.14 461.343C1137.78 461.343 1140.26 461.2 1141.27 460.892C1141.45 460.838 1141.98 460.677 1142.17 460.259C1142.33 459.917 1142.43 457.98 1142.37 455.829C1143 455.91 1143.62 455.991 1144.25 456.118C1144.33 456.135 1144.41 456.144 1144.49 456.144C1144.9 456.144 1145.27 455.935 1145.38 455.618C1145.51 455.239 1145.22 454.849 1144.72 454.748ZM1140.47 459.61C1138.72 460.072 1129.33 460.062 1127.67 459.411C1127.21 459.056 1126.9 456.55 1127.91 451.107C1127.96 450.795 1128.19 450.596 1128.37 450.589C1132.31 450.437 1135.24 450.38 1137.19 450.38C1138.68 450.38 1139.58 450.413 1139.89 450.458C1140.13 450.978 1140.33 452.537 1140.44 454.24C1138.2 454.13 1135.93 454.261 1133.67 454.694C1133.17 454.789 1132.87 455.175 1133 455.556C1133.12 455.935 1133.62 456.164 1134.12 456.071C1136.26 455.658 1138.4 455.543 1140.52 455.663C1140.6 457.375 1140.59 458.984 1140.47 459.61Z" fill="#263238"/>
<path opacity="0.3" d="M1158.56 468.888C1158.87 468.947 1198.5 465.797 1198.5 465.797C1198.5 465.797 1196.98 456.443 1194.62 455.755C1192.26 455.066 1162.82 457.551 1160.84 459.079C1158.87 460.605 1158.56 468.888 1158.56 468.888Z" fill="black"/>
<path d="M1173.83 435.209L1171.99 435.057L1171.94 435.446L1171.69 437.215C1171.68 437.286 1171.7 437.358 1171.74 437.428L1172.19 438.178C1172.3 438.344 1172.33 438.517 1172.31 438.689L1169.85 456.164L1170.88 456.247L1171.81 456.324L1174.26 438.875C1174.28 438.688 1174.39 438.51 1174.56 438.355L1175.25 437.726C1175.32 437.662 1175.36 437.588 1175.37 437.51L1175.62 435.752L1175.67 435.365L1173.83 435.209Z" fill="#E0E0E0"/>
<path d="M1174.71 455.773L1167.26 455.157C1166.58 455.1 1165.98 455.377 1165.92 455.774L1165.84 456.355C1165.78 456.753 1166.29 457.121 1166.98 457.177L1167.15 457.192C1166.37 458.94 1166.02 461.43 1165.64 464.184C1165.4 465.872 1164.98 467.184 1164.84 468.346L1173.39 467.683C1173.53 466.785 1173.63 466.008 1173.79 464.857C1174.18 462.102 1174.53 459.613 1174.26 457.777L1170.86 457.496L1174.43 457.791C1175.11 457.848 1175.71 457.571 1175.77 457.173L1175.85 456.592C1175.91 456.198 1175.4 455.83 1174.71 455.773Z" fill="#407BFF"/>
<path opacity="0.3" d="M1167.15 457.191L1174.26 457.779L1174.32 458.357L1166.91 457.801L1167.15 457.191Z" fill="black"/>
<path d="M1190.5 457.515C1189.48 456.65 1188.67 455.967 1188.52 455.328L1188.32 454.374L1189.29 453.279C1189.49 453.049 1189.57 452.768 1189.51 452.494L1188.48 447.944L1183.02 439.115C1182.98 439.05 1182.89 439.013 1182.8 439.025L1182.12 439.116L1181.69 439.173L1181.5 439.199L1181.29 439.226L1181.02 439.261L1180.34 439.352C1180.25 439.365 1180.18 439.423 1180.17 439.494L1178.9 449.218L1179.93 453.768C1179.99 454.042 1180.19 454.286 1180.48 454.45L1181.87 455.232L1182.1 456.182C1182.25 456.821 1181.79 457.673 1181.2 458.751C1180.17 460.646 1178.76 463.242 1179.2 467.201L1182.09 467.015C1181.71 463.596 1182.91 461.383 1183.88 459.604C1184.61 458.248 1185.25 457.078 1184.96 455.801L1184.78 455.015C1184.76 454.922 1184.84 454.836 1184.96 454.82L1185.08 454.805L1185.25 454.782C1185.36 454.766 1185.47 454.826 1185.49 454.915L1185.67 455.705C1185.96 456.98 1187.07 457.92 1188.36 459.006C1190.05 460.432 1192.15 462.206 1193.3 465.523L1196.1 464.952C1194.77 461.115 1192.3 459.035 1190.5 457.515ZM1184.47 452.047C1183.49 452.173 1182.55 451.828 1182.05 451.226C1181.88 451.024 1181.76 450.794 1181.7 450.543C1181.68 450.437 1181.67 450.332 1181.67 450.228C1181.67 450.194 1181.67 450.161 1181.67 450.127C1181.68 450.046 1181.69 449.967 1181.71 449.887C1181.73 449.82 1181.75 449.756 1181.78 449.692L1181.78 449.688C1181.88 449.438 1182.05 449.21 1182.27 449.017C1182.29 449.001 1182.3 448.984 1182.32 448.968C1182.39 448.91 1182.47 448.856 1182.55 448.805C1182.58 448.789 1182.6 448.775 1182.63 448.761C1182.71 448.713 1182.8 448.667 1182.89 448.627C1182.92 448.613 1182.96 448.601 1182.99 448.586C1183.07 448.555 1183.15 448.524 1183.23 448.501C1183.36 448.464 1183.49 448.434 1183.63 448.415C1183.63 448.417 1183.63 448.42 1183.63 448.42C1184.94 448.246 1186.2 448.909 1186.43 449.914C1186.45 450.04 1186.47 450.164 1186.46 450.287C1186.43 451.145 1185.62 451.892 1184.47 452.047Z" fill="#EBEBEB"/>
<path d="M1197.18 465.81L1193.1 466.134C1191.97 462.87 1189.81 460.566 1188.14 459.159C1186.82 458.045 1185.69 457.085 1185.38 455.745L1189.06 455.256C1189.19 455.831 1189.97 456.493 1190.96 457.331C1192.78 458.869 1196 461.526 1197.18 465.81ZM1181.56 456.253C1181.69 456.828 1181.25 457.655 1180.68 458.7C1179.64 460.617 1177.97 463.274 1178.41 467.287L1182.37 466.998C1182 463.633 1183.19 461.448 1184.14 459.691C1184.89 458.304 1185.54 457.105 1185.24 455.765L1181.56 456.253Z" fill="#407BFF"/>
<path d="M1231.09 430.172H1006.01V491.212H1231.09V430.172Z" fill="#407BFF"/>
<path opacity="0.3" d="M1231.09 430.172H1213.74V491.212H1231.09V430.172Z" fill="black"/>
<path d="M1041.62 467.339L1041.6 461.069L1037.59 466.235H1036.16L1032.17 461.204V467.339H1029.21V456.892H1031.82L1036.92 463.384L1041.94 456.892H1044.53L1044.57 467.339H1041.62ZM1056.78 465.101H1050.45L1049.25 467.339H1046.02L1052.09 456.892H1055.2L1061.3 467.339H1057.99L1056.78 465.101ZM1055.79 463.265L1053.63 459.265L1051.47 463.265H1055.79ZM1062.72 456.892H1065.87V467.339H1062.72V456.892ZM1081.6 456.892V467.339H1079.01L1072.22 460.996V467.339H1069.1V456.892H1071.71L1078.48 463.235V456.892H1081.6ZM1087.65 458.861H1083.29V456.892H1095.17V458.861H1090.81V467.34H1087.65V458.861ZM1107.41 465.399V467.339H1096.86V456.892H1107.16V458.832H1100V461.101H1106.32V462.981H1100V465.399H1107.41ZM1122.42 456.892V467.339H1119.83L1113.04 460.996V467.339H1109.92V456.892H1112.53L1119.3 463.235V456.892H1122.42ZM1134.63 465.101H1128.3L1127.09 467.339H1123.86L1129.93 456.892H1133.05L1139.14 467.339H1135.84L1134.63 465.101ZM1133.63 463.265L1131.47 459.265L1129.31 463.265H1133.63ZM1153.06 456.892V467.339H1150.48L1143.68 460.996V467.339H1140.57V456.892H1143.17L1149.95 463.235V456.892H1153.06ZM1159.05 466.825C1157.93 466.362 1157.04 465.72 1156.4 464.899C1155.76 464.078 1155.44 463.151 1155.44 462.116C1155.44 461.082 1155.76 460.154 1156.4 459.333C1157.04 458.512 1157.93 457.87 1159.05 457.407C1160.17 456.944 1161.43 456.714 1162.84 456.714C1164.02 456.714 1165.08 456.872 1166.04 457.191C1166.99 457.511 1167.79 457.968 1168.44 458.565L1166.42 459.997C1165.5 459.182 1164.35 458.775 1162.99 458.775C1162.15 458.775 1161.39 458.917 1160.73 459.201C1160.07 459.483 1159.55 459.88 1159.19 460.386C1158.81 460.893 1158.63 461.473 1158.63 462.119C1158.63 462.765 1158.81 463.341 1159.19 463.85C1159.55 464.357 1160.07 464.754 1160.73 465.037C1161.39 465.321 1162.15 465.463 1162.99 465.463C1164.35 465.463 1165.5 465.05 1166.42 464.223L1168.44 465.658C1167.79 466.265 1166.99 466.727 1166.03 467.046C1165.07 467.364 1164 467.523 1162.82 467.523C1161.43 467.518 1160.17 467.286 1159.05 466.825ZM1181.11 465.399V467.339H1170.56V456.892H1180.86V458.832H1173.7V461.101H1180.02V462.981H1173.7V465.399H1181.11Z" fill="white"/>
<path d="M1231.13 450.946C1231.13 450.946 1214.89 453.475 1213.25 456.071C1211.62 458.667 1216.98 458.526 1216.98 458.526C1216.98 458.526 1211.09 458.96 1210.99 460.901C1210.87 463.231 1216.49 463.063 1216.49 463.063C1216.49 463.063 1211.7 463.567 1211.77 465.298C1211.83 467.095 1218.19 467.251 1218.19 467.251C1218.19 467.251 1214.9 468.096 1215.84 469.28C1216.77 470.464 1230.25 470.998 1234.26 469.105C1238.27 467.214 1238.54 453.92 1237.82 451.01C1237.1 448.101 1235.2 446.222 1231.09 444.211L1231.13 450.946Z" fill="#B97964"/>
<path opacity="0.2" d="M1218.28 467.25C1218.27 467.13 1218.38 467.028 1218.52 467.025L1225.91 466.823C1226.05 466.819 1226.16 466.914 1226.17 467.035C1226.18 467.156 1226.07 467.257 1225.93 467.259L1218.54 467.461C1218.4 467.465 1218.28 467.37 1218.28 467.25ZM1216.99 458.744C1217 458.744 1217 458.744 1217.01 458.742L1227.23 457.611C1227.36 457.595 1227.46 457.486 1227.44 457.366C1227.42 457.247 1227.29 457.16 1227.16 457.177L1216.94 458.309C1216.8 458.325 1216.71 458.434 1216.73 458.553C1216.75 458.666 1216.86 458.747 1216.99 458.744ZM1216.53 463.068C1216.52 462.947 1216.63 462.845 1216.77 462.838L1226.69 462.349C1226.85 462.362 1226.95 462.434 1226.96 462.555C1226.97 462.674 1226.86 462.778 1226.73 462.785L1216.8 463.273C1216.8 463.273 1216.79 463.273 1216.79 463.273C1216.66 463.278 1216.54 463.187 1216.53 463.068Z" fill="black"/>
<path d="M1052.26 430.223C1052.26 430.223 1049.04 442.686 1045.66 443.953C1042.28 445.22 1042.44 441.107 1042.44 441.107C1042.44 441.107 1041.9 445.624 1039.37 445.708C1036.33 445.809 1036.52 441.502 1036.52 441.502C1036.52 441.502 1035.89 445.176 1033.63 445.134C1031.29 445.092 1031.05 440.218 1031.05 440.218C1031.05 440.218 1029.97 442.74 1028.42 442.03C1026.87 441.32 1026.11 430.984 1028.56 427.901C1031.01 424.819 1048.34 424.553 1052.14 425.091C1055.94 425.629 1058.4 427.072 1061.04 430.217L1052.26 430.223Z" fill="#B97964"/>
<path opacity="0.2" d="M1042.31 441.095C1042.31 441.088 1042.31 441.082 1042.31 441.076L1043.74 433.238C1043.76 433.133 1043.9 433.059 1044.06 433.072C1044.21 433.086 1044.32 433.187 1044.3 433.288L1042.88 441.126C1042.86 441.231 1042.71 441.305 1042.56 441.292C1042.41 441.278 1042.31 441.191 1042.31 441.095ZM1036.67 441.463C1036.83 441.468 1036.96 441.389 1036.97 441.282L1037.56 433.67C1037.54 433.547 1037.45 433.472 1037.29 433.466C1037.13 433.461 1037 433.54 1036.99 433.647L1036.4 441.259V441.264C1036.4 441.367 1036.52 441.455 1036.67 441.463ZM1031.21 440.143C1031.36 440.148 1031.5 440.064 1031.5 439.959L1031.73 434.291C1031.73 434.185 1031.61 434.097 1031.45 434.093C1031.3 434.088 1031.16 434.172 1031.16 434.279L1030.93 439.946C1030.93 440.051 1031.05 440.139 1031.21 440.143Z" fill="black"/>
<path d="M1162.7 344.336C1162.7 344.336 1160.98 337.043 1165.92 324.159C1165.92 324.145 1165.04 323.841 1165.04 323.827C1165.72 322.025 1166.44 320.36 1167.12 318.918C1167.14 318.877 1167.14 318.862 1167.14 318.862L1144.08 329.701C1144.6 333.828 1142.63 341.791 1141.46 345.154C1141.46 345.154 1138.53 351.241 1149.1 351.537C1156.83 351.754 1162.7 344.336 1162.7 344.336Z" fill="#B97964"/>
<path opacity="0.2" d="M1143.65 335.78L1156.91 333.528C1155.69 336.682 1152.03 340.415 1142.81 340.695C1142.81 340.695 1143.75 337.163 1143.65 335.78Z" fill="black"/>
<path d="M1128.32 299.454C1125.59 303.528 1124.59 312.501 1133.07 310.653C1141.56 308.807 1133.01 292.452 1128.32 299.454Z" fill="#263238"/>
<path d="M1167.36 310.574C1165.75 321.755 1165.14 328.085 1157.38 333.514C1145.71 341.68 1128.36 336.017 1125.57 324.662C1123.06 314.44 1126.11 297.873 1140.73 294.048C1155.13 290.278 1168.96 299.393 1167.36 310.574Z" fill="#B97964"/>
<path d="M1170.57 297.457C1168.95 291.204 1148.25 290.089 1142.41 293.037C1141.54 293.477 1153.21 298.529 1152.5 298.299L1158.04 300.002C1158.91 299.887 1160.57 300.726 1161.32 302.826C1161.32 302.826 1158.42 314.619 1164.46 319.832C1170.96 317.82 1172.83 315.896 1174.69 311.899C1177.47 305.942 1173.65 301.003 1170.57 297.457Z" fill="#263238"/>
<path d="M1172.54 320.134C1171.19 322.979 1168.25 325.066 1165.28 326.063C1160.81 327.564 1157.85 324.612 1158.49 321.094C1159.06 317.928 1162.07 313.333 1166.85 313.317C1171.56 313.304 1174.09 316.884 1172.54 320.134Z" fill="#B97964"/>
<path d="M1146.22 313.035C1146.15 314.182 1145.3 315.077 1144.32 315.034C1143.34 314.99 1142.6 314.024 1142.67 312.877C1142.75 311.73 1143.6 310.835 1144.58 310.878C1145.56 310.922 1146.29 311.887 1146.22 313.035ZM1129.88 310.558C1128.91 310.514 1128.05 311.409 1127.98 312.558C1127.91 313.705 1128.64 314.671 1129.62 314.715C1130.6 314.759 1131.46 313.863 1131.53 312.715C1131.6 311.568 1130.86 310.602 1129.88 310.558Z" fill="#263238"/>
<path d="M1136.34 312.256C1136.34 312.256 1131.25 317.783 1129.58 320.048C1131.57 321.567 1135.2 321.035 1135.2 321.035L1136.34 312.256Z" fill="#A24E3F"/>
<path opacity="0.2" d="M1162.51 320.377C1162.49 320.377 1162.46 320.376 1162.44 320.373C1162.18 320.342 1162.01 320.16 1162.05 319.965C1162.27 318.942 1162.83 317.976 1163.69 317.172C1164.27 316.626 1165.23 315.933 1166.54 315.737C1167.84 315.541 1169.18 315.95 1169.8 316.728C1169.93 316.895 1169.86 317.114 1169.64 317.216C1169.43 317.316 1169.14 317.266 1169 317.097C1168.59 316.577 1167.64 316.298 1166.72 316.434C1165.68 316.59 1164.89 317.167 1164.41 317.621C1163.66 318.33 1163.16 319.18 1162.97 320.08C1162.93 320.252 1162.73 320.377 1162.51 320.377Z" fill="black"/>
<path d="M1149.51 321.227L1136.8 324.61C1137.56 325.674 1138.34 326.75 1139.43 327.627C1140.53 328.503 1141.91 328.868 1143.49 328.895C1145.75 328.933 1147.87 327.929 1148.8 326.344C1149.73 324.761 1149.74 322.953 1149.51 321.227Z" fill="black"/>
<path d="M1137.82 324.338C1137.82 324.338 1138.7 325.556 1139.5 325.734C1140.3 325.911 1149.65 323.037 1149.65 323.037L1149.51 321.227L1137.82 324.338Z" fill="white"/>
<path d="M1141.87 328.729C1141.87 328.729 1142.49 327.006 1145.11 326.188C1147.73 325.369 1149.09 325.778 1149.09 325.778C1149.09 325.778 1148.33 327.82 1145.86 328.543C1143.4 329.264 1141.87 328.729 1141.87 328.729Z" fill="#DE5753"/>
<path d="M1126.66 300.888C1126.66 300.888 1137.04 284.389 1156.84 288.885C1176.64 293.379 1177.78 302.441 1175.05 311.457C1175.05 311.457 1156.63 304.324 1148.48 302.076C1140.32 299.827 1126.66 300.888 1126.66 300.888Z" fill="#407BFF"/>
<path opacity="0.2" d="M1126.66 300.888C1126.66 300.888 1137.04 284.389 1156.84 288.885C1176.64 293.379 1177.78 302.441 1175.05 311.457C1175.05 311.457 1156.63 304.324 1148.48 302.076C1140.32 299.827 1126.66 300.888 1126.66 300.888Z" fill="black"/>
<path d="M1137.84 298.624C1126.73 298.005 1122.7 297.596 1112.44 299.32C1110.79 299.596 1109.1 299.944 1107.81 300.769C1106.51 301.592 1105.72 303.018 1106.36 304.211C1106.79 304.999 1107.64 305.687 1108.69 305.991C1112.33 307.055 1120.82 308.235 1126.15 308.601L1127.6 304.693C1128.33 302.703 1130.61 301.253 1133.3 301.129C1136.96 300.962 1141.62 301.02 1145.45 301.839C1154.42 303.753 1161.84 306.089 1170.16 309.605C1163.47 305.267 1158.92 303.126 1150.35 300.769C1148.02 300.13 1144.5 298.995 1137.84 298.624Z" fill="#407BFF"/>
<path d="M1163.2 289.037C1162.54 288.486 1161.52 288.229 1160.56 288.297C1159.59 288.365 1158.68 288.739 1157.99 289.264L1163.69 291.114C1164.09 290.434 1163.85 289.588 1163.2 289.037Z" fill="#407BFF"/>
<path d="M1150.22 307.762C1149.99 307.825 1149.72 307.793 1149.52 307.66C1147.14 306.089 1144.65 306.605 1144.62 306.61C1144.25 306.691 1143.86 306.525 1143.75 306.241C1143.64 305.957 1143.85 305.661 1144.22 305.58C1144.36 305.551 1147.48 304.904 1150.43 306.853C1150.73 307.048 1150.76 307.386 1150.51 307.61C1150.43 307.681 1150.33 307.732 1150.22 307.762ZM1126 307.515C1128.31 305.929 1130.72 306.407 1130.84 306.439C1131.21 306.515 1131.59 306.348 1131.69 306.061C1131.79 305.774 1131.57 305.477 1131.2 305.398C1131.06 305.382 1127.95 304.729 1125.06 306.707C1124.78 306.904 1124.75 307.245 1125.01 307.468C1125.1 307.551 1125.22 307.606 1125.35 307.633C1125.57 307.677 1125.82 307.64 1126 307.515Z" fill="#263238"/>
<path d="M148.488 513.917C138.461 506.661 138.226 494.368 147.958 486.463L152.742 481.97L189.676 507.885L184.265 512.743C174.532 520.646 158.513 521.173 148.488 513.917Z" fill="#D4827D"/>
<path d="M382.715 356.277L340.835 325.967L147.168 483.285L189.049 513.595L382.715 356.277Z" fill="#263238"/>
<path d="M340.814 325.97L389.15 318.874L382.694 356.281L340.814 325.97Z" fill="#EEC1BB"/>
<path d="M374.632 321.005L387.211 330.109L389.437 319.522C389.544 319.012 388.948 318.58 388.288 318.691L374.632 321.005Z" fill="#407BFF"/>
<path opacity="0.2" d="M353.328 335.86L167.478 486.542L184.576 498.917L368.998 345.956C368.998 345.956 339.216 356.281 353.328 335.86Z" fill="white"/>
<path d="M185.102 515.601L144.437 486.169C142.867 485.031 142.795 483.133 144.278 481.929L144.323 481.892C145.806 480.687 148.282 480.632 149.853 481.769L190.517 511.2C192.088 512.338 192.16 514.236 190.676 515.441L190.632 515.477C189.148 516.683 186.672 516.738 185.102 515.601Z" fill="#263238"/>
<path opacity="0.3" d="M185.102 515.601L144.437 486.169C142.867 485.031 142.795 483.133 144.278 481.929L144.323 481.892C145.806 480.687 148.282 480.632 149.853 481.769L190.517 511.2C192.088 512.338 192.16 514.236 190.676 515.441L190.632 515.477C189.148 516.683 186.672 516.738 185.102 515.601Z" fill="white"/>
<path d="M190.828 511.433L150.166 482.002C148.595 480.865 148.523 478.966 150.006 477.762L150.051 477.725C151.534 476.521 154.01 476.466 155.581 477.603L196.243 507.034C197.814 508.171 197.886 510.07 196.403 511.274L196.358 511.311C194.875 512.515 192.399 512.57 190.828 511.433Z" fill="#263238"/>
<path opacity="0.2" d="M190.828 511.433L150.166 482.002C148.595 480.865 148.523 478.966 150.006 477.762L150.051 477.725C151.534 476.521 154.01 476.466 155.581 477.603L196.243 507.034C197.814 508.171 197.886 510.07 196.403 511.274L196.358 511.311C194.875 512.515 192.399 512.57 190.828 511.433Z" fill="white"/>
<path d="M195.949 507.274L155.285 477.843C153.714 476.706 153.642 474.807 155.125 473.603L155.17 473.566C156.653 472.362 159.129 472.306 160.7 473.444L201.362 502.875C202.933 504.012 203.005 505.911 201.522 507.115L201.477 507.152C199.996 508.356 197.52 508.411 195.949 507.274Z" fill="#263238"/>
<path opacity="0.3" d="M195.949 507.274L155.285 477.843C153.714 476.706 153.642 474.807 155.125 473.603L155.17 473.566C156.653 472.362 159.129 472.306 160.7 473.444L201.362 502.875C202.933 504.012 203.005 505.911 201.522 507.115L201.477 507.152C199.996 508.356 197.52 508.411 195.949 507.274Z" fill="white"/>
<path d="M340.814 325.97C338.181 328.551 336.277 331.286 335.005 334.133C334.671 334.879 334.406 335.721 334.847 336.434C335.54 337.554 337.501 337.724 339.118 337.683C344.466 337.547 348.263 337.181 353.328 335.86C351.571 338.381 349.611 340.765 347.661 343.72C347.013 344.704 346.404 345.836 346.874 346.876C347.554 348.38 350.019 348.832 352.093 348.896C359.077 349.114 360.801 348.154 368.463 346.421C370.472 347.095 368.326 349.827 367.328 352.772C366.137 356.28 367.498 359.455 371.461 359.297C374.419 359.179 380.792 358.022 382.692 356.28" fill="#EEC1BB"/>
<path d="M233.556 389.105C232.811 389.088 227.655 414.26 228.002 415C229.274 417.722 267.179 411.643 267.179 411.643L269.568 419.413C269.568 419.413 253.017 425.576 235.211 427.802C216.841 430.101 209.969 423.862 209.883 414.308C209.806 405.554 214.528 384.267 214.528 384.267L233.556 389.105Z" fill="#895555"/>
<path d="M321.892 525.964C316.549 486.187 310.517 463.236 307.615 453.645C307.613 453.642 307.613 453.641 307.613 453.638C306.521 450.03 305.869 448.303 305.869 448.303L305.508 448.382C302.193 440.29 300.67 437.806 297.077 433.265L238.956 439.53C230.361 448.162 229.376 461.615 229.978 475.913C231.556 498.281 238.358 531.447 239.025 538.99C239.064 538.991 239.665 538.988 239.703 538.99C239.658 544.762 234.961 564.218 234.956 572.884C234.934 602.408 239.478 648.722 239.478 648.722L242.973 656.686L254.787 649.824C254.787 649.824 275.133 546.192 275.391 540.045C275.418 539.362 275.455 538.666 275.492 537.965L276.292 527.228C276.522 524.602 276.774 521.893 277.024 519.128L285.715 539.785C280.632 556.687 274.878 609.608 278.482 652.11L293.886 650.433L316.46 561.977C318.725 552.209 323.296 536.413 321.892 525.964Z" fill="#895555"/>
<path d="M256.661 648.31H251.666C250.537 648.31 249.49 648.749 248.822 649.447C245.94 652.464 243.777 651.323 240.643 648.488C238.651 648.31 238.115 650.062 237.952 650.534L234.219 660.949C233.895 661.819 234.55 662.726 235.686 662.974C235.887 663.018 236.097 663.04 236.306 663.037C242.373 663.037 245.242 663.037 252.792 663.037H275.885C282.18 663.037 283.484 658.173 280.891 657.723C269.231 655.748 260.975 653.117 257.371 650.517C256.7 650.061 257.387 649.72 256.661 648.31Z" fill="#263238"/>
<path d="M267.501 651.272C268.027 650.982 268.342 650.518 268.349 650.021C268.394 649.754 268.234 649.493 267.942 649.346C266.377 648.496 260.13 650.734 259.43 650.996C259.352 651.018 259.291 651.065 259.263 651.124C259.211 651.235 259.286 651.356 259.43 651.396C260.965 651.674 262.534 651.829 264.11 651.858C265.293 651.945 266.481 651.739 267.501 651.272ZM267.549 649.709C267.677 649.77 267.742 649.883 267.712 649.997C267.686 650.355 267.46 650.687 267.092 650.91C265.673 651.722 262.249 651.373 260.406 651.11C263.001 650.234 266.686 649.246 267.549 649.709ZM259.641 651.447C261.517 650.846 265.447 648.483 265.234 647.233C265.201 646.971 264.956 646.658 264.108 646.57C260.684 646.271 259.215 650.984 259.215 651.184C259.182 651.265 259.213 651.353 259.297 651.41C259.362 651.424 259.428 651.424 259.493 651.41L259.641 651.447ZM263.995 646.958C264.63 647.008 264.63 647.184 264.63 647.246C264.81 648.009 261.956 649.973 259.917 650.798C260.341 649.697 261.597 646.947 263.766 646.947L263.995 646.958ZM255.885 653.716C255.8 653.716 255.715 653.697 255.639 653.662C255.422 653.557 255.357 653.338 255.495 653.172C256.495 651.954 258.204 651.109 260.067 650.913C260.312 650.891 260.552 651.022 260.588 651.217C260.623 651.411 260.445 651.591 260.191 651.617C258.598 651.783 257.135 652.506 256.278 653.548C256.189 653.658 256.041 653.716 255.885 653.716ZM258.991 655.508C258.906 655.508 258.821 655.489 258.745 655.454C258.528 655.349 258.463 655.129 258.6 654.964C259.6 653.746 261.308 652.901 263.171 652.705C263.414 652.682 263.656 652.814 263.691 653.009C263.727 653.203 263.549 653.384 263.295 653.409C261.701 653.575 260.239 654.298 259.382 655.34C259.295 655.45 259.145 655.508 258.991 655.508ZM262.854 657.013C262.769 657.013 262.684 656.995 262.608 656.959C262.391 656.854 262.327 656.634 262.464 656.468C263.466 655.249 265.175 654.406 267.036 654.21C267.277 654.19 267.521 654.319 267.557 654.514C267.592 654.708 267.414 654.889 267.16 654.914C265.568 655.08 264.104 655.803 263.247 656.847C263.158 656.956 263.006 657.013 262.854 657.013Z" fill="#407BFF"/>
<path opacity="0.3" d="M274.833 656.576L274.524 662.975H269.744L272.375 656.03L274.833 656.576Z" fill="black"/>
<path d="M294.661 648.543H289.666C288.536 648.543 287.49 648.982 286.821 649.68C283.941 652.696 281.774 651.556 278.643 648.72C276.65 648.543 276.115 650.295 275.952 650.767L272.218 661.182C271.894 662.053 272.55 662.959 273.685 663.207C273.887 663.251 274.096 663.273 274.305 663.27C280.372 663.27 283.241 663.27 290.792 663.27H313.883C320.177 663.27 321.481 658.406 318.888 657.956C307.228 655.981 298.972 653.35 295.368 650.748C294.699 650.294 295.387 649.953 294.661 648.543Z" fill="#263238"/>
<path d="M301.691 653.241C301.656 653.047 301.409 652.915 301.17 652.938C299.307 653.134 297.6 653.978 296.6 655.197C296.463 655.362 296.527 655.58 296.744 655.687C296.822 655.722 296.905 655.741 296.99 655.741C297.144 655.741 297.294 655.682 297.381 655.575C298.237 654.532 299.7 653.809 301.294 653.643C301.548 653.616 301.726 653.436 301.691 653.241Z" fill="#407BFF"/>
<path d="M305.034 654.444C303.172 654.64 301.463 655.484 300.461 656.702C300.324 656.868 300.391 657.088 300.606 657.193C300.683 657.229 300.767 657.247 300.852 657.247C301.006 657.247 301.156 657.189 301.243 657.083C302.1 656.039 303.563 655.316 305.156 655.15C305.41 655.123 305.587 654.943 305.552 654.749C305.519 654.553 305.28 654.423 305.034 654.444Z" fill="#407BFF"/>
<path d="M305.941 649.578C305.056 649.098 302.678 649.604 300.65 650.182C302.095 649.271 303.358 648.186 303.235 647.465C303.202 647.202 302.958 646.89 302.109 646.802C298.924 646.522 297.433 650.576 297.24 651.306C297.279 651.298 297.318 651.292 297.357 651.283C297.322 651.308 297.277 651.322 297.263 651.356C297.211 651.467 297.285 651.589 297.429 651.627C297.513 651.643 297.598 651.648 297.679 651.663C297.92 651.584 298.191 651.478 298.481 651.35C298.459 651.347 298.429 651.343 298.407 651.34C298.431 651.332 298.457 651.323 298.483 651.316C298.491 651.325 298.496 651.333 298.504 651.342C298.568 651.313 298.641 651.275 298.707 651.244C301.278 650.395 304.719 649.496 305.55 649.94C305.678 650.001 305.743 650.115 305.713 650.228C305.687 650.586 305.461 650.918 305.093 651.141C303.698 651.939 300.376 651.616 298.513 651.356C298.535 651.39 298.579 651.411 298.587 651.451C298.611 651.583 298.516 651.688 298.387 651.763C299.615 651.944 300.857 652.069 302.109 652.091C303.293 652.178 304.482 651.972 305.5 651.504C306.026 651.214 306.341 650.75 306.349 650.253C306.393 649.987 306.234 649.726 305.941 649.578ZM301.765 647.178L301.993 647.191C302.628 647.241 302.628 647.417 302.628 647.479C302.808 648.242 299.954 650.206 297.915 651.031C298.341 649.929 299.596 647.178 301.765 647.178Z" fill="#407BFF"/>
<path d="M298.502 651.342C298.496 651.345 298.489 651.349 298.481 651.351C298.491 651.353 298.502 651.354 298.513 651.356C298.51 651.35 298.504 651.347 298.502 651.342Z" fill="#407BFF"/>
<path d="M297.639 651.68L297.492 651.643C297.429 651.657 297.361 651.657 297.296 651.643C297.213 651.587 297.181 651.498 297.215 651.418C297.215 651.404 297.224 651.363 297.239 651.309C295.709 651.637 294.342 652.374 293.494 653.408C293.357 653.573 293.422 653.793 293.638 653.898C293.716 653.933 293.799 653.952 293.885 653.952C294.038 653.952 294.188 653.893 294.277 653.786C295.133 652.743 296.596 652.021 298.191 651.854C298.272 651.846 298.326 651.802 298.387 651.766C298.152 651.732 297.913 651.708 297.679 651.667C297.666 651.668 297.652 651.675 297.639 651.68Z" fill="#407BFF"/>
<path opacity="0.2" d="M239.443 542.098L239.704 538.99H275.441L274.779 544.45L239.443 542.098ZM285.38 538.99L285.715 539.785L284.382 544.975L319.883 547.501L321.446 538.99H285.38Z" fill="black"/>
<path d="M236.708 435.652C236.708 435.652 223.366 460.313 225.753 477.428C228.146 494.579 232.963 538.991 232.963 538.991H325.98C325.98 538.991 323.78 513.153 321.092 500.101C318.405 487.05 311.879 454.853 302.974 442.102C294.068 429.349 236.708 435.652 236.708 435.652Z" fill="#407BFF"/>
<path opacity="0.2" d="M275.931 516.183C269.859 495.692 259.437 490.056 255.461 486.458L279.174 527.063L275.931 516.183Z" fill="black"/>
<path d="M294.524 397.519C294.703 396.128 294.853 394.772 294.988 393.436L311.562 391.04C311.562 391.04 308.745 381.874 301.541 371.384C300.113 369.304 297.716 367.699 294.838 366.89C293.403 366.487 292.142 366.093 290.999 365.724C288.69 364.635 285.614 363.728 281.593 362.722C275.657 361.238 268.725 360.053 268.725 360.053L250.687 359.296C250.687 359.296 228.52 363.238 220.051 368.641C213.637 371.322 210.645 388.762 210.645 388.762L226.874 394.155C228.389 397.926 233.335 412.527 233.754 413.855C236.147 421.442 236.41 423.243 236.893 427.575C236.223 430.972 232.707 440.065 231.226 443.54C231.226 443.54 254.389 460.468 305.574 444.111L296.757 426.368C295.212 419.101 293.977 401.752 294.524 397.519Z" fill="#407BFF"/>
<path opacity="0.4" d="M294.524 397.519C294.703 396.128 294.853 394.772 294.988 393.436L311.562 391.04C311.562 391.04 308.745 381.874 301.541 371.384C300.113 369.304 297.716 367.699 294.838 366.89C293.403 366.487 292.142 366.093 290.999 365.724C288.69 364.635 285.614 363.728 281.593 362.722C275.657 361.238 268.725 360.053 268.725 360.053L250.687 359.296C250.687 359.296 228.52 363.238 220.051 368.641C213.637 371.322 210.645 388.762 210.645 388.762L226.874 394.155C228.389 397.926 233.335 412.527 233.754 413.855C236.147 421.442 236.41 423.243 236.893 427.575C236.223 430.972 232.707 440.065 231.226 443.54C231.226 443.54 254.389 460.468 305.574 444.111L296.757 426.368C295.212 419.101 293.977 401.752 294.524 397.519Z" fill="black"/>
<path d="M350.128 381.222C350.128 381.222 346.95 383.994 345.257 384.47C344.035 384.813 339.503 385.378 337.088 385.266C334.525 385.147 334.469 382.104 334.469 382.104L333.501 382.107C333.501 382.107 331.493 383.237 330.623 384.798C329.817 386.243 331.202 390.755 332.275 391.999L331.473 392.885L331.334 392.839L317.218 407.099L309.056 391.404L289.358 394.251C289.358 394.251 298.424 412.62 303.863 420.318C309.799 428.718 319.62 430.806 326.897 418.8C330.041 413.611 333.564 408.465 336.458 404.404L336.516 404.469L343.883 394.316C343.883 394.316 350.056 386.857 350.13 385.38L349.889 384.816C349.889 384.816 350.793 384.037 350.961 382.911C351.13 381.784 350.128 381.222 350.128 381.222Z" fill="#895555"/>
<path d="M249.563 340.518C251.146 346.589 254.757 358.732 249.277 362.8C249.277 362.8 251.479 368.872 266.112 368.872C282.187 368.872 273.746 362.8 273.746 362.8C264.956 361.197 265.13 356.206 266.634 351.52L249.563 340.518Z" fill="#B97964"/>
<path d="M282.691 329.381C282.497 329.379 282.31 329.32 282.171 329.216C281.897 329.001 281.897 328.659 282.171 328.446C283.812 327.229 286.11 326.683 288.36 326.974C288.736 327.04 288.971 327.327 288.886 327.617C288.884 327.623 288.882 327.628 288.881 327.634C288.801 327.924 288.43 328.11 288.053 328.049C288.047 328.047 288.043 328.047 288.038 328.046C286.251 327.804 284.423 328.246 283.139 329.229C283.023 329.324 282.862 329.378 282.691 329.381Z" fill="#263238"/>
<path d="M284.88 336.41C285.308 338.669 286.141 340.873 287.356 342.957C285.932 343.407 284.321 343.346 282.962 342.793L284.88 336.41Z" fill="#773737"/>
<path d="M288.845 333.149L285.83 333.26C285.843 333.276 285.858 333.281 285.871 333.296C285.177 333.284 284.53 333.838 284.269 334.663C284 335.571 284.412 336.424 285.184 336.562C285.956 336.699 286.799 336.08 286.979 335.186C287.084 334.66 287.003 334.169 286.777 333.805C287.767 333.942 288.845 333.149 288.845 333.149Z" fill="#263238"/>
<path d="M245.572 324.345C243.114 335.639 241.767 340.372 247.366 347.415C255.798 357.994 274.385 357.924 281.167 347.415C287.284 337.992 290.262 321.113 277.417 314.111C268.37 309.092 255.73 310.645 249.183 317.582C247.292 319.583 246.055 321.902 245.572 324.345Z" fill="#895555"/>
<path d="M263.673 308.769C275.961 304.899 288.793 307.494 290.031 317.288C291.27 327.083 276.881 336.41 276.881 336.41L263.673 308.769Z" fill="#263238"/>
<path d="M269.596 334.194C269.259 336.4 270.064 338.616 271.838 340.371C274.224 342.669 277.633 341.458 278.835 338.845C279.93 336.492 279.984 332.448 276.7 331.086C274.303 330.14 271.361 330.863 270.127 332.701C269.816 333.165 269.635 333.673 269.596 334.194Z" fill="#895555"/>
<path opacity="0.3" d="M275.648 339.906C275.544 339.906 275.442 339.879 275.355 339.826C273.824 338.871 272.896 337.336 272.935 335.822C272.951 335.198 273.126 334.701 273.468 334.307C273.929 333.774 274.713 333.477 275.441 333.55C275.694 333.575 275.874 333.753 275.841 333.947C275.807 334.142 275.566 334.277 275.322 334.254C274.941 334.213 274.502 334.396 274.237 334.7C273.994 334.978 273.872 335.35 273.859 335.835C273.826 337.137 274.622 338.455 275.939 339.275C276.137 339.399 276.168 339.623 276.005 339.775C275.917 339.862 275.783 339.906 275.648 339.906Z" fill="black"/>
<path opacity="0.3" d="M221.692 374.106C221.788 374.342 225.255 389.917 232.298 391.338C235.654 392.015 262.58 391.643 262.58 391.643L264.966 388.772L269.018 391.643H286.127L276.35 378.588L277.348 357.268L221.692 374.106Z" fill="black"/>
<path d="M274.259 336.107C280.304 327.288 276.876 311.34 263.521 308.351C251.513 305.663 232.474 308.416 233.193 324.896C233.911 341.377 228.892 339.652 223.468 350.235C217.773 361.346 219.443 375.972 229.074 387.944H255.669L260.521 382.587L266.269 387.944H289.356C277.961 375.822 284.773 371.089 286.154 360.084C287.536 349.079 269.062 343.689 274.259 336.107Z" fill="#263238"/>
<path d="M246.916 311.394C246.205 310.133 244.76 308.997 242.973 308.909C242.055 308.863 241.158 309.096 240.288 309.326L240.125 310.196C239.427 311.561 237.991 312.612 236.917 313.825C235.843 315.037 235.128 316.659 236.041 317.945C236.724 318.908 238.175 319.429 239.597 319.544C242.179 319.755 244.844 318.753 246.29 317.101C247.736 315.448 247.946 313.221 246.916 311.394Z" fill="#407BFF"/>
<path d="M243.805 317.545C244.681 316.071 245.283 312.713 244.875 311.457C244.275 309.604 242.581 308.058 240.638 306.865C239.653 306.259 238.576 305.721 237.38 305.411C235.417 304.903 233.265 305.043 231.243 305.388C228.95 305.779 226.663 306.46 224.996 307.73C222.734 309.454 221.933 312.213 223.027 314.51C224.122 316.808 227.052 318.522 230.231 318.724C228.242 319.165 226.348 319.862 224.653 320.775C224.503 320.856 224.344 320.954 224.325 321.093C224.309 321.226 224.427 321.343 224.549 321.439C225.596 322.265 227.192 322.567 228.691 322.501C230.189 322.434 231.628 322.041 233.041 321.653C232.604 322.766 232.167 323.881 231.732 324.994C231.596 325.338 231.461 325.703 231.589 326.048C231.876 326.829 233.235 326.994 234.276 326.85C237.462 326.414 240.077 324.555 241.632 322.38C242.705 320.876 243.332 319.226 243.805 317.545Z" fill="#263238"/>
</svg>
