<svg width="30" height="30" viewBox="0 0 30 30" fill="none" xmlns="http://www.w3.org/2000/svg">
<path d="M23.2321 12.9669C23.2321 10.9791 21.6207 9.36719 19.6324 9.36719H10.368C8.37977 9.36719 6.76831 10.9787 6.76831 12.9669V17.0321C6.76831 19.0203 8.38018 20.6318 10.368 20.6318H19.6324C21.6207 20.6318 23.2321 19.0203 23.2321 17.0321V12.9669ZM18.1374 15.1068L13.994 17.1489C13.8323 17.2365 13.2668 17.1193 13.2668 16.9351V12.7431C13.2668 12.5568 13.8369 12.4396 13.9985 12.5321L17.9572 14.6816C18.1234 14.7766 18.3052 15.0159 18.1374 15.1068Z" fill="url(#paint0_linear_97_3789)"/>
<path d="M15 30C6.72882 30 0 23.2708 0 15C0 6.72882 6.72882 0 15 0C23.2712 0 30 6.72882 30 15C30 23.2708 23.2708 30 15 30ZM15 1.15368C7.36509 1.15368 1.15368 7.36509 1.15368 15C1.15368 22.6349 7.36509 28.8463 15 28.8463C22.6349 28.8463 28.8463 22.6349 28.8463 15C28.8459 7.36509 22.6349 1.15368 15 1.15368Z" fill="url(#paint1_linear_97_3789)"/>
<defs>
<linearGradient id="paint0_linear_97_3789" x1="14.9999" y1="9.36743" x2="14.9999" y2="20.6322" gradientUnits="userSpaceOnUse">
<stop stop-color="#22FFFF"/>
<stop offset="1" stop-color="#2263FF"/>
</linearGradient>
<linearGradient id="paint1_linear_97_3789" x1="14.9999" y1="-0.000123389" x2="14.9999" y2="29.9999" gradientUnits="userSpaceOnUse">
<stop stop-color="#22FFFF"/>
<stop offset="1" stop-color="#2263FF"/>
</linearGradient>
</defs>
</svg>
