<svg width="30" height="30" viewBox="0 0 30 30" fill="none" xmlns="http://www.w3.org/2000/svg">
<path d="M20.1358 10.7481C20.1358 11.2581 19.7225 11.6715 19.2125 11.6715C18.7025 11.6715 18.2891 11.2581 18.2891 10.7481C18.2891 10.2381 18.7025 9.82475 19.2125 9.82475C19.7225 9.82475 20.1358 10.2381 20.1358 10.7481ZM18.9863 14.8866C18.9863 17.0249 17.2465 18.7647 15.1085 18.7647C12.9702 18.7647 11.2304 17.0249 11.2304 14.8866C11.2304 12.7482 12.9702 11.0089 15.1085 11.0089C17.2465 11.0089 18.9863 12.7487 18.9863 14.8866ZM17.5924 14.8866C17.5924 13.517 16.4778 12.4024 15.1081 12.4024C13.7385 12.4024 12.6239 13.517 12.6239 14.8866C12.6239 16.2566 13.7385 17.3708 15.1081 17.3708C16.4782 17.3708 17.5924 16.2566 17.5924 14.8866ZM22.9573 11.7714C22.9573 9.15927 20.8396 7.0415 18.227 7.0415H11.7725C9.15996 7.0415 7.0426 9.15927 7.0426 11.7714V18.2263C7.0426 20.8385 9.16037 22.9562 11.7725 22.9562H18.227C20.8396 22.9562 22.9573 20.8385 22.9573 18.2263V11.7714ZM21.4047 18.1552C21.4047 19.9492 19.9499 21.4036 18.1559 21.4036H11.8437C10.0496 21.4036 8.59484 19.9492 8.59484 18.1552V11.8426C8.59484 10.0485 10.0492 8.59415 11.8437 8.59415H18.1559C19.9499 8.59415 21.4047 10.0485 21.4047 11.8426V18.1552Z" fill="url(#paint0_linear_97_3820)"/>
<path d="M15 30C6.72882 30 0 23.2712 0 15C0 6.72882 6.72882 0 15 0C23.2712 0 30 6.72882 30 15C30 23.2712 23.2712 30 15 30ZM15 1.15369C7.36509 1.15369 1.15368 7.3651 1.15368 15C1.15368 22.6349 7.36509 28.8463 15 28.8463C22.6349 28.8463 28.8463 22.6349 28.8463 15C28.8463 7.3651 22.6349 1.15369 15 1.15369Z" fill="url(#paint1_linear_97_3820)"/>
<defs>
<linearGradient id="paint0_linear_97_3820" x1="15" y1="7.04142" x2="15" y2="22.9563" gradientUnits="userSpaceOnUse">
<stop stop-color="#22FFFF"/>
<stop offset="1" stop-color="#2263FF"/>
</linearGradient>
<linearGradient id="paint1_linear_97_3820" x1="15" y1="-8.22594e-05" x2="15" y2="29.9999" gradientUnits="userSpaceOnUse">
<stop stop-color="#22FFFF"/>
<stop offset="1" stop-color="#2263FF"/>
</linearGradient>
</defs>
</svg>
