<svg width="30" height="30" viewBox="0 0 30 30" fill="none" xmlns="http://www.w3.org/2000/svg">
<path d="M8.13007 11.0465H11.0782V20.5166H8.13007V11.0465ZM9.60457 6.34082C10.5473 6.34082 11.311 7.10583 11.311 8.04647C11.311 8.98834 10.5473 9.75459 9.60457 9.75459C8.65941 9.75459 7.89563 8.98875 7.89563 8.04647C7.89563 7.10542 8.65941 6.34082 9.60457 6.34082ZM12.925 20.5166H15.867V15.8323C15.867 14.5972 16.1006 13.4012 17.6331 13.4012C19.1413 13.4012 19.1627 14.8135 19.1627 15.9125V20.5166H22.1043V15.3227C22.1043 12.7723 21.5548 10.812 18.5745 10.812C17.1412 10.812 16.1808 11.5964 15.7872 12.3417H15.7489V11.0461H12.9254L12.925 20.5166Z" fill="url(#paint0_linear_97_3784)"/>
<path d="M15 30C6.72882 30 0 23.2712 0 15C0 6.72882 6.72882 0 15 0C23.2712 0 30 6.72882 30 15C30 23.2708 23.2712 30 15 30ZM15 1.15368C7.36509 1.15368 1.15369 7.36509 1.15369 15C1.15369 22.6349 7.36509 28.8463 15 28.8463C22.6349 28.8463 28.8463 22.6349 28.8463 15C28.8463 7.36468 22.6349 1.15368 15 1.15368Z" fill="url(#paint1_linear_97_3784)"/>
<defs>
<linearGradient id="paint0_linear_97_3784" x1="15" y1="6.3407" x2="15" y2="20.5167" gradientUnits="userSpaceOnUse">
<stop stop-color="#22FFFF"/>
<stop offset="1" stop-color="#2263FF"/>
</linearGradient>
<linearGradient id="paint1_linear_97_3784" x1="15" y1="-0.000164519" x2="15" y2="29.9998" gradientUnits="userSpaceOnUse">
<stop stop-color="#22FFFF"/>
<stop offset="1" stop-color="#2263FF"/>
</linearGradient>
</defs>
</svg>
