<svg width="30" height="30" viewBox="0 0 30 30" fill="none" xmlns="http://www.w3.org/2000/svg">
<path d="M22.8653 10.0389C22.3618 10.2668 21.7897 10.405 21.2464 10.4963C21.5043 10.4527 21.8757 9.98584 22.0279 9.79706C22.2598 9.50915 22.4482 9.18052 22.5568 8.82599C22.5708 8.79843 22.579 8.76347 22.5515 8.74249C22.5165 8.72851 22.493 8.73591 22.4655 8.74948C21.8592 9.07482 21.2312 9.31049 20.5637 9.47748C20.5081 9.49146 20.467 9.47748 20.432 9.44252C20.3769 9.38 20.3247 9.32119 20.2659 9.27265C19.9854 9.03369 19.6839 8.84655 19.3446 8.70835C18.8987 8.52656 18.4117 8.44965 17.9318 8.48091C17.4649 8.51134 17.0059 8.64296 16.5913 8.85971C16.1759 9.07688 15.8054 9.37877 15.5101 9.74277C15.2049 10.1195 14.9795 10.5645 14.8643 11.0363C14.7529 11.4916 14.7619 11.942 14.8302 12.4018C14.8405 12.4783 14.8335 12.4886 14.7648 12.4783C12.1526 12.0896 9.98756 11.1552 8.23009 9.15214C8.15359 9.06495 8.11246 9.06495 8.04953 9.15872C7.28041 10.3116 7.65387 12.1641 8.61424 13.0743C8.74257 13.1956 8.87419 13.3169 9.01608 13.4276C8.96426 13.4383 8.3251 13.3688 7.75504 13.0743C7.67854 13.0261 7.64029 13.0537 7.63371 13.1405C7.62672 13.2651 7.63741 13.3795 7.65428 13.5148C7.80193 14.6833 8.61136 15.7642 9.7194 16.1861C9.85101 16.2413 9.99661 16.2902 10.1385 16.3141C9.88597 16.3696 9.62604 16.4091 8.90174 16.3523C8.81167 16.335 8.77712 16.3799 8.81166 16.4666C9.35581 17.9498 10.5305 18.3911 11.4102 18.6428C11.5279 18.6634 11.6459 18.6634 11.764 18.6909C11.757 18.7016 11.7496 18.7016 11.743 18.7119C11.451 19.1569 10.4396 19.488 9.96823 19.6526C9.1115 19.952 8.17827 20.0869 7.273 19.9972C7.12782 19.9758 7.09779 19.9775 7.05831 19.9972C7.01841 20.0219 7.05337 20.0565 7.09985 20.0939C7.2837 20.2152 7.47084 20.323 7.66127 20.427C8.23626 20.7318 8.83593 20.9745 9.46316 21.1476C12.7009 22.0418 16.3483 21.3849 18.779 18.9694C20.6879 17.0725 21.357 14.4566 21.357 11.8375C21.357 11.7351 21.478 11.6783 21.5499 11.6245C22.0468 11.251 22.4766 10.8047 22.8472 10.3058C22.9303 10.194 22.9603 10.0944 22.9603 10.0533C22.9603 10.0463 22.9603 10.0393 22.9603 10.0393C22.9595 9.99736 22.9298 10.0097 22.8653 10.0389Z" fill="url(#paint0_linear_97_3815)"/>
<path d="M15 30C6.72882 30 0 23.2712 0 15C0 6.72882 6.72882 0 15 0C23.2712 0 30 6.72882 30 15C30 23.2712 23.2712 30 15 30ZM15 1.1541C7.36509 1.1541 1.15368 7.36551 1.15368 15.0004C1.15368 22.6353 7.36509 28.8467 15 28.8467C22.6349 28.8467 28.8463 22.6353 28.8463 15.0004C28.8463 7.36551 22.6349 1.1541 15 1.1541Z" fill="url(#paint1_linear_97_3815)"/>
<defs>
<linearGradient id="paint0_linear_97_3815" x1="14.9999" y1="8.47432" x2="14.9999" y2="21.5291" gradientUnits="userSpaceOnUse">
<stop stop-color="#22FFFF"/>
<stop offset="1" stop-color="#2263FF"/>
</linearGradient>
<linearGradient id="paint1_linear_97_3815" x1="14.9999" y1="0.000123389" x2="14.9999" y2="30.0001" gradientUnits="userSpaceOnUse">
<stop stop-color="#22FFFF"/>
<stop offset="1" stop-color="#2263FF"/>
</linearGradient>
</defs>
</svg>
